G04*
G04 #@! TF.GenerationSoftware,Altium Limited,Altium Designer,21.6.4 (81)*
G04*
G04 Layer_Physical_Order=2*
G04 Layer_Color=36540*
%FSLAX44Y44*%
%MOMM*%
G71*
G04*
G04 #@! TF.SameCoordinates,E4B945DB-FB87-47C5-857E-45FB9DAC6770*
G04*
G04*
G04 #@! TF.FilePolarity,Positive*
G04*
G01*
G75*
%ADD186C,1.6500*%
%ADD187R,1.6500X1.6500*%
%ADD189C,1.1000*%
%ADD190R,1.9500X1.9500*%
%ADD192C,0.5000*%
%ADD193C,0.4000*%
G36*
X1209040Y1299D02*
X1299D01*
X1299Y551151D01*
X1209040D01*
Y1299D01*
D02*
G37*
%LPC*%
G36*
X967216Y549850D02*
X965724D01*
X964346Y549279D01*
X963291Y548224D01*
X962720Y546846D01*
Y545354D01*
X963291Y543976D01*
X964346Y542921D01*
X965724Y542350D01*
X967216D01*
X968594Y542921D01*
X969649Y543976D01*
X970220Y545354D01*
Y546846D01*
X969649Y548224D01*
X968594Y549279D01*
X967216Y549850D01*
D02*
G37*
G36*
X1137692Y546730D02*
X1128173D01*
Y537210D01*
X1137692D01*
Y546730D01*
D02*
G37*
G36*
X1125632D02*
X1116113D01*
Y537210D01*
X1125632D01*
Y546730D01*
D02*
G37*
G36*
X1035288Y541214D02*
X1033796D01*
X1032418Y540643D01*
X1031363Y539588D01*
X1030792Y538210D01*
Y536718D01*
X1031363Y535340D01*
X1032418Y534285D01*
X1033796Y533714D01*
X1035288D01*
X1036666Y534285D01*
X1037721Y535340D01*
X1038292Y536718D01*
Y538210D01*
X1037721Y539588D01*
X1036666Y540643D01*
X1035288Y541214D01*
D02*
G37*
G36*
X234426Y535880D02*
X232934D01*
X231556Y535309D01*
X230501Y534254D01*
X229930Y532876D01*
Y531384D01*
X230501Y530006D01*
X231556Y528951D01*
X232934Y528380D01*
X234426D01*
X235804Y528951D01*
X236859Y530006D01*
X237430Y531384D01*
Y532876D01*
X236859Y534254D01*
X235804Y535309D01*
X234426Y535880D01*
D02*
G37*
G36*
X558513Y534757D02*
X557021D01*
X555643Y534186D01*
X554588Y533131D01*
X554017Y531753D01*
Y530261D01*
X554588Y528883D01*
X555643Y527828D01*
X557021Y527257D01*
X558513D01*
X559891Y527828D01*
X560946Y528883D01*
X561517Y530261D01*
Y531753D01*
X560946Y533131D01*
X559891Y534186D01*
X558513Y534757D01*
D02*
G37*
G36*
X1102753Y545440D02*
X1100252D01*
X1097836Y544793D01*
X1095669Y543542D01*
X1093901Y541773D01*
X1092650Y539607D01*
X1092002Y537191D01*
Y534689D01*
X1092650Y532273D01*
X1093901Y530107D01*
X1095669Y528338D01*
X1097836Y527087D01*
X1100252Y526440D01*
X1102753D01*
X1105169Y527087D01*
X1107336Y528338D01*
X1109104Y530107D01*
X1110355Y532273D01*
X1111003Y534689D01*
Y537191D01*
X1110355Y539607D01*
X1109104Y541773D01*
X1107336Y543542D01*
X1105169Y544793D01*
X1102753Y545440D01*
D02*
G37*
G36*
X1077353D02*
X1074852D01*
X1072436Y544793D01*
X1070269Y543542D01*
X1068501Y541773D01*
X1067250Y539607D01*
X1066602Y537191D01*
Y534689D01*
X1067250Y532273D01*
X1068501Y530107D01*
X1070269Y528338D01*
X1072436Y527087D01*
X1074852Y526440D01*
X1077353D01*
X1079769Y527087D01*
X1081936Y528338D01*
X1083704Y530107D01*
X1084955Y532273D01*
X1085602Y534689D01*
Y537191D01*
X1084955Y539607D01*
X1083704Y541773D01*
X1081936Y543542D01*
X1079769Y544793D01*
X1077353Y545440D01*
D02*
G37*
G36*
X1137692Y534670D02*
X1128173D01*
Y525150D01*
X1137692D01*
Y534670D01*
D02*
G37*
G36*
X1125632D02*
X1116113D01*
Y525150D01*
X1125632D01*
Y534670D01*
D02*
G37*
G36*
X401829Y536560D02*
X400051D01*
X398335Y536100D01*
X396795Y535211D01*
X395539Y533955D01*
X394650Y532415D01*
X394190Y530699D01*
Y528921D01*
X394650Y527205D01*
X395539Y525665D01*
X396795Y524409D01*
X398335Y523520D01*
X400051Y523060D01*
X401829D01*
X403545Y523520D01*
X405085Y524409D01*
X406341Y525665D01*
X407230Y527205D01*
X407690Y528921D01*
Y530699D01*
X407230Y532415D01*
X406341Y533955D01*
X405085Y535211D01*
X403545Y536100D01*
X401829Y536560D01*
D02*
G37*
G36*
X385864Y536830D02*
X384016D01*
X382230Y536352D01*
X380630Y535427D01*
X379323Y534120D01*
X378399Y532520D01*
X377920Y530734D01*
Y528886D01*
X378399Y527100D01*
X379323Y525500D01*
X380630Y524193D01*
X382230Y523268D01*
X384016Y522790D01*
X385864D01*
X387650Y523268D01*
X389250Y524193D01*
X390558Y525500D01*
X391482Y527100D01*
X391960Y528886D01*
Y530734D01*
X391482Y532520D01*
X390558Y534120D01*
X389250Y535427D01*
X387650Y536352D01*
X385864Y536830D01*
D02*
G37*
G36*
X682736Y528260D02*
X681244D01*
X679866Y527689D01*
X678811Y526634D01*
X678240Y525256D01*
Y523764D01*
X678811Y522386D01*
X679866Y521331D01*
X681244Y520760D01*
X682736D01*
X684114Y521331D01*
X685169Y522386D01*
X685740Y523764D01*
Y525256D01*
X685169Y526634D01*
X684114Y527689D01*
X682736Y528260D01*
D02*
G37*
G36*
X64130Y528950D02*
X54610D01*
Y519430D01*
X64130D01*
Y528950D01*
D02*
G37*
G36*
X52070D02*
X42550D01*
Y519430D01*
X52070D01*
Y528950D01*
D02*
G37*
G36*
X1184910Y527133D02*
X1174750D01*
X1173793Y526737D01*
X1173397Y525780D01*
Y515620D01*
X1173793Y514663D01*
X1174750Y514267D01*
X1184910D01*
X1185867Y514663D01*
X1186263Y515620D01*
Y525780D01*
X1185867Y526737D01*
X1184910Y527133D01*
D02*
G37*
G36*
X407670Y519793D02*
X405837Y519302D01*
X404003Y518244D01*
X402506Y516747D01*
X401448Y514913D01*
X401069Y513501D01*
X399755D01*
X399482Y514520D01*
X398557Y516120D01*
X397250Y517427D01*
X395650Y518352D01*
X393864Y518830D01*
X392016D01*
X390230Y518352D01*
X388630Y517427D01*
X387323Y516120D01*
X386398Y514520D01*
X385920Y512734D01*
Y510886D01*
X386398Y509100D01*
X387323Y507500D01*
X388630Y506193D01*
X390230Y505268D01*
X392016Y504790D01*
X393864D01*
X395650Y505268D01*
X397250Y506193D01*
X398557Y507500D01*
X399482Y509100D01*
X399755Y510119D01*
X401069D01*
X401448Y508707D01*
X402506Y506873D01*
X404003Y505376D01*
X405837Y504318D01*
X407670Y503827D01*
Y511810D01*
Y519793D01*
D02*
G37*
G36*
X410210D02*
Y513080D01*
X416923D01*
X416432Y514913D01*
X415374Y516747D01*
X413877Y518244D01*
X412043Y519302D01*
X410210Y519793D01*
D02*
G37*
G36*
X200136Y518100D02*
X198644D01*
X197266Y517529D01*
X196211Y516474D01*
X195640Y515096D01*
Y513604D01*
X196211Y512226D01*
X197266Y511171D01*
X198644Y510600D01*
X200136D01*
X201514Y511171D01*
X202569Y512226D01*
X203140Y513604D01*
Y515096D01*
X202569Y516474D01*
X201514Y517529D01*
X200136Y518100D01*
D02*
G37*
G36*
X29191Y527660D02*
X26689D01*
X24273Y527013D01*
X22107Y525762D01*
X20338Y523993D01*
X19087Y521827D01*
X18440Y519411D01*
Y516909D01*
X19087Y514493D01*
X20338Y512327D01*
X22107Y510558D01*
X24273Y509307D01*
X26689Y508660D01*
X29191D01*
X31607Y509307D01*
X33773Y510558D01*
X35542Y512327D01*
X36793Y514493D01*
X37440Y516909D01*
Y519411D01*
X36793Y521827D01*
X35542Y523993D01*
X33773Y525762D01*
X31607Y527013D01*
X29191Y527660D01*
D02*
G37*
G36*
X695436Y515560D02*
X693944D01*
X692566Y514989D01*
X691511Y513934D01*
X690940Y512556D01*
Y511064D01*
X691511Y509686D01*
X692566Y508631D01*
X693944Y508060D01*
X695436D01*
X696814Y508631D01*
X697869Y509686D01*
X698440Y511064D01*
Y512556D01*
X697869Y513934D01*
X696814Y514989D01*
X695436Y515560D01*
D02*
G37*
G36*
X64130Y516890D02*
X54610D01*
Y507370D01*
X64130D01*
Y516890D01*
D02*
G37*
G36*
X52070D02*
X42550D01*
Y507370D01*
X52070D01*
Y516890D01*
D02*
G37*
G36*
X914130Y512766D02*
X912638D01*
X911260Y512195D01*
X910205Y511140D01*
X909634Y509762D01*
Y508270D01*
X910205Y506892D01*
X911260Y505837D01*
X912638Y505266D01*
X914130D01*
X915508Y505837D01*
X916563Y506892D01*
X917134Y508270D01*
Y509762D01*
X916563Y511140D01*
X915508Y512195D01*
X914130Y512766D01*
D02*
G37*
G36*
X377829Y518560D02*
X376051D01*
X374335Y518100D01*
X372795Y517211D01*
X371539Y515955D01*
X370650Y514415D01*
X370190Y512699D01*
Y510921D01*
X370650Y509205D01*
X371539Y507665D01*
X372795Y506409D01*
X374335Y505520D01*
X376051Y505060D01*
X377829D01*
X379546Y505520D01*
X381085Y506409D01*
X382341Y507665D01*
X383230Y509205D01*
X383690Y510921D01*
Y512699D01*
X383230Y514415D01*
X382341Y515955D01*
X381085Y517211D01*
X379546Y518100D01*
X377829Y518560D01*
D02*
G37*
G36*
X416923Y510540D02*
X410210D01*
Y503827D01*
X412043Y504318D01*
X413877Y505376D01*
X415374Y506873D01*
X416432Y508707D01*
X416923Y510540D01*
D02*
G37*
G36*
X1128153Y520040D02*
X1125652D01*
X1123236Y519393D01*
X1121069Y518142D01*
X1119301Y516373D01*
X1118050Y514207D01*
X1117402Y511791D01*
Y509289D01*
X1118050Y506873D01*
X1119301Y504707D01*
X1121069Y502938D01*
X1123236Y501687D01*
X1125652Y501040D01*
X1128153D01*
X1130569Y501687D01*
X1132736Y502938D01*
X1134504Y504707D01*
X1135755Y506873D01*
X1136403Y509289D01*
Y511791D01*
X1135755Y514207D01*
X1134504Y516373D01*
X1132736Y518142D01*
X1130569Y519393D01*
X1128153Y520040D01*
D02*
G37*
G36*
X1102753D02*
X1100252D01*
X1097836Y519393D01*
X1095669Y518142D01*
X1093901Y516373D01*
X1092650Y514207D01*
X1092002Y511791D01*
Y509289D01*
X1092650Y506873D01*
X1093901Y504707D01*
X1095669Y502938D01*
X1097836Y501687D01*
X1100252Y501040D01*
X1102753D01*
X1105169Y501687D01*
X1107336Y502938D01*
X1109104Y504707D01*
X1110355Y506873D01*
X1111003Y509289D01*
Y511791D01*
X1110355Y514207D01*
X1109104Y516373D01*
X1107336Y518142D01*
X1105169Y519393D01*
X1102753Y520040D01*
D02*
G37*
G36*
X1077353D02*
X1074852D01*
X1072436Y519393D01*
X1070269Y518142D01*
X1068501Y516373D01*
X1067250Y514207D01*
X1066602Y511791D01*
Y509289D01*
X1067250Y506873D01*
X1068501Y504707D01*
X1070269Y502938D01*
X1072436Y501687D01*
X1074852Y501040D01*
X1077353D01*
X1079769Y501687D01*
X1081936Y502938D01*
X1083704Y504707D01*
X1084955Y506873D01*
X1085602Y509289D01*
Y511791D01*
X1084955Y514207D01*
X1083704Y516373D01*
X1081936Y518142D01*
X1079769Y519393D01*
X1077353Y520040D01*
D02*
G37*
G36*
X164284Y499304D02*
X162792D01*
X161414Y498733D01*
X160359Y497678D01*
X159788Y496300D01*
Y494808D01*
X160359Y493430D01*
X161414Y492375D01*
X162792Y491804D01*
X164284D01*
X165663Y492375D01*
X166717Y493430D01*
X167288Y494808D01*
Y496300D01*
X166717Y497678D01*
X165663Y498733D01*
X164284Y499304D01*
D02*
G37*
G36*
X1084056Y496510D02*
X1082564D01*
X1081186Y495939D01*
X1080131Y494884D01*
X1079560Y493506D01*
Y492014D01*
X1080131Y490636D01*
X1081186Y489581D01*
X1082564Y489010D01*
X1084056D01*
X1085434Y489581D01*
X1086489Y490636D01*
X1087060Y492014D01*
Y493506D01*
X1086489Y494884D01*
X1085434Y495939D01*
X1084056Y496510D01*
D02*
G37*
G36*
X404606Y493970D02*
X403114D01*
X401736Y493399D01*
X400681Y492344D01*
X400110Y490966D01*
Y489474D01*
X400681Y488096D01*
X401736Y487041D01*
X403114Y486470D01*
X404606D01*
X405984Y487041D01*
X407039Y488096D01*
X407610Y489474D01*
Y490966D01*
X407039Y492344D01*
X405984Y493399D01*
X404606Y493970D01*
D02*
G37*
G36*
X261096Y491430D02*
X259604D01*
X258226Y490859D01*
X257171Y489804D01*
X256600Y488426D01*
Y486934D01*
X257171Y485556D01*
X258226Y484501D01*
X259604Y483930D01*
X261096D01*
X262474Y484501D01*
X263529Y485556D01*
X264100Y486934D01*
Y488426D01*
X263529Y489804D01*
X262474Y490859D01*
X261096Y491430D01*
D02*
G37*
G36*
X227222Y490623D02*
X225730D01*
X224352Y490052D01*
X223297Y488997D01*
X222726Y487619D01*
Y486127D01*
X223297Y484749D01*
X224352Y483694D01*
X225730Y483123D01*
X227222D01*
X228600Y483694D01*
X229655Y484749D01*
X230226Y486127D01*
Y487619D01*
X229655Y488997D01*
X228600Y490052D01*
X227222Y490623D01*
D02*
G37*
G36*
X1110726Y490160D02*
X1109234D01*
X1107856Y489589D01*
X1106801Y488534D01*
X1106230Y487156D01*
Y485664D01*
X1106801Y484286D01*
X1107856Y483231D01*
X1109234Y482660D01*
X1110726D01*
X1112104Y483231D01*
X1113159Y484286D01*
X1113730Y485664D01*
Y487156D01*
X1113159Y488534D01*
X1112104Y489589D01*
X1110726Y490160D01*
D02*
G37*
G36*
X907826Y489834D02*
X906334D01*
X904956Y489263D01*
X903901Y488208D01*
X903330Y486830D01*
Y485338D01*
X903901Y483960D01*
X904956Y482905D01*
X906334Y482334D01*
X907826D01*
X909204Y482905D01*
X910259Y483960D01*
X910830Y485338D01*
Y486830D01*
X910259Y488208D01*
X909204Y489263D01*
X907826Y489834D01*
D02*
G37*
G36*
X347456Y488890D02*
X345964D01*
X344586Y488319D01*
X343531Y487264D01*
X342960Y485886D01*
Y484394D01*
X343531Y483016D01*
X344586Y481961D01*
X345964Y481390D01*
X347456D01*
X348834Y481961D01*
X349889Y483016D01*
X350460Y484394D01*
Y485886D01*
X349889Y487264D01*
X348834Y488319D01*
X347456Y488890D01*
D02*
G37*
G36*
X306816D02*
X305324D01*
X303946Y488319D01*
X302891Y487264D01*
X302320Y485886D01*
Y484394D01*
X302891Y483016D01*
X303946Y481961D01*
X305324Y481390D01*
X306816D01*
X308194Y481961D01*
X309249Y483016D01*
X309820Y484394D01*
Y485886D01*
X309249Y487264D01*
X308194Y488319D01*
X306816Y488890D01*
D02*
G37*
G36*
X898382Y488382D02*
X896890D01*
X895512Y487811D01*
X894457Y486756D01*
X893886Y485378D01*
Y483886D01*
X894457Y482508D01*
X895512Y481453D01*
X896890Y480882D01*
X898382D01*
X899760Y481453D01*
X900815Y482508D01*
X901386Y483886D01*
Y485378D01*
X900815Y486756D01*
X899760Y487811D01*
X898382Y488382D01*
D02*
G37*
G36*
X1150326Y486348D02*
X1145999D01*
X1145042Y485952D01*
X1144646Y484995D01*
Y479965D01*
X1145042Y479008D01*
X1145999Y478612D01*
X1150326D01*
X1151283Y479008D01*
X1151679Y479965D01*
Y484995D01*
X1151283Y485952D01*
X1150326Y486348D01*
D02*
G37*
G36*
X1023604Y482032D02*
X1022112D01*
X1020734Y481461D01*
X1019679Y480406D01*
X1019108Y479028D01*
Y477536D01*
X1019679Y476158D01*
X1020734Y475103D01*
X1022112Y474532D01*
X1023604D01*
X1024982Y475103D01*
X1026037Y476158D01*
X1026608Y477536D01*
Y479028D01*
X1026037Y480406D01*
X1024982Y481461D01*
X1023604Y482032D01*
D02*
G37*
G36*
X1108710Y481413D02*
X1099820D01*
X1098863Y481017D01*
X1098467Y480060D01*
Y473710D01*
X1098863Y472753D01*
X1099820Y472357D01*
X1108710D01*
X1109667Y472753D01*
X1110063Y473710D01*
Y480060D01*
X1109667Y481017D01*
X1108710Y481413D01*
D02*
G37*
G36*
X681466Y476190D02*
X679974D01*
X678596Y475619D01*
X677541Y474564D01*
X676970Y473186D01*
Y471694D01*
X677541Y470316D01*
X678596Y469261D01*
X679974Y468690D01*
X681466D01*
X682844Y469261D01*
X683899Y470316D01*
X684470Y471694D01*
Y473186D01*
X683899Y474564D01*
X682844Y475619D01*
X681466Y476190D01*
D02*
G37*
G36*
X470646Y469840D02*
X469154D01*
X467776Y469269D01*
X466721Y468214D01*
X466150Y466836D01*
Y465344D01*
X466721Y463966D01*
X467776Y462911D01*
X469154Y462340D01*
X470646D01*
X472024Y462911D01*
X473079Y463966D01*
X473650Y465344D01*
Y466836D01*
X473079Y468214D01*
X472024Y469269D01*
X470646Y469840D01*
D02*
G37*
G36*
X405876Y468570D02*
X404384D01*
X403006Y467999D01*
X401951Y466944D01*
X401380Y465566D01*
Y464074D01*
X401951Y462696D01*
X403006Y461641D01*
X404384Y461070D01*
X405876D01*
X407254Y461641D01*
X408309Y462696D01*
X408880Y464074D01*
Y465566D01*
X408309Y466944D01*
X407254Y467999D01*
X405876Y468570D01*
D02*
G37*
G36*
X372535Y468840D02*
X370936D01*
X369458Y468228D01*
X368327Y467097D01*
X367715Y465620D01*
Y464020D01*
X368327Y462543D01*
X369458Y461412D01*
X370936Y460800D01*
X372535D01*
X374012Y461412D01*
X375143Y462543D01*
X375755Y464020D01*
Y465620D01*
X375143Y467097D01*
X374012Y468228D01*
X372535Y468840D01*
D02*
G37*
G36*
X337350D02*
X335750D01*
X334273Y468228D01*
X333142Y467097D01*
X332530Y465620D01*
Y464020D01*
X333142Y462543D01*
X334273Y461412D01*
X335750Y460800D01*
X337350D01*
X338827Y461412D01*
X339958Y462543D01*
X340570Y464020D01*
Y465620D01*
X339958Y467097D01*
X338827Y468228D01*
X337350Y468840D01*
D02*
G37*
G36*
X1109392Y468237D02*
X1099765D01*
X1098808Y467840D01*
X1098412Y466884D01*
Y460415D01*
X1098808Y459458D01*
X1099765Y459062D01*
X1109392D01*
X1110349Y459458D01*
X1110745Y460415D01*
Y466884D01*
X1110349Y467840D01*
X1109392Y468237D01*
D02*
G37*
G36*
X424236Y463418D02*
X422744D01*
X421366Y462847D01*
X420311Y461792D01*
X419740Y460414D01*
Y458922D01*
X420311Y457544D01*
X421366Y456489D01*
X422744Y455918D01*
X424236D01*
X425614Y456489D01*
X426669Y457544D01*
X427240Y458922D01*
Y460414D01*
X426669Y461792D01*
X425614Y462847D01*
X424236Y463418D01*
D02*
G37*
G36*
X1126365Y463523D02*
X1122362D01*
X1121406Y463126D01*
X1121009Y462170D01*
Y457139D01*
X1121406Y456183D01*
X1122362Y455786D01*
X1126365D01*
X1127321Y456183D01*
X1127718Y457139D01*
Y462170D01*
X1127321Y463126D01*
X1126365Y463523D01*
D02*
G37*
G36*
X1160256Y458410D02*
X1158764D01*
X1157386Y457839D01*
X1156331Y456784D01*
X1155760Y455406D01*
Y453914D01*
X1156331Y452536D01*
X1157386Y451481D01*
X1158764Y450910D01*
X1160256D01*
X1161634Y451481D01*
X1162689Y452536D01*
X1163260Y453914D01*
Y455406D01*
X1162689Y456784D01*
X1161634Y457839D01*
X1160256Y458410D01*
D02*
G37*
G36*
X616696D02*
X615204D01*
X613826Y457839D01*
X612771Y456784D01*
X612200Y455406D01*
Y453914D01*
X612771Y452536D01*
X613826Y451481D01*
X615204Y450910D01*
X616696D01*
X618074Y451481D01*
X619129Y452536D01*
X619700Y453914D01*
Y455406D01*
X619129Y456784D01*
X618074Y457839D01*
X616696Y458410D01*
D02*
G37*
G36*
X318246D02*
X316754D01*
X315376Y457839D01*
X314321Y456784D01*
X313750Y455406D01*
Y453914D01*
X314321Y452536D01*
X315376Y451481D01*
X316754Y450910D01*
X318246D01*
X319624Y451481D01*
X320679Y452536D01*
X321250Y453914D01*
Y455406D01*
X320679Y456784D01*
X319624Y457839D01*
X318246Y458410D01*
D02*
G37*
G36*
X1094216Y452060D02*
X1092724D01*
X1091346Y451489D01*
X1090291Y450434D01*
X1089720Y449056D01*
Y447564D01*
X1090291Y446186D01*
X1091346Y445131D01*
X1092724Y444560D01*
X1094216D01*
X1095594Y445131D01*
X1096649Y446186D01*
X1097220Y447564D01*
Y449056D01*
X1096649Y450434D01*
X1095594Y451489D01*
X1094216Y452060D01*
D02*
G37*
G36*
X1199626Y450790D02*
X1198134D01*
X1196756Y450219D01*
X1195701Y449164D01*
X1195130Y447786D01*
Y446294D01*
X1195701Y444916D01*
X1196756Y443861D01*
X1198134Y443290D01*
X1199626D01*
X1201004Y443861D01*
X1202059Y444916D01*
X1202630Y446294D01*
Y447786D01*
X1202059Y449164D01*
X1201004Y450219D01*
X1199626Y450790D01*
D02*
G37*
G36*
X148320Y450028D02*
X146828D01*
X145450Y449457D01*
X144395Y448402D01*
X143824Y447024D01*
Y445532D01*
X144395Y444154D01*
X145450Y443099D01*
X146828Y442528D01*
X148320D01*
X149698Y443099D01*
X150753Y444154D01*
X151324Y445532D01*
Y447024D01*
X150753Y448402D01*
X149698Y449457D01*
X148320Y450028D01*
D02*
G37*
G36*
X1071356Y449520D02*
X1069864D01*
X1068486Y448949D01*
X1067431Y447894D01*
X1066860Y446516D01*
Y445024D01*
X1067431Y443646D01*
X1068486Y442591D01*
X1069864Y442020D01*
X1071356D01*
X1072734Y442591D01*
X1073789Y443646D01*
X1074360Y445024D01*
Y446516D01*
X1073789Y447894D01*
X1072734Y448949D01*
X1071356Y449520D01*
D02*
G37*
G36*
X294116Y444440D02*
X292624D01*
X291246Y443869D01*
X290191Y442814D01*
X289620Y441436D01*
Y439944D01*
X290191Y438566D01*
X291246Y437511D01*
X292624Y436940D01*
X294116D01*
X295494Y437511D01*
X296549Y438566D01*
X297120Y439944D01*
Y441436D01*
X296549Y442814D01*
X295494Y443869D01*
X294116Y444440D01*
D02*
G37*
G36*
X452866Y439360D02*
X451374D01*
X449996Y438789D01*
X448941Y437734D01*
X448370Y436356D01*
Y434864D01*
X448941Y433486D01*
X449996Y432431D01*
X451374Y431860D01*
X452866D01*
X454244Y432431D01*
X455299Y433486D01*
X455870Y434864D01*
Y436356D01*
X455299Y437734D01*
X454244Y438789D01*
X452866Y439360D01*
D02*
G37*
G36*
X1030774Y438540D02*
X1029283D01*
X1027904Y437969D01*
X1026849Y436914D01*
X1026278Y435536D01*
Y434044D01*
X1026849Y432665D01*
X1027904Y431610D01*
X1029283Y431040D01*
X1030774D01*
X1032153Y431610D01*
X1033207Y432665D01*
X1033778Y434044D01*
Y435536D01*
X1033207Y436914D01*
X1032153Y437969D01*
X1030774Y438540D01*
D02*
G37*
G36*
X866476Y437836D02*
X864984D01*
X863606Y437265D01*
X862551Y436210D01*
X861980Y434832D01*
Y433340D01*
X862551Y431962D01*
X863606Y430907D01*
X864984Y430336D01*
X866476D01*
X867854Y430907D01*
X868909Y431962D01*
X869480Y433340D01*
Y434832D01*
X868909Y436210D01*
X867854Y437265D01*
X866476Y437836D01*
D02*
G37*
G36*
X812276Y430470D02*
X810784D01*
X809406Y429899D01*
X808351Y428844D01*
X807780Y427466D01*
Y425974D01*
X808351Y424596D01*
X809406Y423541D01*
X810784Y422970D01*
X812276D01*
X813654Y423541D01*
X814709Y424596D01*
X815280Y425974D01*
Y427466D01*
X814709Y428844D01*
X813654Y429899D01*
X812276Y430470D01*
D02*
G37*
G36*
X920226Y427930D02*
X918734D01*
X917356Y427359D01*
X916301Y426304D01*
X915730Y424926D01*
Y423434D01*
X916301Y422056D01*
X917356Y421001D01*
X918734Y420430D01*
X920226D01*
X921604Y421001D01*
X922659Y422056D01*
X923230Y423434D01*
Y424926D01*
X922659Y426304D01*
X921604Y427359D01*
X920226Y427930D01*
D02*
G37*
G36*
X841050D02*
X839558D01*
X838180Y427359D01*
X837125Y426304D01*
X836554Y424926D01*
Y423434D01*
X837125Y422056D01*
X838180Y421001D01*
X839558Y420430D01*
X841050D01*
X842428Y421001D01*
X843483Y422056D01*
X844054Y423434D01*
Y424926D01*
X843483Y426304D01*
X842428Y427359D01*
X841050Y427930D01*
D02*
G37*
G36*
X433236Y424556D02*
X431744D01*
X430366Y423985D01*
X429311Y422930D01*
X428740Y421552D01*
Y420060D01*
X429311Y418682D01*
X430366Y417627D01*
X431744Y417056D01*
X433236D01*
X434614Y417627D01*
X435669Y418682D01*
X436240Y420060D01*
Y421552D01*
X435669Y422930D01*
X434614Y423985D01*
X433236Y424556D01*
D02*
G37*
G36*
X409686Y423866D02*
X408194D01*
X406816Y423295D01*
X405761Y422240D01*
X405190Y420862D01*
Y419370D01*
X405761Y417992D01*
X406816Y416937D01*
X408194Y416366D01*
X409686D01*
X411064Y416937D01*
X412119Y417992D01*
X412690Y419370D01*
Y420862D01*
X412119Y422240D01*
X411064Y423295D01*
X409686Y423866D01*
D02*
G37*
G36*
X767859Y419715D02*
X766367D01*
X764988Y419144D01*
X763934Y418089D01*
X763363Y416711D01*
Y415219D01*
X763934Y413841D01*
X764988Y412786D01*
X766367Y412215D01*
X767859D01*
X769237Y412786D01*
X770292Y413841D01*
X770863Y415219D01*
Y416711D01*
X770292Y418089D01*
X769237Y419144D01*
X767859Y419715D01*
D02*
G37*
G36*
X1051760Y416432D02*
X1050269D01*
X1048890Y415861D01*
X1047835Y414806D01*
X1047265Y413428D01*
Y411936D01*
X1047835Y410558D01*
X1048890Y409503D01*
X1050269Y408932D01*
X1051760D01*
X1053139Y409503D01*
X1054194Y410558D01*
X1054765Y411936D01*
Y413428D01*
X1054194Y414806D01*
X1053139Y415861D01*
X1051760Y416432D01*
D02*
G37*
G36*
X798056Y414522D02*
X796564D01*
X795186Y413951D01*
X794131Y412896D01*
X793560Y411518D01*
Y410026D01*
X794131Y408648D01*
X795186Y407593D01*
X796564Y407022D01*
X798056D01*
X799434Y407593D01*
X800489Y408648D01*
X801060Y410026D01*
Y411518D01*
X800489Y412896D01*
X799434Y413951D01*
X798056Y414522D01*
D02*
G37*
G36*
X446516Y413960D02*
X445024D01*
X443646Y413389D01*
X442591Y412334D01*
X442020Y410956D01*
Y409464D01*
X442591Y408086D01*
X443646Y407031D01*
X445024Y406460D01*
X446516D01*
X447894Y407031D01*
X448949Y408086D01*
X449520Y409464D01*
Y410956D01*
X448949Y412334D01*
X447894Y413389D01*
X446516Y413960D01*
D02*
G37*
G36*
X47736Y412690D02*
X46244D01*
X44866Y412119D01*
X43811Y411064D01*
X43240Y409686D01*
Y408194D01*
X43811Y406816D01*
X44866Y405761D01*
X46244Y405190D01*
X47736D01*
X49114Y405761D01*
X50169Y406816D01*
X50740Y408194D01*
Y409686D01*
X50169Y411064D01*
X49114Y412119D01*
X47736Y412690D01*
D02*
G37*
G36*
X294116Y410150D02*
X292624D01*
X291246Y409579D01*
X290191Y408524D01*
X289620Y407146D01*
Y405654D01*
X290191Y404276D01*
X291246Y403221D01*
X292624Y402650D01*
X294116D01*
X295494Y403221D01*
X296549Y404276D01*
X297120Y405654D01*
Y407146D01*
X296549Y408524D01*
X295494Y409579D01*
X294116Y410150D01*
D02*
G37*
G36*
X644636Y407610D02*
X643144D01*
X641766Y407039D01*
X640711Y405984D01*
X640140Y404606D01*
Y403114D01*
X640711Y401736D01*
X641766Y400681D01*
X643144Y400110D01*
X644636D01*
X646014Y400681D01*
X647069Y401736D01*
X647640Y403114D01*
Y404606D01*
X647069Y405984D01*
X646014Y407039D01*
X644636Y407610D01*
D02*
G37*
G36*
X534311Y407392D02*
X532819D01*
X531441Y406821D01*
X530386Y405766D01*
X529815Y404388D01*
Y402896D01*
X530386Y401518D01*
X531441Y400463D01*
X532819Y399892D01*
X534311D01*
X535689Y400463D01*
X536744Y401518D01*
X537315Y402896D01*
Y404388D01*
X536744Y405766D01*
X535689Y406821D01*
X534311Y407392D01*
D02*
G37*
G36*
X548116Y405832D02*
X546624D01*
X545246Y405261D01*
X544191Y404206D01*
X543620Y402828D01*
Y401336D01*
X544191Y399958D01*
X545246Y398903D01*
X546624Y398332D01*
X548116D01*
X549494Y398903D01*
X550549Y399958D01*
X551120Y401336D01*
Y402828D01*
X550549Y404206D01*
X549494Y405261D01*
X548116Y405832D01*
D02*
G37*
G36*
X1002229Y405771D02*
X1000737D01*
X999359Y405201D01*
X998304Y404146D01*
X997733Y402767D01*
Y401275D01*
X998304Y399897D01*
X999359Y398842D01*
X1000737Y398271D01*
X1002229D01*
X1003607Y398842D01*
X1004662Y399897D01*
X1005233Y401275D01*
Y402767D01*
X1004662Y404146D01*
X1003607Y405201D01*
X1002229Y405771D01*
D02*
G37*
G36*
X1051841Y405735D02*
X1050349D01*
X1048970Y405164D01*
X1047915Y404109D01*
X1047345Y402731D01*
Y401239D01*
X1047915Y399861D01*
X1048970Y398806D01*
X1050349Y398235D01*
X1051841D01*
X1053219Y398806D01*
X1054274Y399861D01*
X1054845Y401239D01*
Y402731D01*
X1054274Y404109D01*
X1053219Y405164D01*
X1051841Y405735D01*
D02*
G37*
G36*
X992097Y405714D02*
X990605D01*
X989227Y405143D01*
X988172Y404088D01*
X987601Y402710D01*
Y401218D01*
X988172Y399840D01*
X989227Y398785D01*
X990605Y398214D01*
X992097D01*
X993475Y398785D01*
X994530Y399840D01*
X995101Y401218D01*
Y402710D01*
X994530Y404088D01*
X993475Y405143D01*
X992097Y405714D01*
D02*
G37*
G36*
X303006Y402530D02*
X301514D01*
X300136Y401959D01*
X299081Y400904D01*
X298510Y399526D01*
Y398034D01*
X299081Y396656D01*
X300136Y395601D01*
X301514Y395030D01*
X303006D01*
X304384Y395601D01*
X305439Y396656D01*
X306010Y398034D01*
Y399526D01*
X305439Y400904D01*
X304384Y401959D01*
X303006Y402530D01*
D02*
G37*
G36*
X861355Y401157D02*
X859864D01*
X858485Y400586D01*
X857430Y399531D01*
X856859Y398153D01*
Y396661D01*
X857430Y395283D01*
X858485Y394228D01*
X859864Y393657D01*
X861355D01*
X862734Y394228D01*
X863789Y395283D01*
X864359Y396661D01*
Y398153D01*
X863789Y399531D01*
X862734Y400586D01*
X861355Y401157D01*
D02*
G37*
G36*
X985607Y399661D02*
X984115D01*
X982737Y399090D01*
X981682Y398035D01*
X981111Y396657D01*
Y395165D01*
X981682Y393787D01*
X982737Y392732D01*
X984115Y392161D01*
X985607D01*
X986985Y392732D01*
X988040Y393787D01*
X988611Y395165D01*
Y396657D01*
X988040Y398035D01*
X986985Y399090D01*
X985607Y399661D01*
D02*
G37*
G36*
X27828Y408280D02*
X25327D01*
X22911Y407633D01*
X20744Y406382D01*
X18976Y404613D01*
X17725Y402447D01*
X17077Y400031D01*
Y397529D01*
X17725Y395113D01*
X18976Y392947D01*
X20744Y391178D01*
X22911Y389927D01*
X25327Y389280D01*
X27828D01*
X30244Y389927D01*
X32411Y391178D01*
X34179Y392947D01*
X35430Y395113D01*
X36078Y397529D01*
Y400031D01*
X35430Y402447D01*
X34179Y404613D01*
X32411Y406382D01*
X30244Y407633D01*
X27828Y408280D01*
D02*
G37*
G36*
X601038Y396651D02*
X599546D01*
X598168Y396080D01*
X597113Y395025D01*
X596542Y393647D01*
Y392155D01*
X597113Y390777D01*
X598168Y389722D01*
X599546Y389151D01*
X601038D01*
X602416Y389722D01*
X603471Y390777D01*
X604042Y392155D01*
Y393647D01*
X603471Y395025D01*
X602416Y396080D01*
X601038Y396651D01*
D02*
G37*
G36*
X825455Y396549D02*
X823963D01*
X822584Y395978D01*
X821529Y394923D01*
X820959Y393545D01*
Y392053D01*
X821529Y390675D01*
X822584Y389620D01*
X823963Y389049D01*
X825455D01*
X826833Y389620D01*
X827888Y390675D01*
X828459Y392053D01*
Y393545D01*
X827888Y394923D01*
X826833Y395978D01*
X825455Y396549D01*
D02*
G37*
G36*
X846068Y396106D02*
X844577D01*
X843198Y395535D01*
X842143Y394481D01*
X841573Y393102D01*
Y391610D01*
X842143Y390232D01*
X843198Y389177D01*
X844577Y388606D01*
X846068D01*
X847447Y389177D01*
X848502Y390232D01*
X849073Y391610D01*
Y393102D01*
X848502Y394481D01*
X847447Y395535D01*
X846068Y396106D01*
D02*
G37*
G36*
X1007368Y396014D02*
X1005876D01*
X1004498Y395443D01*
X1003443Y394388D01*
X1002872Y393010D01*
Y391518D01*
X1003443Y390140D01*
X1004498Y389085D01*
X1005876Y388514D01*
X1007368D01*
X1008746Y389085D01*
X1009801Y390140D01*
X1010372Y391518D01*
Y393010D01*
X1009801Y394388D01*
X1008746Y395443D01*
X1007368Y396014D01*
D02*
G37*
G36*
X1052044Y395940D02*
X1050552D01*
X1049174Y395369D01*
X1048119Y394314D01*
X1047548Y392936D01*
Y391444D01*
X1048119Y390066D01*
X1049174Y389011D01*
X1050552Y388440D01*
X1052044D01*
X1053422Y389011D01*
X1054477Y390066D01*
X1055048Y391444D01*
Y392936D01*
X1054477Y394314D01*
X1053422Y395369D01*
X1052044Y395940D01*
D02*
G37*
G36*
X1089192Y395914D02*
X1087701D01*
X1086322Y395344D01*
X1085267Y394289D01*
X1084696Y392910D01*
Y391418D01*
X1085267Y390040D01*
X1086322Y388985D01*
X1087701Y388414D01*
X1089192D01*
X1090571Y388985D01*
X1091626Y390040D01*
X1092196Y391418D01*
Y392910D01*
X1091626Y394289D01*
X1090571Y395344D01*
X1089192Y395914D01*
D02*
G37*
G36*
X950706Y392370D02*
X949214D01*
X947836Y391799D01*
X946781Y390744D01*
X946210Y389366D01*
Y387874D01*
X946781Y386496D01*
X947836Y385441D01*
X949214Y384870D01*
X950706D01*
X952084Y385441D01*
X953139Y386496D01*
X953710Y387874D01*
Y389366D01*
X953139Y390744D01*
X952084Y391799D01*
X950706Y392370D01*
D02*
G37*
G36*
X517636Y396180D02*
X516144D01*
X514766Y395609D01*
X513711Y394554D01*
X513140Y393176D01*
Y391684D01*
X513711Y390306D01*
X514766Y389251D01*
X516144Y388680D01*
X517636D01*
X518520Y389046D01*
X518974Y388644D01*
X519366Y388022D01*
X518878Y386845D01*
Y385353D01*
X519449Y383974D01*
X520504Y382920D01*
X521883Y382349D01*
X523374D01*
X524753Y382920D01*
X525807Y383974D01*
X526378Y385353D01*
Y386845D01*
X525807Y388223D01*
X524753Y389278D01*
X523374Y389849D01*
X521883D01*
X520998Y389482D01*
X520544Y389885D01*
X520152Y390507D01*
X520640Y391684D01*
Y393176D01*
X520069Y394554D01*
X519014Y395609D01*
X517636Y396180D01*
D02*
G37*
G36*
X826889Y385131D02*
X825397D01*
X824018Y384560D01*
X822963Y383505D01*
X822393Y382127D01*
Y380635D01*
X822963Y379257D01*
X824018Y378202D01*
X825397Y377631D01*
X826889D01*
X828267Y378202D01*
X829322Y379257D01*
X829893Y380635D01*
Y382127D01*
X829322Y383505D01*
X828267Y384560D01*
X826889Y385131D01*
D02*
G37*
G36*
X929116Y380940D02*
X927624D01*
X926246Y380369D01*
X925191Y379314D01*
X924620Y377936D01*
Y376444D01*
X925191Y375066D01*
X926246Y374011D01*
X927624Y373440D01*
X929116D01*
X930494Y374011D01*
X931549Y375066D01*
X932120Y376444D01*
Y377936D01*
X931549Y379314D01*
X930494Y380369D01*
X929116Y380940D01*
D02*
G37*
G36*
X46885Y380644D02*
X45393D01*
X44015Y380073D01*
X42960Y379018D01*
X42389Y377640D01*
Y376148D01*
X42960Y374770D01*
X44015Y373715D01*
X45393Y373144D01*
X46885D01*
X48263Y373715D01*
X49318Y374770D01*
X49889Y376148D01*
Y377640D01*
X49318Y379018D01*
X48263Y380073D01*
X46885Y380644D01*
D02*
G37*
G36*
X515350Y380347D02*
X513858D01*
X512480Y379776D01*
X511425Y378721D01*
X510854Y377343D01*
Y375851D01*
X511425Y374473D01*
X512480Y373418D01*
X513858Y372847D01*
X515350D01*
X516728Y373418D01*
X517783Y374473D01*
X518354Y375851D01*
Y377343D01*
X517783Y378721D01*
X516728Y379776D01*
X515350Y380347D01*
D02*
G37*
G36*
X611281Y377293D02*
X609789D01*
X608411Y376722D01*
X607356Y375667D01*
X606785Y374289D01*
Y372797D01*
X607356Y371418D01*
X608411Y370364D01*
X609789Y369793D01*
X611281D01*
X612659Y370364D01*
X613714Y371418D01*
X614285Y372797D01*
Y374289D01*
X613714Y375667D01*
X612659Y376722D01*
X611281Y377293D01*
D02*
G37*
G36*
X339673Y376938D02*
X338181D01*
X336803Y376367D01*
X335748Y375313D01*
X335177Y373934D01*
Y372443D01*
X335748Y371064D01*
X336803Y370009D01*
X338181Y369438D01*
X339673D01*
X341051Y370009D01*
X342106Y371064D01*
X342677Y372443D01*
Y373934D01*
X342106Y375313D01*
X341051Y376367D01*
X339673Y376938D01*
D02*
G37*
G36*
X376018Y376681D02*
X374527D01*
X373148Y376110D01*
X372094Y375055D01*
X371522Y373676D01*
Y372185D01*
X372094Y370806D01*
X373148Y369752D01*
X374527Y369181D01*
X376018D01*
X377397Y369752D01*
X378452Y370806D01*
X379023Y372185D01*
Y373676D01*
X378452Y375055D01*
X377397Y376110D01*
X376018Y376681D01*
D02*
G37*
G36*
X1056873Y376438D02*
X1055381D01*
X1054003Y375867D01*
X1052948Y374812D01*
X1052377Y373434D01*
Y371942D01*
X1052948Y370564D01*
X1054003Y369509D01*
X1055381Y368938D01*
X1056873D01*
X1058251Y369509D01*
X1059306Y370564D01*
X1059877Y371942D01*
Y373434D01*
X1059306Y374812D01*
X1058251Y375867D01*
X1056873Y376438D01*
D02*
G37*
G36*
X1024366Y375860D02*
X1022874D01*
X1021496Y375289D01*
X1020441Y374234D01*
X1019870Y372856D01*
Y371364D01*
X1020441Y369986D01*
X1021496Y368931D01*
X1022874Y368360D01*
X1024366D01*
X1025744Y368931D01*
X1026799Y369986D01*
X1027370Y371364D01*
Y372856D01*
X1026799Y374234D01*
X1025744Y375289D01*
X1024366Y375860D01*
D02*
G37*
G36*
X984749Y375728D02*
X983257D01*
X981879Y375157D01*
X980824Y374102D01*
X980253Y372724D01*
Y371232D01*
X980824Y369853D01*
X981879Y368799D01*
X983257Y368228D01*
X984749D01*
X986127Y368799D01*
X987182Y369853D01*
X987753Y371232D01*
Y372724D01*
X987182Y374102D01*
X986127Y375157D01*
X984749Y375728D01*
D02*
G37*
G36*
X576866Y377907D02*
X575374D01*
X573995Y377336D01*
X572940Y376281D01*
X572370Y374903D01*
Y373519D01*
X572197Y373233D01*
X571405Y372420D01*
X570212D01*
X568833Y371849D01*
X567779Y370794D01*
X567208Y369416D01*
Y367924D01*
X567779Y366546D01*
X568833Y365491D01*
X570212Y364920D01*
X571703D01*
X573082Y365491D01*
X574137Y366546D01*
X574708Y367924D01*
Y369309D01*
X574881Y369594D01*
X575672Y370407D01*
X576866D01*
X578244Y370978D01*
X579299Y372033D01*
X579870Y373411D01*
Y374903D01*
X579299Y376281D01*
X578244Y377336D01*
X576866Y377907D01*
D02*
G37*
G36*
X27828Y382880D02*
X25327D01*
X22911Y382233D01*
X20744Y380982D01*
X18976Y379213D01*
X17725Y377047D01*
X17077Y374631D01*
Y372129D01*
X17725Y369713D01*
X18976Y367547D01*
X20744Y365778D01*
X22911Y364527D01*
X25327Y363880D01*
X27828D01*
X30244Y364527D01*
X32411Y365778D01*
X34179Y367547D01*
X35430Y369713D01*
X36078Y372129D01*
Y374631D01*
X35430Y377047D01*
X34179Y379213D01*
X32411Y380982D01*
X30244Y382233D01*
X27828Y382880D01*
D02*
G37*
G36*
X127746Y370780D02*
X126254D01*
X124876Y370209D01*
X123821Y369154D01*
X123250Y367776D01*
Y366284D01*
X123821Y364906D01*
X124876Y363851D01*
X126254Y363280D01*
X127746D01*
X129124Y363851D01*
X130179Y364906D01*
X130750Y366284D01*
Y367776D01*
X130179Y369154D01*
X129124Y370209D01*
X127746Y370780D01*
D02*
G37*
G36*
X746236Y369510D02*
X744744D01*
X743366Y368939D01*
X742311Y367884D01*
X741740Y366506D01*
Y365014D01*
X742311Y363636D01*
X743366Y362581D01*
X744744Y362010D01*
X746236D01*
X747614Y362581D01*
X748669Y363636D01*
X749240Y365014D01*
Y366506D01*
X748669Y367884D01*
X747614Y368939D01*
X746236Y369510D01*
D02*
G37*
G36*
X1079222Y366809D02*
X1077730D01*
X1076352Y366238D01*
X1075297Y365183D01*
X1074726Y363805D01*
Y362313D01*
X1075297Y360935D01*
X1076352Y359880D01*
X1077730Y359309D01*
X1079222D01*
X1080600Y359880D01*
X1081655Y360935D01*
X1082226Y362313D01*
Y363805D01*
X1081655Y365183D01*
X1080600Y366238D01*
X1079222Y366809D01*
D02*
G37*
G36*
X1130747Y358817D02*
X1125380D01*
X1124423Y358420D01*
X1124027Y357464D01*
Y354449D01*
X1124423Y353492D01*
X1125380Y353096D01*
X1130747D01*
X1131704Y353492D01*
X1132100Y354449D01*
Y357464D01*
X1131704Y358420D01*
X1130747Y358817D01*
D02*
G37*
G36*
X440682Y357757D02*
X439191D01*
X437812Y357186D01*
X436757Y356131D01*
X436186Y354753D01*
Y353261D01*
X436757Y351883D01*
X437812Y350828D01*
X439191Y350257D01*
X440682D01*
X442061Y350828D01*
X443116Y351883D01*
X443686Y353261D01*
Y354753D01*
X443116Y356131D01*
X442061Y357186D01*
X440682Y357757D01*
D02*
G37*
G36*
X711810Y367640D02*
X692810D01*
Y348640D01*
X711810D01*
Y367640D01*
D02*
G37*
G36*
X877935Y354270D02*
X876443D01*
X875065Y353699D01*
X874010Y352644D01*
X873439Y351266D01*
Y349774D01*
X874010Y348396D01*
X875065Y347341D01*
X876443Y346770D01*
X877935D01*
X879313Y347341D01*
X880368Y348396D01*
X880939Y349774D01*
Y351266D01*
X880368Y352644D01*
X879313Y353699D01*
X877935Y354270D01*
D02*
G37*
G36*
X276336Y349190D02*
X274844D01*
X273466Y348619D01*
X272411Y347564D01*
X271840Y346186D01*
Y344694D01*
X272411Y343316D01*
X273466Y342261D01*
X274844Y341690D01*
X276336D01*
X277714Y342261D01*
X278769Y343316D01*
X279340Y344694D01*
Y346186D01*
X278769Y347564D01*
X277714Y348619D01*
X276336Y349190D01*
D02*
G37*
G36*
X938006Y346650D02*
X936514D01*
X935136Y346079D01*
X934081Y345024D01*
X933510Y343646D01*
Y342154D01*
X934081Y340776D01*
X935136Y339721D01*
X936514Y339150D01*
X938006D01*
X939384Y339721D01*
X940439Y340776D01*
X941010Y342154D01*
Y343646D01*
X940439Y345024D01*
X939384Y346079D01*
X938006Y346650D01*
D02*
G37*
G36*
X678926D02*
X677434D01*
X676056Y346079D01*
X675001Y345024D01*
X674430Y343646D01*
Y342154D01*
X675001Y340776D01*
X676056Y339721D01*
X677434Y339150D01*
X678926D01*
X680304Y339721D01*
X681359Y340776D01*
X681930Y342154D01*
Y343646D01*
X681359Y345024D01*
X680304Y346079D01*
X678926Y346650D01*
D02*
G37*
G36*
X36078Y357480D02*
X17077D01*
Y338480D01*
X36078D01*
Y357480D01*
D02*
G37*
G36*
X620506Y345380D02*
X619014D01*
X617636Y344809D01*
X616581Y343754D01*
X616010Y342376D01*
Y340884D01*
X616581Y339506D01*
X617636Y338451D01*
X619014Y337880D01*
X620506D01*
X621884Y338451D01*
X622939Y339506D01*
X623510Y340884D01*
Y342376D01*
X622939Y343754D01*
X621884Y344809D01*
X620506Y345380D01*
D02*
G37*
G36*
X703730Y343530D02*
X703580D01*
Y334010D01*
X713100D01*
Y334160D01*
X712365Y336905D01*
X710944Y339365D01*
X708935Y341374D01*
X706475Y342795D01*
X703730Y343530D01*
D02*
G37*
G36*
X701040D02*
X700890D01*
X698145Y342795D01*
X695685Y341374D01*
X693676Y339365D01*
X692255Y336905D01*
X691520Y334160D01*
Y334010D01*
X701040D01*
Y343530D01*
D02*
G37*
G36*
X741156Y336490D02*
X739664D01*
X738286Y335919D01*
X737231Y334864D01*
X736660Y333486D01*
Y331994D01*
X735677Y331049D01*
X734806Y331410D01*
X733314D01*
X732443Y331049D01*
X731460Y331994D01*
Y333486D01*
X730889Y334864D01*
X729834Y335919D01*
X728456Y336490D01*
X726964D01*
X725586Y335919D01*
X724531Y334864D01*
X723960Y333486D01*
Y331994D01*
X724531Y330616D01*
X725586Y329561D01*
X726964Y328990D01*
X728456D01*
X729327Y329351D01*
X730310Y328406D01*
Y326914D01*
X730881Y325536D01*
X731936Y324481D01*
X733314Y323910D01*
X734806D01*
X736184Y324481D01*
X737239Y325536D01*
X737810Y326914D01*
Y328406D01*
X738793Y329351D01*
X739664Y328990D01*
X741156D01*
X742534Y329561D01*
X743589Y330616D01*
X744160Y331994D01*
Y333486D01*
X743589Y334864D01*
X742534Y335919D01*
X741156Y336490D01*
D02*
G37*
G36*
X950706Y334712D02*
X949214D01*
X947836Y334141D01*
X946781Y333086D01*
X946210Y331708D01*
Y330216D01*
X946781Y328838D01*
X947836Y327783D01*
X949214Y327212D01*
X950706D01*
X952084Y327783D01*
X953139Y328838D01*
X953710Y330216D01*
Y331708D01*
X953139Y333086D01*
X952084Y334141D01*
X950706Y334712D01*
D02*
G37*
G36*
X1130760Y328799D02*
X1125313D01*
X1124357Y328403D01*
X1123960Y327446D01*
Y324476D01*
X1124357Y323519D01*
X1125313Y323123D01*
X1130760D01*
X1131717Y323519D01*
X1132113Y324476D01*
Y327446D01*
X1131717Y328403D01*
X1130760Y328799D01*
D02*
G37*
G36*
X643366Y330140D02*
X641874D01*
X640496Y329569D01*
X639441Y328514D01*
X638870Y327136D01*
Y325644D01*
X639441Y324266D01*
X640496Y323211D01*
X641874Y322640D01*
X643366D01*
X644744Y323211D01*
X645799Y324266D01*
X646370Y325644D01*
Y327136D01*
X645799Y328514D01*
X644744Y329569D01*
X643366Y330140D01*
D02*
G37*
G36*
X713100Y331470D02*
X703580D01*
Y321950D01*
X703730D01*
X706475Y322685D01*
X708935Y324106D01*
X710944Y326115D01*
X712365Y328575D01*
X713100Y331320D01*
Y331470D01*
D02*
G37*
G36*
X701040D02*
X691520D01*
Y331320D01*
X692255Y328575D01*
X693676Y326115D01*
X695685Y324106D01*
X698145Y322685D01*
X700890Y321950D01*
X701040D01*
Y331470D01*
D02*
G37*
G36*
X620506Y328870D02*
X619014D01*
X617636Y328299D01*
X616581Y327244D01*
X616010Y325866D01*
Y324374D01*
X616581Y322996D01*
X617636Y321941D01*
X619014Y321370D01*
X620506D01*
X621884Y321941D01*
X622939Y322996D01*
X623510Y324374D01*
Y325866D01*
X622939Y327244D01*
X621884Y328299D01*
X620506Y328870D01*
D02*
G37*
G36*
X1000236Y326330D02*
X998744D01*
X997366Y325759D01*
X996311Y324704D01*
X995740Y323326D01*
Y321834D01*
X996311Y320456D01*
X997366Y319401D01*
X998744Y318830D01*
X1000236D01*
X1001614Y319401D01*
X1002669Y320456D01*
X1003240Y321834D01*
Y323326D01*
X1002669Y324704D01*
X1001614Y325759D01*
X1000236Y326330D01*
D02*
G37*
G36*
X238489Y325602D02*
X236997D01*
X235619Y325031D01*
X234564Y323976D01*
X233993Y322598D01*
Y321106D01*
X234564Y319728D01*
X235619Y318673D01*
X236997Y318102D01*
X238489D01*
X239867Y318673D01*
X240922Y319728D01*
X241493Y321106D01*
Y322598D01*
X240922Y323976D01*
X239867Y325031D01*
X238489Y325602D01*
D02*
G37*
G36*
X979916Y319980D02*
X978424D01*
X977046Y319409D01*
X975991Y318354D01*
X975420Y316976D01*
Y315484D01*
X975991Y314106D01*
X977046Y313051D01*
X978424Y312480D01*
X979916D01*
X981294Y313051D01*
X982349Y314106D01*
X982920Y315484D01*
Y316976D01*
X982349Y318354D01*
X981294Y319409D01*
X979916Y319980D01*
D02*
G37*
G36*
X466684Y315799D02*
X465192D01*
X463814Y315228D01*
X462759Y314173D01*
X462188Y312795D01*
Y311303D01*
X462759Y309925D01*
X463814Y308870D01*
X465192Y308299D01*
X466684D01*
X468062Y308870D01*
X469117Y309925D01*
X469688Y311303D01*
Y312795D01*
X469117Y314173D01*
X468062Y315228D01*
X466684Y315799D01*
D02*
G37*
G36*
X501517Y315255D02*
X500025D01*
X498647Y314684D01*
X497592Y313629D01*
X497021Y312251D01*
Y310759D01*
X497592Y309381D01*
X498647Y308326D01*
X500025Y307755D01*
X501517D01*
X502896Y308326D01*
X503950Y309381D01*
X504521Y310759D01*
Y312251D01*
X503950Y313629D01*
X502896Y314684D01*
X501517Y315255D01*
D02*
G37*
G36*
X961848Y314510D02*
X960356D01*
X958978Y313939D01*
X957923Y312884D01*
X957352Y311506D01*
Y310014D01*
X957923Y308636D01*
X958978Y307581D01*
X960356Y307010D01*
X961848D01*
X963226Y307581D01*
X964281Y308636D01*
X964852Y310014D01*
Y311506D01*
X964281Y312884D01*
X963226Y313939D01*
X961848Y314510D01*
D02*
G37*
G36*
X1021524Y313396D02*
X1020032D01*
X1018653Y312825D01*
X1017598Y311770D01*
X1017028Y310392D01*
Y308900D01*
X1017598Y307522D01*
X1018653Y306467D01*
X1020032Y305896D01*
X1021524D01*
X1022902Y306467D01*
X1023957Y307522D01*
X1024528Y308900D01*
Y310392D01*
X1023957Y311770D01*
X1022902Y312825D01*
X1021524Y313396D01*
D02*
G37*
G36*
X845947Y310587D02*
X844455D01*
X843077Y310016D01*
X842022Y308961D01*
X841451Y307583D01*
Y306091D01*
X842022Y304713D01*
X843077Y303658D01*
X844455Y303087D01*
X845947D01*
X847326Y303658D01*
X848380Y304713D01*
X848951Y306091D01*
Y307583D01*
X848380Y308961D01*
X847326Y310016D01*
X845947Y310587D01*
D02*
G37*
G36*
X913876Y309820D02*
X912384D01*
X911006Y309249D01*
X909951Y308194D01*
X909380Y306816D01*
Y305324D01*
X909951Y303946D01*
X911006Y302891D01*
X912384Y302320D01*
X913876D01*
X915254Y302891D01*
X916309Y303946D01*
X916880Y305324D01*
Y306816D01*
X916309Y308194D01*
X915254Y309249D01*
X913876Y309820D01*
D02*
G37*
G36*
X904986D02*
X903494D01*
X902116Y309249D01*
X901061Y308194D01*
X900490Y306816D01*
Y305324D01*
X901061Y303946D01*
X902116Y302891D01*
X903494Y302320D01*
X904986D01*
X906364Y302891D01*
X907419Y303946D01*
X907990Y305324D01*
Y306816D01*
X907419Y308194D01*
X906364Y309249D01*
X904986Y309820D01*
D02*
G37*
G36*
X703561Y316840D02*
X701059D01*
X698643Y316193D01*
X696477Y314942D01*
X694708Y313173D01*
X693457Y311007D01*
X692810Y308591D01*
Y306089D01*
X693457Y303673D01*
X694708Y301507D01*
X696477Y299738D01*
X698643Y298487D01*
X701059Y297840D01*
X703561D01*
X705977Y298487D01*
X708143Y299738D01*
X709912Y301507D01*
X711163Y303673D01*
X711810Y306089D01*
Y308591D01*
X711163Y311007D01*
X709912Y313173D01*
X708143Y314942D01*
X705977Y316193D01*
X703561Y316840D01*
D02*
G37*
G36*
X979916Y302200D02*
X978424D01*
X977046Y301629D01*
X975991Y300574D01*
X975420Y299196D01*
Y297704D01*
X975991Y296326D01*
X976787Y295530D01*
X976943Y294767D01*
X976787Y294004D01*
X975991Y293208D01*
X975420Y291830D01*
Y290338D01*
X975991Y288959D01*
X977046Y287905D01*
X978424Y287334D01*
X979916D01*
X981294Y287905D01*
X982349Y288959D01*
X982920Y290338D01*
Y291830D01*
X982349Y293208D01*
X981553Y294004D01*
X981397Y294767D01*
X981553Y295530D01*
X982349Y296326D01*
X982920Y297704D01*
Y299196D01*
X982349Y300574D01*
X981294Y301629D01*
X979916Y302200D01*
D02*
G37*
G36*
X680196Y294580D02*
X678704D01*
X677326Y294009D01*
X676271Y292954D01*
X675700Y291576D01*
Y290084D01*
X676271Y288706D01*
X677326Y287651D01*
X678704Y287080D01*
X680196D01*
X681574Y287651D01*
X682629Y288706D01*
X683200Y290084D01*
Y291576D01*
X682629Y292954D01*
X681574Y294009D01*
X680196Y294580D01*
D02*
G37*
G36*
X510016D02*
X508524D01*
X507146Y294009D01*
X506091Y292954D01*
X505520Y291576D01*
Y290084D01*
X506091Y288706D01*
X507146Y287651D01*
X508524Y287080D01*
X510016D01*
X511394Y287651D01*
X512449Y288706D01*
X513020Y290084D01*
Y291576D01*
X512449Y292954D01*
X511394Y294009D01*
X510016Y294580D01*
D02*
G37*
G36*
X1014206Y292620D02*
X1012714D01*
X1011336Y292049D01*
X1010281Y290994D01*
X1009710Y289616D01*
Y288124D01*
X1010281Y286746D01*
X1011336Y285691D01*
X1012714Y285120D01*
X1014206D01*
X1015584Y285691D01*
X1016639Y286746D01*
X1017210Y288124D01*
Y289616D01*
X1016639Y290994D01*
X1015584Y292049D01*
X1014206Y292620D01*
D02*
G37*
G36*
X1109456Y292040D02*
X1107964D01*
X1106586Y291469D01*
X1105531Y290414D01*
X1104960Y289036D01*
Y287544D01*
X1105531Y286166D01*
X1106586Y285111D01*
X1107964Y284540D01*
X1109456D01*
X1110834Y285111D01*
X1111889Y286166D01*
X1112460Y287544D01*
Y289036D01*
X1111889Y290414D01*
X1110834Y291469D01*
X1109456Y292040D01*
D02*
G37*
G36*
X663686Y289500D02*
X662194D01*
X660816Y288929D01*
X659761Y287874D01*
X659190Y286496D01*
Y285004D01*
X659761Y283626D01*
X660816Y282571D01*
X662194Y282000D01*
X663686D01*
X665064Y282571D01*
X666119Y283626D01*
X666690Y285004D01*
Y286496D01*
X666119Y287874D01*
X665064Y288929D01*
X663686Y289500D01*
D02*
G37*
G36*
X233156Y280610D02*
X231664D01*
X230286Y280039D01*
X229231Y278984D01*
X228660Y277606D01*
Y276114D01*
X229231Y274736D01*
X230286Y273681D01*
X231664Y273110D01*
X233156D01*
X234534Y273681D01*
X235589Y274736D01*
X236160Y276114D01*
Y277606D01*
X235589Y278984D01*
X234534Y280039D01*
X233156Y280610D01*
D02*
G37*
G36*
X101076Y278324D02*
X99584D01*
X98206Y277753D01*
X97151Y276698D01*
X96580Y275320D01*
Y273828D01*
X97151Y272450D01*
X98206Y271395D01*
X99584Y270824D01*
X101076D01*
X102454Y271395D01*
X103509Y272450D01*
X104080Y273828D01*
Y275320D01*
X103509Y276698D01*
X102454Y277753D01*
X101076Y278324D01*
D02*
G37*
G36*
X643366Y278070D02*
X641874D01*
X640496Y277499D01*
X639441Y276444D01*
X638870Y275066D01*
Y273574D01*
X639441Y272196D01*
X640496Y271141D01*
X641874Y270570D01*
X643366D01*
X644744Y271141D01*
X645799Y272196D01*
X646370Y273574D01*
Y275066D01*
X645799Y276444D01*
X644744Y277499D01*
X643366Y278070D01*
D02*
G37*
G36*
X474456D02*
X472964D01*
X471586Y277499D01*
X470531Y276444D01*
X469960Y275066D01*
Y273574D01*
X470531Y272196D01*
X471586Y271141D01*
X472964Y270570D01*
X474456D01*
X475834Y271141D01*
X476889Y272196D01*
X477460Y273574D01*
Y275066D01*
X476889Y276444D01*
X475834Y277499D01*
X474456Y278070D01*
D02*
G37*
G36*
X1037887Y273752D02*
X1036395D01*
X1035017Y273181D01*
X1033962Y272127D01*
X1033391Y270748D01*
Y269256D01*
X1033738Y268417D01*
X1032766Y267445D01*
X1032430Y267584D01*
X1030938D01*
X1029997Y267194D01*
X1029004Y268117D01*
X1029345Y268940D01*
Y270432D01*
X1028774Y271810D01*
X1027719Y272865D01*
X1026341Y273436D01*
X1024849D01*
X1023471Y272865D01*
X1022416Y271810D01*
X1021845Y270432D01*
Y268940D01*
X1022416Y267562D01*
X1023471Y266507D01*
X1024849Y265936D01*
X1026341D01*
X1027283Y266326D01*
X1028276Y265403D01*
X1027934Y264580D01*
Y263088D01*
X1028505Y261710D01*
X1029560Y260655D01*
X1030938Y260084D01*
X1032430D01*
X1033809Y260655D01*
X1034864Y261710D01*
X1035434Y263088D01*
Y264580D01*
X1035087Y265420D01*
X1036059Y266392D01*
X1036395Y266252D01*
X1037887D01*
X1038148Y266360D01*
X1039120Y265388D01*
X1038920Y264906D01*
Y263414D01*
X1039491Y262036D01*
X1040546Y260981D01*
X1041924Y260410D01*
X1043416D01*
X1044794Y260981D01*
X1045849Y262036D01*
X1046420Y263414D01*
Y264906D01*
X1045849Y266284D01*
X1044794Y267339D01*
X1043416Y267910D01*
X1041924D01*
X1041663Y267802D01*
X1040691Y268774D01*
X1040891Y269256D01*
Y270748D01*
X1040320Y272127D01*
X1039265Y273181D01*
X1037887Y273752D01*
D02*
G37*
G36*
X1099296Y272990D02*
X1097804D01*
X1096426Y272419D01*
X1095371Y271364D01*
X1094800Y269986D01*
Y268494D01*
X1095371Y267116D01*
X1096426Y266061D01*
X1097804Y265490D01*
X1099296D01*
X1100674Y266061D01*
X1101729Y267116D01*
X1102300Y268494D01*
Y269986D01*
X1101729Y271364D01*
X1100674Y272419D01*
X1099296Y272990D01*
D02*
G37*
G36*
X1076388Y272796D02*
X1074896D01*
X1073517Y272225D01*
X1072462Y271171D01*
X1071892Y269792D01*
Y268300D01*
X1072462Y266922D01*
X1073517Y265867D01*
X1074896Y265296D01*
X1076388D01*
X1077766Y265867D01*
X1078821Y266922D01*
X1079392Y268300D01*
Y269792D01*
X1078821Y271171D01*
X1077766Y272225D01*
X1076388Y272796D01*
D02*
G37*
G36*
X1008436Y271720D02*
X1006944D01*
X1005566Y271149D01*
X1004511Y270094D01*
X1003940Y268716D01*
Y267224D01*
X1004511Y265846D01*
X1005566Y264791D01*
X1006944Y264220D01*
X1008436D01*
X1009814Y264791D01*
X1010869Y265846D01*
X1011440Y267224D01*
Y268716D01*
X1010869Y270094D01*
X1009814Y271149D01*
X1008436Y271720D01*
D02*
G37*
G36*
X992616D02*
X991124D01*
X989746Y271149D01*
X988691Y270094D01*
X988120Y268716D01*
Y267224D01*
X988691Y265846D01*
X989746Y264791D01*
X991124Y264220D01*
X992616D01*
X993994Y264791D01*
X995049Y265846D01*
X995620Y267224D01*
Y268716D01*
X995049Y270094D01*
X993994Y271149D01*
X992616Y271720D01*
D02*
G37*
G36*
X950762Y271719D02*
X949270D01*
X947892Y271148D01*
X946837Y270093D01*
X946266Y268715D01*
Y267223D01*
X946837Y265844D01*
X947892Y264790D01*
X949270Y264219D01*
X950762D01*
X952140Y264790D01*
X953195Y265844D01*
X953766Y267223D01*
Y268715D01*
X953195Y270093D01*
X952140Y271148D01*
X950762Y271719D01*
D02*
G37*
G36*
X1177290Y298522D02*
X1173559Y298155D01*
X1169972Y297066D01*
X1166666Y295299D01*
X1163769Y292921D01*
X1161391Y290024D01*
X1159623Y286718D01*
X1158535Y283130D01*
X1158168Y279400D01*
X1158535Y275669D01*
X1159623Y272082D01*
X1161391Y268776D01*
X1163769Y265879D01*
X1166666Y263501D01*
X1169972Y261733D01*
X1173559Y260645D01*
X1177290Y260278D01*
X1181021Y260645D01*
X1184608Y261733D01*
X1187914Y263501D01*
X1190811Y265879D01*
X1193189Y268776D01*
X1194957Y272082D01*
X1196045Y275669D01*
X1196412Y279400D01*
X1196045Y283130D01*
X1194957Y286718D01*
X1193189Y290024D01*
X1190811Y292921D01*
X1187914Y295299D01*
X1184608Y297066D01*
X1181021Y298155D01*
X1177290Y298522D01*
D02*
G37*
G36*
X1017998Y267584D02*
X1016507D01*
X1015128Y267013D01*
X1014073Y265958D01*
X1013503Y264580D01*
Y263088D01*
X1014073Y261710D01*
X1015128Y260655D01*
X1016507Y260084D01*
X1017998D01*
X1019377Y260655D01*
X1020432Y261710D01*
X1021003Y263088D01*
Y264580D01*
X1020432Y265958D01*
X1019377Y267013D01*
X1017998Y267584D01*
D02*
G37*
G36*
X784336Y272990D02*
X782844D01*
X781466Y272419D01*
X780411Y271364D01*
X779840Y269986D01*
Y268494D01*
X780411Y267116D01*
X781466Y266061D01*
X782844Y265490D01*
X782901D01*
X783427Y264220D01*
X782951Y263744D01*
X782380Y262366D01*
Y260874D01*
X782951Y259496D01*
X783247Y259200D01*
X782527Y258123D01*
X782376Y258186D01*
X780884D01*
X779506Y257615D01*
X778451Y256560D01*
X777880Y255182D01*
Y253690D01*
X778451Y252312D01*
X779506Y251257D01*
X780884Y250686D01*
X782376D01*
X783754Y251257D01*
X784809Y252312D01*
X785380Y253690D01*
Y255182D01*
X784809Y256560D01*
X784513Y256856D01*
X785233Y257933D01*
X785384Y257870D01*
X786876D01*
X788254Y258441D01*
X789309Y259496D01*
X789880Y260874D01*
Y262366D01*
X789309Y263744D01*
X788254Y264799D01*
X786876Y265370D01*
X786819D01*
X786293Y266640D01*
X786769Y267116D01*
X787340Y268494D01*
Y269986D01*
X786769Y271364D01*
X785714Y272419D01*
X784336Y272990D01*
D02*
G37*
G36*
X1081583Y265437D02*
X1080091D01*
X1078713Y264866D01*
X1077658Y263811D01*
X1077087Y262433D01*
Y260941D01*
X1077658Y259563D01*
X1078713Y258508D01*
X1080091Y257937D01*
X1081583D01*
X1082961Y258508D01*
X1084016Y259563D01*
X1084587Y260941D01*
Y262433D01*
X1084016Y263811D01*
X1082961Y264866D01*
X1081583Y265437D01*
D02*
G37*
G36*
X1113266Y265370D02*
X1111774D01*
X1110396Y264799D01*
X1109341Y263744D01*
X1108770Y262366D01*
Y260874D01*
X1109341Y259496D01*
X1110396Y258441D01*
X1111774Y257870D01*
X1113266D01*
X1114644Y258441D01*
X1115699Y259496D01*
X1116270Y260874D01*
Y262366D01*
X1115699Y263744D01*
X1114644Y264799D01*
X1113266Y265370D01*
D02*
G37*
G36*
X979958Y264301D02*
X978466D01*
X977088Y263730D01*
X976033Y262675D01*
X975462Y261297D01*
Y259805D01*
X976033Y258427D01*
X977088Y257372D01*
X978466Y256801D01*
X979958D01*
X981337Y257372D01*
X982392Y258427D01*
X982962Y259805D01*
Y261297D01*
X982392Y262675D01*
X981337Y263730D01*
X979958Y264301D01*
D02*
G37*
G36*
X1000236Y264155D02*
X998744D01*
X997366Y263584D01*
X996311Y262529D01*
X995740Y261151D01*
Y259659D01*
X996311Y258281D01*
X997366Y257226D01*
X998744Y256655D01*
X1000236D01*
X1001614Y257226D01*
X1002669Y258281D01*
X1003240Y259659D01*
Y261151D01*
X1002669Y262529D01*
X1001614Y263584D01*
X1000236Y264155D01*
D02*
G37*
G36*
X165846Y264100D02*
X164354D01*
X162976Y263529D01*
X161921Y262474D01*
X161350Y261096D01*
Y259604D01*
X161921Y258226D01*
X162976Y257171D01*
X164354Y256600D01*
X165846D01*
X167224Y257171D01*
X168279Y258226D01*
X168850Y259604D01*
Y261096D01*
X168279Y262474D01*
X167224Y263529D01*
X165846Y264100D01*
D02*
G37*
G36*
X658606Y261560D02*
X657114D01*
X655736Y260989D01*
X654681Y259934D01*
X654110Y258556D01*
Y257064D01*
X654681Y255686D01*
X655736Y254631D01*
X657114Y254060D01*
X658606D01*
X659984Y254631D01*
X661039Y255686D01*
X661610Y257064D01*
Y258556D01*
X661039Y259934D01*
X659984Y260989D01*
X658606Y261560D01*
D02*
G37*
G36*
X1051036Y259020D02*
X1049544D01*
X1048166Y258449D01*
X1047111Y257394D01*
X1046540Y256016D01*
Y254524D01*
X1047111Y253146D01*
X1048166Y252091D01*
X1049544Y251520D01*
X1051036D01*
X1052414Y252091D01*
X1053469Y253146D01*
X1054040Y254524D01*
Y256016D01*
X1053469Y257394D01*
X1052414Y258449D01*
X1051036Y259020D01*
D02*
G37*
G36*
X747506Y258186D02*
X746014D01*
X744636Y257615D01*
X743581Y256560D01*
X743010Y255182D01*
Y253690D01*
X743581Y252312D01*
X744636Y251257D01*
X746014Y250686D01*
X747506D01*
X748884Y251257D01*
X749939Y252312D01*
X750510Y253690D01*
Y255182D01*
X749939Y256560D01*
X748884Y257615D01*
X747506Y258186D01*
D02*
G37*
G36*
X680196Y256480D02*
X678704D01*
X677326Y255909D01*
X676271Y254854D01*
X675700Y253476D01*
Y251984D01*
X676271Y250606D01*
X677326Y249551D01*
X678704Y248980D01*
X680196D01*
X681574Y249551D01*
X682629Y250606D01*
X683200Y251984D01*
Y253476D01*
X682629Y254854D01*
X681574Y255909D01*
X680196Y256480D01*
D02*
G37*
G36*
X666226D02*
X664734D01*
X663356Y255909D01*
X662301Y254854D01*
X661730Y253476D01*
Y251984D01*
X662301Y250606D01*
X663356Y249551D01*
X664734Y248980D01*
X666226D01*
X667604Y249551D01*
X668659Y250606D01*
X669230Y251984D01*
Y253476D01*
X668659Y254854D01*
X667604Y255909D01*
X666226Y256480D01*
D02*
G37*
G36*
X957056Y255210D02*
X955564D01*
X954186Y254639D01*
X953131Y253584D01*
X952560Y252206D01*
Y250714D01*
X953131Y249336D01*
X954186Y248281D01*
X955564Y247710D01*
X957056D01*
X958434Y248281D01*
X959489Y249336D01*
X960060Y250714D01*
Y252206D01*
X959489Y253584D01*
X958434Y254639D01*
X957056Y255210D01*
D02*
G37*
G36*
X578596D02*
X577104D01*
X575726Y254639D01*
X574671Y253584D01*
X574100Y252206D01*
Y250714D01*
X574671Y249336D01*
X575726Y248281D01*
X577104Y247710D01*
X578596D01*
X579974Y248281D01*
X581029Y249336D01*
X581600Y250714D01*
Y252206D01*
X581029Y253584D01*
X579974Y254639D01*
X578596Y255210D01*
D02*
G37*
G36*
X529066D02*
X527574D01*
X526196Y254639D01*
X525141Y253584D01*
X524570Y252206D01*
Y250714D01*
X525141Y249336D01*
X526196Y248281D01*
X527574Y247710D01*
X529066D01*
X530444Y248281D01*
X531499Y249336D01*
X532070Y250714D01*
Y252206D01*
X531499Y253584D01*
X530444Y254639D01*
X529066Y255210D01*
D02*
G37*
G36*
X517636D02*
X516144D01*
X514766Y254639D01*
X513711Y253584D01*
X513140Y252206D01*
Y250714D01*
X513711Y249336D01*
X514766Y248281D01*
X516144Y247710D01*
X517636D01*
X519014Y248281D01*
X520069Y249336D01*
X520640Y250714D01*
Y252206D01*
X520069Y253584D01*
X519014Y254639D01*
X517636Y255210D01*
D02*
G37*
G36*
X937582Y255099D02*
X936090D01*
X934712Y254528D01*
X933657Y253473D01*
X933086Y252095D01*
Y250603D01*
X933657Y249224D01*
X934712Y248170D01*
X936090Y247599D01*
X937582D01*
X938960Y248170D01*
X940015Y249224D01*
X940586Y250603D01*
Y252095D01*
X940015Y253473D01*
X938960Y254528D01*
X937582Y255099D01*
D02*
G37*
G36*
X1030716Y253940D02*
X1029224D01*
X1027846Y253369D01*
X1026791Y252314D01*
X1026220Y250936D01*
Y249444D01*
X1026791Y248066D01*
X1027846Y247011D01*
X1029224Y246440D01*
X1030716D01*
X1032094Y247011D01*
X1033149Y248066D01*
X1033720Y249444D01*
Y250936D01*
X1033149Y252314D01*
X1032094Y253369D01*
X1030716Y253940D01*
D02*
G37*
G36*
X639207Y250483D02*
X637716D01*
X636337Y249912D01*
X635282Y248857D01*
X634711Y247479D01*
Y245987D01*
X635282Y244609D01*
X636337Y243554D01*
X637716Y242983D01*
X639207D01*
X640586Y243554D01*
X641641Y244609D01*
X642212Y245987D01*
Y247479D01*
X641641Y248857D01*
X640586Y249912D01*
X639207Y250483D01*
D02*
G37*
G36*
X501126Y249193D02*
X499634D01*
X498256Y248622D01*
X497201Y247567D01*
X496630Y246189D01*
Y244697D01*
X497201Y243319D01*
X498256Y242264D01*
X499634Y241693D01*
X501126D01*
X502504Y242264D01*
X503559Y243319D01*
X504130Y244697D01*
Y246189D01*
X503559Y247567D01*
X502504Y248622D01*
X501126Y249193D01*
D02*
G37*
G36*
X139176Y246320D02*
X137684D01*
X136306Y245749D01*
X135251Y244694D01*
X134680Y243316D01*
Y241824D01*
X135251Y240446D01*
X136306Y239391D01*
X137684Y238820D01*
X139176D01*
X140554Y239391D01*
X141609Y240446D01*
X142180Y241824D01*
Y243316D01*
X141609Y244694D01*
X140554Y245749D01*
X139176Y246320D01*
D02*
G37*
G36*
X572237Y245338D02*
X570745D01*
X569367Y244767D01*
X568312Y243713D01*
X567741Y242334D01*
Y240842D01*
X568312Y239464D01*
X569367Y238409D01*
X570745Y237838D01*
X572237D01*
X573615Y238409D01*
X574670Y239464D01*
X575241Y240842D01*
Y242334D01*
X574670Y243713D01*
X573615Y244767D01*
X572237Y245338D01*
D02*
G37*
G36*
X890444Y245050D02*
X888952D01*
X887574Y244479D01*
X886519Y243424D01*
X885948Y242046D01*
Y240554D01*
X886519Y239176D01*
X887574Y238121D01*
X888952Y237550D01*
X890444D01*
X891822Y238121D01*
X892877Y239176D01*
X893448Y240554D01*
Y242046D01*
X892877Y243424D01*
X891822Y244479D01*
X890444Y245050D01*
D02*
G37*
G36*
X756396D02*
X754904D01*
X753526Y244479D01*
X752471Y243424D01*
X751900Y242046D01*
Y240554D01*
X752471Y239176D01*
X753526Y238121D01*
X754904Y237550D01*
X756396D01*
X757774Y238121D01*
X758829Y239176D01*
X759400Y240554D01*
Y242046D01*
X758829Y243424D01*
X757774Y244479D01*
X756396Y245050D01*
D02*
G37*
G36*
X1002143Y243428D02*
X1000651D01*
X999273Y242857D01*
X998218Y241803D01*
X997647Y240424D01*
Y238932D01*
X998218Y237554D01*
X999273Y236499D01*
X1000651Y235928D01*
X1002143D01*
X1003521Y236499D01*
X1004576Y237554D01*
X1005147Y238932D01*
Y240424D01*
X1004576Y241803D01*
X1003521Y242857D01*
X1002143Y243428D01*
D02*
G37*
G36*
X1037066Y241240D02*
X1035574D01*
X1034196Y240669D01*
X1033141Y239614D01*
X1032570Y238236D01*
Y236744D01*
X1033141Y235366D01*
X1034196Y234311D01*
X1035574Y233740D01*
X1037066D01*
X1038444Y234311D01*
X1039499Y235366D01*
X1040070Y236744D01*
Y238236D01*
X1039499Y239614D01*
X1038444Y240669D01*
X1037066Y241240D01*
D02*
G37*
G36*
X741156D02*
X739664D01*
X738286Y240669D01*
X737231Y239614D01*
X736660Y238236D01*
Y236744D01*
X737231Y235366D01*
X738286Y234311D01*
X739664Y233740D01*
X741156D01*
X742534Y234311D01*
X743589Y235366D01*
X744160Y236744D01*
Y238236D01*
X743589Y239614D01*
X742534Y240669D01*
X741156Y241240D01*
D02*
G37*
G36*
X586216Y237430D02*
X584724D01*
X583346Y236859D01*
X582291Y235804D01*
X581720Y234426D01*
Y232934D01*
X582291Y231556D01*
X583346Y230501D01*
X584724Y229930D01*
X586216D01*
X587594Y230501D01*
X588649Y231556D01*
X589220Y232934D01*
Y234426D01*
X588649Y235804D01*
X587594Y236859D01*
X586216Y237430D01*
D02*
G37*
G36*
X187436Y228540D02*
X185944D01*
X184566Y227969D01*
X183511Y226914D01*
X182940Y225536D01*
Y224044D01*
X183511Y222666D01*
X184566Y221611D01*
X185944Y221040D01*
X187436D01*
X188814Y221611D01*
X189869Y222666D01*
X190440Y224044D01*
Y225536D01*
X189869Y226914D01*
X188814Y227969D01*
X187436Y228540D01*
D02*
G37*
G36*
X752586Y225818D02*
X751094D01*
X749716Y225247D01*
X748661Y224192D01*
X748090Y222814D01*
Y221322D01*
X748661Y219944D01*
X749716Y218889D01*
X751094Y218318D01*
X752586D01*
X753964Y218889D01*
X755019Y219944D01*
X755590Y221322D01*
Y222814D01*
X755019Y224192D01*
X753964Y225247D01*
X752586Y225818D01*
D02*
G37*
G36*
X1189580Y223110D02*
X1178560D01*
Y212090D01*
X1189580D01*
Y223110D01*
D02*
G37*
G36*
X1176020D02*
X1165000D01*
Y212090D01*
X1176020D01*
Y223110D01*
D02*
G37*
G36*
X640572Y218488D02*
X639080D01*
X637702Y217917D01*
X636647Y216862D01*
X636076Y215484D01*
Y213992D01*
X636647Y212614D01*
X637702Y211559D01*
X639080Y210988D01*
X640572D01*
X641950Y211559D01*
X643005Y212614D01*
X643576Y213992D01*
Y215484D01*
X643005Y216862D01*
X641950Y217917D01*
X640572Y218488D01*
D02*
G37*
G36*
X998966Y213300D02*
X997474D01*
X996096Y212729D01*
X995041Y211674D01*
X994470Y210296D01*
Y208804D01*
X995041Y207426D01*
X996096Y206371D01*
X997474Y205800D01*
X998966D01*
X1000344Y206371D01*
X1001399Y207426D01*
X1001970Y208804D01*
Y210296D01*
X1001399Y211674D01*
X1000344Y212729D01*
X998966Y213300D01*
D02*
G37*
G36*
X385380Y207385D02*
X383888D01*
X382510Y206814D01*
X381455Y205759D01*
X380884Y204381D01*
Y202889D01*
X381455Y201511D01*
X382510Y200456D01*
X383888Y199885D01*
X385380D01*
X386758Y200456D01*
X387813Y201511D01*
X388384Y202889D01*
Y204381D01*
X387813Y205759D01*
X386758Y206814D01*
X385380Y207385D01*
D02*
G37*
G36*
X1143178Y221820D02*
X1140282D01*
X1137484Y221070D01*
X1134976Y219622D01*
X1132928Y217574D01*
X1131480Y215066D01*
X1130730Y212268D01*
Y209372D01*
X1131480Y206574D01*
X1132928Y204066D01*
X1134976Y202018D01*
X1137484Y200570D01*
X1140282Y199820D01*
X1143178D01*
X1145976Y200570D01*
X1148484Y202018D01*
X1150532Y204066D01*
X1151980Y206574D01*
X1152730Y209372D01*
Y212268D01*
X1151980Y215066D01*
X1150532Y217574D01*
X1148484Y219622D01*
X1145976Y221070D01*
X1143178Y221820D01*
D02*
G37*
G36*
X1189580Y209550D02*
X1178560D01*
Y198530D01*
X1189580D01*
Y209550D01*
D02*
G37*
G36*
X1176020D02*
X1165000D01*
Y198530D01*
X1176020D01*
Y209550D01*
D02*
G37*
G36*
X644636Y205680D02*
X643144D01*
X641766Y205109D01*
X640711Y204054D01*
X640140Y202676D01*
Y201184D01*
X640711Y199806D01*
X641766Y198751D01*
X643144Y198180D01*
X644636D01*
X646014Y198751D01*
X647069Y199806D01*
X647640Y201184D01*
Y202676D01*
X647069Y204054D01*
X646014Y205109D01*
X644636Y205680D01*
D02*
G37*
G36*
X716982Y201717D02*
X715383D01*
X713906Y201105D01*
X712775Y199974D01*
X712163Y198497D01*
Y196897D01*
X712775Y195420D01*
X713906Y194289D01*
X715383Y193677D01*
X716982D01*
X718460Y194289D01*
X719591Y195420D01*
X720203Y196897D01*
Y198497D01*
X719591Y199974D01*
X718460Y201105D01*
X716982Y201717D01*
D02*
G37*
G36*
X534146Y200600D02*
X532654D01*
X531276Y200029D01*
X530221Y198974D01*
X529650Y197596D01*
Y196104D01*
X530221Y194726D01*
X531276Y193671D01*
X532654Y193100D01*
X534146D01*
X535524Y193671D01*
X536579Y194726D01*
X537150Y196104D01*
Y197596D01*
X536579Y198974D01*
X535524Y200029D01*
X534146Y200600D01*
D02*
G37*
G36*
X360156D02*
X358664D01*
X357286Y200029D01*
X356231Y198974D01*
X355660Y197596D01*
Y196104D01*
X356231Y194726D01*
X357286Y193671D01*
X358664Y193100D01*
X360156D01*
X361534Y193671D01*
X362589Y194726D01*
X363160Y196104D01*
Y197596D01*
X362589Y198974D01*
X361534Y200029D01*
X360156Y200600D01*
D02*
G37*
G36*
X556752Y198988D02*
X555260D01*
X553882Y198417D01*
X552827Y197362D01*
X552256Y195984D01*
Y194492D01*
X552827Y193113D01*
X553882Y192059D01*
X555260Y191488D01*
X556752D01*
X558130Y192059D01*
X559185Y193113D01*
X559756Y194492D01*
Y195984D01*
X559185Y197362D01*
X558130Y198417D01*
X556752Y198988D01*
D02*
G37*
G36*
X1011666Y198060D02*
X1010174D01*
X1008796Y197489D01*
X1007741Y196434D01*
X1007170Y195056D01*
Y193564D01*
X1007741Y192186D01*
X1008796Y191131D01*
X1010174Y190560D01*
X1011666D01*
X1013044Y191131D01*
X1014099Y192186D01*
X1014670Y193564D01*
Y195056D01*
X1014099Y196434D01*
X1013044Y197489D01*
X1011666Y198060D01*
D02*
G37*
G36*
X376697Y192111D02*
X375206D01*
X373827Y191540D01*
X372772Y190485D01*
X372201Y189107D01*
Y187615D01*
X372772Y186237D01*
X373827Y185182D01*
X375206Y184611D01*
X376697D01*
X378076Y185182D01*
X379131Y186237D01*
X379701Y187615D01*
Y189107D01*
X379131Y190485D01*
X378076Y191540D01*
X376697Y192111D01*
D02*
G37*
G36*
X313166Y191710D02*
X311674D01*
X310296Y191139D01*
X309241Y190084D01*
X308670Y188706D01*
Y187214D01*
X309241Y185836D01*
X310296Y184781D01*
X311674Y184210D01*
X313166D01*
X314544Y184781D01*
X315599Y185836D01*
X316170Y187214D01*
Y188706D01*
X315599Y190084D01*
X314544Y191139D01*
X313166Y191710D01*
D02*
G37*
G36*
X181086D02*
X179594D01*
X178216Y191139D01*
X177161Y190084D01*
X176590Y188706D01*
Y187214D01*
X177161Y185836D01*
X178216Y184781D01*
X179594Y184210D01*
X181086D01*
X182464Y184781D01*
X183519Y185836D01*
X184090Y187214D01*
Y188706D01*
X183519Y190084D01*
X182464Y191139D01*
X181086Y191710D01*
D02*
G37*
G36*
X717080Y190710D02*
X715480D01*
X714003Y190098D01*
X712872Y188967D01*
X712260Y187490D01*
Y185890D01*
X712872Y184413D01*
X714003Y183282D01*
X715480Y182670D01*
X717080D01*
X718557Y183282D01*
X719688Y184413D01*
X720300Y185890D01*
Y187490D01*
X719688Y188967D01*
X718557Y190098D01*
X717080Y190710D01*
D02*
G37*
G36*
X1033256Y189170D02*
X1031764D01*
X1030386Y188599D01*
X1029331Y187544D01*
X1028760Y186166D01*
Y184674D01*
X1029331Y183296D01*
X1030386Y182241D01*
X1031764Y181670D01*
X1033256D01*
X1034634Y182241D01*
X1035689Y183296D01*
X1036260Y184674D01*
Y186166D01*
X1035689Y187544D01*
X1034634Y188599D01*
X1033256Y189170D01*
D02*
G37*
G36*
X907526D02*
X906034D01*
X904656Y188599D01*
X903601Y187544D01*
X903030Y186166D01*
Y184674D01*
X903601Y183296D01*
X904656Y182241D01*
X906034Y181670D01*
X907526D01*
X908904Y182241D01*
X909959Y183296D01*
X910530Y184674D01*
Y186166D01*
X909959Y187544D01*
X908904Y188599D01*
X907526Y189170D01*
D02*
G37*
G36*
X48498Y188154D02*
X47006D01*
X45628Y187583D01*
X44573Y186528D01*
X44002Y185150D01*
Y183658D01*
X44573Y182280D01*
X45628Y181225D01*
X47006Y180654D01*
X48498D01*
X49876Y181225D01*
X50931Y182280D01*
X51502Y183658D01*
Y185150D01*
X50931Y186528D01*
X49876Y187583D01*
X48498Y188154D01*
D02*
G37*
G36*
X978646Y184090D02*
X977154D01*
X975776Y183519D01*
X974721Y182464D01*
X974150Y181086D01*
Y179594D01*
X974721Y178216D01*
X975776Y177161D01*
X977154Y176590D01*
X978646D01*
X980024Y177161D01*
X981079Y178216D01*
X981650Y179594D01*
Y181086D01*
X981079Y182464D01*
X980024Y183519D01*
X978646Y184090D01*
D02*
G37*
G36*
X1178738Y196420D02*
X1175842D01*
X1173044Y195670D01*
X1170536Y194222D01*
X1168488Y192174D01*
X1167040Y189666D01*
X1166290Y186868D01*
Y183972D01*
X1167040Y181174D01*
X1168488Y178666D01*
X1170536Y176618D01*
X1173044Y175170D01*
X1175842Y174420D01*
X1178738D01*
X1181536Y175170D01*
X1184044Y176618D01*
X1186092Y178666D01*
X1187540Y181174D01*
X1188290Y183972D01*
Y186868D01*
X1187540Y189666D01*
X1186092Y192174D01*
X1184044Y194222D01*
X1181536Y195670D01*
X1178738Y196420D01*
D02*
G37*
G36*
X1152730D02*
X1130730D01*
Y174420D01*
X1152730D01*
Y196420D01*
D02*
G37*
G36*
X54086Y179010D02*
X52594D01*
X51216Y178439D01*
X50161Y177384D01*
X49590Y176006D01*
Y174514D01*
X50161Y173136D01*
X51216Y172081D01*
X52594Y171510D01*
X54086D01*
X55464Y172081D01*
X56519Y173136D01*
X57090Y174514D01*
Y176006D01*
X56519Y177384D01*
X55464Y178439D01*
X54086Y179010D01*
D02*
G37*
G36*
X1031986Y176470D02*
X1030494D01*
X1029116Y175899D01*
X1028061Y174844D01*
X1027490Y173466D01*
Y171974D01*
X1028061Y170596D01*
X1029116Y169541D01*
X1030494Y168970D01*
X1031986D01*
X1033364Y169541D01*
X1034419Y170596D01*
X1034990Y171974D01*
Y173466D01*
X1034419Y174844D01*
X1033364Y175899D01*
X1031986Y176470D01*
D02*
G37*
G36*
X49006Y171390D02*
X47514D01*
X46136Y170819D01*
X45081Y169764D01*
X44510Y168386D01*
Y166894D01*
X45081Y165516D01*
X46136Y164461D01*
X47514Y163890D01*
X49006D01*
X50384Y164461D01*
X51439Y165516D01*
X52010Y166894D01*
Y168386D01*
X51439Y169764D01*
X50384Y170819D01*
X49006Y171390D01*
D02*
G37*
G36*
X913876Y162500D02*
X912384D01*
X911006Y161929D01*
X909951Y160874D01*
X909380Y159496D01*
Y158004D01*
X909951Y156626D01*
X911006Y155571D01*
X912384Y155000D01*
X913876D01*
X915254Y155571D01*
X916309Y156626D01*
X916880Y158004D01*
Y159496D01*
X916309Y160874D01*
X915254Y161929D01*
X913876Y162500D01*
D02*
G37*
G36*
X1167876Y158690D02*
X1166384D01*
X1165006Y158119D01*
X1163951Y157064D01*
X1163380Y155686D01*
Y154194D01*
X1163951Y152816D01*
X1165006Y151761D01*
X1166384Y151190D01*
X1167876D01*
X1169254Y151761D01*
X1170309Y152816D01*
X1170880Y154194D01*
Y155686D01*
X1170309Y157064D01*
X1169254Y158119D01*
X1167876Y158690D01*
D02*
G37*
G36*
X690356Y153610D02*
X688864D01*
X687486Y153039D01*
X686431Y151984D01*
X685860Y150606D01*
Y149114D01*
X686431Y147736D01*
X687486Y146681D01*
X688864Y146110D01*
X690356D01*
X691734Y146681D01*
X692789Y147736D01*
X693360Y149114D01*
Y150606D01*
X692789Y151984D01*
X691734Y153039D01*
X690356Y153610D01*
D02*
G37*
G36*
X484616Y151070D02*
X483124D01*
X481746Y150499D01*
X480691Y149444D01*
X480120Y148066D01*
Y146574D01*
X480691Y145196D01*
X481746Y144141D01*
X483124Y143570D01*
X484616D01*
X485994Y144141D01*
X487049Y145196D01*
X487620Y146574D01*
Y148066D01*
X487049Y149444D01*
X485994Y150499D01*
X484616Y151070D01*
D02*
G37*
G36*
X622178Y153274D02*
X613204D01*
X612247Y152878D01*
X611851Y151922D01*
Y143977D01*
X612247Y143021D01*
X613204Y142625D01*
X622178D01*
X623134Y143021D01*
X623531Y143977D01*
Y151922D01*
X623134Y152878D01*
X622178Y153274D01*
D02*
G37*
G36*
X1005824Y149181D02*
X1004332D01*
X1002954Y148610D01*
X1001899Y147556D01*
X1001328Y146177D01*
Y144685D01*
X1001899Y143307D01*
X1002954Y142252D01*
X1004332Y141681D01*
X1005824D01*
X1007202Y142252D01*
X1008257Y143307D01*
X1008828Y144685D01*
Y146177D01*
X1008257Y147556D01*
X1007202Y148610D01*
X1005824Y149181D01*
D02*
G37*
G36*
X718289Y147267D02*
X716797D01*
X715419Y146696D01*
X714364Y145641D01*
X713793Y144263D01*
Y142771D01*
X714364Y141393D01*
X715419Y140338D01*
X716797Y139767D01*
X718289D01*
X719667Y140338D01*
X720722Y141393D01*
X721293Y142771D01*
Y144263D01*
X720722Y145641D01*
X719667Y146696D01*
X718289Y147267D01*
D02*
G37*
G36*
X948541Y142572D02*
X947049D01*
X945671Y142001D01*
X944616Y140947D01*
X944045Y139568D01*
Y138076D01*
X944616Y136698D01*
X945671Y135643D01*
X947049Y135072D01*
X948541D01*
X949919Y135643D01*
X950974Y136698D01*
X951545Y138076D01*
Y139568D01*
X950974Y140947D01*
X949919Y142001D01*
X948541Y142572D01*
D02*
G37*
G36*
X713906Y135830D02*
X712414D01*
X711036Y135259D01*
X709981Y134204D01*
X709410Y132826D01*
Y131334D01*
X709981Y129956D01*
X711036Y128901D01*
X712414Y128330D01*
X713906D01*
X715284Y128901D01*
X716339Y129956D01*
X716910Y131334D01*
Y132826D01*
X716339Y134204D01*
X715284Y135259D01*
X713906Y135830D01*
D02*
G37*
G36*
X998966Y125670D02*
X997474D01*
X996096Y125099D01*
X995041Y124044D01*
X994470Y122666D01*
Y121174D01*
X995041Y119796D01*
X996096Y118741D01*
X997474Y118170D01*
X998966D01*
X1000344Y118741D01*
X1001399Y119796D01*
X1001970Y121174D01*
Y122666D01*
X1001399Y124044D01*
X1000344Y125099D01*
X998966Y125670D01*
D02*
G37*
G36*
X1153906Y123130D02*
X1152414D01*
X1151036Y122559D01*
X1149981Y121504D01*
X1149410Y120126D01*
Y118634D01*
X1149981Y117256D01*
X1151036Y116201D01*
X1152414Y115630D01*
X1153906D01*
X1155284Y116201D01*
X1156339Y117256D01*
X1156910Y118634D01*
Y120126D01*
X1156339Y121504D01*
X1155284Y122559D01*
X1153906Y123130D01*
D02*
G37*
G36*
X776716Y121860D02*
X775224D01*
X773846Y121289D01*
X772791Y120234D01*
X772220Y118856D01*
Y117364D01*
X772791Y115986D01*
X773846Y114931D01*
X775224Y114360D01*
X776716D01*
X778094Y114931D01*
X779149Y115986D01*
X779720Y117364D01*
Y118856D01*
X779149Y120234D01*
X778094Y121289D01*
X776716Y121860D01*
D02*
G37*
G36*
X662416Y120590D02*
X660924D01*
X659546Y120019D01*
X658491Y118964D01*
X657920Y117586D01*
Y116094D01*
X658491Y114716D01*
X659546Y113661D01*
X660924Y113090D01*
X662416D01*
X663794Y113661D01*
X664849Y114716D01*
X665420Y116094D01*
Y117586D01*
X664849Y118964D01*
X663794Y120019D01*
X662416Y120590D01*
D02*
G37*
G36*
X263636Y105350D02*
X262144D01*
X260766Y104779D01*
X259711Y103724D01*
X259140Y102346D01*
Y100854D01*
X259711Y99476D01*
X260766Y98421D01*
X262144Y97850D01*
X263636D01*
X265014Y98421D01*
X266069Y99476D01*
X266640Y100854D01*
Y102346D01*
X266069Y103724D01*
X265014Y104779D01*
X263636Y105350D01*
D02*
G37*
G36*
X672641Y100913D02*
X663528D01*
X662571Y100516D01*
X662175Y99560D01*
Y90622D01*
X662571Y89665D01*
X663528Y89269D01*
X672641D01*
X673597Y89665D01*
X673994Y90622D01*
Y99560D01*
X673597Y100516D01*
X672641Y100913D01*
D02*
G37*
G36*
X1048496Y95190D02*
X1047004D01*
X1045626Y94619D01*
X1044571Y93564D01*
X1044000Y92186D01*
Y90694D01*
X1044571Y89316D01*
X1045626Y88261D01*
X1047004Y87690D01*
X1048496D01*
X1049874Y88261D01*
X1050929Y89316D01*
X1051500Y90694D01*
Y92186D01*
X1050929Y93564D01*
X1049874Y94619D01*
X1048496Y95190D01*
D02*
G37*
G36*
X62976D02*
X61484D01*
X60106Y94619D01*
X59051Y93564D01*
X58480Y92186D01*
Y90694D01*
X59051Y89316D01*
X60106Y88261D01*
X61484Y87690D01*
X62976D01*
X64354Y88261D01*
X65409Y89316D01*
X65980Y90694D01*
Y92186D01*
X65409Y93564D01*
X64354Y94619D01*
X62976Y95190D01*
D02*
G37*
G36*
X958326Y93920D02*
X956834D01*
X955456Y93349D01*
X954401Y92294D01*
X953830Y90916D01*
Y89424D01*
X954401Y88046D01*
X955456Y86991D01*
X956834Y86420D01*
X958326D01*
X959704Y86991D01*
X960759Y88046D01*
X961330Y89424D01*
Y90916D01*
X960759Y92294D01*
X959704Y93349D01*
X958326Y93920D01*
D02*
G37*
G36*
X672553Y85841D02*
X663440D01*
X662483Y85444D01*
X662087Y84488D01*
Y75813D01*
X662483Y74856D01*
X663440Y74460D01*
X672553D01*
X673510Y74856D01*
X673906Y75813D01*
Y84488D01*
X673510Y85444D01*
X672553Y85841D01*
D02*
G37*
G36*
X1016746Y81220D02*
X1015254D01*
X1013876Y80649D01*
X1012821Y79594D01*
X1012250Y78216D01*
Y76724D01*
X1012821Y75346D01*
X1013876Y74291D01*
X1015254Y73720D01*
X1016746D01*
X1018124Y74291D01*
X1019179Y75346D01*
X1019750Y76724D01*
Y78216D01*
X1019179Y79594D01*
X1018124Y80649D01*
X1016746Y81220D01*
D02*
G37*
G36*
X638286Y78680D02*
X636794D01*
X635416Y78109D01*
X634361Y77054D01*
X633790Y75676D01*
Y74184D01*
X634361Y72806D01*
X635416Y71751D01*
X636794Y71180D01*
X638286D01*
X639664Y71751D01*
X640719Y72806D01*
X641290Y74184D01*
Y75676D01*
X640719Y77054D01*
X639664Y78109D01*
X638286Y78680D01*
D02*
G37*
G36*
X543036Y73600D02*
X541544D01*
X540166Y73029D01*
X539111Y71974D01*
X538540Y70596D01*
Y69104D01*
X539111Y67726D01*
X540166Y66671D01*
X541544Y66100D01*
X543036D01*
X544414Y66671D01*
X545469Y67726D01*
X546040Y69104D01*
Y70596D01*
X545469Y71974D01*
X544414Y73029D01*
X543036Y73600D01*
D02*
G37*
G36*
X743696Y72330D02*
X742204D01*
X740826Y71759D01*
X739771Y70704D01*
X739200Y69326D01*
Y67834D01*
X739771Y66456D01*
X740826Y65401D01*
X742204Y64830D01*
X743696D01*
X745074Y65401D01*
X746129Y66456D01*
X746700Y67834D01*
Y69326D01*
X746129Y70704D01*
X745074Y71759D01*
X743696Y72330D01*
D02*
G37*
G36*
X598916Y65980D02*
X597424D01*
X596046Y65409D01*
X594991Y64354D01*
X594420Y62976D01*
Y61484D01*
X594991Y60106D01*
X596046Y59051D01*
X597424Y58480D01*
X598916D01*
X600294Y59051D01*
X601349Y60106D01*
X601920Y61484D01*
Y62976D01*
X601349Y64354D01*
X600294Y65409D01*
X598916Y65980D01*
D02*
G37*
G36*
X1166606Y59630D02*
X1165114D01*
X1163736Y59059D01*
X1162681Y58004D01*
X1162110Y56626D01*
Y55134D01*
X1162681Y53756D01*
X1163736Y52701D01*
X1165114Y52130D01*
X1166606D01*
X1167984Y52701D01*
X1169039Y53756D01*
X1169610Y55134D01*
Y56626D01*
X1169039Y58004D01*
X1167984Y59059D01*
X1166606Y59630D01*
D02*
G37*
G36*
X1066276D02*
X1064784D01*
X1063406Y59059D01*
X1062351Y58004D01*
X1061780Y56626D01*
Y55134D01*
X1062351Y53756D01*
X1063406Y52701D01*
X1064784Y52130D01*
X1066276D01*
X1067654Y52701D01*
X1068709Y53756D01*
X1069280Y55134D01*
Y56626D01*
X1068709Y58004D01*
X1067654Y59059D01*
X1066276Y59630D01*
D02*
G37*
G36*
X1151174Y53596D02*
X1149682D01*
X1148304Y53025D01*
X1147249Y51970D01*
X1146678Y50592D01*
Y49100D01*
X1147249Y47722D01*
X1148304Y46667D01*
X1149682Y46096D01*
X1151174D01*
X1152552Y46667D01*
X1153607Y47722D01*
X1154178Y49100D01*
Y50592D01*
X1153607Y51970D01*
X1152552Y53025D01*
X1151174Y53596D01*
D02*
G37*
G36*
X334160Y51430D02*
X334010D01*
Y41910D01*
X343530D01*
Y42060D01*
X342795Y44805D01*
X341374Y47265D01*
X339365Y49274D01*
X336905Y50695D01*
X334160Y51430D01*
D02*
G37*
G36*
X331470D02*
X331320D01*
X328575Y50695D01*
X326115Y49274D01*
X324106Y47265D01*
X322685Y44805D01*
X321950Y42060D01*
Y41910D01*
X331470D01*
Y51430D01*
D02*
G37*
G36*
X205891Y50160D02*
X205740D01*
Y40640D01*
X215260D01*
Y40791D01*
X214525Y43535D01*
X213104Y45995D01*
X211095Y48004D01*
X208635Y49425D01*
X205891Y50160D01*
D02*
G37*
G36*
X203200D02*
X203050D01*
X200305Y49425D01*
X197845Y48004D01*
X195836Y45995D01*
X194415Y43535D01*
X193680Y40791D01*
Y40640D01*
X203200D01*
Y50160D01*
D02*
G37*
G36*
X672904Y48511D02*
X663177D01*
X662220Y48115D01*
X661824Y47158D01*
Y36731D01*
X662220Y35774D01*
X663177Y35378D01*
X672904D01*
X673860Y35774D01*
X674257Y36731D01*
Y47158D01*
X673860Y48115D01*
X672904Y48511D01*
D02*
G37*
G36*
X1044686Y39310D02*
X1043194D01*
X1041816Y38739D01*
X1040761Y37684D01*
X1040190Y36306D01*
Y34814D01*
X1040761Y33436D01*
X1041816Y32381D01*
X1043194Y31810D01*
X1044686D01*
X1046064Y32381D01*
X1047119Y33436D01*
X1047690Y34814D01*
Y36306D01*
X1047119Y37684D01*
X1046064Y38739D01*
X1044686Y39310D01*
D02*
G37*
G36*
X469240Y50140D02*
X450240D01*
Y31140D01*
X469240D01*
Y50140D01*
D02*
G37*
G36*
X435591D02*
X433089D01*
X430673Y49493D01*
X428507Y48242D01*
X426738Y46473D01*
X425487Y44307D01*
X424840Y41891D01*
Y39389D01*
X425487Y36973D01*
X426738Y34807D01*
X428507Y33038D01*
X430673Y31787D01*
X433089Y31140D01*
X435591D01*
X438007Y31787D01*
X440173Y33038D01*
X441942Y34807D01*
X443193Y36973D01*
X443840Y39389D01*
Y41891D01*
X443193Y44307D01*
X441942Y46473D01*
X440173Y48242D01*
X438007Y49493D01*
X435591Y50140D01*
D02*
G37*
G36*
X410191D02*
X407689D01*
X405273Y49493D01*
X403107Y48242D01*
X401338Y46473D01*
X400087Y44307D01*
X399440Y41891D01*
Y39389D01*
X400087Y36973D01*
X401338Y34807D01*
X403107Y33038D01*
X405273Y31787D01*
X407689Y31140D01*
X410191D01*
X412607Y31787D01*
X414773Y33038D01*
X416542Y34807D01*
X417793Y36973D01*
X418440Y39389D01*
Y41891D01*
X417793Y44307D01*
X416542Y46473D01*
X414773Y48242D01*
X412607Y49493D01*
X410191Y50140D01*
D02*
G37*
G36*
X384791D02*
X382289D01*
X379873Y49493D01*
X377707Y48242D01*
X375938Y46473D01*
X374687Y44307D01*
X374040Y41891D01*
Y39389D01*
X374687Y36973D01*
X375938Y34807D01*
X377707Y33038D01*
X379873Y31787D01*
X382289Y31140D01*
X384791D01*
X387207Y31787D01*
X389373Y33038D01*
X391142Y34807D01*
X392393Y36973D01*
X393040Y39389D01*
Y41891D01*
X392393Y44307D01*
X391142Y46473D01*
X389373Y48242D01*
X387207Y49493D01*
X384791Y50140D01*
D02*
G37*
G36*
X359391D02*
X356889D01*
X354473Y49493D01*
X352307Y48242D01*
X350538Y46473D01*
X349287Y44307D01*
X348640Y41891D01*
Y39389D01*
X349287Y36973D01*
X350538Y34807D01*
X352307Y33038D01*
X354473Y31787D01*
X356889Y31140D01*
X359391D01*
X361807Y31787D01*
X363973Y33038D01*
X365742Y34807D01*
X366993Y36973D01*
X367640Y39389D01*
Y41891D01*
X366993Y44307D01*
X365742Y46473D01*
X363973Y48242D01*
X361807Y49493D01*
X359391Y50140D01*
D02*
G37*
G36*
X290170Y48870D02*
X271170D01*
Y29870D01*
X290170D01*
Y48870D01*
D02*
G37*
G36*
X256521D02*
X254019D01*
X251603Y48223D01*
X249437Y46972D01*
X247668Y45203D01*
X246417Y43037D01*
X245770Y40621D01*
Y38119D01*
X246417Y35703D01*
X247668Y33537D01*
X249437Y31768D01*
X251603Y30517D01*
X254019Y29870D01*
X256521D01*
X258937Y30517D01*
X261103Y31768D01*
X262872Y33537D01*
X264123Y35703D01*
X264770Y38119D01*
Y40621D01*
X264123Y43037D01*
X262872Y45203D01*
X261103Y46972D01*
X258937Y48223D01*
X256521Y48870D01*
D02*
G37*
G36*
X231121D02*
X228619D01*
X226203Y48223D01*
X224037Y46972D01*
X222268Y45203D01*
X221017Y43037D01*
X220370Y40621D01*
Y38119D01*
X221017Y35703D01*
X222268Y33537D01*
X224037Y31768D01*
X226203Y30517D01*
X228619Y29870D01*
X231121D01*
X233537Y30517D01*
X235703Y31768D01*
X237472Y33537D01*
X238723Y35703D01*
X239370Y38119D01*
Y40621D01*
X238723Y43037D01*
X237472Y45203D01*
X235703Y46972D01*
X233537Y48223D01*
X231121Y48870D01*
D02*
G37*
G36*
X343530Y39370D02*
X334010D01*
Y29850D01*
X334160D01*
X336905Y30585D01*
X339365Y32006D01*
X341374Y34015D01*
X342795Y36475D01*
X343530Y39220D01*
Y39370D01*
D02*
G37*
G36*
X331470D02*
X321950D01*
Y39220D01*
X322685Y36475D01*
X324106Y34015D01*
X326115Y32006D01*
X328575Y30585D01*
X331320Y29850D01*
X331470D01*
Y39370D01*
D02*
G37*
G36*
X215260Y38100D02*
X205740D01*
Y28580D01*
X205891D01*
X208635Y29315D01*
X211095Y30736D01*
X213104Y32745D01*
X214525Y35205D01*
X215260Y37950D01*
Y38100D01*
D02*
G37*
G36*
X203200D02*
X193680D01*
Y37950D01*
X194415Y35205D01*
X195836Y32745D01*
X197845Y30736D01*
X200305Y29315D01*
X203050Y28580D01*
X203200D01*
Y38100D01*
D02*
G37*
G36*
X40640Y55952D02*
X36909Y55585D01*
X33322Y54496D01*
X30016Y52729D01*
X27119Y50351D01*
X24741Y47454D01*
X22973Y44148D01*
X21885Y40560D01*
X21518Y36830D01*
X21885Y33100D01*
X22973Y29512D01*
X24741Y26206D01*
X27119Y23309D01*
X30016Y20931D01*
X33322Y19164D01*
X36909Y18075D01*
X40640Y17708D01*
X44370Y18075D01*
X47958Y19164D01*
X51264Y20931D01*
X54161Y23309D01*
X56539Y26206D01*
X58306Y29512D01*
X59395Y33100D01*
X59762Y36830D01*
X59395Y40560D01*
X58306Y44148D01*
X56539Y47454D01*
X54161Y50351D01*
X51264Y52729D01*
X47958Y54496D01*
X44370Y55585D01*
X40640Y55952D01*
D02*
G37*
G36*
X1065006Y24070D02*
X1063514D01*
X1062136Y23499D01*
X1061081Y22444D01*
X1060510Y21066D01*
Y19574D01*
X1061081Y18196D01*
X1062136Y17141D01*
X1063514Y16570D01*
X1065006D01*
X1066384Y17141D01*
X1067439Y18196D01*
X1068010Y19574D01*
Y21066D01*
X1067439Y22444D01*
X1066384Y23499D01*
X1065006Y24070D01*
D02*
G37*
%LPD*%
D186*
X702310Y332740D02*
D03*
X332740Y40640D02*
D03*
X204470Y39370D02*
D03*
D187*
X1126902Y535940D02*
D03*
X53340Y518160D02*
D03*
D189*
X408940Y511810D02*
D03*
D190*
X1177290Y210820D02*
D03*
D192*
X72390Y402590D02*
D03*
X1022350Y288290D02*
D03*
X1023462Y123719D02*
D03*
X961070Y318080D02*
D03*
X961146Y303205D02*
D03*
X1016814Y392098D02*
D03*
X1036750Y391833D02*
D03*
X1061578Y392164D02*
D03*
X1098488Y392054D02*
D03*
X1117302D02*
D03*
X962775Y268042D02*
D03*
X1106162Y269343D02*
D03*
X929640Y11430D02*
D03*
X1092200D02*
D03*
X1178560D02*
D03*
X1042670D02*
D03*
X744220Y52070D02*
D03*
X69956Y266757D02*
D03*
X1086372Y269325D02*
D03*
X537254Y374734D02*
D03*
X637540Y436190D02*
D03*
X624426Y404691D02*
D03*
X734527Y448540D02*
D03*
X725170Y267970D02*
D03*
X989330Y222250D02*
D03*
X680720Y143510D02*
D03*
X651510Y22860D02*
D03*
X681990D02*
D03*
X1009187Y306960D02*
D03*
X1063182Y288180D02*
D03*
X997033Y391947D02*
D03*
X957580Y383540D02*
D03*
X961763Y355935D02*
D03*
X961390Y340360D02*
D03*
X937260Y356870D02*
D03*
X999490Y267970D02*
D03*
X1127956Y270428D02*
D03*
X1003234Y438626D02*
D03*
X1017986Y298951D02*
D03*
X999097Y353837D02*
D03*
X989452Y354901D02*
D03*
X999204Y346931D02*
D03*
X999316Y340360D02*
D03*
X1009323Y339487D02*
D03*
X1117570Y300960D02*
D03*
X1099820Y298450D02*
D03*
X1099404Y306924D02*
D03*
X1109281Y307162D02*
D03*
X1078952Y306939D02*
D03*
X1039277Y306822D02*
D03*
X1059180Y322580D02*
D03*
Y339090D02*
D03*
X1039575Y339450D02*
D03*
X1039334Y346934D02*
D03*
X1039092Y355005D02*
D03*
Y362683D02*
D03*
X1059160Y362458D02*
D03*
X1059055Y355097D02*
D03*
X1078810Y346735D02*
D03*
X1076960Y338960D02*
D03*
X1078810Y355252D02*
D03*
X1099130Y362960D02*
D03*
Y355518D02*
D03*
Y339193D02*
D03*
X1099368Y323032D02*
D03*
X1109346Y323057D02*
D03*
X1119409Y330876D02*
D03*
X1119409Y345654D02*
D03*
X1119551Y360942D02*
D03*
X1099368Y314960D02*
D03*
X999385Y298794D02*
D03*
X999490Y307340D02*
D03*
X1195681Y426532D02*
D03*
X1189376Y478420D02*
D03*
X1136031Y487954D02*
D03*
X1164590Y532130D02*
D03*
X1194580Y532130D02*
D03*
X106680Y538480D02*
D03*
X188580Y538017D02*
D03*
X246957Y361317D02*
D03*
X1060450Y138430D02*
D03*
X994338Y102870D02*
D03*
X942703Y90776D02*
D03*
X1105111Y89593D02*
D03*
X1071643Y179946D02*
D03*
X1098564Y146904D02*
D03*
X1196340Y100330D02*
D03*
X1157613Y132439D02*
D03*
X1167754Y347416D02*
D03*
X1176183Y404427D02*
D03*
X1014730Y502920D02*
D03*
X975501Y468283D02*
D03*
X869846Y424177D02*
D03*
X874530Y452754D02*
D03*
X851985Y504837D02*
D03*
X820317Y504621D02*
D03*
X635706Y528213D02*
D03*
X664670Y366711D02*
D03*
X858955Y305022D02*
D03*
X748030Y167640D02*
D03*
X752777Y176922D02*
D03*
X832636Y177304D02*
D03*
X852170Y151130D02*
D03*
X804375Y83674D02*
D03*
X850782Y52766D02*
D03*
X837616Y36490D02*
D03*
X757275Y36490D02*
D03*
X513598Y18903D02*
D03*
X608439Y29925D02*
D03*
X608612Y84886D02*
D03*
X608608Y136289D02*
D03*
X608700Y159238D02*
D03*
X513820Y159294D02*
D03*
X597042Y255093D02*
D03*
X560070Y241682D02*
D03*
X557158Y221929D02*
D03*
X733532Y483000D02*
D03*
X734060Y530860D02*
D03*
X694690Y542290D02*
D03*
X669011Y482834D02*
D03*
X635145Y483787D02*
D03*
X568516Y531990D02*
D03*
X457015Y454062D02*
D03*
X458008Y485891D02*
D03*
X415260Y484421D02*
D03*
X391249Y483905D02*
D03*
X340431Y437435D02*
D03*
X314019Y495428D02*
D03*
X244891Y513375D02*
D03*
X255258Y513040D02*
D03*
X250190Y505460D02*
D03*
Y521970D02*
D03*
X231824Y465182D02*
D03*
X201123Y485715D02*
D03*
X149793Y484846D02*
D03*
X125635Y484556D02*
D03*
X114691Y507395D02*
D03*
X129841Y543625D02*
D03*
X136584Y257229D02*
D03*
X83613Y266217D02*
D03*
X118145Y141036D02*
D03*
X99932Y71796D02*
D03*
X38842Y113858D02*
D03*
X14992Y175714D02*
D03*
X45720Y213360D02*
D03*
X15097Y264368D02*
D03*
X102870Y392430D02*
D03*
X80010Y387350D02*
D03*
X16510Y421640D02*
D03*
D193*
X659091Y72884D02*
D03*
X661840Y66949D02*
D03*
X658177Y48451D02*
D03*
X657922Y41916D02*
D03*
X663494Y31572D02*
D03*
X670034D02*
D03*
X678118Y45794D02*
D03*
X675269Y51681D02*
D03*
X675072Y71155D02*
D03*
X633587Y131819D02*
D03*
X633900Y125287D02*
D03*
X634260Y118757D02*
D03*
X635817Y112405D02*
D03*
X638567Y106471D02*
D03*
X642352Y101138D02*
D03*
X647046Y96584D02*
D03*
X652491Y92961D02*
D03*
X658304Y89965D02*
D03*
X676215Y85366D02*
D03*
X679591Y79764D02*
D03*
X686122Y79422D02*
D03*
X692652Y79788D02*
D03*
X669246Y104728D02*
D03*
X662707Y104616D02*
D03*
X656188Y105148D02*
D03*
X651363Y109563D02*
D03*
X648007Y115176D02*
D03*
X646404Y121517D02*
D03*
X646260Y128055D02*
D03*
X645632Y134565D02*
D03*
X643289Y140671D02*
D03*
X639518Y146014D02*
D03*
X635195Y150922D02*
D03*
X1182661Y531038D02*
D03*
X1176121D02*
D03*
X1169732Y521598D02*
D03*
X1169808Y515058D02*
D03*
X1173650Y509766D02*
D03*
Y503226D02*
D03*
X1173475Y496688D02*
D03*
X1170127Y491070D02*
D03*
X1164025Y488717D02*
D03*
X1157485Y488701D02*
D03*
X1151082Y490035D02*
D03*
X1144544Y489897D02*
D03*
X1153567Y476125D02*
D03*
X1160104Y476340D02*
D03*
X1166639Y476592D02*
D03*
X1172938Y478352D02*
D03*
X1178413Y481929D02*
D03*
X1182659Y486903D02*
D03*
X1185216Y492923D02*
D03*
X1186010Y499414D02*
D03*
Y505954D02*
D03*
X1188536Y511987D02*
D03*
X1189928Y518377D02*
D03*
X1118220Y447861D02*
D03*
X1119718Y441494D02*
D03*
X1124450Y436980D02*
D03*
X1130418Y434305D02*
D03*
Y427766D02*
D03*
Y421226D02*
D03*
Y414686D02*
D03*
Y408146D02*
D03*
Y401606D02*
D03*
Y395066D02*
D03*
X1136255Y351800D02*
D03*
X1142778Y421546D02*
D03*
X1142773Y434626D02*
D03*
X1141068Y440940D02*
D03*
X1136663Y445774D02*
D03*
X1130580Y448177D02*
D03*
X1130949Y454707D02*
D03*
X1152843Y413908D02*
D03*
X1146450Y412531D02*
D03*
X1144782Y406208D02*
D03*
Y399668D02*
D03*
X1145607Y393180D02*
D03*
X1144952Y386673D02*
D03*
X1144494Y380149D02*
D03*
Y373609D02*
D03*
Y367069D02*
D03*
Y360529D02*
D03*
Y353989D02*
D03*
Y347449D02*
D03*
X1143606Y340969D02*
D03*
X1139936Y335556D02*
D03*
X1134189Y332436D02*
D03*
X1137885Y320784D02*
D03*
X1143897Y323359D02*
D03*
X1149067Y327365D02*
D03*
X1153071Y332536D02*
D03*
X1155645Y338548D02*
D03*
X1156702Y345002D02*
D03*
X1156746Y351541D02*
D03*
Y358082D02*
D03*
Y364621D02*
D03*
Y371161D02*
D03*
X1160496Y376520D02*
D03*
X1162211Y394731D02*
D03*
X1159631Y413520D02*
D03*
M02*
