G04*
G04 #@! TF.GenerationSoftware,Altium Limited,Altium Designer,21.6.4 (81)*
G04*
G04 Layer_Physical_Order=1*
G04 Layer_Color=255*
%FSLAX44Y44*%
%MOMM*%
G71*
G04*
G04 #@! TF.SameCoordinates,35F2EB46-45B6-4E83-8094-EA5E86E84025*
G04*
G04*
G04 #@! TF.FilePolarity,Positive*
G04*
G01*
G75*
%ADD10C,0.2000*%
%ADD12C,0.2540*%
%ADD13C,0.2500*%
%ADD14C,0.1500*%
%ADD16R,0.7800X0.9900*%
%ADD17R,0.9900X0.7800*%
%ADD18R,0.9500X0.9000*%
%ADD19R,1.5500X0.7450*%
%ADD20R,1.5500X0.6700*%
%ADD21R,0.4250X0.5150*%
%ADD22R,0.4250X0.2750*%
%ADD23R,0.9000X0.9500*%
%ADD24R,0.9000X0.7000*%
%ADD25R,0.7000X0.7000*%
%ADD26R,1.2000X0.6500*%
%ADD27R,0.4500X2.9000*%
%ADD28R,0.4500X1.9000*%
%ADD29R,0.7500X0.7000*%
%ADD30R,1.4000X0.5000*%
%ADD31R,0.4500X2.4000*%
%ADD32R,0.6000X0.6000*%
%ADD33R,0.8000X0.8000*%
%ADD34R,0.3000X0.3000*%
%ADD35R,0.3000X0.5400*%
%ADD36R,0.5400X0.5400*%
%ADD37R,0.5400X0.3000*%
%ADD38R,0.6000X1.0500*%
%ADD39R,1.4750X0.4500*%
%ADD40R,0.9000X0.8000*%
%ADD41R,3.0000X3.0300*%
%ADD42R,0.7000X2.0000*%
%ADD43R,2.0000X0.7000*%
%ADD44R,1.5000X0.7000*%
%ADD45R,0.7000X1.5000*%
%ADD46R,0.2540X0.2540*%
%ADD47R,1.0000X1.0500*%
%ADD48R,1.0500X2.2000*%
%ADD49R,0.7500X1.6000*%
%ADD50C,0.2500*%
%ADD51R,1.5500X1.3500*%
%ADD52R,1.2000X1.0000*%
%ADD53R,1.9000X1.3500*%
%ADD54R,1.1700X1.8000*%
%ADD55R,0.7500X1.1000*%
%ADD56R,0.8500X1.1000*%
%ADD57R,1.5500X1.3000*%
%ADD58R,0.8000X0.3000*%
%ADD59R,3.0500X2.2000*%
%ADD60R,1.5250X0.6500*%
%ADD61R,0.2500X0.6000*%
%ADD62R,1.6500X2.4000*%
%ADD63R,0.6000X0.2400*%
%ADD64R,3.2000X3.1000*%
%ADD65R,3.2000X2.7300*%
%ADD66R,7.5000X1.8000*%
%ADD67R,1.2000X2.4000*%
%ADD68R,2.5000X1.6500*%
%ADD69R,1.7000X2.1000*%
%ADD70R,2.5000X2.9000*%
%ADD71R,1.4000X1.2500*%
%ADD72R,1.9500X1.1000*%
%ADD73R,2.0000X1.1000*%
%ADD74R,1.0500X0.6000*%
%ADD75R,2.4000X2.0000*%
%ADD76R,0.5000X0.8000*%
%ADD77R,1.0000X0.6750*%
%ADD78R,1.8500X3.5000*%
%ADD79R,1.4000X0.9000*%
%ADD80R,0.4500X1.4250*%
%ADD81R,0.4200X0.5600*%
%ADD82R,3.0500X1.1400*%
%ADD83R,0.4700X0.3000*%
%ADD84R,0.3500X0.8500*%
%ADD85R,0.8000X2.4000*%
%ADD86R,1.8000X3.3000*%
%ADD87R,0.6000X1.2000*%
%ADD88R,1.4500X0.9500*%
%ADD89R,0.7400X2.7950*%
%ADD171C,0.1900*%
%ADD172C,0.4000*%
%ADD173C,0.2400*%
%ADD174C,0.3000*%
%ADD175C,0.3500*%
%ADD176C,0.3600*%
%ADD177C,0.1650*%
%ADD178C,0.6350*%
%ADD179C,0.5000*%
%ADD180C,0.2032*%
%ADD181C,0.6000*%
%ADD182C,0.3360*%
%ADD183C,1.6500*%
%ADD184R,1.6500X1.6500*%
%ADD185R,1.6500X1.6500*%
%ADD186C,1.1000*%
%ADD187R,1.9500X1.9500*%
%ADD188C,1.9500*%
%ADD189C,0.5000*%
G36*
X1186790Y533338D02*
Y528166D01*
X1186080Y527190D01*
X1173580D01*
X1172870Y528166D01*
Y533338D01*
X1174830Y533596D01*
X1184830D01*
X1186790Y533338D01*
D02*
G37*
G36*
X1172870Y522400D02*
X1173580Y521424D01*
Y514190D01*
X1177536D01*
Y500325D01*
X1177519Y499062D01*
X1177479Y497823D01*
X1177110Y495015D01*
X1175729Y491682D01*
X1173533Y488820D01*
X1170671Y486624D01*
X1167338Y485244D01*
X1165417Y484991D01*
X1164172Y484927D01*
Y484927D01*
X1162944Y484818D01*
X1162896Y484814D01*
X1151535D01*
Y486345D01*
X1144785D01*
Y486125D01*
X1139578D01*
X1139150Y486559D01*
X1138772Y487395D01*
X1139405Y488923D01*
X1140621Y490509D01*
X1142207Y491726D01*
X1144054Y492491D01*
X1146035Y492752D01*
X1150285D01*
X1152267Y492491D01*
X1154113Y491726D01*
X1154722Y491259D01*
X1163728D01*
X1165192Y491403D01*
X1166567Y491820D01*
X1167834Y492497D01*
X1168945Y493409D01*
X1169856Y494520D01*
X1170533Y495787D01*
X1170951Y497162D01*
X1171103Y498713D01*
X1171083Y498836D01*
X1171103Y499049D01*
X1171091Y499141D01*
Y508773D01*
X1171002Y508810D01*
X1169416Y510026D01*
X1168199Y511612D01*
X1167435Y513459D01*
X1167174Y515440D01*
Y522400D01*
X1172870D01*
D02*
G37*
G36*
X1192486Y515440D02*
X1192225Y513459D01*
X1191460Y511612D01*
X1190244Y510026D01*
X1188658Y508810D01*
X1188569Y508773D01*
Y499141D01*
X1188524Y498799D01*
X1188517Y498592D01*
X1188541Y497841D01*
X1188212Y494493D01*
X1188041Y493762D01*
X1187919Y493021D01*
X1186942Y489802D01*
X1186633Y489118D01*
X1186368Y488416D01*
X1184782Y485449D01*
X1184345Y484838D01*
X1183948Y484201D01*
X1181814Y481601D01*
X1181266Y481087D01*
X1180753Y480539D01*
X1178153Y478405D01*
X1177515Y478009D01*
X1177116Y477723D01*
X1173610D01*
Y475862D01*
X1173235Y475721D01*
X1172551Y475411D01*
X1169332Y474435D01*
X1168591Y474312D01*
X1167860Y474142D01*
X1165424Y473902D01*
X1165222Y473848D01*
X1165221D01*
X1165221Y473848D01*
X1165185D01*
X1165183Y473847D01*
X1165183D01*
X1165183Y473847D01*
X1164775D01*
X1164469Y473798D01*
X1164455Y473799D01*
X1164427Y473795D01*
X1164361Y473802D01*
X1164229Y473784D01*
X1164215Y473786D01*
X1164184Y473782D01*
X1154722D01*
X1154563Y473660D01*
X1152825D01*
Y474820D01*
X1148160D01*
Y477360D01*
X1152825D01*
Y480005D01*
X1154004Y480226D01*
X1163013D01*
X1164184Y480226D01*
X1164195Y480217D01*
X1164195Y480191D01*
X1164195Y480191D01*
X1165415Y480338D01*
X1167355Y480529D01*
X1170809Y481577D01*
X1173993Y483279D01*
X1176784Y485569D01*
X1179074Y488360D01*
X1180776Y491544D01*
X1181824Y494999D01*
X1182178Y498592D01*
X1182124Y499141D01*
X1182124Y499141D01*
Y514190D01*
X1186080D01*
Y521424D01*
X1186790Y522400D01*
X1192486D01*
Y515440D01*
D02*
G37*
G36*
X1159662Y416205D02*
X1161508Y415440D01*
X1163094Y414224D01*
X1164311Y412638D01*
X1164407Y412406D01*
X1163701Y411350D01*
X1161340D01*
Y405130D01*
X1167780D01*
Y402590D01*
X1161340D01*
Y396370D01*
X1163476D01*
X1164677Y395966D01*
X1164677Y395966D01*
X1165680Y394658D01*
X1166222Y393350D01*
X1165517Y392080D01*
X1163800D01*
Y380080D01*
X1165518D01*
X1166222Y378810D01*
X1165680Y377502D01*
X1164464Y375916D01*
X1163644Y375287D01*
X1161733D01*
Y374225D01*
X1161031Y373935D01*
X1159305Y373707D01*
Y345434D01*
X1159292Y345337D01*
X1159296Y345300D01*
X1159247Y344966D01*
X1159257Y344665D01*
X1159239Y344486D01*
Y344435D01*
X1159238Y344430D01*
X1159231Y344401D01*
X1158890Y340938D01*
X1158719Y340207D01*
X1158597Y339466D01*
X1157400Y335519D01*
X1157090Y334835D01*
X1156825Y334132D01*
X1154881Y330495D01*
X1154443Y329884D01*
X1154047Y329247D01*
X1151430Y326058D01*
X1150882Y325545D01*
X1150369Y324997D01*
X1147180Y322380D01*
X1146543Y321984D01*
X1145932Y321546D01*
X1142295Y319602D01*
X1141592Y319337D01*
X1140908Y319028D01*
X1136961Y317830D01*
X1136220Y317708D01*
X1135489Y317537D01*
X1133392Y317331D01*
X1133289Y317288D01*
X1132019Y317993D01*
Y318710D01*
X1131123D01*
X1130442Y319977D01*
X1130638Y320960D01*
X1130460Y321853D01*
X1130469Y322023D01*
X1130837Y322895D01*
X1131123Y323210D01*
X1132019D01*
Y323633D01*
X1134983Y323925D01*
X1139166Y325194D01*
X1143021Y327254D01*
X1146400Y330027D01*
X1149173Y333406D01*
X1151233Y337261D01*
X1152502Y341444D01*
X1152891Y345393D01*
X1152891Y345393D01*
D01*
X1152863Y346643D01*
Y379713D01*
X1154088Y380060D01*
X1154142Y380045D01*
X1154153Y380047D01*
X1154279Y380022D01*
X1154572Y380080D01*
X1160300D01*
Y392080D01*
X1156023D01*
Y397660D01*
X1158930D01*
Y410060D01*
X1148630D01*
Y397660D01*
X1151537D01*
Y392080D01*
X1148800D01*
Y383386D01*
X1148548Y383008D01*
X1148377Y382150D01*
Y345501D01*
X1148350Y345475D01*
X1148350D01*
X1148350Y345475D01*
X1148041Y342331D01*
X1147031Y339002D01*
X1145391Y335933D01*
X1143183Y333244D01*
X1140494Y331036D01*
X1137425Y329396D01*
X1134096Y328386D01*
X1133127Y328291D01*
X1132019Y328710D01*
D01*
X1130866Y328993D01*
X1130842Y329018D01*
X1130470Y329898D01*
X1130460Y330068D01*
X1130638Y330960D01*
Y332743D01*
X1132750Y334856D01*
X1133005Y334750D01*
X1134962Y335344D01*
X1136917Y336389D01*
X1138632Y337796D01*
X1140038Y339510D01*
X1141083Y341465D01*
X1141727Y343587D01*
X1141935Y345703D01*
Y382150D01*
X1142001Y382648D01*
Y383149D01*
X1142131Y383634D01*
X1142196Y384132D01*
X1142388Y384595D01*
X1142393Y384614D01*
Y390830D01*
X1142654Y392811D01*
X1142654Y392812D01*
X1142654Y392812D01*
X1143208Y394147D01*
Y394147D01*
X1143419Y394658D01*
X1143497Y394759D01*
X1143250Y395082D01*
X1142485Y396928D01*
X1142224Y398910D01*
Y408810D01*
X1142485Y410792D01*
X1143250Y412638D01*
X1144466Y414224D01*
X1146052Y415440D01*
X1146052Y415440D01*
X1146052Y415440D01*
X1147898Y416205D01*
X1149880Y416466D01*
X1157680D01*
X1159662Y416205D01*
D02*
G37*
G36*
X1119735Y467529D02*
Y467360D01*
X1124400D01*
Y464820D01*
X1119735D01*
Y462175D01*
X1121025D01*
Y455835D01*
X1122106D01*
Y447490D01*
X1122118Y447430D01*
X1122067Y447040D01*
X1122319Y445121D01*
X1123060Y443333D01*
X1124238Y441798D01*
X1125773Y440620D01*
X1127561Y439879D01*
X1128733Y439725D01*
X1128830Y439706D01*
Y439706D01*
X1129030Y439666D01*
X1129080Y439676D01*
X1131076Y439279D01*
X1132810Y438120D01*
X1133969Y436386D01*
X1134340Y434520D01*
X1134304Y434340D01*
Y364351D01*
X1134304Y363172D01*
X1134272Y363151D01*
X1134272Y363151D01*
X1134282Y363065D01*
X1134109Y361898D01*
X1133972Y361210D01*
X1133005Y359763D01*
X1132245Y359256D01*
X1131473Y359408D01*
X1130596Y360751D01*
X1130638Y360960D01*
X1130638Y360960D01*
Y365960D01*
X1130442Y366943D01*
X1131123Y368210D01*
X1132019D01*
Y378710D01*
X1129657D01*
X1129342Y379980D01*
X1129885Y380343D01*
X1130442Y381176D01*
X1130638Y382160D01*
Y388312D01*
X1130442Y389295D01*
X1129885Y390129D01*
X1127859Y392154D01*
Y433333D01*
X1127566Y433411D01*
X1127445Y433419D01*
X1127283Y433451D01*
X1127048Y433482D01*
X1126975Y433513D01*
X1125606Y433785D01*
X1125131Y433946D01*
X1124639Y434044D01*
X1124189Y434266D01*
X1123714Y434427D01*
X1123297Y434706D01*
X1122846Y434928D01*
X1120829Y436276D01*
X1120451Y436607D01*
X1120034Y436886D01*
X1119703Y437263D01*
X1119326Y437594D01*
X1119047Y438011D01*
X1118716Y438389D01*
X1117368Y440406D01*
X1117146Y440856D01*
X1116867Y441274D01*
X1116706Y441749D01*
X1116484Y442199D01*
X1116386Y442691D01*
X1116225Y443166D01*
X1115751Y445546D01*
X1115719Y446047D01*
X1115621Y446539D01*
X1115654Y447040D01*
X1115621Y447541D01*
X1115661Y447745D01*
Y453235D01*
X1115645Y453257D01*
X1114880Y455104D01*
X1114619Y457085D01*
Y462235D01*
X1114880Y464217D01*
X1115059Y464649D01*
X1118465Y468055D01*
X1119735Y467529D01*
D02*
G37*
G36*
X1124118Y353210D02*
X1125014D01*
X1125695Y351943D01*
X1125499Y350960D01*
Y348224D01*
X1121027D01*
X1119955Y349046D01*
X1118738Y350632D01*
X1117973Y352479D01*
X1117712Y354460D01*
Y357460D01*
X1117798Y358111D01*
X1124118D01*
Y353210D01*
D02*
G37*
G36*
X1133320Y455788D02*
X1133784Y454775D01*
X1133156Y453257D01*
X1133139Y453235D01*
Y450099D01*
X1134210Y449812D01*
X1136307Y448943D01*
X1138038Y447944D01*
X1139839Y446562D01*
X1140545Y445855D01*
X1141252Y445149D01*
X1142634Y443348D01*
X1143633Y441617D01*
X1144420Y439717D01*
Y436190D01*
X1144798D01*
X1145284Y434954D01*
X1145170Y434669D01*
X1144357Y433780D01*
X1143130D01*
Y420900D01*
X1145337D01*
Y416543D01*
X1145228Y416514D01*
X1143643Y415297D01*
X1143551Y415139D01*
X1143393Y415047D01*
X1142176Y413462D01*
X1142129Y413285D01*
X1141999Y413156D01*
X1141235Y411309D01*
Y411127D01*
X1141143Y410968D01*
X1140882Y408987D01*
X1140907Y408896D01*
X1140871Y408810D01*
Y398910D01*
X1140907Y398824D01*
X1140882Y398733D01*
X1141143Y396752D01*
X1141235Y396594D01*
Y396411D01*
X1141958Y394665D01*
X1141404Y393329D01*
Y393146D01*
X1141313Y392988D01*
X1141052Y391007D01*
X1141076Y390916D01*
X1141040Y390830D01*
Y384877D01*
X1140946Y384649D01*
Y384467D01*
X1140855Y384308D01*
X1140801Y383899D01*
X1140694Y383500D01*
X1140718Y383318D01*
X1140648Y383149D01*
Y382736D01*
X1140594Y382327D01*
X1140618Y382236D01*
X1140582Y382150D01*
Y351857D01*
X1140041Y351315D01*
X1138421Y350072D01*
X1136691Y349073D01*
X1135661Y348647D01*
X1134596Y347830D01*
X1132750Y347065D01*
X1131737Y346931D01*
X1130638Y347989D01*
Y350960D01*
X1130442Y351943D01*
X1131123Y353210D01*
X1132019D01*
Y354124D01*
X1132202Y354148D01*
X1134391Y355055D01*
X1136271Y356497D01*
X1137714Y358377D01*
X1138621Y360567D01*
X1138806Y361972D01*
X1138930Y362917D01*
X1138999Y363186D01*
X1139005Y363192D01*
X1138896Y364421D01*
X1138892Y364466D01*
Y434079D01*
X1138944Y434340D01*
X1138985D01*
X1138646Y436917D01*
X1137651Y439318D01*
X1136069Y441379D01*
X1134008Y442961D01*
X1131607Y443956D01*
X1129234Y444268D01*
X1129238Y444312D01*
X1128418Y444475D01*
X1127517Y445077D01*
X1126915Y445978D01*
X1126894Y446082D01*
X1126755Y447257D01*
X1126752Y447282D01*
X1126752Y447282D01*
X1126694Y448493D01*
X1126694Y448672D01*
Y455835D01*
X1127775D01*
Y456045D01*
X1133095D01*
X1133320Y455788D01*
D02*
G37*
G36*
X607717Y156864D02*
X608700Y156669D01*
X610637D01*
Y152405D01*
X610677D01*
X611851Y151922D01*
Y143977D01*
X610680Y143485D01*
X610637D01*
Y138858D01*
X608608D01*
X607657Y138669D01*
X606547Y140117D01*
X605782Y141963D01*
X605521Y143945D01*
Y151945D01*
X605782Y153926D01*
X606547Y155773D01*
X607497Y157011D01*
X607717Y156864D01*
D02*
G37*
G36*
X626005Y158575D02*
X627591Y157359D01*
X628808Y155773D01*
X629573Y153926D01*
X629587Y153816D01*
X632324Y152354D01*
X632934Y151916D01*
X633572Y151520D01*
X636669Y148978D01*
X637182Y148430D01*
X637730Y147917D01*
X640272Y144820D01*
X640668Y144182D01*
X641106Y143572D01*
X642995Y140038D01*
X643259Y139335D01*
X643569Y138652D01*
X644732Y134817D01*
X644854Y134077D01*
X645025Y133345D01*
X645417Y129358D01*
X645393Y128615D01*
X645436Y128291D01*
X645436Y114896D01*
X645431Y114862D01*
X645639Y112748D01*
X646268Y110677D01*
X647288Y108768D01*
X648661Y107094D01*
X650335Y105721D01*
X652244Y104701D01*
X654316Y104072D01*
X656433Y103864D01*
X656470Y103869D01*
X656954D01*
X657856Y105044D01*
X659442Y106260D01*
X661288Y107025D01*
X663270Y107286D01*
X672770D01*
X674752Y107025D01*
X676598Y106260D01*
X678184Y105044D01*
X679400Y103458D01*
X680063Y101860D01*
Y98270D01*
X692063D01*
Y99988D01*
X693333Y100693D01*
X694641Y100151D01*
X695186Y99732D01*
Y78308D01*
X694641Y77890D01*
X692794Y77125D01*
X690813Y76864D01*
X681313D01*
X679331Y77125D01*
X677485Y77890D01*
X675899Y79106D01*
X674682Y80692D01*
X674020Y82290D01*
Y85880D01*
X662020D01*
Y84162D01*
X660750Y83458D01*
X659442Y84000D01*
X657856Y85216D01*
X656954Y86391D01*
X656608D01*
X656470Y86373D01*
X656096Y86422D01*
X655720Y86410D01*
X651647Y86811D01*
X650916Y86982D01*
X650175Y87104D01*
X646260Y88292D01*
X645575Y88602D01*
X644873Y88866D01*
X641264Y90795D01*
X640654Y91232D01*
X640016Y91629D01*
X636853Y94225D01*
X636340Y94773D01*
X635792Y95286D01*
X633196Y98449D01*
X632799Y99087D01*
X632362Y99697D01*
X630433Y103306D01*
X630168Y104009D01*
X629859Y104692D01*
X628671Y108608D01*
X628549Y109349D01*
X628378Y110080D01*
X627978Y114145D01*
X627990Y114516D01*
X627941Y114885D01*
X627958Y115019D01*
X627958Y128291D01*
X627971Y128391D01*
X627967Y128434D01*
X627977Y128506D01*
X627763Y130677D01*
X627160Y132667D01*
X626180Y134501D01*
X625216Y135675D01*
X617677D01*
Y138215D01*
X624717D01*
Y142469D01*
X625987Y143230D01*
X626829Y142780D01*
X629412Y140660D01*
X631532Y138077D01*
X633107Y135130D01*
X634077Y131933D01*
X634310Y129565D01*
X634377Y128329D01*
X634377D01*
X634403Y127077D01*
X634403Y114896D01*
X634402Y114895D01*
X634341D01*
X634766Y110586D01*
X636025Y106434D01*
X638070Y102608D01*
X640822Y99255D01*
X644175Y96503D01*
X648001Y94458D01*
X652153Y93199D01*
X656470Y92773D01*
Y92836D01*
X656470Y92836D01*
X661122Y92836D01*
X662020Y91938D01*
Y89380D01*
X674020D01*
Y90416D01*
X680063D01*
Y83270D01*
X692063D01*
Y94770D01*
X683340D01*
X683251Y94830D01*
X682373Y95004D01*
X674020D01*
Y100880D01*
X662020D01*
Y97424D01*
X656470Y97424D01*
X656466Y97423D01*
X653060Y97759D01*
X649781Y98753D01*
X646758Y100369D01*
X644110Y102543D01*
X641936Y105191D01*
X640320Y108214D01*
X639326Y111493D01*
X638991Y114894D01*
X638991Y114896D01*
X638991Y126986D01*
X639019Y128253D01*
X639054Y128608D01*
X638967Y129494D01*
X638637Y132840D01*
X637403Y136910D01*
X635398Y140660D01*
X632700Y143948D01*
X629412Y146646D01*
X625662Y148651D01*
X623531Y149297D01*
Y151922D01*
X624704Y152405D01*
X624717D01*
Y157966D01*
X625773Y158672D01*
X626005Y158575D01*
D02*
G37*
G36*
X676661Y76816D02*
X676837Y76769D01*
X676967Y76640D01*
X678813Y75875D01*
X678996D01*
X679154Y75783D01*
X680424Y75616D01*
X680165Y73648D01*
X679400Y71802D01*
X678184Y70216D01*
X676759Y69123D01*
Y53838D01*
X676848Y53801D01*
X678434Y52584D01*
X679650Y50998D01*
X680415Y49152D01*
X680676Y47170D01*
Y40210D01*
X674980D01*
X674270Y41186D01*
Y48420D01*
X670314D01*
Y74380D01*
X674020D01*
Y77364D01*
X674443Y77632D01*
X675290Y77868D01*
X676661Y76816D01*
D02*
G37*
G36*
X656941Y84301D02*
X657032Y84143D01*
X658618Y82926D01*
X658795Y82879D01*
X658924Y82750D01*
X660232Y82208D01*
X660314D01*
X660378Y82157D01*
X660750Y82199D01*
X661297Y82170D01*
X662020Y81249D01*
Y74380D01*
X665726D01*
Y48420D01*
X661770D01*
Y41186D01*
X661060Y40210D01*
X655364D01*
Y47170D01*
X655625Y49152D01*
X656389Y50998D01*
X657606Y52584D01*
X659192Y53801D01*
X659281Y53838D01*
Y69123D01*
X657856Y70216D01*
X656639Y71802D01*
X655875Y73648D01*
X655614Y75630D01*
Y83830D01*
X656373Y84195D01*
X656884Y84334D01*
X656941Y84301D01*
D02*
G37*
G36*
X674270Y35420D02*
X674980Y34444D01*
Y29272D01*
X673020Y29014D01*
X663020D01*
X661060Y29272D01*
Y34444D01*
X661770Y35420D01*
X674270D01*
D02*
G37*
D10*
X1164221Y482521D02*
G03*
X1179830Y499141I-459J16071D01*
G01*
X1164184Y482520D02*
G03*
X1164221Y482521I-10J2000D01*
G01*
X1136598Y363172D02*
G03*
X1136599Y363142I2000J18D01*
G01*
X1131005Y356265D02*
G03*
X1136599Y363142I-1153J6651D01*
G01*
X1136650Y434340D02*
G03*
X1129030Y441960I-7620J0D01*
G01*
X1124400Y447490D02*
G03*
X1129030Y441960I5080J-450D01*
G01*
X636697Y114896D02*
G03*
X656470Y95130I19773J7D01*
G01*
X636697Y128291D02*
G03*
X621177Y147567I-19337J317D01*
G01*
X1179830Y499141D02*
Y520690D01*
X1148160Y482520D02*
X1164184D01*
X1124400Y459210D02*
X1125525Y458085D01*
X1136598Y363172D02*
Y434340D01*
Y363172D02*
Y363172D01*
X1130931Y356258D02*
X1131005Y356265D01*
X1128068Y355960D02*
X1130931Y356258D01*
X1124400Y447490D02*
Y459210D01*
Y459660D01*
X1086620Y279512D02*
X1086869Y279760D01*
X1086620Y269573D02*
Y279512D01*
X1086372Y269325D02*
X1086620Y269573D01*
X1107368Y276878D02*
X1114959Y269288D01*
X1115054D01*
X1107368Y276878D02*
Y279260D01*
X1106544Y269385D02*
X1106945D01*
X1101869Y274060D02*
X1106544Y269385D01*
X1098550Y269240D02*
Y270052D01*
X1096869Y271733D02*
X1098550Y270052D01*
X1096869Y278693D02*
X1097368Y279193D01*
X1096869Y271733D02*
Y278693D01*
X1101869Y274060D02*
Y279760D01*
X1106869D02*
X1107368Y279260D01*
X609720Y325120D02*
X618813D01*
X608330Y326510D02*
X609720Y325120D01*
X619760D02*
X628650Y316230D01*
X598170Y312420D02*
X668099D01*
X678180Y322501D01*
X589951Y320639D02*
X598170Y312420D01*
X582930Y334010D02*
X601080D01*
X604330Y337260D01*
X669192Y342860D02*
X678140D01*
X678180Y322501D02*
Y342900D01*
X1019810Y111760D02*
X1038910Y130860D01*
X1002958D02*
X1038910D01*
X1045929Y137879D01*
X1000368Y128270D02*
X1002958Y130860D01*
X1029970Y106680D02*
Y114300D01*
X1053540Y137870D01*
Y150390D01*
X1045929Y137879D02*
Y149279D01*
X1005960Y111760D02*
X1019810D01*
X1003420Y109220D02*
X1005960Y111760D01*
X967740Y115570D02*
Y140974D01*
Y115570D02*
X982160D01*
X958850D02*
X967740D01*
Y140974D02*
X978885Y152119D01*
X1006150Y166297D02*
X1011186Y171334D01*
X1030428Y172720D02*
X1031240D01*
X1029042Y171334D02*
X1030428Y172720D01*
X1011186Y171334D02*
X1029042D01*
X617677Y147945D02*
X621177Y147567D01*
X636697Y114896D02*
X636697Y128291D01*
X664270Y95130D02*
X668020D01*
X656470Y95130D02*
X664270Y95130D01*
X668020Y41920D02*
Y80130D01*
X670440Y92710D02*
X682373D01*
X677156Y124270D02*
X679479Y121947D01*
X683853D01*
X672920Y124270D02*
X677156D01*
X685800Y104283D02*
Y120000D01*
X674370Y327660D02*
Y335280D01*
X671830Y337820D02*
X674370Y335280D01*
X662940Y316230D02*
X674370Y327660D01*
X669152Y337820D02*
X671830D01*
X628650Y316230D02*
X662940D01*
X1117234Y280126D02*
Y300624D01*
X1117570Y300960D01*
X997033Y382324D02*
Y391947D01*
X1117141Y382938D02*
Y391206D01*
X965470Y315960D02*
X970669D01*
X960901Y318246D02*
X963184D01*
X1036881Y382172D02*
Y393503D01*
X1061790Y382238D02*
Y391881D01*
X1016585Y382443D02*
Y391473D01*
X961390Y303530D02*
X965200D01*
X967770Y300960D01*
X970669D01*
X1116869Y279760D02*
X1117234Y280126D01*
X963184Y318246D02*
X965470Y315960D01*
X1005780Y189170D02*
X1010920Y194310D01*
X1021080Y190500D02*
X1041400D01*
X1047040Y150390D02*
Y184860D01*
X1041400Y190500D02*
X1047040Y184860D01*
X1017041Y180351D02*
Y186461D01*
X1021080Y190500D01*
X664736Y345386D02*
Y366644D01*
Y345386D02*
X664802Y345320D01*
X664670Y366711D02*
X664736Y366644D01*
X664802Y335320D02*
Y345320D01*
X615950Y367030D02*
Y454660D01*
X633984Y356870D02*
Y412902D01*
X700206Y532964D02*
X710590Y522580D01*
X694690Y532964D02*
X700206D01*
X633984Y412902D02*
X711962Y490880D01*
X719730D01*
X710590Y522580D02*
X718730D01*
X978885Y152119D02*
X1013179D01*
X982160Y128270D02*
X1000368D01*
X580390Y351790D02*
X585470Y356870D01*
X605790D02*
X615950Y367030D01*
X585470Y356870D02*
X605790D01*
X580390Y336550D02*
Y351790D01*
Y336550D02*
X582930Y334010D01*
X619760Y341630D02*
X631070D01*
X616070Y349250D02*
X649022D01*
X612330Y345510D02*
X616070Y349250D01*
X591411Y343642D02*
Y347381D01*
X589951Y320639D02*
Y325839D01*
X649022Y349250D02*
X660452Y337820D01*
X629984Y352870D02*
X633984Y356870D01*
X596900Y352870D02*
X629984D01*
X591411Y347381D02*
X596900Y352870D01*
X990600Y91440D02*
X1016391D01*
X1018420Y93469D01*
X987820Y88660D02*
X990600Y91440D01*
X1018420Y93469D02*
Y102870D01*
X987820Y72640D02*
Y88660D01*
X1026160Y102870D02*
X1029970Y106680D01*
X1018420Y102870D02*
X1026160D01*
X987820Y58674D02*
Y72640D01*
X935990Y92710D02*
X958850Y115570D01*
X935990Y59436D02*
Y92710D01*
Y59436D02*
X939537Y55889D01*
X1017150Y156090D02*
Y162297D01*
X1013179Y152119D02*
X1017150Y156090D01*
X1005780Y184090D02*
Y189170D01*
X1003420Y102870D02*
Y109220D01*
X650403Y352870D02*
X660452Y342820D01*
X637984Y352870D02*
X650403D01*
X633984Y356870D02*
X637984Y352870D01*
X631190Y341510D02*
X651762D01*
X660452Y332820D01*
X939537Y55889D02*
X985035D01*
X987820Y58674D01*
X972820Y72640D02*
Y86995D01*
X980560Y94735D01*
X1000125D01*
X1003420Y98030D01*
X660452Y347820D02*
Y350976D01*
D12*
X1181183Y471200D02*
X1197060D01*
X1181100Y471283D02*
X1181183Y471200D01*
X1168347Y404427D02*
X1176183D01*
X1184013Y426532D02*
X1195681D01*
X1136031Y480109D02*
Y487954D01*
X1166163Y426840D02*
X1183705D01*
Y426840D02*
X1183705Y426840D01*
X1183705Y426840D02*
Y426840D01*
X1124400Y482520D02*
X1130220D01*
X1136280Y462310D02*
Y471090D01*
X1148160D02*
X1168700D01*
X1180050Y457282D02*
X1181100D01*
X1173060Y464190D02*
X1173142D01*
X1180050Y457282D01*
X1173060Y464190D02*
Y466730D01*
X1168700Y471090D02*
X1173060Y466730D01*
X1136280Y471090D02*
Y479860D01*
X1138930Y459660D02*
X1148160D01*
X1166163Y426840D02*
X1166663Y427340D01*
X1150620D02*
X1151120Y426840D01*
X1166163D02*
Y426840D01*
X1151120Y426840D02*
X1166163D01*
X1141730Y478790D02*
X1144430Y476090D01*
X1148160D01*
X537254Y374734D02*
X548724D01*
X549015Y375025D01*
X558868D01*
X977900Y267970D02*
X978073Y268143D01*
X451866Y399588D02*
X461070D01*
X445842Y406439D02*
X452693Y399588D01*
X445842Y406439D02*
Y410138D01*
X445770Y410210D02*
X445842Y410138D01*
X338927Y361261D02*
Y386487D01*
X351830Y399390D01*
X354330D01*
X338927Y361261D02*
X339090Y361098D01*
X375273Y361995D02*
Y394323D01*
Y361995D02*
X375920Y361348D01*
X375273Y394323D02*
X380538Y399588D01*
X797104Y430074D02*
X801140Y434110D01*
X821920D01*
X834390Y447040D02*
X845323Y436107D01*
Y426261D02*
Y436107D01*
Y392356D02*
Y422099D01*
X845324Y422101D02*
Y426259D01*
X845323Y422099D02*
X845324Y422101D01*
X845323Y426261D02*
X845324Y426259D01*
X827870Y446780D02*
X832995D01*
X860171Y445901D02*
X885751D01*
X886630Y446780D01*
X860171Y398258D02*
Y445901D01*
X628989Y435419D02*
X629760Y436190D01*
X637540D01*
X628989Y434001D02*
Y435419D01*
X797104Y410978D02*
Y430074D01*
X624426Y392194D02*
X625541Y391079D01*
X624426Y392194D02*
Y404691D01*
X302260Y398780D02*
X316890D01*
X302260Y361842D02*
X303005Y361098D01*
X302260Y361842D02*
Y398780D01*
X734801Y440060D02*
X734903Y440162D01*
X734527Y448540D02*
X734903Y448163D01*
Y440162D02*
Y448163D01*
X716200Y420499D02*
X735280Y439580D01*
X416486Y354007D02*
X439936D01*
X415624Y354869D02*
X416486Y354007D01*
X414768Y355725D02*
X415624Y354869D01*
X414609Y360071D02*
X414768Y355725D01*
X740410Y332740D02*
Y398780D01*
X794910Y453280D02*
X827870D01*
X740410Y398780D02*
X794910Y453280D01*
X745490Y365760D02*
X773497Y393767D01*
Y418151D01*
X710150Y267840D02*
X725040D01*
X710020Y267970D02*
X710150Y267840D01*
X725040D02*
X725170Y267970D01*
X989257Y231687D02*
X989330Y231614D01*
Y222250D02*
Y231614D01*
X680720Y143510D02*
X681032Y143198D01*
X685653Y134147D02*
Y141710D01*
X681032Y143198D02*
X684165D01*
X685653Y141710D01*
X608608Y136289D02*
X617021D01*
X504720Y18903D02*
X513598D01*
X505026Y159294D02*
X513820D01*
X608612Y84886D02*
X617619D01*
X608700Y159238D02*
X617384D01*
X608439Y29925D02*
X617657D01*
X752777Y176922D02*
Y191580D01*
X852170Y151130D02*
X858520Y157480D01*
X832636Y177304D02*
Y188746D01*
X732790Y167640D02*
X748030D01*
X837616Y36144D02*
X843280Y30480D01*
X850782Y53222D02*
X857250Y59690D01*
X757835Y35915D02*
X763270Y30480D01*
X850782Y52188D02*
X857250Y45720D01*
X737870Y46990D02*
X743403Y52523D01*
X737870Y57150D02*
X742497Y52523D01*
X831850Y30480D02*
X837616Y36246D01*
X751840Y30480D02*
X757275Y35915D01*
X1089368Y322960D02*
X1099440D01*
X1099130Y355518D02*
X1108811D01*
X1076960Y338960D02*
Y345110D01*
Y333368D02*
Y338960D01*
X1099191Y323209D02*
Y339254D01*
X1109368Y330960D02*
X1119409D01*
X1099130Y339193D02*
X1099363Y338960D01*
X1109368D01*
X1119409Y330960D02*
X1128068D01*
X1089368Y339193D02*
X1099130D01*
X1099191Y339254D01*
Y346960D01*
X1076960Y338960D02*
X1089368D01*
X1078952Y306960D02*
Y314960D01*
X1029369Y338947D02*
X1049356D01*
X1029414Y355005D02*
X1039092D01*
X1059107Y339017D02*
Y355149D01*
X1059369Y322769D02*
X1069177D01*
X1039575Y315167D02*
Y322960D01*
X1029369D02*
X1039575D01*
X1069368D02*
X1089368D01*
X1079368Y315377D02*
Y330960D01*
X1059369Y298960D02*
Y306960D01*
X1029369D02*
X1039415D01*
X1039369Y307006D02*
Y314960D01*
X999097Y353837D02*
X1009369D01*
X1096869Y382160D02*
X1101869D01*
X1021868Y279760D02*
Y286558D01*
X1119551Y360680D02*
X1127788D01*
X1119409Y345654D02*
X1128736D01*
X1111464D02*
X1119409D01*
X1111280Y300960D02*
X1117570D01*
X970669Y325960D02*
X978330D01*
X1071868Y279760D02*
Y284492D01*
X1063182Y288180D02*
X1068180D01*
X1071868Y284492D01*
X1117570Y300960D02*
X1128068D01*
X1111869Y279760D02*
Y285683D01*
X1109262Y288290D02*
X1111869Y285683D01*
X970669Y345960D02*
Y350960D01*
X965287Y272632D02*
X970669Y279760D01*
X1115368Y320960D02*
X1128068D01*
X1109368Y314960D02*
X1115368Y320960D01*
X1128068Y330960D02*
Y335960D01*
X1106869Y382160D02*
X1111869D01*
X937260Y356870D02*
X949340D01*
X925180D02*
X937260D01*
X1128068Y270540D02*
Y279760D01*
X1091869Y382160D02*
X1096869D01*
X1128068Y345960D02*
Y350960D01*
X986585Y426100D02*
X1018670D01*
X1003234Y426764D02*
Y438626D01*
X1101869Y382160D02*
X1106869D01*
X1086869D02*
X1091869D01*
X1081869D02*
X1086869D01*
X1076869D02*
X1081869D01*
X970669Y350960D02*
Y355960D01*
X960493Y355935D02*
X969373D01*
X1111869Y382160D02*
X1116869D01*
X1117141Y391206D02*
X1125174D01*
X1128068Y382160D02*
Y388312D01*
X972820Y248300D02*
X974090Y247030D01*
X970669Y340960D02*
Y345960D01*
X949960Y301610D02*
X961390Y303530D01*
X972820Y233030D02*
X1010920D01*
X1046869Y279760D02*
Y281059D01*
X1098601Y382927D02*
Y391618D01*
X1128068Y360960D02*
Y365960D01*
X970669Y355960D02*
Y360960D01*
X951230Y326390D02*
X953770D01*
X974090Y267970D02*
X976630D01*
X961390Y332740D02*
X963170Y330960D01*
X961390Y332740D02*
Y340360D01*
X963170Y330960D02*
X970669D01*
X957580Y383540D02*
X969288D01*
X1099130Y362960D02*
X1099147D01*
X1059055Y355097D02*
X1069368D01*
X1039575Y330960D02*
Y339450D01*
X1069368Y355097D02*
X1078655D01*
X1049506D02*
X1059055D01*
X1009369Y340196D02*
X1009396D01*
X999480Y331071D02*
Y340196D01*
X990605D02*
X999151D01*
X999490Y307340D02*
X1008989D01*
X999490D02*
Y314960D01*
X989749Y307340D02*
X999228D01*
X1059180Y339090D02*
X1059310Y338960D01*
X1049369D02*
X1059050D01*
X1039092Y355005D02*
X1049323D01*
X1039277Y306822D02*
X1039369Y306730D01*
Y298960D02*
Y306730D01*
X1089368Y354960D02*
X1099368D01*
Y346960D02*
Y354960D01*
X1089368Y306960D02*
X1099368D01*
X1049369Y322960D02*
X1058800D01*
X1059369Y314960D02*
Y322392D01*
X1059180Y322580D02*
X1059369Y322392D01*
X1059180Y322580D02*
X1059369Y322769D01*
Y330960D01*
X1039415Y306960D02*
X1049369D01*
X1039277Y306822D02*
X1039369Y306914D01*
X1039415Y306960D01*
X1079368Y298960D02*
Y306960D01*
X1078952D02*
X1079368D01*
X1089368D01*
X1069368D02*
X1078952D01*
X999097Y353837D02*
Y362688D01*
X1099368Y298960D02*
Y306888D01*
X1078810Y346735D02*
Y355028D01*
X981710Y322580D02*
X999490D01*
X1039575Y339450D02*
Y346934D01*
X1099440Y306960D02*
X1108368D01*
X1099404Y306924D02*
X1099440Y306960D01*
X1039092Y355005D02*
Y362683D01*
X1059055Y355097D02*
X1059107Y355149D01*
Y362405D01*
X999228Y299100D02*
Y307340D01*
X1099440Y322960D02*
X1109368D01*
X1099368Y323032D02*
X1099440Y322960D01*
X990492Y353837D02*
X999097D01*
X1109980Y360680D02*
X1119551D01*
X1099368Y306960D02*
Y314960D01*
X1099130Y355518D02*
X1099147Y355535D01*
Y362960D01*
X1099368Y314960D02*
Y323032D01*
X1039575Y346934D02*
Y348282D01*
X1039092Y348765D02*
X1039575Y348282D01*
X1039092Y348765D02*
Y355005D01*
X999097Y340580D02*
Y346960D01*
X999480Y340196D02*
X1009369D01*
X999097Y346960D02*
Y353837D01*
X1059050Y338960D02*
X1059180Y339090D01*
X1078655Y355097D02*
X1078810Y355252D01*
X1099368Y306960D02*
X1099404Y306924D01*
X999151Y340196D02*
X999316Y340360D01*
X999228Y307340D02*
X999490D01*
X1058800Y322960D02*
X1059180Y322580D01*
X1078952Y306939D02*
Y306960D01*
X1099368Y306888D02*
X1099404Y306924D01*
X1078810Y355028D02*
X1078879Y355097D01*
X1059107Y362405D02*
X1059160Y362458D01*
X999316Y340360D02*
X999480Y340196D01*
X1069368Y338960D02*
X1076960D01*
X1078879Y355097D02*
X1089231D01*
X1111250Y345440D02*
X1111464Y345654D01*
X978330Y325960D02*
X981710Y322580D01*
X1125174Y391206D02*
X1128068Y388312D01*
X1059369Y330960D02*
Y338901D01*
X1059310Y338960D02*
X1059369Y338901D01*
X1059310Y338960D02*
X1069368D01*
X1189376Y471455D02*
Y478420D01*
X1189222Y471301D02*
X1189376Y471455D01*
X1198880Y447040D02*
Y455545D01*
X1197143Y457282D02*
X1198880Y455545D01*
X1197060Y471200D02*
X1197143Y471283D01*
X1167933Y356137D02*
X1226087D01*
X1074409Y177180D02*
X1098550D01*
X1060245Y138635D02*
Y153465D01*
X628733Y483787D02*
X635145D01*
X254000Y513080D02*
X264142D01*
X1039575Y322960D02*
Y330960D01*
X188580Y538017D02*
X196200D01*
X187914D02*
X188580D01*
X457015Y454062D02*
X457678D01*
X969288Y383540D02*
X970669Y382160D01*
X1049369Y306960D02*
X1059369D01*
X1039575Y322960D02*
X1049369D01*
X1059369Y306960D02*
Y314960D01*
Y306960D02*
X1069368D01*
X1127788Y360680D02*
X1128068Y360960D01*
X1098601Y382927D02*
X1099369Y382160D01*
X858955Y291285D02*
Y305022D01*
X871220Y290850D02*
X883920D01*
X896620D01*
X833120D02*
X845820D01*
X807720D02*
X820420D01*
X858520D02*
X871220D01*
X845820D02*
X858520D01*
X820420D02*
X833120D01*
X568320Y532186D02*
Y541320D01*
X187239Y537343D02*
X187914Y538017D01*
X176663Y537343D02*
X187239D01*
X175260Y535940D02*
X176663Y537343D01*
X99180Y538480D02*
X106680D01*
X96520Y535820D02*
X99180Y538480D01*
X557158Y221929D02*
X557209D01*
X124497Y148041D02*
X125730D01*
X109220D02*
X110616D01*
X1082040Y163180D02*
X1082690D01*
X86296Y71796D02*
X99932D01*
X246957Y361317D02*
Y370147D01*
X1060245Y153465D02*
X1060397Y153617D01*
X1060245Y138635D02*
X1060450Y138430D01*
X1013539Y125809D02*
X1022508D01*
X986790Y102870D02*
X994338D01*
X942703Y75837D02*
Y90776D01*
X1105111Y77259D02*
Y89593D01*
X1071643Y179946D02*
X1074409Y177180D01*
X1098564Y146904D02*
X1105316D01*
X1196340Y100330D02*
Y107950D01*
X1157613Y132439D02*
X1169339D01*
X1167754Y347416D02*
Y355958D01*
X975501Y468283D02*
X976283D01*
X974437D02*
X975501D01*
X869846Y424177D02*
X879743Y414280D01*
X886630D01*
X874530Y452754D02*
X886105D01*
X820317Y504621D02*
X821259D01*
X819581D02*
X820317D01*
X630147Y528213D02*
X635706D01*
X850782Y52188D02*
Y52766D01*
Y53222D01*
Y52766D02*
Y53222D01*
X837616Y36144D02*
Y36246D01*
Y36490D01*
X757275Y35915D02*
X757835D01*
X757275D02*
Y36490D01*
X742497Y52523D02*
X745044D01*
X743403D02*
X745044D01*
X547990Y222900D02*
X548961Y221929D01*
X557158D01*
X562610Y227330D02*
X567690D01*
X557209Y221929D02*
X562610Y227330D01*
X597042Y255093D02*
X603723D01*
X560070Y241682D02*
Y252700D01*
X626080Y372110D02*
Y389240D01*
X716200Y410210D02*
Y420499D01*
X675640Y410210D02*
X716200D01*
X733532Y483000D02*
X739540D01*
X734060Y530860D02*
X739000D01*
X683340Y542290D02*
X694690D01*
X705320D01*
X668930Y482915D02*
Y490880D01*
X441490Y443165D02*
X452386Y454062D01*
X457015D01*
X464157Y446920D01*
X464820D01*
X458008Y476408D02*
Y485891D01*
X391249Y474949D02*
Y483905D01*
X415260Y477370D02*
Y484421D01*
X340431Y426991D02*
Y437435D01*
X305578Y495428D02*
X314019D01*
X228633Y474787D02*
X231824Y471596D01*
Y465182D02*
Y471596D01*
X200653Y481565D02*
X209346Y472872D01*
X212090D01*
X200653Y485245D02*
X201123Y485715D01*
X190715Y495038D02*
X199567Y486186D01*
X200653D02*
X201123Y485715D01*
X200653Y481565D02*
Y485245D01*
X195580Y476493D02*
X200653Y481565D01*
X199567Y486186D02*
X200653D01*
X195580Y475443D02*
Y476493D01*
X185590Y495038D02*
X190715D01*
X149793Y475510D02*
Y484846D01*
X125635Y475017D02*
Y484556D01*
X114691Y507395D02*
X126187D01*
X129841Y534182D02*
Y543625D01*
X127038Y257229D02*
X136584D01*
X83613Y266217D02*
Y275383D01*
X124426Y147970D02*
X127000D01*
X112900Y145411D02*
X116804Y141507D01*
X117675D02*
X118145Y141036D01*
Y141689D01*
X124426Y147970D01*
X116804Y141507D02*
X117675D01*
X112900Y145411D02*
Y145757D01*
X110616Y148041D02*
X112900Y145757D01*
X30480Y104790D02*
X38842Y113152D01*
Y113858D01*
X45720Y120736D01*
Y124460D01*
X15240Y175963D02*
Y184150D01*
X34769Y213360D02*
X45720D01*
X15097Y256063D02*
Y264368D01*
X60897Y266757D02*
X69956D01*
X102870Y381670D02*
X104550Y379990D01*
X102870Y381670D02*
Y392430D01*
X99950Y395350D02*
X102870Y392430D01*
X99950Y395350D02*
Y406760D01*
X80010Y378460D02*
Y387350D01*
X62230Y403210D02*
X71740D01*
X16510Y421640D02*
Y430770D01*
X33849Y430709D02*
X34290Y431150D01*
X16571Y430709D02*
X33849D01*
X109542Y242690D02*
X126500D01*
X640730Y400840D02*
X643750Y403860D01*
X640730Y389890D02*
Y400840D01*
X680720Y472440D02*
Y512790D01*
X670930Y522580D02*
X680720Y512790D01*
X414700Y399588D02*
X425165D01*
X412225Y362355D02*
Y397113D01*
X414700Y399588D01*
X430267Y362070D02*
Y377123D01*
X448310Y362071D02*
Y396032D01*
X451866Y399588D01*
X321047Y361097D02*
Y376842D01*
X358097Y361567D02*
Y376640D01*
X380538Y399588D02*
X389605D01*
X394182Y361545D02*
Y377123D01*
X1136280Y462310D02*
X1138930Y459660D01*
X1127760Y466090D02*
X1129030Y464820D01*
X236141Y508080D02*
X246300D01*
X236141Y518080D02*
X245030D01*
X161290Y518160D02*
Y518348D01*
X773497Y418151D02*
X795626Y440280D01*
X827870D01*
D13*
X937451Y342709D02*
X949501D01*
X955040Y326390D02*
X970669Y325960D01*
X30300Y203280D02*
X34489D01*
D14*
X34290Y445770D02*
X34910Y445150D01*
X16510Y445770D02*
X34290D01*
X16510D02*
X16510D01*
X17900Y447160D01*
X16510Y445770D02*
X16510Y445770D01*
X39090Y266700D02*
X45840D01*
X36689Y264299D02*
X39090Y266700D01*
X36689Y230951D02*
Y264299D01*
Y230951D02*
X50220Y217421D01*
Y211496D02*
Y217421D01*
X47004Y208280D02*
X50220Y211496D01*
X34689Y208280D02*
X47004D01*
X1148160Y466090D02*
X1156970D01*
X1159510Y463550D01*
Y454660D02*
Y463550D01*
X1118616Y471090D02*
X1124400D01*
X1111076Y463550D02*
X1118616Y471090D01*
X1167163Y441840D02*
X1169670Y444347D01*
X1154820Y444490D02*
Y449970D01*
X1150620Y441760D02*
X1152090D01*
X1154820Y444490D01*
X1167933Y370137D02*
X1169550Y371754D01*
Y386080D01*
X1105188Y476090D02*
X1124400D01*
X1104488Y476790D02*
X1105188Y476090D01*
X1150620Y441340D02*
X1151890Y440070D01*
X1165393Y441340D02*
X1166663D01*
X1164123Y440070D02*
X1165393Y441340D01*
X1167163Y441840D02*
X1183705D01*
X1166663D02*
X1167163D01*
X1166663Y441340D02*
X1167163Y441840D01*
X1150620Y382150D02*
X1154550Y386080D01*
X1154279Y382061D02*
Y382080D01*
X1154550Y386080D01*
X1153780Y386850D02*
X1154550Y386080D01*
X1151890Y440070D02*
X1164123D01*
X1154820Y449970D02*
X1159510Y454660D01*
X1104488Y463550D02*
X1111076D01*
X886898Y434048D02*
X895377D01*
X900430Y439102D01*
Y481838D01*
X886630Y433780D02*
X886898Y434048D01*
X897636Y484632D02*
X900430Y481838D01*
X558634Y394759D02*
X558868Y394525D01*
X547370Y397510D02*
Y402082D01*
X550121Y394759D02*
X558634D01*
X547370Y397510D02*
X550121Y394759D01*
X970616Y310907D02*
X970669Y310960D01*
X961291Y310854D02*
X961343Y310907D01*
X970616D01*
X768110Y241300D02*
X768520Y241710D01*
X755650Y241300D02*
X768110D01*
X913130Y197866D02*
X947795Y163201D01*
X937514Y128270D02*
X947795Y138551D01*
Y163201D01*
X904240Y198120D02*
Y306070D01*
X913130Y197866D02*
Y306070D01*
X1080837Y261687D02*
Y273804D01*
X1076869Y271220D02*
Y279760D01*
X1075642Y269993D02*
X1076869Y271220D01*
X1075642Y269046D02*
Y269993D01*
X1080837Y273804D02*
X1081954Y274921D01*
Y279675D01*
X604330Y337760D02*
X608080Y341510D01*
X604330Y337260D02*
Y337760D01*
X608080Y341510D02*
X608580D01*
X612330Y345260D01*
X904240Y198120D02*
X939800Y162560D01*
Y138430D02*
Y162560D01*
X1183586Y123394D02*
X1183791Y98569D01*
X1183151Y123829D02*
X1183586Y123394D01*
X1180540Y126440D02*
X1183151Y123829D01*
X1183791Y97941D02*
Y98569D01*
X1180849Y94999D02*
X1183791Y97941D01*
X961520Y290960D02*
X968719D01*
X949960Y279400D02*
X961520Y290960D01*
X949960Y271780D02*
Y279400D01*
X600292Y371258D02*
Y409620D01*
X485815Y393357D02*
X493483Y401025D01*
X511810Y341630D02*
Y351790D01*
X485815Y359167D02*
Y393357D01*
X508000Y337820D02*
X511810Y341630D01*
X473710Y325120D02*
X486410Y337820D01*
X485815Y359167D02*
X489381Y355600D01*
X508000D01*
X511810Y351790D01*
X486410Y337820D02*
X508000D01*
X473710Y274320D02*
Y325120D01*
X549910Y381525D02*
X558868D01*
X551227Y388025D02*
X558868D01*
X507561Y406025D02*
X516890Y396696D01*
Y392519D02*
Y396696D01*
X489443Y362458D02*
X507746D01*
X516890Y353314D01*
Y325120D02*
Y353314D01*
X509270Y317500D02*
X516890Y325120D01*
X509270Y290830D02*
Y317500D01*
X484764Y414025D02*
X500108D01*
X558868Y401025D02*
X568325D01*
X559013Y368670D02*
X570958D01*
X507561Y393025D02*
X514506Y386080D01*
X522610D01*
X522628Y386099D01*
X598780Y411133D02*
X600292Y409620D01*
X500108Y375025D02*
X513032D01*
X499872Y368525D02*
X517935D01*
X499872D02*
Y375025D01*
X500108D01*
X493483Y401025D02*
X500108D01*
X558868Y368525D02*
X559013Y368670D01*
X500108Y407525D02*
X501608Y406025D01*
X507561D01*
X558513Y368880D02*
X558868Y368525D01*
X534090Y368880D02*
X558513D01*
X529065Y373905D02*
X534090Y368880D01*
X529065Y373905D02*
Y381525D01*
X488565Y363337D02*
X489443Y362458D01*
X488565Y363337D02*
Y384425D01*
X491361Y387221D01*
X499304D01*
X500108Y388025D01*
Y394525D02*
X501608Y393025D01*
X507561D01*
X500108Y414025D02*
X501047Y414964D01*
X524836D01*
X529065Y410735D01*
Y381525D02*
Y410735D01*
X500108Y381525D02*
X529065D01*
X528320Y345320D02*
Y358140D01*
X517935Y368525D02*
X528320Y358140D01*
X513032Y375025D02*
X514604Y376597D01*
X572008Y378269D02*
X576120Y374157D01*
X572008Y378269D02*
Y397342D01*
X568325Y401025D02*
X572008Y397342D01*
X482600Y411861D02*
X484764Y414025D01*
X482600Y348495D02*
Y411861D01*
Y348495D02*
X485775Y345320D01*
X501650D01*
X535320Y494142D02*
Y541320D01*
Y494142D02*
X542848Y486614D01*
Y396404D02*
Y486614D01*
Y396404D02*
X551227Y388025D01*
X524320Y496042D02*
Y541320D01*
Y496042D02*
X539750Y480612D01*
Y391685D02*
Y480612D01*
Y391685D02*
X549910Y381525D01*
X572770Y233680D02*
X585470D01*
X641858Y224921D02*
Y243337D01*
X638461Y246733D02*
X641858Y243337D01*
X638175Y221238D02*
X641858Y224921D01*
X628820Y221238D02*
X638175D01*
X618099D02*
X628820D01*
X500380Y245443D02*
Y261740D01*
X985520Y262890D02*
Y269240D01*
Y262890D02*
X992505Y255905D01*
X1017905D01*
X981710Y262979D02*
Y270510D01*
X986869Y275669D02*
Y279760D01*
X981710Y270510D02*
X986869Y275669D01*
X979170Y260350D02*
Y260439D01*
X981710Y262979D01*
X824709Y392633D02*
Y392799D01*
Y392633D02*
X846382Y370960D01*
X826143Y381381D02*
X841563Y365960D01*
X970669D01*
X610616Y373624D02*
Y435864D01*
X610535Y373543D02*
X610616Y373624D01*
X600292Y371258D02*
X600710Y370840D01*
X822250Y433780D02*
X827870D01*
X811530Y418846D02*
Y426720D01*
Y418846D02*
X816096Y414280D01*
X860171Y398258D02*
X860339Y398090D01*
X846382Y370960D02*
X970669D01*
X316890Y398780D02*
X317500Y399390D01*
X797104Y410978D02*
X797310Y410772D01*
X557320Y541320D02*
X557767Y540873D01*
Y531007D02*
Y540873D01*
X678140Y342860D02*
X678180Y342900D01*
X669152Y342820D02*
X669192Y342860D01*
X1051298Y392190D02*
X1051800D01*
X1056869Y387121D01*
X1054100Y58420D02*
X1056640Y55880D01*
X1065530D01*
X1165428Y72640D02*
X1165860Y72208D01*
Y55880D02*
Y72208D01*
X1045929Y149279D02*
X1047040Y150390D01*
X1071880Y424180D02*
Y434340D01*
X1055370Y450850D02*
Y466090D01*
Y450850D02*
X1071880Y434340D01*
X1066800Y419100D02*
X1071880Y424180D01*
X1036702Y419100D02*
X1066800D01*
X1060556Y471276D02*
X1079079D01*
X1055370Y466090D02*
X1060556Y471276D01*
X1086195Y463910D02*
X1086445D01*
X1082445Y467660D02*
Y467910D01*
Y467660D02*
X1086195Y463910D01*
X1079079Y471276D02*
X1082445Y467910D01*
X1068403Y478790D02*
X1086325D01*
X1086445Y478910D01*
X111050Y339800D02*
X113030Y337820D01*
X143510D02*
X149860Y344170D01*
X113030Y337820D02*
X143510D01*
X149860Y359410D02*
X153670Y363220D01*
X149860Y344170D02*
Y359410D01*
X111050Y339800D02*
Y348990D01*
X126330Y367700D02*
Y371210D01*
X124050Y373490D02*
X126330Y371210D01*
Y367700D02*
X127000Y367030D01*
X124050Y373490D02*
Y379990D01*
X159877Y363220D02*
X160140Y363483D01*
X153670Y363220D02*
X159877D01*
X599389Y279400D02*
X612523Y266266D01*
X525476Y265126D02*
X539750Y279400D01*
X599389D01*
X612523Y266266D02*
X612777Y234237D01*
X116578Y495038D02*
X126830D01*
X110610Y474993D02*
Y489070D01*
X116578Y495038D01*
X743637Y235210D02*
X768520D01*
X740410Y237490D02*
X741357D01*
X743637Y235210D01*
X710034Y254436D02*
X746760D01*
X709760Y254710D02*
X710034Y254436D01*
X31750Y219030D02*
X32500Y218280D01*
X31750Y219030D02*
Y226460D01*
X16290Y241920D02*
X31750Y226460D01*
X32500Y218280D02*
X34689D01*
X1183975Y370137D02*
X1186180Y372342D01*
Y386080D01*
X592542Y140248D02*
Y203748D01*
Y140248D02*
X606845Y125945D01*
X592542Y203748D02*
X635120Y161170D01*
X15900Y198151D02*
Y213980D01*
X212094Y523080D02*
X229909D01*
X236141D01*
X229909Y513959D02*
Y523080D01*
X230788Y513080D02*
X236141D01*
X229909Y513959D02*
X230788Y513080D01*
X212090Y522192D02*
X212092Y522636D01*
X717543Y143517D02*
X717660Y143400D01*
Y125997D02*
Y143400D01*
Y125997D02*
X726177Y117480D01*
X713160Y120497D02*
Y132080D01*
X717550Y157480D02*
X803656D01*
X726177Y117480D02*
X730177D01*
X713160Y120497D02*
X726177Y107480D01*
X727710Y401320D02*
X760730Y434340D01*
X727710Y332740D02*
Y401320D01*
X734060Y400050D02*
X765810Y431800D01*
X734060Y327660D02*
Y400050D01*
X758482Y228710D02*
X768520D01*
X742338Y267710D02*
X768520D01*
X735838Y274210D02*
X742338Y267710D01*
X709760Y274210D02*
X735838D01*
X709760Y248210D02*
X723900D01*
X732790Y239320D01*
Y223520D02*
Y239320D01*
X708660Y199390D02*
X732790Y223520D01*
X708660Y108656D02*
Y199390D01*
Y108656D02*
X719836Y97480D01*
X730177D01*
X709760Y241710D02*
X724760D01*
X730040Y236430D01*
Y225850D02*
Y236430D01*
X704850Y200660D02*
X730040Y225850D01*
X704850Y102870D02*
Y200660D01*
Y102870D02*
X720240Y87480D01*
X730177D01*
X786130Y251460D02*
Y261620D01*
X782880Y248210D02*
X786130Y251460D01*
X768520Y248210D02*
X782880D01*
X768794Y254436D02*
X781630D01*
X768520Y254710D02*
X768794Y254436D01*
X782643Y269240D02*
X783232Y268651D01*
X776024Y269240D02*
X782643D01*
X775994Y269210D02*
X776024Y269240D01*
X770020Y269210D02*
X775994D01*
X768520Y267710D02*
X770020Y269210D01*
X783232Y268651D02*
X786719D01*
X791210Y264160D01*
Y235585D02*
Y264160D01*
X784335Y228710D02*
X791210Y235585D01*
X768520Y228710D02*
X784335D01*
X751840Y222068D02*
X758482Y228710D01*
X760730Y476250D02*
X793750Y509270D01*
X760730Y434340D02*
Y476250D01*
X799805Y509270D02*
X801370Y510835D01*
X793750Y509270D02*
X799805D01*
X801370Y510835D02*
Y527060D01*
X765810Y431800D02*
Y474980D01*
X796290Y505460D01*
X800862D01*
X814070Y518668D01*
X730177Y67480D02*
X731277Y68580D01*
X742950D01*
X906526Y144145D02*
Y185166D01*
X906780Y185420D01*
X1036320Y250724D02*
X1051868Y266273D01*
Y279760D01*
X1036320Y237490D02*
Y250724D01*
X485140Y170180D02*
X492760Y177800D01*
X485140Y59559D02*
Y170180D01*
Y59559D02*
X492754Y51945D01*
X492760Y177800D02*
X578064D01*
X581030Y180766D01*
Y197480D01*
X578273Y200238D02*
X581030Y197480D01*
X571560Y200238D02*
X578273D01*
X570060Y201737D02*
X571560Y200238D01*
X579840Y174031D02*
X583780Y177971D01*
X579033Y208237D02*
X583780Y203490D01*
Y177971D02*
Y203490D01*
X518090Y107880D02*
X586530Y176320D01*
X581298Y214738D02*
X586530Y209506D01*
Y176320D02*
Y209506D01*
X508428Y88695D02*
X589280Y169547D01*
X582422Y221238D02*
X589280Y214380D01*
Y169547D02*
Y214380D01*
X986869Y382160D02*
Y393944D01*
X985509Y395304D02*
X986869Y393944D01*
X985509Y395304D02*
Y396229D01*
X17900Y447160D02*
Y463550D01*
X495300Y77919D02*
X498806Y74412D01*
X495300Y77919D02*
Y94630D01*
X518090Y107880D01*
X498806Y74412D02*
X504210D01*
X504678Y73945D01*
X637540Y74930D02*
X647598D01*
X648970Y76302D01*
X642849Y57749D02*
X645416D01*
X648970Y61302D01*
X641008Y55908D02*
X642849Y57749D01*
X641008Y55908D02*
Y55908D01*
X637045Y51945D02*
X641008Y55908D01*
X617677Y51945D02*
X637045D01*
X682373Y92710D02*
X686063Y89020D01*
X668020Y95130D02*
X670440Y92710D01*
X683853Y121947D02*
X685800Y120000D01*
X669170Y128020D02*
X672920Y124270D01*
X654050Y128390D02*
Y146170D01*
Y128390D02*
X654170Y128270D01*
X662940Y154810D02*
Y166370D01*
X627380Y173990D02*
X655320D01*
X662940Y166370D01*
X609600Y191770D02*
X627380Y173990D01*
X654300Y146170D02*
X662940Y154810D01*
X587280Y265350D02*
X588030Y264600D01*
X590089D02*
X592542Y262148D01*
X588030Y264600D02*
X590089D01*
X592542Y203748D02*
Y262148D01*
X561420Y265350D02*
X587280D01*
X604730Y259600D02*
X606409D01*
X603980Y260350D02*
X604730Y259600D01*
X606409D02*
X609600Y256409D01*
Y191770D02*
Y256409D01*
X635120Y161170D02*
X654050D01*
Y146170D02*
X654300D01*
X685800Y104283D02*
X686063Y104020D01*
X598170Y54610D02*
Y62230D01*
Y54610D02*
X611806Y40974D01*
X498475Y62945D02*
X504678D01*
X492754Y51945D02*
X504678D01*
X617677Y114945D02*
X618302Y115570D01*
X600710D02*
X617052D01*
X498094Y148199D02*
X504424D01*
X504678Y147945D01*
X606845Y125945D02*
X617677D01*
X504678Y84945D02*
X505178D01*
X617677Y125945D02*
X618177D01*
X617648Y40974D02*
X617677Y40945D01*
X611806Y40974D02*
X617648D01*
X618177Y125945D02*
X621427Y129195D01*
X570060Y221238D02*
X582422D01*
X508428Y88195D02*
Y88695D01*
X505178Y84945D02*
X508428Y88195D01*
X496697Y149596D02*
Y168910D01*
Y149596D02*
X498094Y148199D01*
X570060Y208237D02*
X579033D01*
X494849Y174031D02*
X579840D01*
X490220Y169402D02*
X494849Y174031D01*
X490220Y71200D02*
Y169402D01*
Y71200D02*
X498475Y62945D01*
X570060Y214738D02*
X581298D01*
X60960Y417210D02*
X186802D01*
X683730Y149260D02*
X689010D01*
X689610Y149860D01*
X671950Y161040D02*
X683730Y149260D01*
X671950Y161040D02*
Y161290D01*
X560070Y266700D02*
X561420Y265350D01*
X865177Y147480D02*
X878596D01*
X865177Y87480D02*
X894588D01*
X842678Y191680D02*
Y201262D01*
X865177Y97480D02*
X889960D01*
X730177Y127480D02*
X742950D01*
X865177Y167480D02*
X875261D01*
X865177Y107480D02*
X885990D01*
X865177Y137480D02*
X881700D01*
X726177Y107480D02*
X730177D01*
X858520Y225600D02*
Y229850D01*
Y225600D02*
X861520Y222600D01*
X861980D01*
X883920Y200660D01*
Y139700D02*
Y200660D01*
X881700Y137480D02*
X883920Y139700D01*
X871220Y225600D02*
Y229850D01*
Y225600D02*
X874220Y222600D01*
X874680D01*
X887730Y209550D01*
Y109220D02*
Y209550D01*
X885990Y107480D02*
X887730Y109220D01*
X833120Y225600D02*
Y229850D01*
Y225600D02*
X836120Y222600D01*
X836580D01*
X876140Y183040D01*
Y168359D02*
Y183040D01*
X875261Y167480D02*
X876140Y168359D01*
X820420Y220345D02*
Y229850D01*
Y220345D02*
X823595Y217170D01*
X834390D01*
X852170Y199390D01*
Y179070D02*
Y199390D01*
X824230Y151130D02*
X852170Y179070D01*
X766600Y151130D02*
X824230D01*
X760399Y144929D02*
X766600Y151130D01*
X742950Y127480D02*
X760399Y144929D01*
X883920Y229850D02*
X886920Y226850D01*
Y221790D02*
Y226850D01*
Y221790D02*
X891540Y217170D01*
Y99060D02*
Y217170D01*
X889960Y97480D02*
X891540Y99060D01*
X807720Y217170D02*
Y229850D01*
Y217170D02*
X812292Y212598D01*
X831342D01*
X842678Y201262D01*
X896620Y89512D02*
Y229850D01*
X894588Y87480D02*
X896620Y89512D01*
X845820Y225600D02*
Y229850D01*
Y225600D02*
X879475Y191945D01*
Y148359D02*
Y191945D01*
X878596Y147480D02*
X879475Y148359D01*
X970669Y305960D02*
X978425D01*
X1051868Y374142D02*
Y382160D01*
Y374142D02*
X1055116Y370894D01*
X991869Y382160D02*
Y402589D01*
X1046869Y281059D02*
X1053990Y288180D01*
X1063182D01*
X981118Y280510D02*
X981869Y279760D01*
X1067619Y378911D02*
X1077806Y368724D01*
Y363728D02*
X1078476Y363059D01*
X1077806Y363728D02*
Y368724D01*
X1001869Y382160D02*
Y399264D01*
X999490Y401643D02*
X1001869Y399264D01*
X1061868Y228452D02*
Y279760D01*
X1066869Y229547D02*
Y279760D01*
X1041400Y411720D02*
X1041868Y411251D01*
X1016869Y279760D02*
Y285897D01*
X1014984Y287782D02*
X1016869Y285897D01*
X985520Y269240D02*
X991118Y274839D01*
X1017905Y255905D02*
X1023620Y250190D01*
Y217170D02*
Y250190D01*
X1011868Y375988D02*
Y382160D01*
Y375988D02*
X1021080Y366776D01*
Y309949D02*
Y366776D01*
X1020778Y309646D02*
X1021080Y309949D01*
X1021868Y374809D02*
Y382160D01*
Y374809D02*
X1023620Y373057D01*
Y372110D02*
Y373057D01*
X1066869Y385064D02*
X1076452Y394647D01*
Y449326D01*
X1068403Y457375D02*
Y463790D01*
Y457375D02*
X1076452Y449326D01*
X937260Y273304D02*
X959916Y295960D01*
X937260Y256540D02*
Y273304D01*
X913471Y375960D02*
X970669D01*
X991870Y267970D02*
X996909Y273009D01*
Y279720D01*
X996869Y279760D02*
X996909Y279720D01*
X1007279Y268381D02*
Y279349D01*
X1006687Y382342D02*
Y391630D01*
X1006505Y391812D02*
X1006687Y391630D01*
X1031868Y267019D02*
X1033780Y265107D01*
X1031868Y267019D02*
Y279760D01*
X1033780Y264160D02*
Y265107D01*
X1073369Y385688D02*
X1079335Y391655D01*
X1088367D01*
X981869Y382160D02*
Y390398D01*
X978567Y393700D02*
X981869Y390398D01*
X974709Y393700D02*
X978567D01*
X970812Y397596D02*
X974709Y393700D01*
X970812Y397596D02*
Y411480D01*
X999490Y267970D02*
X1000160Y268640D01*
X1001869Y274158D02*
Y279760D01*
X1000160Y272450D02*
X1001869Y274158D01*
X1000160Y268640D02*
Y272450D01*
X1057584Y262564D02*
Y279045D01*
X1012618Y276982D02*
X1017270Y272330D01*
Y265430D02*
Y272330D01*
X1056869Y382160D02*
Y387121D01*
X1041868Y382160D02*
Y411251D01*
X1026514Y270864D02*
Y279406D01*
X1026160Y270510D02*
X1026514Y270864D01*
X1043299Y412682D02*
X1051015D01*
X1050590Y401990D02*
X1060200Y411600D01*
X1047750Y401320D02*
X1048420Y401990D01*
X1050590D01*
X964946Y285960D02*
X970669D01*
X959286Y239118D02*
Y280300D01*
X964946Y285960D01*
X991869Y382160D02*
X991869Y382160D01*
X959916Y295960D02*
X970669D01*
X1066869Y382160D02*
X1067619Y381410D01*
Y378911D02*
Y381410D01*
X1007279Y268381D02*
X1007690Y267970D01*
X1066869Y382160D02*
Y385064D01*
X991118Y274839D02*
Y279010D01*
X991869Y279760D01*
X1006869D02*
X1007279Y279349D01*
X1006687Y382342D02*
X1006869Y382160D01*
X1046869D02*
Y388825D01*
X1046116Y389578D02*
X1046869Y388825D01*
X1046116Y389578D02*
Y398739D01*
X1047750Y400373D01*
Y401320D01*
X1071868Y382160D02*
Y383360D01*
X1073369Y384860D01*
Y385688D01*
X1088367Y391655D02*
X1088485Y391536D01*
X1081869Y279760D02*
X1081954Y279675D01*
X1011868Y279760D02*
X1012618Y279010D01*
Y276982D02*
Y279010D01*
X1096869Y279760D02*
X1097436Y279193D01*
X1026514Y279406D02*
X1026869Y279760D01*
X949960Y315610D02*
X951010D01*
X954160Y318760D01*
Y319810D01*
X956930Y322580D01*
X967020D01*
X967140Y322460D01*
X967968D01*
X969469Y320960D01*
X970669D01*
X1060200Y411600D02*
X1060450D01*
X1038860Y270510D02*
Y271457D01*
X1036869Y273448D02*
X1038860Y271457D01*
X1036869Y273448D02*
Y279760D01*
X1050290Y255270D02*
X1057584Y262564D01*
X1056869Y279760D02*
X1057584Y279045D01*
X1041868Y279760D02*
X1042618Y279010D01*
Y276982D02*
Y279010D01*
Y276982D02*
X1045210Y274390D01*
Y264194D02*
Y274390D01*
X1026869Y382160D02*
Y390599D01*
X1028700Y392430D01*
Y411098D01*
X1036702Y419100D01*
X1136650Y106790D02*
X1143000Y100440D01*
X1169840D01*
X1136650Y106790D02*
Y153670D01*
X1061868Y228452D02*
X1136650Y153670D01*
X1146175Y113440D02*
X1169840D01*
X979170Y284487D02*
Y291084D01*
Y284487D02*
X981118Y282539D01*
X979170Y315283D02*
Y316230D01*
Y315283D02*
X981710Y312743D01*
X1141730Y117885D02*
X1146175Y113440D01*
X1141730Y117885D02*
Y154686D01*
X1066869Y229547D02*
X1141730Y154686D01*
X991869Y402589D02*
X991870Y402590D01*
X999490Y401643D02*
Y402590D01*
X1041868Y411251D02*
X1043299Y412682D01*
X981710Y309245D02*
Y312743D01*
X978425Y305960D02*
X981710Y309245D01*
X981118Y280510D02*
Y282539D01*
X908050Y381381D02*
X913471Y375960D01*
X1086353Y496435D02*
Y521340D01*
X1083310Y492760D02*
Y493392D01*
X1086353Y496435D01*
X1192530Y532130D02*
X1194580D01*
X1192530D02*
X1193555Y533155D01*
X871230Y508000D02*
X918972D01*
X1003300D01*
X918972Y424688D02*
Y508000D01*
X1003300D02*
X1007024Y511724D01*
X852170Y527060D02*
X871230Y508000D01*
X1007024Y511724D02*
Y526984D01*
X1007110Y527070D01*
X980440Y191770D02*
X998220D01*
X1023620Y217170D01*
X1066800Y97790D02*
Y173990D01*
X1023620Y217170D02*
X1066800Y173990D01*
X970280Y153555D02*
Y181610D01*
X980440Y191770D01*
X1017030Y180340D02*
X1017041Y180351D01*
X1193555Y533155D02*
X1194580Y532130D01*
X915416Y106045D02*
X918591Y102870D01*
X915416Y106045D02*
Y131445D01*
X918591Y134620D02*
X935990D01*
X915416Y131445D02*
X918591Y134620D01*
X935990D02*
X939800Y138430D01*
X918591Y102870D02*
X927920D01*
X931672D01*
X1023366Y478790D02*
X1068403D01*
X1022858Y478282D02*
X1023366Y478790D01*
X579320Y467160D02*
X610616Y435864D01*
X579320Y467160D02*
Y541320D01*
X212120Y530352D02*
Y540400D01*
X212740Y541020D01*
X212092Y530380D02*
X212120Y530352D01*
X212092Y522636D02*
Y530380D01*
X93980Y518280D02*
X96520Y520820D01*
X93980Y504570D02*
Y518280D01*
X25400Y130030D02*
Y184150D01*
Y130030D02*
X30720Y124710D01*
X83800Y114300D02*
X85980Y116480D01*
X68580Y114300D02*
X83800D01*
X59450Y105170D02*
X68580Y114300D01*
X48260Y105170D02*
X59450D01*
X442580Y474980D02*
X443850Y476250D01*
X427870Y474980D02*
X442580D01*
X443440Y476660D02*
Y520810D01*
Y476660D02*
X443850Y476250D01*
X25400Y184150D02*
X29318Y188068D01*
X30720Y124460D02*
Y124710D01*
X34689Y173280D02*
X42620D01*
X34689Y183280D02*
X46628D01*
X29318Y188068D02*
X34477D01*
X34689Y178280D02*
X49643D01*
X15240Y198151D02*
X15900D01*
X15240Y241920D02*
X16290D01*
X15369Y198280D02*
X34689D01*
X15240Y198151D02*
X15369Y198280D01*
X34477Y188068D02*
X34689Y188280D01*
X52663Y175260D02*
X53340D01*
X49643Y178280D02*
X52663Y175260D01*
X46628Y183280D02*
X47752Y184404D01*
X42620Y173280D02*
X48260Y167640D01*
X34910Y445150D02*
X41260D01*
X46990Y408940D02*
Y439420D01*
X41260Y445150D02*
X46990Y439420D01*
X965800Y545430D02*
X966470Y546100D01*
X964395Y545430D02*
X965800D01*
X956310Y537345D02*
X964395Y545430D01*
X956310Y527070D02*
Y537345D01*
X974090Y544830D02*
X1037336D01*
X971599Y542339D02*
X974090Y544830D01*
X969010Y527070D02*
X971599Y529659D01*
Y542339D01*
X1037336Y544830D02*
X1057148Y525018D01*
X306070Y454040D02*
X306690Y454660D01*
X393820Y457200D02*
X397510D01*
X391160Y459860D02*
X393820Y457200D01*
X414490Y431165D02*
Y431320D01*
X412740Y433070D02*
X414490Y431320D01*
X407670Y433070D02*
X412740D01*
X402590Y438150D02*
X407670Y433070D01*
X402590Y438150D02*
Y452120D01*
X397510Y457200D02*
X402590Y452120D01*
X414490Y443165D02*
Y455460D01*
X405130Y464820D02*
X414490Y455460D01*
X236220Y482200D02*
X243633Y474787D01*
X236220Y482200D02*
Y503080D01*
X295115Y528303D02*
X299720Y532909D01*
X283193Y528303D02*
X295115D01*
X264142Y518080D02*
X272970D01*
X283193Y528303D01*
X109220Y258012D02*
Y300230D01*
Y258012D02*
X109542Y257690D01*
X87230Y322220D02*
X109220Y300230D01*
X85980Y322220D02*
X87230D01*
X185928Y345440D02*
X191770Y339598D01*
Y224790D02*
Y339598D01*
X127620Y242570D02*
X138430D01*
X194818Y305562D02*
Y350275D01*
Y305562D02*
X271790Y228590D01*
Y228590D02*
Y228590D01*
X205740Y313690D02*
X403860Y115570D01*
X448310D01*
X205740Y313690D02*
Y398272D01*
X186802Y417210D02*
X205740Y398272D01*
X198628Y310642D02*
X232410Y276860D01*
X198628Y310642D02*
Y376572D01*
X193675Y381525D02*
X198628Y376572D01*
X181610Y363483D02*
X194818Y350275D01*
X175020Y345440D02*
X185928D01*
X104550Y338426D02*
X109656Y333320D01*
X153869D01*
X160020Y339471D01*
Y345440D01*
X1169280Y119380D02*
X1169840Y119940D01*
X1153160Y119380D02*
X1169280D01*
X1167130Y146988D02*
X1168179Y145940D01*
X1167130Y146988D02*
Y154940D01*
X1168179Y145940D02*
X1169840D01*
X1164820D02*
X1168179D01*
X1111080Y106940D02*
X1128020D01*
X1131570Y110490D02*
Y151130D01*
X1128020Y106940D02*
X1131570Y110490D01*
X1122680Y160020D02*
X1131570Y151130D01*
X1126490Y135890D02*
Y149860D01*
X1121410Y154940D02*
X1126490Y149860D01*
X1123540Y132940D02*
X1126490Y135890D01*
X1111080Y132940D02*
X1123540D01*
X1098550Y163180D02*
X1101700Y160030D01*
X1103619D01*
X1103629Y160020D02*
X1122680D01*
X1103619Y160030D02*
X1103629Y160020D01*
X1090930Y154940D02*
X1121410D01*
X1082690Y163180D02*
X1090930Y154940D01*
X1062990Y93980D02*
X1066800Y97790D01*
X694330Y522580D02*
X694690Y522220D01*
Y511810D02*
Y522220D01*
X342440Y520810D02*
X360109Y538480D01*
X425770D02*
X443440Y520810D01*
X360109Y538480D02*
X425770D01*
X931672Y58420D02*
Y102870D01*
X932295Y115570D02*
X970280Y153555D01*
X909701Y140970D02*
X927920D01*
Y115570D02*
X932295D01*
X927920Y128270D02*
X937514D01*
X906526Y144145D02*
X909701Y140970D01*
X1060040Y106150D02*
Y115980D01*
X1056640Y119380D02*
X1060040Y115980D01*
X1041400Y119380D02*
X1056640D01*
X1035050Y113030D02*
X1041400Y119380D01*
X1035050Y91440D02*
Y113030D01*
X1031240Y87630D02*
X1035050Y91440D01*
X998220Y87630D02*
X1031240D01*
X995680Y85090D02*
X998220Y87630D01*
X995680Y57404D02*
Y85090D01*
X990346Y52070D02*
X995680Y57404D01*
X938022Y52070D02*
X990346D01*
X931672Y58420D02*
X938022Y52070D01*
X271790Y228590D02*
X312420Y187960D01*
X660640Y217375D02*
Y231380D01*
X674370Y245110D01*
X660640Y198833D02*
Y217375D01*
X629013Y201930D02*
X643890D01*
X628820Y201737D02*
X629013Y201930D01*
X886630Y420780D02*
X916080D01*
X919480Y424180D01*
X918972Y424688D02*
X919480Y424180D01*
X642419Y208237D02*
X648970Y214788D01*
Y274320D01*
X631070Y341630D02*
X631190Y341510D01*
X618813Y325120D02*
X619760D01*
X612330Y345260D02*
Y345510D01*
X589280Y341510D02*
X591411Y343642D01*
X1047040Y106150D02*
X1047750Y105440D01*
Y91440D02*
Y105440D01*
X839357Y424180D02*
X840304D01*
X837457Y422280D02*
X839357Y424180D01*
X829370Y422280D02*
X837457D01*
X30480Y90790D02*
X48260D01*
X1058366Y93980D02*
X1062990D01*
X1053540Y98806D02*
X1058366Y93980D01*
X957580Y72880D02*
Y90170D01*
Y72880D02*
X957820Y72640D01*
X1169840Y126440D02*
X1180540D01*
X1140257Y94999D02*
X1180849D01*
X1135428Y90170D02*
X1140257Y94999D01*
X1120427Y72640D02*
Y91728D01*
X1113836Y100440D02*
X1115336Y98940D01*
X1111080Y100440D02*
X1113836D01*
X1115336Y96819D02*
X1120427Y91728D01*
X1115336Y96819D02*
Y98940D01*
X1163320Y147440D02*
X1164820Y145940D01*
X642500Y326510D02*
X662842D01*
X631190D02*
X631310Y326390D01*
X642620D01*
X618099Y195238D02*
X628820D01*
X617220Y196116D02*
Y220359D01*
Y196116D02*
X618099Y195238D01*
X617220Y220359D02*
X618099Y221238D01*
X60960Y417210D02*
Y433190D01*
X425165Y399588D02*
X425450Y399873D01*
X412225Y362355D02*
X412750Y361830D01*
X425450Y380873D02*
X426517D01*
X430267Y377123D01*
Y362070D02*
X430793Y361545D01*
X466353Y362071D02*
Y376838D01*
Y362071D02*
X466878Y361545D01*
X462603Y380588D02*
X466353Y376838D01*
X461010Y380588D02*
X462603D01*
X414153Y360526D02*
X414173Y360508D01*
X412750Y361830D02*
X414153Y360526D01*
X414173Y360508D02*
X414609Y360071D01*
X317500Y380390D02*
X321047Y376842D01*
X357877Y361347D02*
X358097Y361567D01*
X354347Y380390D02*
X358097Y376640D01*
X354330Y380390D02*
X354347D01*
X432490Y420806D02*
Y431165D01*
X423490Y426720D02*
Y431165D01*
X416886Y420116D02*
X423490Y426720D01*
X408940Y420116D02*
X416886D01*
X423490Y443165D02*
Y459668D01*
X389605Y399588D02*
X389890Y399873D01*
X441490Y431165D02*
X441633Y431023D01*
X441633D01*
X449140Y432630D02*
X452120Y435610D01*
X443240Y432630D02*
X449140D01*
X441633Y431023D02*
X443240Y432630D01*
X390432Y380873D02*
X394182Y377123D01*
X389890Y380873D02*
X390432D01*
X426974Y415290D02*
X432490Y420806D01*
X406400Y415290D02*
X426974D01*
X402082Y419608D02*
X406400Y415290D01*
X60960Y448190D02*
X96380D01*
X99950Y451760D01*
X540900Y251460D02*
X541020Y251580D01*
X528320Y251460D02*
X540900D01*
X577850D02*
X581740Y255350D01*
X587280D01*
X1054220Y20320D02*
X1064260D01*
X1054100Y20440D02*
X1054220Y20320D01*
X977660Y166370D02*
X977900Y166610D01*
X1002030Y180340D02*
X1005780Y184090D01*
X1002150Y162547D02*
X1005900Y166297D01*
X1006150D01*
X146050Y389890D02*
X154165Y381775D01*
X120650Y389890D02*
X146050D01*
X117550Y386790D02*
X120650Y389890D01*
X159890Y381775D02*
X160140Y381525D01*
X154165Y381775D02*
X159890D01*
X117550Y379990D02*
Y386790D01*
X519430Y261740D02*
X522816Y265126D01*
X525476D01*
X612777Y194422D02*
Y234237D01*
Y194422D02*
X618462Y188737D01*
X541020Y266580D02*
X541140Y266700D01*
X560070D01*
X260350Y475113D02*
Y487680D01*
X306070Y474980D02*
Y485140D01*
X279908Y510530D02*
X298941D01*
X299720Y511308D01*
X277458Y508080D02*
X279908Y510530D01*
X264142Y508080D02*
X277458D01*
X260350Y475113D02*
X260675Y474787D01*
X827870Y420780D02*
X829370Y422280D01*
X628820Y208237D02*
X642419D01*
X516770Y235033D02*
X516890Y235153D01*
Y251460D01*
X516770Y218740D02*
X518770Y216740D01*
X516770Y218740D02*
Y235033D01*
X48260Y90790D02*
X48910Y91440D01*
X62230D01*
X571491Y255007D02*
X576834Y260350D01*
X571491Y241588D02*
Y255007D01*
X1167974Y370137D02*
X1167974Y370137D01*
X1183975D01*
X1199447Y371543D02*
X1201420Y369570D01*
X1199447Y371543D02*
Y385348D01*
X1200180Y386080D01*
X1200815Y385445D01*
X1203330Y387960D01*
Y390030D01*
X104550Y338426D02*
Y348990D01*
X612777Y234237D02*
X628650D01*
X243633Y474787D02*
X260675D01*
X212092Y522636D02*
X212094Y523080D01*
X816096Y414280D02*
X827870D01*
X455810Y431920D02*
X464820D01*
X452120Y435610D02*
X455810Y431920D01*
X127000Y243190D02*
X127620Y242570D01*
X34290Y445150D02*
X34910D01*
X628650Y227737D02*
Y234237D01*
X906526Y62230D02*
Y144145D01*
X402082Y419608D02*
Y429641D01*
X392423Y439300D02*
X402082Y429641D01*
X386080Y439300D02*
X392423D01*
X618462Y188737D02*
X628820D01*
X576834Y260350D02*
X587280D01*
X871924Y440280D02*
X886630D01*
X865730Y434086D02*
X871924Y440280D01*
X814070Y518668D02*
Y527060D01*
X662842Y326510D02*
X669152Y332820D01*
X1053540Y98806D02*
Y106150D01*
X1082040Y142890D02*
X1094740D01*
X1098190Y139440D01*
X1111080D01*
X1082040Y128890D02*
X1095248D01*
X1097698Y126440D01*
X1111080D01*
X1082040Y114300D02*
X1093724D01*
X1099364Y119940D01*
X1111080D01*
X1082040Y100300D02*
X1089503D01*
X1102643Y113440D01*
X1111080D01*
X886630Y427280D02*
X897636D01*
X908812Y438456D01*
Y486664D01*
X659560Y198833D02*
X660640D01*
X628650Y234237D02*
X628820D01*
X628650Y227737D02*
X628820D01*
X1150428Y49846D02*
Y72640D01*
X603980Y260350D02*
Y265350D01*
X1082675Y525018D02*
X1086353Y521340D01*
X1057148Y525018D02*
X1082675D01*
X1135428Y72640D02*
Y90170D01*
X1003420Y98030D02*
Y102870D01*
X1040540Y70768D02*
Y106150D01*
X1007364Y37592D02*
X1040540Y70768D01*
X931164Y37592D02*
X1007364D01*
X906526Y62230D02*
X931164Y37592D01*
X175140Y381525D02*
X193675D01*
X175140Y363483D02*
X181610D01*
X628820Y214738D02*
X639826D01*
D16*
X1167780Y403860D02*
D03*
X1153780D02*
D03*
X640730Y389890D02*
D03*
X626730D02*
D03*
X130160Y533863D02*
D03*
X144160D02*
D03*
X181580Y475443D02*
D03*
X195580D02*
D03*
X212740Y541020D02*
D03*
X198740D02*
D03*
X305450Y495300D02*
D03*
X291450D02*
D03*
X292070Y474980D02*
D03*
X306070D02*
D03*
X1200180Y386080D02*
D03*
X1186180D02*
D03*
X640080Y372110D02*
D03*
X626080D02*
D03*
X457850Y476250D02*
D03*
X443850D02*
D03*
D17*
X1150620Y441340D02*
D03*
Y427340D02*
D03*
X1166663D02*
D03*
Y441340D02*
D03*
X1181100Y471283D02*
D03*
Y457282D02*
D03*
X949960Y342250D02*
D03*
Y356250D02*
D03*
X924560D02*
D03*
Y342250D02*
D03*
X949960Y301610D02*
D03*
Y315610D02*
D03*
X990600Y233030D02*
D03*
Y247030D02*
D03*
X974090D02*
D03*
Y233030D02*
D03*
X1012190Y247030D02*
D03*
Y233030D02*
D03*
X1019940Y412100D02*
D03*
Y426100D02*
D03*
X1003898D02*
D03*
Y412100D02*
D03*
X987855Y426100D02*
D03*
Y412100D02*
D03*
X953770Y426750D02*
D03*
Y412750D02*
D03*
X1012190Y137810D02*
D03*
Y123810D02*
D03*
X1082040Y177180D02*
D03*
Y163180D02*
D03*
X1098550D02*
D03*
Y177180D02*
D03*
X1082040Y100300D02*
D03*
Y114300D02*
D03*
Y142890D02*
D03*
Y128890D02*
D03*
X1193800Y108570D02*
D03*
Y122570D02*
D03*
X34290Y445150D02*
D03*
Y431150D02*
D03*
X62230Y403210D02*
D03*
Y417210D02*
D03*
X212090Y472873D02*
D03*
Y486873D02*
D03*
X15240Y184150D02*
D03*
Y198150D02*
D03*
X109220Y134042D02*
D03*
Y148041D02*
D03*
X127000Y147970D02*
D03*
Y133970D02*
D03*
X544830Y208900D02*
D03*
Y222900D02*
D03*
X560070Y252700D02*
D03*
Y266700D02*
D03*
X1197143Y471283D02*
D03*
Y457282D02*
D03*
X685800Y120000D02*
D03*
Y134000D02*
D03*
X80010Y378460D02*
D03*
Y364460D02*
D03*
X1183975Y370137D02*
D03*
Y356137D02*
D03*
X1167933Y356137D02*
D03*
Y370137D02*
D03*
X127000Y257190D02*
D03*
Y243190D02*
D03*
X30480Y90790D02*
D03*
Y104790D02*
D03*
X306070Y454040D02*
D03*
Y440040D02*
D03*
X15240Y241920D02*
D03*
Y255920D02*
D03*
Y213980D02*
D03*
Y227980D02*
D03*
D18*
X1183705Y441840D02*
D03*
Y426840D02*
D03*
X686063Y104020D02*
D03*
Y89020D02*
D03*
X1201420Y369570D02*
D03*
Y354570D02*
D03*
X654050Y161170D02*
D03*
Y146170D02*
D03*
X648970Y61302D02*
D03*
Y76302D02*
D03*
X1060450Y426600D02*
D03*
Y411600D02*
D03*
X1041400Y411720D02*
D03*
Y426720D02*
D03*
X970813Y426480D02*
D03*
Y411480D02*
D03*
X1068403Y463790D02*
D03*
Y478790D02*
D03*
X1086445Y478910D02*
D03*
Y463910D02*
D03*
X48260Y105170D02*
D03*
Y90170D02*
D03*
X109542Y242690D02*
D03*
Y257690D02*
D03*
X448835Y361545D02*
D03*
Y346545D02*
D03*
X412750Y346830D02*
D03*
Y361830D02*
D03*
X339090Y361098D02*
D03*
Y346098D02*
D03*
X375920Y346348D02*
D03*
Y361348D02*
D03*
X303005Y361098D02*
D03*
Y346098D02*
D03*
X589280Y326510D02*
D03*
Y341510D02*
D03*
X608330D02*
D03*
Y326510D02*
D03*
X631190D02*
D03*
Y341510D02*
D03*
X386080Y424300D02*
D03*
Y439300D02*
D03*
X464820Y446920D02*
D03*
Y431920D02*
D03*
X391160Y474860D02*
D03*
Y459860D02*
D03*
X668020Y80130D02*
D03*
Y95130D02*
D03*
X541020Y251580D02*
D03*
Y266580D02*
D03*
X519430Y261740D02*
D03*
Y276740D02*
D03*
X500380D02*
D03*
Y261740D02*
D03*
X528320Y330320D02*
D03*
Y345320D02*
D03*
X501650D02*
D03*
Y330320D02*
D03*
X96520Y535820D02*
D03*
Y520820D02*
D03*
X212090Y522193D02*
D03*
Y507193D02*
D03*
X60960Y433190D02*
D03*
Y448190D02*
D03*
X16510Y445770D02*
D03*
Y430770D02*
D03*
X1054100Y35440D02*
D03*
Y20440D02*
D03*
X466878Y361545D02*
D03*
Y346545D02*
D03*
X1054100Y58420D02*
D03*
Y73420D02*
D03*
X430793Y346545D02*
D03*
Y361545D02*
D03*
X394182D02*
D03*
Y346545D02*
D03*
X357877Y346347D02*
D03*
Y361347D02*
D03*
X321047Y361097D02*
D03*
Y346097D02*
D03*
D19*
X1136280Y479860D02*
D03*
Y462310D02*
D03*
D20*
Y471090D02*
D03*
D21*
X1124400Y459660D02*
D03*
Y482520D02*
D03*
X1148160D02*
D03*
Y459660D02*
D03*
D22*
X1124400Y466090D02*
D03*
Y471090D02*
D03*
Y476090D02*
D03*
X1148160D02*
D03*
Y466090D02*
D03*
Y471090D02*
D03*
D23*
X1154550Y386080D02*
D03*
X1169550D02*
D03*
X427870Y474980D02*
D03*
X412870D02*
D03*
X175020Y345440D02*
D03*
X160020D02*
D03*
X160140Y363483D02*
D03*
X175140D02*
D03*
Y381525D02*
D03*
X160140D02*
D03*
X669170Y128270D02*
D03*
X654170D02*
D03*
X501770Y235033D02*
D03*
X516770D02*
D03*
X45840Y266700D02*
D03*
X60840D02*
D03*
X45720Y124460D02*
D03*
X30720D02*
D03*
X600710Y370840D02*
D03*
X585710D02*
D03*
X243633Y474787D02*
D03*
X228633D02*
D03*
X260675D02*
D03*
X275675D02*
D03*
X149860Y475443D02*
D03*
X164860D02*
D03*
X125610Y474992D02*
D03*
X110610D02*
D03*
X176290Y533863D02*
D03*
X161290D02*
D03*
X17900Y463550D02*
D03*
X32900D02*
D03*
X962660Y166370D02*
D03*
X977660D02*
D03*
X371990Y474980D02*
D03*
X356990D02*
D03*
X321512D02*
D03*
X336512D02*
D03*
X1017150Y162297D02*
D03*
X1002150D02*
D03*
X1017030Y180340D02*
D03*
X1002030D02*
D03*
X1018420Y102870D02*
D03*
X1003420D02*
D03*
X671950Y161290D02*
D03*
X686950D02*
D03*
X675640Y217375D02*
D03*
X660640D02*
D03*
D24*
X669930Y522580D02*
D03*
X694330D02*
D03*
X718730D02*
D03*
X668930Y490880D02*
D03*
X694330D02*
D03*
X719730D02*
D03*
D25*
X737030Y457580D02*
D03*
D26*
X699830Y420830D02*
D03*
D27*
X740280Y529580D02*
D03*
X628780D02*
D03*
D28*
X740280Y481080D02*
D03*
X628780D02*
D03*
D29*
X735280Y439580D02*
D03*
D30*
X716330Y410080D02*
D03*
X672330D02*
D03*
D31*
X628780Y429580D02*
D03*
D32*
X682130Y541080D02*
D03*
X706530D02*
D03*
D33*
X1109369Y298960D02*
D03*
X1089369D02*
D03*
X1069369D02*
D03*
X1049369D02*
D03*
X1029369D02*
D03*
X1009369D02*
D03*
X1109369Y314960D02*
D03*
X1089369D02*
D03*
X1069369D02*
D03*
X1049369D02*
D03*
X1029369D02*
D03*
X1009369D02*
D03*
X1109369Y330960D02*
D03*
X1089369D02*
D03*
X1069369D02*
D03*
X1049369D02*
D03*
X1029369D02*
D03*
X1009369D02*
D03*
X1109369Y346960D02*
D03*
X1089369D02*
D03*
X1069369D02*
D03*
X1049369D02*
D03*
X1029369D02*
D03*
X1009369D02*
D03*
X1109369Y362960D02*
D03*
X1089369D02*
D03*
X1069369D02*
D03*
X989369Y298960D02*
D03*
Y362960D02*
D03*
Y346960D02*
D03*
Y330960D02*
D03*
X1009369Y362960D02*
D03*
X1029369D02*
D03*
X1049369D02*
D03*
X989369Y314960D02*
D03*
D34*
X1096869Y287460D02*
D03*
X1091869D02*
D03*
X1086869D02*
D03*
X1081869D02*
D03*
X1046869D02*
D03*
X1041869D02*
D03*
X1036869D02*
D03*
X1031869D02*
D03*
X991869D02*
D03*
X996869D02*
D03*
X1001869D02*
D03*
X1006869D02*
D03*
X1096869Y374460D02*
D03*
X1091869D02*
D03*
X1086869D02*
D03*
X1081869D02*
D03*
X1046869D02*
D03*
X1041869D02*
D03*
X1036869D02*
D03*
X1031869D02*
D03*
X991869D02*
D03*
X996869D02*
D03*
X1001869D02*
D03*
X1006869D02*
D03*
D35*
X976869Y382160D02*
D03*
X981869D02*
D03*
X986869D02*
D03*
X991869D02*
D03*
X996869D02*
D03*
X1001869D02*
D03*
X1006869D02*
D03*
X1011869D02*
D03*
X1016869D02*
D03*
X1021869D02*
D03*
X1026869D02*
D03*
X1031869D02*
D03*
X1036869D02*
D03*
X1041869D02*
D03*
X1046869D02*
D03*
X1051869D02*
D03*
X1056869D02*
D03*
X1061869D02*
D03*
X1066869D02*
D03*
X1071869D02*
D03*
X1076869D02*
D03*
X1081869D02*
D03*
X1086869D02*
D03*
X1091869D02*
D03*
X1096869D02*
D03*
X1101869D02*
D03*
X1106869D02*
D03*
X1111869D02*
D03*
X1116869D02*
D03*
X1121869D02*
D03*
Y279760D02*
D03*
X1116869D02*
D03*
X1111869D02*
D03*
X1106869D02*
D03*
X1101869D02*
D03*
X1096869D02*
D03*
X1091869D02*
D03*
X1086869D02*
D03*
X1081869D02*
D03*
X1076869D02*
D03*
X1071869D02*
D03*
X1066869D02*
D03*
X1061869D02*
D03*
X1056869D02*
D03*
X1051869D02*
D03*
X1046869D02*
D03*
X1041869D02*
D03*
X1036869D02*
D03*
X1031869D02*
D03*
X1026869D02*
D03*
X1021869D02*
D03*
X1016869D02*
D03*
X1011869D02*
D03*
X1006869D02*
D03*
X1001869D02*
D03*
X996869D02*
D03*
X991869D02*
D03*
X986869D02*
D03*
X981869D02*
D03*
X976869D02*
D03*
D36*
X1128068Y382160D02*
D03*
Y279760D02*
D03*
X970668D02*
D03*
Y382160D02*
D03*
D37*
X1128068Y375960D02*
D03*
Y370960D02*
D03*
Y365960D02*
D03*
Y360960D02*
D03*
Y355960D02*
D03*
Y350960D02*
D03*
Y345960D02*
D03*
Y340960D02*
D03*
Y335960D02*
D03*
Y330960D02*
D03*
Y325960D02*
D03*
Y320960D02*
D03*
Y315960D02*
D03*
Y310960D02*
D03*
Y305960D02*
D03*
Y300960D02*
D03*
Y295960D02*
D03*
Y290960D02*
D03*
Y285960D02*
D03*
X970668D02*
D03*
Y290960D02*
D03*
Y295960D02*
D03*
Y300960D02*
D03*
Y305960D02*
D03*
Y310960D02*
D03*
Y315960D02*
D03*
Y320960D02*
D03*
Y325960D02*
D03*
Y330960D02*
D03*
Y335960D02*
D03*
Y340960D02*
D03*
Y345960D02*
D03*
Y350960D02*
D03*
Y355960D02*
D03*
Y360960D02*
D03*
Y365960D02*
D03*
Y370960D02*
D03*
Y375960D02*
D03*
D38*
X598780Y411133D02*
D03*
X579780D02*
D03*
X589280Y389133D02*
D03*
X518770Y216740D02*
D03*
X499770D02*
D03*
X509270Y194740D02*
D03*
D39*
X500108Y414025D02*
D03*
Y407525D02*
D03*
Y401025D02*
D03*
Y394525D02*
D03*
Y388025D02*
D03*
Y381525D02*
D03*
Y375025D02*
D03*
Y368525D02*
D03*
X558868D02*
D03*
Y375025D02*
D03*
Y381525D02*
D03*
Y388025D02*
D03*
Y394525D02*
D03*
Y401025D02*
D03*
Y407525D02*
D03*
Y414025D02*
D03*
X709760Y228710D02*
D03*
Y235210D02*
D03*
Y241710D02*
D03*
Y248210D02*
D03*
Y254710D02*
D03*
Y261210D02*
D03*
Y267710D02*
D03*
Y274210D02*
D03*
X768520D02*
D03*
Y267710D02*
D03*
Y261210D02*
D03*
Y254710D02*
D03*
Y248210D02*
D03*
Y241710D02*
D03*
Y235210D02*
D03*
Y228710D02*
D03*
X628820Y188737D02*
D03*
Y195238D02*
D03*
Y201737D02*
D03*
Y208237D02*
D03*
Y214738D02*
D03*
Y221238D02*
D03*
Y227737D02*
D03*
Y234237D02*
D03*
X570060D02*
D03*
Y227737D02*
D03*
Y221238D02*
D03*
Y214738D02*
D03*
Y208237D02*
D03*
Y201737D02*
D03*
Y195238D02*
D03*
Y188737D02*
D03*
X886630Y407780D02*
D03*
Y414280D02*
D03*
Y420780D02*
D03*
Y427280D02*
D03*
Y433780D02*
D03*
Y440280D02*
D03*
Y446780D02*
D03*
Y453280D02*
D03*
X827870D02*
D03*
Y446780D02*
D03*
Y440280D02*
D03*
Y433780D02*
D03*
Y427280D02*
D03*
Y420780D02*
D03*
Y414280D02*
D03*
Y407780D02*
D03*
X1111080Y145940D02*
D03*
Y139440D02*
D03*
Y132940D02*
D03*
Y126440D02*
D03*
Y119940D02*
D03*
Y113440D02*
D03*
Y106940D02*
D03*
Y100440D02*
D03*
X1169840D02*
D03*
Y106940D02*
D03*
Y113440D02*
D03*
Y119940D02*
D03*
Y126440D02*
D03*
Y132940D02*
D03*
Y139440D02*
D03*
Y145940D02*
D03*
X126830Y514538D02*
D03*
Y508038D02*
D03*
Y501538D02*
D03*
Y495038D02*
D03*
X185590D02*
D03*
Y501538D02*
D03*
Y508038D02*
D03*
Y514538D02*
D03*
D40*
X617677Y18945D02*
D03*
Y29945D02*
D03*
Y40945D02*
D03*
Y51945D02*
D03*
Y62945D02*
D03*
Y73945D02*
D03*
Y84945D02*
D03*
Y114945D02*
D03*
Y125945D02*
D03*
Y136945D02*
D03*
Y147945D02*
D03*
Y158945D02*
D03*
X504678D02*
D03*
Y147945D02*
D03*
Y136945D02*
D03*
Y125945D02*
D03*
Y114945D02*
D03*
Y84945D02*
D03*
Y73945D02*
D03*
Y62945D02*
D03*
Y51945D02*
D03*
Y40945D02*
D03*
Y29945D02*
D03*
Y18945D02*
D03*
D41*
X804678Y84980D02*
D03*
D42*
X842678Y21680D02*
D03*
X832678D02*
D03*
X762678D02*
D03*
X752678D02*
D03*
Y191680D02*
D03*
X832678D02*
D03*
D43*
X730177Y47480D02*
D03*
Y57480D02*
D03*
Y167480D02*
D03*
X865177Y157480D02*
D03*
Y57480D02*
D03*
Y47480D02*
D03*
D44*
X730177Y67480D02*
D03*
Y77480D02*
D03*
Y87480D02*
D03*
Y97480D02*
D03*
Y107480D02*
D03*
Y117480D02*
D03*
Y127480D02*
D03*
Y137480D02*
D03*
Y147480D02*
D03*
Y157480D02*
D03*
X865177Y167480D02*
D03*
Y147480D02*
D03*
Y137480D02*
D03*
Y127480D02*
D03*
Y117480D02*
D03*
Y107480D02*
D03*
Y97480D02*
D03*
Y87480D02*
D03*
Y77480D02*
D03*
Y67480D02*
D03*
D45*
X762678Y191680D02*
D03*
X772678D02*
D03*
X782678D02*
D03*
X792678D02*
D03*
X802678D02*
D03*
X812678D02*
D03*
X822678D02*
D03*
X842678D02*
D03*
D46*
X955040Y326390D02*
D03*
X949960D02*
D03*
X972820Y267970D02*
D03*
X977900D02*
D03*
D47*
X1179830Y520690D02*
D03*
X668020Y41920D02*
D03*
D48*
X1165080Y535940D02*
D03*
X1194580D02*
D03*
X653270Y26670D02*
D03*
X682770D02*
D03*
D49*
X807720Y229850D02*
D03*
X820420D02*
D03*
X833120D02*
D03*
X845820D02*
D03*
X858520D02*
D03*
X871220D02*
D03*
X883920D02*
D03*
X896620D02*
D03*
Y290850D02*
D03*
X883920D02*
D03*
X871220D02*
D03*
X858520D02*
D03*
X845820D02*
D03*
X833120D02*
D03*
X820420D02*
D03*
X807720D02*
D03*
D50*
X660452Y332820D02*
D03*
Y337820D02*
D03*
Y342820D02*
D03*
Y347820D02*
D03*
X664802Y335320D02*
D03*
Y345320D02*
D03*
X669152Y332820D02*
D03*
Y337820D02*
D03*
Y342820D02*
D03*
Y347820D02*
D03*
D51*
X488720Y540070D02*
D03*
D52*
X486970Y479820D02*
D03*
Y442820D02*
D03*
D53*
X521970Y433070D02*
D03*
X581670D02*
D03*
D54*
X601920Y537820D02*
D03*
D55*
X589820Y541320D02*
D03*
D56*
X579320D02*
D03*
X568320D02*
D03*
X557320D02*
D03*
X546320D02*
D03*
X535320D02*
D03*
X524320D02*
D03*
X513320D02*
D03*
D57*
X165480Y71480D02*
D03*
X85980D02*
D03*
X165480Y116480D02*
D03*
X85980D02*
D03*
X99950Y451760D02*
D03*
X179450D02*
D03*
X99950Y406760D02*
D03*
X179450D02*
D03*
X85980Y322220D02*
D03*
X165480D02*
D03*
X85980Y277220D02*
D03*
X165480D02*
D03*
D58*
X34689Y173280D02*
D03*
Y178280D02*
D03*
Y183280D02*
D03*
Y188280D02*
D03*
Y193280D02*
D03*
Y198280D02*
D03*
Y203280D02*
D03*
Y208280D02*
D03*
Y213280D02*
D03*
Y218280D02*
D03*
D59*
X53939Y148780D02*
D03*
Y242780D02*
D03*
D60*
X927920Y140970D02*
D03*
Y128270D02*
D03*
Y115570D02*
D03*
Y102870D02*
D03*
X982160D02*
D03*
Y115570D02*
D03*
Y128270D02*
D03*
Y140970D02*
D03*
D61*
X252642Y527580D02*
D03*
X247642D02*
D03*
X252642Y498580D02*
D03*
X247642D02*
D03*
D62*
X250142Y513080D02*
D03*
D63*
X236141Y503080D02*
D03*
Y508080D02*
D03*
Y513080D02*
D03*
Y518080D02*
D03*
Y523080D02*
D03*
X264142D02*
D03*
Y518080D02*
D03*
Y513080D02*
D03*
Y508080D02*
D03*
Y503080D02*
D03*
D64*
X1237370Y390030D02*
D03*
D65*
Y351880D02*
D03*
D66*
X1259870Y75530D02*
D03*
D67*
X1227470Y146030D02*
D03*
D68*
X1283970Y525780D02*
D03*
D69*
X1258970Y536030D02*
D03*
D70*
X1233970Y532030D02*
D03*
D71*
X1278470Y540280D02*
D03*
D72*
X1243120Y61030D02*
D03*
D73*
X1274370D02*
D03*
D74*
X659560Y198833D02*
D03*
Y179832D02*
D03*
X681560Y189333D02*
D03*
D75*
X443440Y520810D02*
D03*
X342440D02*
D03*
D76*
X414490Y443165D02*
D03*
X423490D02*
D03*
X432490D02*
D03*
X441490D02*
D03*
Y431165D02*
D03*
X432490D02*
D03*
X423490D02*
D03*
X414490D02*
D03*
D77*
X1104488Y463550D02*
D03*
Y476790D02*
D03*
D78*
X247650Y437210D02*
D03*
Y383210D02*
D03*
D79*
X461010Y399588D02*
D03*
Y380588D02*
D03*
X425450Y399873D02*
D03*
Y380873D02*
D03*
X354330Y399390D02*
D03*
Y380390D02*
D03*
X389890Y399873D02*
D03*
Y380873D02*
D03*
D80*
X1040540Y150390D02*
D03*
X1047040D02*
D03*
X1053540D02*
D03*
X1060040D02*
D03*
Y106150D02*
D03*
X1053540D02*
D03*
X1047040D02*
D03*
X1040540D02*
D03*
D81*
X93980Y488570D02*
D03*
Y504570D02*
D03*
D82*
X299720Y511308D02*
D03*
Y532909D02*
D03*
D83*
X587280Y255350D02*
D03*
Y260350D02*
D03*
Y265350D02*
D03*
X603980D02*
D03*
Y260350D02*
D03*
Y255350D02*
D03*
D84*
X124050Y379990D02*
D03*
X117550D02*
D03*
X111050D02*
D03*
X104550D02*
D03*
Y348990D02*
D03*
X111050D02*
D03*
X117550D02*
D03*
X124050D02*
D03*
D85*
X1002820Y72640D02*
D03*
X987820D02*
D03*
X972820D02*
D03*
X957820D02*
D03*
X942820D02*
D03*
X1165428D02*
D03*
X1150428D02*
D03*
X1135428D02*
D03*
X1120427D02*
D03*
X1105428D02*
D03*
D86*
X1028820Y22140D02*
D03*
X916820D02*
D03*
X1191428D02*
D03*
X1079428D02*
D03*
D87*
X330860Y426920D02*
D03*
X340360D02*
D03*
X349860D02*
D03*
Y451920D02*
D03*
X340360D02*
D03*
X330860D02*
D03*
D88*
X317500Y380390D02*
D03*
Y399390D02*
D03*
D89*
X1007110Y527070D02*
D03*
Y486410D02*
D03*
X994410Y527070D02*
D03*
Y486410D02*
D03*
X981710Y527070D02*
D03*
Y486410D02*
D03*
X969010Y527070D02*
D03*
Y486410D02*
D03*
X956310Y527070D02*
D03*
Y486410D02*
D03*
X852170Y527060D02*
D03*
Y486400D02*
D03*
X839470Y527060D02*
D03*
Y486400D02*
D03*
X826770Y527060D02*
D03*
Y486400D02*
D03*
X814070Y527060D02*
D03*
Y486400D02*
D03*
X801370Y527060D02*
D03*
Y486400D02*
D03*
D171*
X1128069Y325969D02*
G03*
X1150620Y345434I2564J19825D01*
G01*
X1153780Y386850D02*
Y403860D01*
X1150620Y345434D02*
Y382150D01*
X1203330Y390030D02*
X1237370D01*
D172*
X1181100Y457282D02*
X1197143D01*
X956413Y428650D02*
Y450804D01*
X954513Y426750D02*
X956413Y428650D01*
X953770Y426750D02*
X954513D01*
X956310Y450908D02*
X961193Y446024D01*
X1054040Y35500D02*
X1054100Y35440D01*
X1043940Y35560D02*
X1044000Y35500D01*
X1054040D01*
X252835Y544725D02*
X256645D01*
X264142Y523080D02*
Y537229D01*
X252730Y544830D02*
X252835Y544725D01*
X256645D02*
X264142Y537229D01*
X970563Y426480D02*
X970813D01*
X956686Y414650D02*
X958982D01*
X968063Y423730D01*
Y423980D01*
X970563Y426480D01*
X987855Y412100D02*
X1020990D01*
X1041280Y426600D02*
X1041520D01*
X853729Y386080D02*
X854710D01*
X840740D02*
X853729D01*
X1039344Y151838D02*
X1040540Y152825D01*
X430793Y346545D02*
X457857D01*
X357877D02*
X412465D01*
X357555Y346222D02*
X357877Y346545D01*
X500380Y311505D02*
Y330320D01*
X853729Y386080D02*
Y443449D01*
X854710Y386080D02*
X871220D01*
X886460Y401320D01*
X831850Y394970D02*
X840740Y386080D01*
X643750Y403860D02*
X643890D01*
X684530Y180594D02*
X698500Y166624D01*
Y35052D02*
X725170Y8382D01*
X698500Y35052D02*
Y166624D01*
X684530Y180594D02*
Y188333D01*
X683530Y189333D02*
X684530Y188333D01*
X681560Y189333D02*
X683810D01*
X690880Y201930D02*
X698500D01*
X684810Y190333D02*
Y195860D01*
X690880Y201930D01*
X683810Y189333D02*
X684810Y190333D01*
X873125Y8382D02*
X878670Y13927D01*
X865177Y67480D02*
X865513Y67144D01*
X876327D01*
X878670Y64801D01*
Y13927D02*
Y64801D01*
X865177Y67480D02*
Y77480D01*
X513385Y40945D02*
X542290Y69850D01*
X504678Y40945D02*
X513385D01*
X504678Y29945D02*
Y40945D01*
X1041520Y426600D02*
X1059180D01*
X1040232Y425552D02*
X1041280Y426600D01*
X725170Y8382D02*
X873125D01*
X954786Y399034D02*
Y412750D01*
X953770D02*
X954786D01*
X937260Y342900D02*
X937451Y342709D01*
X939800Y426750D02*
X953770D01*
X1041400Y426720D02*
Y446024D01*
X923290Y343520D02*
X924560Y342250D01*
X954786Y412750D02*
X956686Y414650D01*
X1032993Y425552D02*
X1040232D01*
X1021620Y415449D02*
X1031723Y425552D01*
X949501Y342709D02*
X949960Y342250D01*
X1020990Y412100D02*
X1022890Y414000D01*
Y415449D01*
X920830Y407780D02*
X939800Y426750D01*
X954786Y399034D02*
X963930Y389890D01*
X961193Y446024D02*
X1041400D01*
X886460Y401320D02*
Y407670D01*
X587112Y307476D02*
X680347D01*
X692912Y320040D01*
X546320Y541320D02*
X548386Y539254D01*
X32900Y463550D02*
X93980D01*
X160415D01*
X644525Y358394D02*
X653034D01*
X660452Y350976D01*
X291869Y474796D02*
X292061Y474989D01*
X306690Y454660D02*
X317500D01*
X372041Y510471D02*
X375601D01*
X346710Y485140D02*
X372041Y510471D01*
X375601D02*
X376940Y511810D01*
X293641Y440690D02*
X294291Y440040D01*
X293370Y440690D02*
X293641D01*
X294291Y440040D02*
X306070D01*
X340360Y451920D02*
X341360Y452920D01*
X212090Y486873D02*
Y507193D01*
Y486873D02*
X226476D01*
X675640Y217375D02*
X678140Y219875D01*
Y221123D01*
X500380Y276740D02*
X500771Y277131D01*
Y311505D01*
X180340Y21590D02*
Y187960D01*
Y21590D02*
X189230Y12700D01*
X154940Y187960D02*
X180340D01*
X803910Y402590D02*
X809100Y407780D01*
X827870D01*
X766430Y343520D02*
X803910D01*
Y402590D01*
X189230Y12700D02*
X265430D01*
X280193Y27463D01*
Y38893D02*
X280670Y39370D01*
X280193Y27463D02*
Y38893D01*
X275633Y345483D02*
Y474745D01*
X457857Y346545D02*
X466878D01*
X457857Y319383D02*
X465546Y311694D01*
X457857Y319383D02*
Y346545D01*
X528320Y307476D02*
X587112D01*
X519430Y298586D02*
X528320Y307476D01*
Y330320D01*
X519430Y276740D02*
Y298586D01*
X500380Y276740D02*
X519430D01*
X276939Y346519D02*
X302584D01*
X275590Y345440D02*
X275633Y345483D01*
X275861Y345440D02*
X276939Y346519D01*
X275590Y345440D02*
X275861D01*
X466878Y346545D02*
X469378Y349045D01*
X275684Y474796D02*
X291869D01*
X275303Y503080D02*
X283893Y494490D01*
X290640D01*
X291450Y495300D01*
X275633Y474745D02*
X275675Y474787D01*
X640080Y362839D02*
Y372110D01*
X585710Y367778D02*
Y370840D01*
X640080Y372110D02*
Y389240D01*
X640730Y389890D01*
X669930Y522580D02*
X670930D01*
X640080Y362839D02*
X644525Y358394D01*
X185684Y514444D02*
X199296D01*
X185420Y514708D02*
X185684Y514444D01*
X199296D02*
X199390Y514350D01*
X144160Y533863D02*
X161290D01*
Y518348D02*
Y533863D01*
X547780Y203530D02*
Y207000D01*
X544830Y208900D02*
X545880D01*
X547780Y203530D02*
X556006Y195304D01*
Y195238D02*
Y195304D01*
X545880Y208900D02*
X547780Y207000D01*
X539350Y204470D02*
X543780Y208900D01*
X509270Y196990D02*
X516750Y204470D01*
X539350D01*
X543780Y208900D02*
X545880D01*
X509270Y194740D02*
Y196990D01*
X692912Y320040D02*
X742950D01*
X766430Y343520D01*
X956310Y450908D02*
Y486410D01*
X339090Y346097D02*
X339215Y346222D01*
X386080Y424300D02*
X388580Y421800D01*
X412750Y346830D02*
X412892Y346687D01*
X430650D01*
X430793Y346545D01*
X412465D02*
X412750Y346830D01*
X302584Y346519D02*
X303005Y346097D01*
X321047D01*
X321047Y346097D01*
X321048Y346097D01*
X339090D01*
X339215Y346222D02*
X357555D01*
X357877Y346347D02*
X357878Y346347D01*
X375920D02*
X375920Y346348D01*
X292070Y474980D02*
Y490537D01*
X291117Y492415D02*
X292070Y490537D01*
X498112Y274472D02*
X500380Y276740D01*
X232658Y452203D02*
X247650Y437210D01*
X227660Y457200D02*
X232658Y452203D01*
X183480Y470570D02*
X196850Y457200D01*
X227660D01*
X181580Y475443D02*
X183480Y473543D01*
Y470570D02*
Y473543D01*
X181580Y475443D02*
Y484124D01*
X161290Y518160D02*
X165100Y514350D01*
X152288Y501538D02*
X165100Y514350D01*
X834644Y462534D02*
X853729Y443449D01*
X806450Y462534D02*
X834644D01*
X801370Y467614D02*
Y486400D01*
X160415Y463550D02*
X164860Y467995D01*
Y475443D01*
X26670Y489338D02*
Y509270D01*
Y489338D02*
X32900Y483108D01*
Y463550D02*
Y483108D01*
X164860Y475443D02*
X181580D01*
X500380Y330320D02*
X501650D01*
X264142Y503080D02*
X275303D01*
X801370Y467614D02*
X806450Y462534D01*
D173*
X1124400Y466090D02*
X1127760D01*
X976869Y269001D02*
Y279760D01*
Y269001D02*
X977900Y267970D01*
X976869Y382160D02*
Y388827D01*
X1108710Y288290D02*
X1109262D01*
X22384Y227806D02*
X25400Y224790D01*
X15240Y227980D02*
X15414Y227806D01*
X22384D01*
X34989Y202980D02*
X38954D01*
X34689Y203280D02*
X34989Y202980D01*
X38954D02*
X41910Y200024D01*
X34989Y193580D02*
X38954D01*
X34689Y193280D02*
X34989Y193580D01*
X25400Y208180D02*
X30300Y203280D01*
X25400Y208180D02*
Y224790D01*
X41910Y196536D02*
Y198120D01*
X38954Y193580D02*
X41910Y196536D01*
Y198120D02*
Y200024D01*
X62230Y198120D02*
X80010Y180340D01*
X41910Y198120D02*
X62230D01*
X80010Y147604D02*
Y180340D01*
Y147604D02*
X93497Y134117D01*
X109144D02*
X109220Y134041D01*
X93497Y134117D02*
X109144D01*
D174*
X548386Y408940D02*
X549801Y407525D01*
X797700Y307340D02*
X806590Y316230D01*
X913130D01*
X927100Y255270D02*
Y302260D01*
X913130Y316230D02*
X927100Y302260D01*
X579780Y384150D02*
Y411133D01*
X589280Y389133D02*
Y420726D01*
X549801Y407525D02*
X558868D01*
Y414025D02*
X576887D01*
X579780Y411133D01*
X548386Y419006D02*
X552243Y422863D01*
X548386Y408940D02*
Y419006D01*
X586937Y423069D02*
X589280Y420726D01*
X552450Y423069D02*
X586937D01*
X579780Y384150D02*
X585597Y378333D01*
Y370952D02*
Y378333D01*
Y370952D02*
X585710Y370840D01*
X1022350Y137810D02*
X1039344Y151838D01*
X974090Y247030D02*
X1000127D01*
X998586Y137810D02*
X1022350D01*
X1011170Y72640D02*
X1016000Y77470D01*
X1002820Y72640D02*
X1011170D01*
X693701Y236684D02*
X700925Y229460D01*
X709010D01*
X709760Y228710D01*
X686950Y161290D02*
Y161540D01*
X669310Y179180D02*
X686950Y161540D01*
X660212Y179180D02*
X669310D01*
X659560Y179832D02*
X660212Y179180D01*
X972820Y247030D02*
X974090D01*
X949419Y330962D02*
X949960D01*
X936877Y342517D02*
X937260Y342900D01*
X1001397Y247030D02*
X1012190D01*
X1001397Y239678D02*
Y247030D01*
X972820Y248300D02*
Y267970D01*
X963930Y389890D02*
X976869Y388827D01*
X962660Y166370D02*
Y219710D01*
X927100Y255270D02*
X962660Y219710D01*
X977900Y166610D02*
Y180340D01*
X574040Y320548D02*
X587112Y307476D01*
X518101Y182880D02*
X523958Y188737D01*
X499770Y184887D02*
X501777Y182880D01*
X518101D01*
X548386Y426720D02*
Y539254D01*
Y426720D02*
X552243Y422863D01*
X142695Y175715D02*
X154940Y187960D01*
X142695Y148615D02*
Y175715D01*
X128050Y133970D02*
X142695Y148615D01*
X127000Y133970D02*
X128050D01*
X126964Y134006D02*
X127000Y133970D01*
X109256Y134006D02*
X126964D01*
X109220Y134041D02*
X109256Y134006D01*
X15240Y227980D02*
X18400D01*
X346710Y464820D02*
Y485140D01*
X341360Y459470D02*
X346710Y464820D01*
X341360Y452920D02*
Y459470D01*
X680347Y280909D02*
X693701Y267555D01*
Y236684D02*
Y267555D01*
X678140Y221123D02*
X693701Y236684D01*
X147320Y195580D02*
X154940Y187960D01*
X147320Y195580D02*
Y279726D01*
X404114Y355466D02*
X409500Y350080D01*
Y349830D02*
X412500Y346830D01*
X409500Y349830D02*
Y350080D01*
X404114Y355466D02*
Y376174D01*
X412500Y346830D02*
X412750D01*
X574040Y320548D02*
Y356108D01*
X80010Y347036D02*
Y364459D01*
Y347036D02*
X147320Y279726D01*
X111050Y364459D02*
X117550D01*
Y348990D02*
Y364459D01*
X111050D02*
Y379990D01*
X80010Y364459D02*
X111050D01*
X476250Y351388D02*
Y452120D01*
X473907Y349045D02*
X476250Y351388D01*
X469378Y349045D02*
X473907D01*
X468630Y459740D02*
X476250Y452120D01*
X444428Y459740D02*
X468630D01*
X432490Y447802D02*
X444428Y459740D01*
X117550Y348990D02*
X124050D01*
X552243Y422863D02*
X552450Y423069D01*
X982160Y140970D02*
X995426D01*
X998586Y137810D01*
X574040Y356108D02*
X585710Y367778D01*
X406400Y378460D02*
Y407203D01*
X388580Y421800D02*
X391804D01*
X406400Y407203D01*
X432490Y443165D02*
Y447802D01*
X404114Y376174D02*
X406400Y378460D01*
X702310Y307340D02*
X797700D01*
X490264Y239395D02*
Y271824D01*
X492912Y274472D02*
X498112D01*
X490264Y271824D02*
X492912Y274472D01*
X499770Y184887D02*
Y216740D01*
X523958Y188737D02*
X570060D01*
X680347Y280909D02*
Y307476D01*
X499770Y216740D02*
Y224790D01*
X501770Y226790D01*
Y235033D01*
X659560Y179832D02*
Y185928D01*
X675640Y202008D01*
Y217375D01*
X494626Y235033D02*
X501770D01*
X490264Y239395D02*
X494626Y235033D01*
D175*
X1169670Y139700D02*
X1184910D01*
X1192750Y122570D02*
X1200150D01*
X1040540Y152825D02*
Y177390D01*
Y150390D02*
Y152825D01*
X803910Y343520D02*
X923290D01*
X946531Y333850D02*
X949419Y330962D01*
X936877Y336933D02*
Y342517D01*
Y336933D02*
X939960Y333850D01*
X924827Y342517D02*
X936877D01*
X939960Y333850D02*
X946531D01*
X1032510Y185420D02*
X1040540Y177390D01*
X1184910Y139700D02*
X1190600Y134010D01*
Y124720D02*
Y134010D01*
Y124720D02*
X1192750Y122570D01*
X1200150D02*
X1203452Y119268D01*
Y64262D02*
Y119268D01*
X1183132Y43942D02*
X1203452Y64262D01*
X1105656Y43942D02*
X1183132D01*
X1076178Y73420D02*
X1105656Y43942D01*
X1054100Y73420D02*
X1076178D01*
X1154938Y143377D02*
Y197612D01*
X1141730Y210820D02*
X1154938Y197612D01*
Y143377D02*
X1158875Y139440D01*
X1169840D01*
D176*
X698500Y201930D02*
X720362Y223792D01*
Y232398D01*
X709760Y235210D02*
X717550D01*
X720362Y232398D01*
X831850Y394970D02*
Y407330D01*
X886630Y407780D02*
X920830D01*
X831400D02*
X831850Y407330D01*
X827870Y407780D02*
X831400D01*
X174465Y491239D02*
X181580Y484124D01*
X174465Y491239D02*
Y498203D01*
X126830Y501538D02*
X152288D01*
X163538Y495554D02*
X176022Y508038D01*
X185590D01*
X174465Y498203D02*
X177799Y501538D01*
X185590D01*
X556006Y195238D02*
X570060D01*
X165100Y514538D02*
X185590D01*
D177*
X770003Y194355D02*
X772678Y191680D01*
X770003Y194355D02*
Y201834D01*
X762678Y191680D02*
X763715Y192717D01*
Y203058D01*
X762748Y204025D02*
X763715Y203058D01*
X741218Y204025D02*
X762748D01*
X731733Y194540D02*
X741218Y204025D01*
X723223Y194540D02*
X731733D01*
X716280Y187596D02*
X723223Y194540D01*
X716280Y186690D02*
Y187596D01*
X764231Y207605D02*
X770003Y201834D01*
X739735Y207605D02*
X764231D01*
X730250Y198120D02*
X739735Y207605D01*
X722257Y198120D02*
X730250D01*
X722257Y198120D02*
X722257Y198120D01*
X715010Y198120D02*
X722257D01*
X356990Y485260D02*
X369570Y497840D01*
X356990Y468648D02*
Y485260D01*
X349860Y461518D02*
X356990Y468648D01*
X378970Y497840D02*
X392940Y511810D01*
X369570Y497840D02*
X378970D01*
X349860Y451920D02*
Y461518D01*
X321512Y486612D02*
X330200Y495300D01*
X321512Y474980D02*
Y486612D01*
X330200Y495300D02*
X346710D01*
X383151Y528021D02*
X384940Y529810D01*
X379431Y528021D02*
X383151D01*
X346710Y495300D02*
X379431Y528021D01*
X321512Y467818D02*
Y474980D01*
X371735Y464820D02*
Y474725D01*
X371990Y474980D01*
X336512D02*
X336550Y474942D01*
Y464820D02*
Y474942D01*
X321512Y467818D02*
X330860Y458470D01*
Y451920D02*
Y458470D01*
D178*
X1109368Y346960D02*
Y362960D01*
X1099368Y346960D02*
X1109368D01*
Y330960D02*
Y338960D01*
Y346960D01*
X1069368Y330960D02*
X1079368D01*
X1089368D01*
X1039575Y346934D02*
X1049343D01*
X1049369Y298960D02*
X1069368D01*
X1029369Y314960D02*
X1049369D01*
X1009369Y298960D02*
Y314960D01*
X999204Y346931D02*
X1009340D01*
X1009369Y346960D02*
Y353837D01*
X999097Y362960D02*
X1009369D01*
X989369D02*
X999097D01*
X989369Y353837D02*
Y362960D01*
Y346960D02*
Y353837D01*
X1009369D02*
Y362960D01*
X989369Y298960D02*
Y314960D01*
Y298960D02*
X1009369D01*
X989369Y330960D02*
Y346960D01*
Y330960D02*
X1009369D01*
Y298960D02*
X1029369D01*
X1109368Y300960D02*
Y314960D01*
X1069368Y298960D02*
Y306960D01*
X1029369Y298960D02*
X1039369D01*
X1099368Y314960D02*
X1109368D01*
Y322960D01*
X1039369Y298960D02*
X1049369D01*
Y306960D01*
X1009369Y340196D02*
Y346960D01*
X1089368Y314960D02*
X1099368D01*
X1029369Y362960D02*
X1039092D01*
X999490Y314960D02*
X1009369D01*
X1069368Y298960D02*
X1079368D01*
X1089368Y346960D02*
Y354960D01*
X1078879Y346960D02*
X1089368D01*
X1099147Y362960D02*
X1109368D01*
X1069368Y306960D02*
Y314960D01*
X1109368Y322960D02*
Y330960D01*
X1059369Y314960D02*
X1069368D01*
X1089368Y346960D02*
X1099191D01*
X1039092Y362960D02*
X1049369D01*
X1059055D01*
X1049369Y306960D02*
Y314960D01*
X1059369D01*
X1039575Y330960D02*
X1049369D01*
X1059369D01*
X1059055Y362960D02*
X1069368D01*
X1099368Y298960D02*
X1109368D01*
X1089368Y354960D02*
Y362960D01*
X1029369Y330960D02*
X1039575D01*
X1089368Y362960D02*
X1099147D01*
X1069368Y346960D02*
X1078879D01*
X1079368Y298960D02*
X1089368D01*
X1099368D01*
X989369Y346960D02*
X999097D01*
X1009369Y330960D02*
Y340196D01*
X989369Y314960D02*
X999490D01*
X1059369Y330960D02*
X1069368D01*
X1029369Y322960D02*
Y330960D01*
Y314960D02*
Y322960D01*
Y346960D02*
Y362960D01*
X1099368Y330960D02*
X1109368D01*
X1089368D02*
X1099368D01*
X1029369Y298960D02*
Y306960D01*
Y314960D01*
X1089368Y338960D02*
Y346960D01*
Y330960D02*
Y338960D01*
X1078952Y314960D02*
X1089368D01*
X1069368D02*
X1078952D01*
X1029369Y330960D02*
Y346934D01*
Y346960D01*
Y346934D02*
X1039334D01*
X1039575D01*
X1059369Y346960D02*
X1069368D01*
X1049369D02*
X1059369D01*
X1009369Y314960D02*
Y330960D01*
D179*
X1049369Y314960D02*
Y322960D01*
Y346960D02*
Y355005D01*
Y338960D02*
Y346960D01*
Y355005D02*
Y362960D01*
X1069368Y355097D02*
Y362960D01*
X1109368Y298960D02*
Y300960D01*
X1089368Y306960D02*
Y314960D01*
X1069368Y338960D02*
Y346960D01*
Y355097D01*
X1089368Y298960D02*
Y306960D01*
X1069368Y330960D02*
Y338960D01*
Y314960D02*
Y322960D01*
Y330960D01*
X1089368Y322960D02*
Y330960D01*
Y314960D02*
Y322960D01*
X1049369D02*
Y330960D01*
Y338960D01*
X1099191Y346960D02*
X1099368D01*
D180*
X949960Y326390D02*
Y330962D01*
Y326390D02*
X951230D01*
X976630Y267970D02*
X977900D01*
D181*
X969010Y473710D02*
Y483870D01*
X981710Y473710D02*
Y481330D01*
X814070Y492760D02*
Y499110D01*
X826770Y491490D02*
Y499110D01*
X1007110Y495300D02*
X1014730Y502920D01*
X976283Y468283D02*
X981710Y473710D01*
X969010D02*
X974437Y468283D01*
X851985Y496754D02*
Y504837D01*
X821259Y504621D02*
X826770Y499110D01*
X814070D02*
X819581Y504621D01*
D182*
X93980Y463550D02*
Y488570D01*
D183*
X26577Y398780D02*
D03*
Y373380D02*
D03*
X1126902Y510540D02*
D03*
X1101503Y535940D02*
D03*
Y510540D02*
D03*
X1076103Y535940D02*
D03*
Y510540D02*
D03*
X52070Y509270D02*
D03*
X702310Y332740D02*
D03*
Y307340D02*
D03*
X434340Y40640D02*
D03*
X408940D02*
D03*
X383540D02*
D03*
X358140D02*
D03*
X332740D02*
D03*
X255270Y39370D02*
D03*
X229870D02*
D03*
X204470D02*
D03*
D184*
X26577Y347980D02*
D03*
X702310Y358140D02*
D03*
D185*
X1126902Y535940D02*
D03*
X26670Y509270D02*
D03*
X459740Y40640D02*
D03*
X280670Y39370D02*
D03*
D186*
X408940Y511810D02*
D03*
X400940Y529810D02*
D03*
X392940Y511810D02*
D03*
X384940Y529810D02*
D03*
X376940Y511810D02*
D03*
D187*
X1141730Y185420D02*
D03*
X1177290Y210820D02*
D03*
D188*
X1141730D02*
D03*
X1177290Y185420D02*
D03*
D189*
X1151675Y413949D02*
D03*
X1159647Y413558D02*
D03*
X1144741Y402818D02*
D03*
X1146156Y395412D02*
D03*
X1152720Y489530D02*
D03*
X1145199Y490068D02*
D03*
X1130377Y405183D02*
D03*
Y397643D02*
D03*
X1043940Y35560D02*
D03*
X534670Y403860D02*
D03*
X961291Y310854D02*
D03*
X755650Y241300D02*
D03*
X947795Y138822D02*
D03*
X904240Y306070D02*
D03*
X913130D02*
D03*
X359410Y196850D02*
D03*
X375951Y188361D02*
D03*
X384634Y203635D02*
D03*
X1080837Y261687D02*
D03*
X1075642Y269046D02*
D03*
X1086372Y269325D02*
D03*
X1115054Y269288D02*
D03*
X1106945Y269385D02*
D03*
X1098550Y269240D02*
D03*
X949960Y271780D02*
D03*
X537254Y374734D02*
D03*
X514604Y376597D02*
D03*
X522628Y386099D02*
D03*
X585470Y233680D02*
D03*
X638461Y246733D02*
D03*
X1159510Y454660D02*
D03*
X824709Y392799D02*
D03*
X826143Y381381D02*
D03*
X610535Y373543D02*
D03*
X576120Y374157D02*
D03*
X600292Y392901D02*
D03*
X445770Y410210D02*
D03*
X338927Y373188D02*
D03*
X375273Y372931D02*
D03*
X811530Y426720D02*
D03*
X767113Y415965D02*
D03*
X860339Y398090D02*
D03*
X845323Y392356D02*
D03*
X637540Y436190D02*
D03*
X624426Y404691D02*
D03*
X797310Y410772D02*
D03*
X557767Y531007D02*
D03*
X734527Y448540D02*
D03*
X439936Y354007D02*
D03*
X678180Y342900D02*
D03*
X1051298Y392190D02*
D03*
X1065530Y55880D02*
D03*
X1165860D02*
D03*
X1079928Y11895D02*
D03*
X1191260Y11430D02*
D03*
X1016000Y77470D02*
D03*
X127000Y367030D02*
D03*
X740410Y237490D02*
D03*
X746760Y254436D02*
D03*
X717543Y143517D02*
D03*
X713160Y132080D02*
D03*
X717550Y157480D02*
D03*
X727710Y332740D02*
D03*
X734060Y327660D02*
D03*
X740410Y332740D02*
D03*
X725170Y267970D02*
D03*
X742950Y68580D02*
D03*
X913130Y158750D02*
D03*
X906780Y185420D02*
D03*
X1036320Y237490D02*
D03*
X989330Y222250D02*
D03*
X262890Y101600D02*
D03*
X985520Y396240D02*
D03*
X949960Y388620D02*
D03*
X293370Y406400D02*
D03*
X661670Y116840D02*
D03*
X661799Y68471D02*
D03*
X657881Y46949D02*
D03*
X667954Y31531D02*
D03*
X678159Y46820D02*
D03*
X674241Y68342D02*
D03*
X629325Y133958D02*
D03*
X630476Y126506D02*
D03*
Y118966D02*
D03*
X630775Y111432D02*
D03*
X632823Y104176D02*
D03*
X636938Y97858D02*
D03*
X642634Y92917D02*
D03*
X649554Y89923D02*
D03*
X657026Y88909D02*
D03*
X677478Y81188D02*
D03*
X684798Y79381D02*
D03*
X692332Y79684D02*
D03*
X669019Y104769D02*
D03*
X661487Y104414D02*
D03*
X654524Y101522D02*
D03*
X647666Y104655D02*
D03*
X643548Y110971D02*
D03*
X642918Y118485D02*
D03*
Y126025D02*
D03*
X642384Y133546D02*
D03*
X639820Y140637D02*
D03*
X635342Y146703D02*
D03*
X629248Y151143D02*
D03*
X637540Y74930D02*
D03*
X680720Y143510D02*
D03*
X598170Y62230D02*
D03*
X542290Y69850D02*
D03*
X651510Y22860D02*
D03*
X681990D02*
D03*
X600710Y115570D02*
D03*
X775970Y118110D02*
D03*
X689610Y149860D02*
D03*
X1009187Y306960D02*
D03*
X1118179Y451663D02*
D03*
X1118599Y444135D02*
D03*
X1122884Y437931D02*
D03*
X1129962Y435332D02*
D03*
X1130377Y427803D02*
D03*
Y420263D02*
D03*
Y412723D02*
D03*
X1137838Y352798D02*
D03*
X1142819Y419268D02*
D03*
X1142870Y434347D02*
D03*
X1140751Y441584D02*
D03*
X1135193Y446679D02*
D03*
X1130621Y452675D02*
D03*
X1020778Y309646D02*
D03*
X1063182Y288180D02*
D03*
X1042670Y264160D02*
D03*
X1037590Y270510D02*
D03*
X1117141Y391206D02*
D03*
X1098601Y391618D02*
D03*
X1088485Y391536D02*
D03*
X1061790Y391881D02*
D03*
X1036881Y393503D02*
D03*
X1016585Y391473D02*
D03*
X1006505Y391812D02*
D03*
X997033Y391947D02*
D03*
X957580Y383540D02*
D03*
X961763Y355935D02*
D03*
X961390Y340360D02*
D03*
X937260Y356870D02*
D03*
Y342900D02*
D03*
X949960Y330962D02*
D03*
X960901Y318246D02*
D03*
X961390Y303530D02*
D03*
X965287Y272632D02*
D03*
X979170Y260350D02*
D03*
X1001397Y239678D02*
D03*
X991870Y267970D02*
D03*
X999490D02*
D03*
X1007690D02*
D03*
X999490Y260405D02*
D03*
X1017270Y265430D02*
D03*
X1026160Y270510D02*
D03*
X1033780Y264160D02*
D03*
X1127956Y270428D02*
D03*
X1050290Y255270D02*
D03*
X1029970Y250190D02*
D03*
X959286Y239118D02*
D03*
X1047750Y401320D02*
D03*
X1051015Y412682D02*
D03*
X1003234Y438626D02*
D03*
X1030028Y434790D02*
D03*
X1013714Y287782D02*
D03*
X1021179Y287138D02*
D03*
X1017986Y298951D02*
D03*
X999097Y353837D02*
D03*
X989452Y354901D02*
D03*
X999204Y346931D02*
D03*
X999316Y340360D02*
D03*
X1009323Y339487D02*
D03*
X999490Y322580D02*
D03*
X979170Y316230D02*
D03*
Y298450D02*
D03*
Y291084D02*
D03*
X1108710Y288290D02*
D03*
X1117570Y300960D02*
D03*
X1099820Y298450D02*
D03*
X1099404Y306924D02*
D03*
X1109281Y307162D02*
D03*
X1078952Y306939D02*
D03*
X1039277Y306822D02*
D03*
X1059180Y322580D02*
D03*
Y339090D02*
D03*
X1039575Y339450D02*
D03*
X1039334Y346934D02*
D03*
X1039092Y355005D02*
D03*
Y362683D02*
D03*
X1023620Y372110D02*
D03*
X1055116Y370894D02*
D03*
X1059160Y362458D02*
D03*
X1059055Y355097D02*
D03*
X1078810Y346735D02*
D03*
X1076960Y338960D02*
D03*
X1078810Y355252D02*
D03*
X1078476Y363059D02*
D03*
X1099130Y362960D02*
D03*
Y355518D02*
D03*
Y339193D02*
D03*
X1099368Y323032D02*
D03*
X1109346Y323057D02*
D03*
X1119409Y330876D02*
D03*
X1119409Y345654D02*
D03*
X1119551Y360942D02*
D03*
X1099368Y314960D02*
D03*
X991870Y402590D02*
D03*
X999490D02*
D03*
X999385Y298794D02*
D03*
X999490Y307340D02*
D03*
X1180691Y531079D02*
D03*
X1169691Y516511D02*
D03*
X1173609Y510069D02*
D03*
Y502529D02*
D03*
X1172931Y495019D02*
D03*
X1167712Y489578D02*
D03*
X1160219Y488741D02*
D03*
X1157043Y476299D02*
D03*
X1164583Y476357D02*
D03*
X1171964Y477897D02*
D03*
X1178384Y481852D02*
D03*
X1183135Y487707D02*
D03*
X1185711Y494793D02*
D03*
X1186051Y502325D02*
D03*
Y509865D02*
D03*
X1189969Y516307D02*
D03*
X1195681Y426532D02*
D03*
X1109980Y486410D02*
D03*
X1070610Y445770D02*
D03*
X1189376Y478420D02*
D03*
X1136031Y487954D02*
D03*
X1093470Y448310D02*
D03*
X1083310Y492760D02*
D03*
X1198880Y447040D02*
D03*
X1164590Y532130D02*
D03*
X1145048Y410352D02*
D03*
X1144911Y387975D02*
D03*
X1144453Y380449D02*
D03*
Y372909D02*
D03*
Y365369D02*
D03*
Y357829D02*
D03*
Y350289D02*
D03*
X1144106Y342757D02*
D03*
X1140518Y336126D02*
D03*
X1136751Y320397D02*
D03*
X1143739Y323229D02*
D03*
X1149671Y327883D02*
D03*
X1153949Y334092D02*
D03*
X1156388Y341227D02*
D03*
X1156787Y348756D02*
D03*
Y356296D02*
D03*
Y363836D02*
D03*
Y371376D02*
D03*
X937260Y256540D02*
D03*
X977900Y180340D02*
D03*
X1010920Y194310D02*
D03*
X1032510Y185420D02*
D03*
X1194580Y532130D02*
D03*
X889698Y241300D02*
D03*
X106680Y538480D02*
D03*
X302260Y398780D02*
D03*
X188580Y538017D02*
D03*
X246957Y361317D02*
D03*
X1060450Y138430D02*
D03*
X1022508Y125809D02*
D03*
X994338Y102870D02*
D03*
X942703Y90776D02*
D03*
X916903Y12035D02*
D03*
X1029141Y11614D02*
D03*
X1105111Y89593D02*
D03*
X1071643Y179946D02*
D03*
X1098564Y146904D02*
D03*
X1196340Y100330D02*
D03*
X1157613Y132439D02*
D03*
X1167754Y347416D02*
D03*
X1176183Y404427D02*
D03*
X1014730Y502920D02*
D03*
X975501Y468283D02*
D03*
X869846Y424177D02*
D03*
X874530Y452754D02*
D03*
X851985Y504837D02*
D03*
X820317Y504621D02*
D03*
X635706Y528213D02*
D03*
X664670Y366711D02*
D03*
X858955Y305022D02*
D03*
X748030Y167640D02*
D03*
X752777Y176922D02*
D03*
X832636Y177304D02*
D03*
X852170Y151130D02*
D03*
X804375Y83674D02*
D03*
X850782Y52766D02*
D03*
X837616Y36490D02*
D03*
X745044Y52523D02*
D03*
X757275Y36490D02*
D03*
X513598Y18903D02*
D03*
X608439Y29925D02*
D03*
X608612Y84886D02*
D03*
X608608Y136289D02*
D03*
X608700Y159238D02*
D03*
X513820Y159294D02*
D03*
X597042Y255093D02*
D03*
X560070Y241682D02*
D03*
X557158Y221929D02*
D03*
X570958Y368670D02*
D03*
X733532Y483000D02*
D03*
X734060Y530860D02*
D03*
X694690Y542290D02*
D03*
X669011Y482834D02*
D03*
X635145Y483787D02*
D03*
X568516Y531990D02*
D03*
X457015Y454062D02*
D03*
X458008Y485891D02*
D03*
X415260Y484421D02*
D03*
X391249Y483905D02*
D03*
X340431Y437435D02*
D03*
X314019Y495428D02*
D03*
X244891Y513375D02*
D03*
X255258Y513040D02*
D03*
X250190Y505460D02*
D03*
Y521970D02*
D03*
X231824Y465182D02*
D03*
X201123Y485715D02*
D03*
X149793Y484846D02*
D03*
X125635Y484556D02*
D03*
X114691Y507395D02*
D03*
X129841Y543625D02*
D03*
X136584Y257229D02*
D03*
X83613Y266217D02*
D03*
X118145Y141036D02*
D03*
X99932Y71796D02*
D03*
X38842Y113858D02*
D03*
X14992Y175714D02*
D03*
X45720Y213360D02*
D03*
X15097Y264368D02*
D03*
X69956Y266757D02*
D03*
X102870Y392430D02*
D03*
X80010Y387350D02*
D03*
X72390Y403860D02*
D03*
X16510Y421640D02*
D03*
X46990Y408940D02*
D03*
X966470Y546100D02*
D03*
X317500Y454660D02*
D03*
X346710Y485140D02*
D03*
X293370Y440690D02*
D03*
X405130Y464820D02*
D03*
X403860Y490220D02*
D03*
X252730Y544830D02*
D03*
X180340Y187960D02*
D03*
X500771Y311505D02*
D03*
X465938Y312049D02*
D03*
X191770Y224790D02*
D03*
X138430Y242570D02*
D03*
X165100Y260350D02*
D03*
X275590Y345440D02*
D03*
X237743Y321852D02*
D03*
X469900Y466090D02*
D03*
X1153160Y119380D02*
D03*
X1167130Y154940D02*
D03*
X547370Y402082D02*
D03*
X694690Y511810D02*
D03*
X199390Y514350D02*
D03*
X783590Y269240D02*
D03*
X781630Y254436D02*
D03*
X786130Y261620D02*
D03*
X998220Y121920D02*
D03*
X473710Y274320D02*
D03*
X312420Y187960D02*
D03*
X232410Y276860D02*
D03*
X674370Y245110D02*
D03*
X668020Y259080D02*
D03*
X53340Y175260D02*
D03*
X48260Y167640D02*
D03*
X509270Y290830D02*
D03*
X533400Y196850D02*
D03*
X643890Y201930D02*
D03*
X448310Y115570D02*
D03*
X648970Y274320D02*
D03*
X516890Y392430D02*
D03*
X745490Y365760D02*
D03*
X619760Y341630D02*
D03*
Y325120D02*
D03*
X694690Y532964D02*
D03*
X615950Y454660D02*
D03*
X680720Y472440D02*
D03*
X643890Y403860D02*
D03*
X1047750Y91440D02*
D03*
X919480Y424180D02*
D03*
X840304D02*
D03*
X957580Y90170D02*
D03*
X642620Y326390D02*
D03*
X528320Y251460D02*
D03*
X577850D02*
D03*
X1064260Y20320D02*
D03*
X1031240Y172720D02*
D03*
X260350Y487680D02*
D03*
X306070Y485140D02*
D03*
X751840Y222068D02*
D03*
X556006Y195238D02*
D03*
X516890Y251460D02*
D03*
X62230Y91440D02*
D03*
X571491Y241588D02*
D03*
X496697Y168910D02*
D03*
X371735Y464820D02*
D03*
X336550D02*
D03*
X716280Y186690D02*
D03*
X715010Y198120D02*
D03*
X452120Y435610D02*
D03*
X163538Y495554D02*
D03*
X432490Y420806D02*
D03*
X803656Y157480D02*
D03*
X226476Y486873D02*
D03*
X865730Y434086D02*
D03*
X1022858Y478282D02*
D03*
X408940Y420116D02*
D03*
X877189Y350520D02*
D03*
X908050Y381381D02*
D03*
X1005078Y145431D02*
D03*
X500380Y245443D02*
D03*
X423490Y459668D02*
D03*
X1034542Y537464D02*
D03*
X908812Y486664D02*
D03*
X897636Y484632D02*
D03*
X1150428Y49846D02*
D03*
X47752Y184404D02*
D03*
X100330Y274574D02*
D03*
X662891Y287577D02*
D03*
X639826Y214738D02*
D03*
X147574Y446278D02*
D03*
M02*
