G04*
G04 #@! TF.GenerationSoftware,Altium Limited,Altium Designer,21.6.4 (81)*
G04*
G04 Layer_Physical_Order=4*
G04 Layer_Color=16711680*
%FSLAX44Y44*%
%MOMM*%
G71*
G04*
G04 #@! TF.SameCoordinates,35F2EB46-45B6-4E83-8094-EA5E86E84025*
G04*
G04*
G04 #@! TF.FilePolarity,Positive*
G04*
G01*
G75*
%ADD10C,0.2000*%
%ADD12C,0.2540*%
%ADD14C,0.1500*%
%ADD172C,0.4000*%
%ADD174C,0.3000*%
%ADD175C,0.3500*%
%ADD177C,0.1650*%
%ADD183C,1.6500*%
%ADD184R,1.6500X1.6500*%
%ADD185R,1.6500X1.6500*%
%ADD186C,1.1000*%
%ADD187R,1.9500X1.9500*%
%ADD188C,1.9500*%
%ADD189C,0.5000*%
D10*
X1085850Y295910D02*
X1104900Y276860D01*
X1083616Y295910D02*
X1085850D01*
X1104900Y276860D02*
X1107483D01*
X1115054Y269288D01*
X1073150Y300990D02*
X1098550Y275590D01*
Y269240D02*
Y275590D01*
X1042717Y321263D02*
X1052877D01*
X1056640Y317500D02*
X1062026D01*
X1052877Y321263D02*
X1056640Y317500D01*
X1062026D02*
X1083616Y295910D01*
X1066438Y300990D02*
X1073150D01*
X895676Y394026D02*
X969954D01*
X1042717Y321263D01*
X627290Y317590D02*
X835750D01*
X619760Y325120D02*
X627290Y317590D01*
X835750D02*
X853622Y335462D01*
X1019837D01*
X678180Y342900D02*
X700955D01*
X701044Y342990D02*
X703575D01*
X703665Y342900D02*
X738052D01*
X748212Y332740D01*
X834390D01*
X895676Y394026D01*
X1019837Y335462D02*
X1037036Y318263D01*
X1049165D01*
X1066438Y300990D01*
X1010920Y194310D02*
X1075948D01*
X1096588Y173670D01*
X1165540D01*
X1177290Y185420D01*
D12*
X1070610Y464820D02*
X1092200Y486410D01*
X1109980D01*
X1070610Y445770D02*
Y464820D01*
X516321Y371039D02*
X532307Y387024D01*
X445964Y410016D02*
X795607D01*
X445770Y410210D02*
X445964Y410016D01*
X338927Y385917D02*
X346710Y393700D01*
X338927Y373188D02*
Y385917D01*
X346710Y393700D02*
X463550D01*
X486211Y371039D01*
X548627Y396240D02*
X550477Y398090D01*
X451094Y398622D02*
X538638D01*
X541020Y396240D01*
X548627D01*
X450936Y398780D02*
X451094Y398622D01*
X550477Y398090D02*
X860339D01*
X532307Y387024D02*
X839990D01*
X845323Y392356D01*
X560188Y354869D02*
X678911D01*
X559325Y354007D02*
X560188Y354869D01*
X439936Y354007D02*
X559325D01*
X662305Y117475D02*
X775335D01*
X960232Y410098D02*
X1038860Y331470D01*
X1065530D01*
X1090930Y306070D01*
Y298450D02*
Y306070D01*
Y298450D02*
X1101090Y288290D01*
X643890Y403860D02*
X831850D01*
X838088Y410098D01*
X960232D01*
X1101090Y288290D02*
X1108710D01*
X302260Y398780D02*
X450936D01*
X346710Y483870D02*
Y485140D01*
X736510Y347890D02*
X745490Y356870D01*
X693232Y347890D02*
X736510D01*
X685800Y347980D02*
X693142D01*
X745490Y356870D02*
Y365760D01*
X678911Y354869D02*
X685800Y347980D01*
X486211Y371039D02*
X516321D01*
D14*
X1077458Y546100D02*
G03*
X1074747Y546100I-1355J-10160D01*
G01*
X1102858D02*
G03*
X1100147Y546100I-1355J-10160D01*
G01*
X1136787Y545645D02*
G03*
X1136632Y545798I-1129J-987D01*
G01*
X26035Y328295D02*
X55245D01*
X87630Y295910D02*
X684527D01*
X55245Y328295D02*
X87630Y295910D01*
X15240Y339090D02*
X26035Y328295D01*
X15240Y339090D02*
Y378079D01*
X24511Y387350D01*
X32258D02*
X46990Y402082D01*
X24511Y387350D02*
X32258D01*
X684527Y295910D02*
X689607Y290830D01*
X1116653Y525690D02*
X1126902Y535940D01*
X1116653Y463872D02*
Y525690D01*
X1069086Y546100D02*
X1074747D01*
X1009650Y486664D02*
X1069086Y546100D01*
X908812Y486664D02*
X1009650D01*
X1077458Y546100D02*
X1100147D01*
X1102858D02*
X1117734D01*
X1117824Y546190D01*
X1135981D01*
X1136071Y546100D01*
X1136279D01*
X1136632Y545798D01*
X1136787Y545645D02*
X1137158Y545221D01*
Y520796D02*
Y545221D01*
X1126902Y510540D02*
X1137158Y520796D01*
X1088802Y523240D02*
X1101503Y535940D01*
X1055624Y523240D02*
X1088802D01*
X1013968Y481584D02*
X1055624Y523240D01*
X900684Y481584D02*
X1013968D01*
X897636Y484632D02*
X900684Y481584D01*
X1090922Y499959D02*
X1101503Y510540D01*
X1071460Y499959D02*
X1090922D01*
X1005586Y434086D02*
X1071460Y499959D01*
X865730Y434086D02*
X1005586D01*
X1056640Y403860D02*
X1116653Y463872D01*
X1056640Y373365D02*
Y403860D01*
X1055116Y371841D02*
X1056640Y373365D01*
X1055116Y370894D02*
Y371841D01*
X539796Y403860D02*
X541574Y402082D01*
X534670Y403860D02*
X539796D01*
X541574Y402082D02*
X547370D01*
X755650Y241300D02*
X889698D01*
X292100Y167640D02*
X312621Y188161D01*
X48260Y167640D02*
X292100D01*
X219710Y196850D02*
X359410D01*
X191770Y224790D02*
X219710Y196850D01*
X375751Y188161D02*
X375951Y188361D01*
X312621Y188161D02*
X375751D01*
X305635Y203635D02*
X384634D01*
X384087Y41187D02*
Y203088D01*
X384634Y203635D02*
X450015D01*
X463550Y217170D01*
X383540Y40640D02*
X384087Y41187D01*
Y203088D02*
X384634Y203635D01*
X232410Y276860D02*
X305635Y203635D01*
X1080770Y261620D02*
X1080837Y261687D01*
X1071880Y261620D02*
X1080770D01*
X1040130Y293370D02*
X1071880Y261620D01*
X1070221Y269046D02*
X1075642D01*
X1023038Y316230D02*
X1070221Y269046D01*
X514604Y376597D02*
Y376939D01*
X585470Y233680D02*
X585742D01*
X590550Y238488D02*
Y246380D01*
X585742Y233680D02*
X590550Y238488D01*
Y246733D02*
X638461D01*
X501670D02*
X590550D01*
X501670D02*
X524177Y269240D01*
X501667Y246729D02*
X501670Y246733D01*
X500380Y245443D02*
X501667Y246729D01*
X744896Y249936D02*
X783494D01*
X783748Y250190D01*
X930910D02*
X937260Y256540D01*
X694690Y269240D02*
X713740Y250190D01*
X744642D01*
X744896Y249936D01*
X783748Y250190D02*
X930910D01*
X524177Y269240D02*
X694690D01*
X1156970Y466090D02*
X1159510Y463550D01*
Y454660D02*
Y463550D01*
X1125220Y466090D02*
X1156970D01*
X1068070Y408940D02*
X1125220Y466090D01*
X691595Y294640D02*
X966470D01*
X988060Y316230D01*
X682369Y303866D02*
X691595Y294640D01*
X410538Y466256D02*
X436104Y440690D01*
X839470D01*
X849192Y430968D01*
X415544Y426720D02*
X811530D01*
X408940Y420116D02*
X415544Y426720D01*
X824658Y392850D02*
X824709Y392799D01*
X600343Y392850D02*
X824658D01*
X600292Y392901D02*
X600343Y392850D01*
X574869Y381122D02*
X825884D01*
X826143Y381381D01*
X570958Y377211D02*
X574869Y381122D01*
X576120Y374157D02*
X576427Y373850D01*
X610228D01*
X610535Y373543D01*
X811530Y420067D02*
Y426720D01*
Y420067D02*
X812409Y419189D01*
X795607Y410016D02*
X796363Y410772D01*
X302586Y415616D02*
X766764D01*
X293370Y406400D02*
X302586Y415616D01*
X766764D02*
X767113Y415965D01*
X840304Y424180D02*
X840675Y424551D01*
X849192Y430092D02*
Y430968D01*
X862484D01*
X840675Y424551D02*
X843651D01*
X849192Y430092D01*
X796363Y410772D02*
X797310D01*
X700955Y342900D02*
X701044Y342990D01*
X703575D02*
X703665Y342900D01*
X1027430Y388620D02*
X1047709D01*
X1051279Y392190D01*
X1051298D01*
X1065530Y55880D02*
X1165860D01*
X127000Y366364D02*
Y367030D01*
Y366364D02*
X130556Y362808D01*
Y321945D02*
Y362808D01*
X516890Y379225D02*
Y392430D01*
X514604Y376939D02*
X516890Y379225D01*
X614680Y157480D02*
X717550D01*
X842126Y57267D02*
X930291Y145431D01*
X692494Y57267D02*
X842126D01*
X930291Y145431D02*
X1005078D01*
X971550Y204470D02*
X1003300D01*
X1036320Y237490D01*
X925830Y158750D02*
X971550Y204470D01*
X974852Y198882D02*
X1149350D01*
X838200Y62230D02*
X974852Y198882D01*
X598170Y62230D02*
X838200D01*
X913130Y158750D02*
X925830D01*
Y166370D02*
X990600Y231140D01*
X820420Y166370D02*
X925830D01*
X792480Y138430D02*
X820420Y166370D01*
X923290Y171450D02*
X982980Y231140D01*
X803656Y157480D02*
X817626Y171450D01*
X923290D01*
X990600Y231140D02*
X1010920D01*
X692658Y201930D02*
X756158Y138430D01*
X792480D01*
X1010920Y231140D02*
X1029970Y250190D01*
X982980Y231140D02*
Y241300D01*
X229870Y39370D02*
X262890Y72390D01*
Y101600D01*
X898398Y389128D02*
X949452D01*
X949960Y388620D01*
X138430Y242570D02*
X147320D01*
X165100Y260350D01*
X661670Y116840D02*
X662305Y117475D01*
X775335D02*
X775970Y118110D01*
X450850Y57150D02*
X692378D01*
X692494Y57267D01*
X434340Y40640D02*
X450850Y57150D01*
X600710Y143510D02*
X614680Y157480D01*
X600710Y115570D02*
Y143510D01*
X448310Y115570D02*
X600710D01*
X982980Y241300D02*
X988060Y246380D01*
X1020778Y309578D02*
Y309646D01*
X1012190Y257810D02*
Y284988D01*
X1014040Y302840D02*
X1020778Y309578D01*
X1012190Y284988D02*
X1014984Y287782D01*
X1021080Y401320D02*
X1047750D01*
X996058Y262890D02*
X998543Y260405D01*
X1007690Y258390D02*
Y267970D01*
X1026160Y265430D02*
Y270510D01*
X988060Y316230D02*
X1023038D01*
X130556Y321945D02*
X148635Y303866D01*
X682369D01*
X1024240Y429586D02*
X1029318Y434664D01*
X951252Y231084D02*
X959286Y239118D01*
X1029318Y434664D02*
X1030028D01*
X998543Y260405D02*
X999490D01*
X1103691Y340230D02*
X1153668Y290253D01*
X1149350Y198882D02*
X1153668Y203200D01*
Y290253D01*
X665519Y286584D02*
X1001594D01*
X1007110Y246380D02*
X1026160Y265430D01*
X662891Y287577D02*
X663560Y286908D01*
X665195D01*
X665519Y286584D01*
X988060Y246380D02*
X1007110D01*
X982472Y250190D02*
X1004570D01*
X963733Y255270D02*
X1004570D01*
X648970Y274320D02*
X652780Y278130D01*
X798830Y265430D02*
X953573D01*
X652780Y278130D02*
X786130D01*
X798830Y265430D01*
X953573D02*
X963733Y255270D01*
X1004570D02*
X1007690Y258390D01*
X725178Y226568D02*
X958850D01*
X668020Y259080D02*
X692666D01*
X725178Y226568D01*
X958850D02*
X982472Y250190D01*
X473710Y274320D02*
X648970D01*
X693071Y264763D02*
X726750Y231084D01*
X679773Y251460D02*
X694690D01*
X724082Y222068D01*
X674370Y245110D02*
Y246057D01*
X679773Y251460D01*
X724082Y222068D02*
X751840D01*
X516890Y251460D02*
X530193Y264763D01*
X693071D01*
X1056980Y366394D02*
X1068070Y377484D01*
Y408940D01*
X965454Y282956D02*
X985520Y262890D01*
X100330Y274574D02*
X108712Y282956D01*
X965454D01*
X643890Y201930D02*
X692658D01*
X538480D02*
X643890D01*
X983560Y302840D02*
X1014040D01*
X726750Y231084D02*
X951252D01*
X1004570Y250190D02*
X1012190Y257810D01*
X1103691Y340230D02*
Y341057D01*
X1082354Y362393D02*
X1103691Y341057D01*
X1079141Y362393D02*
X1082354D01*
X1078476Y363059D02*
X1079141Y362393D01*
X1001594Y286584D02*
X1008380Y293370D01*
X1040130D01*
X1023620Y372110D02*
X1026700Y369030D01*
X1045750D01*
X1048386Y366394D01*
X1056980D01*
X979170Y298450D02*
X983560Y302840D01*
X985520Y262890D02*
X996058D01*
X978916Y290830D02*
X979170Y291084D01*
X689607Y290830D02*
X978916D01*
X46990Y402082D02*
Y408940D01*
X863866Y429586D02*
X1024240D01*
X862484Y430968D02*
X863866Y429586D01*
X647010Y330890D02*
X656010Y321890D01*
X447369Y330890D02*
X647010D01*
X438331Y321852D02*
X447369Y330890D01*
X812409Y419189D02*
X1003211D01*
X1021080Y401320D01*
X1000760Y415290D02*
X1027430Y388620D01*
X805434Y415290D02*
X1000760D01*
X800259Y420465D02*
X805434Y415290D01*
X432831Y420465D02*
X800259D01*
X432490Y420806D02*
X432831Y420465D01*
X1069340Y424180D02*
X1093470Y448310D01*
X919480Y424180D02*
X1069340D01*
X570958Y368670D02*
Y377211D01*
X410538Y466256D02*
Y483542D01*
X403860Y490220D02*
X410538Y483542D01*
X53340Y175260D02*
X142240D01*
X191770Y224790D01*
X237743Y321852D02*
X438331D01*
X469900Y466090D02*
X482092Y478282D01*
X1022858D01*
X957580Y90170D02*
X989330Y121920D01*
X998220D01*
X463550Y217170D02*
Y264160D01*
X473710Y274320D01*
X652780Y243840D02*
X668020Y259080D01*
X639826Y214738D02*
X652780Y227692D01*
Y243840D01*
X533400Y196850D02*
X538480Y201930D01*
X570821Y240919D02*
X571491Y241588D01*
X496697Y168910D02*
X568705Y240919D01*
X570821D01*
X693142Y347980D02*
X693232Y347890D01*
X656010Y321890D02*
X700059D01*
X831160Y321890D02*
X898398Y389128D01*
X700059Y321890D02*
X831160D01*
X425450Y537464D02*
X1034542D01*
X528320Y251460D02*
X577850D01*
X1093786Y49846D02*
X1150428D01*
X1064260Y20320D02*
X1093786Y49846D01*
X260439Y487680D02*
X262979Y485140D01*
X306070D01*
X260350Y487680D02*
X260439D01*
X877189Y350520D02*
X908050Y381381D01*
X419989Y463169D02*
X423490Y459668D01*
X419989Y463169D02*
Y532003D01*
X425450Y537464D01*
D172*
X26577Y373380D02*
X125892Y472694D01*
X226476Y468376D02*
Y486873D01*
X226122Y468022D02*
X226476Y468376D01*
X211174Y468022D02*
X226122D01*
X206502Y472694D02*
X211174Y468022D01*
X125892Y472694D02*
X206502D01*
X548570Y381000D02*
X568798Y360772D01*
X533702Y381000D02*
X548570D01*
X518498Y365796D02*
X533702Y381000D01*
X680720Y472169D02*
Y472440D01*
X317500Y454660D02*
Y477520D01*
X325120Y485140D01*
X346710D01*
X147574Y446278D02*
X243360D01*
X226476Y533816D02*
X237490Y544830D01*
X252730D01*
X226476Y486873D02*
Y533816D01*
X459263Y40163D02*
X459740Y40640D01*
X441960Y11430D02*
X459263Y28733D01*
X299720Y11430D02*
X441960D01*
X459263Y28733D02*
Y40163D01*
X283687Y27463D02*
X299720Y11430D01*
X280670Y39370D02*
X283687Y36353D01*
Y27463D02*
Y36353D01*
X699678Y360772D02*
X702310Y358140D01*
X568798Y360772D02*
X699678D01*
X324758Y364880D02*
X401316D01*
X460438Y365796D02*
X518498D01*
X460365Y365869D02*
X460438Y365796D01*
X402306Y365869D02*
X460365D01*
X401316Y364880D02*
X402306Y365869D01*
X243360Y446278D02*
X324758Y364880D01*
D174*
X1001397Y239678D02*
X1008028D01*
X1031711Y257712D02*
X1045582Y243840D01*
X1073150D02*
X1092411Y263101D01*
X1045582Y243840D02*
X1073150D01*
X1008028Y239678D02*
X1026062Y257712D01*
X1031711D01*
D175*
X1092107Y263417D02*
Y275683D01*
X949960Y330962D02*
X1018680D01*
X1035379Y314263D01*
X1041261D01*
X1061843Y293680D01*
X1074110D01*
X1092107Y275683D01*
X1092411Y263101D02*
X1141730Y210820D01*
D177*
X383382Y525308D02*
X384940Y529810D01*
D183*
X26577Y398780D02*
D03*
Y373380D02*
D03*
X1126902Y510540D02*
D03*
X1101503Y535940D02*
D03*
Y510540D02*
D03*
X1076103Y535940D02*
D03*
Y510540D02*
D03*
X52070Y509270D02*
D03*
X702310Y332740D02*
D03*
Y307340D02*
D03*
X434340Y40640D02*
D03*
X408940D02*
D03*
X383540D02*
D03*
X358140D02*
D03*
X332740D02*
D03*
X255270Y39370D02*
D03*
X229870D02*
D03*
X204470D02*
D03*
D184*
X26577Y347980D02*
D03*
X702310Y358140D02*
D03*
D185*
X1126902Y535940D02*
D03*
X26670Y509270D02*
D03*
X459740Y40640D02*
D03*
X280670Y39370D02*
D03*
D186*
X408940Y511810D02*
D03*
X400940Y529810D02*
D03*
X392940Y511810D02*
D03*
X384940Y529810D02*
D03*
X376940Y511810D02*
D03*
D187*
X1141730Y185420D02*
D03*
X1177290Y210820D02*
D03*
D188*
X1141730D02*
D03*
X1177290Y185420D02*
D03*
D189*
X1151675Y413949D02*
D03*
X1159647Y413558D02*
D03*
X1144741Y402818D02*
D03*
X1146156Y395412D02*
D03*
X1152720Y489530D02*
D03*
X1145199Y490068D02*
D03*
X1130377Y405183D02*
D03*
Y397643D02*
D03*
X1043940Y35560D02*
D03*
X534670Y403860D02*
D03*
X961291Y310854D02*
D03*
X755650Y241300D02*
D03*
X947795Y138822D02*
D03*
X904240Y306070D02*
D03*
X913130D02*
D03*
X359410Y196850D02*
D03*
X375951Y188361D02*
D03*
X384634Y203635D02*
D03*
X1080837Y261687D02*
D03*
X1075642Y269046D02*
D03*
X1086372Y269325D02*
D03*
X1115054Y269288D02*
D03*
X1106945Y269385D02*
D03*
X1098550Y269240D02*
D03*
X949960Y271780D02*
D03*
X537254Y374734D02*
D03*
X514604Y376597D02*
D03*
X522628Y386099D02*
D03*
X585470Y233680D02*
D03*
X638461Y246733D02*
D03*
X1159510Y454660D02*
D03*
X824709Y392799D02*
D03*
X826143Y381381D02*
D03*
X610535Y373543D02*
D03*
X576120Y374157D02*
D03*
X600292Y392901D02*
D03*
X445770Y410210D02*
D03*
X338927Y373188D02*
D03*
X375273Y372931D02*
D03*
X811530Y426720D02*
D03*
X767113Y415965D02*
D03*
X860339Y398090D02*
D03*
X845323Y392356D02*
D03*
X637540Y436190D02*
D03*
X624426Y404691D02*
D03*
X797310Y410772D02*
D03*
X557767Y531007D02*
D03*
X734527Y448540D02*
D03*
X439936Y354007D02*
D03*
X678180Y342900D02*
D03*
X1051298Y392190D02*
D03*
X1065530Y55880D02*
D03*
X1165860D02*
D03*
X1079928Y11895D02*
D03*
X1191260Y11430D02*
D03*
X1016000Y77470D02*
D03*
X127000Y367030D02*
D03*
X740410Y237490D02*
D03*
X746760Y254436D02*
D03*
X717543Y143517D02*
D03*
X713160Y132080D02*
D03*
X717550Y157480D02*
D03*
X727710Y332740D02*
D03*
X734060Y327660D02*
D03*
X740410Y332740D02*
D03*
X725170Y267970D02*
D03*
X742950Y68580D02*
D03*
X913130Y158750D02*
D03*
X906780Y185420D02*
D03*
X1036320Y237490D02*
D03*
X989330Y222250D02*
D03*
X262890Y101600D02*
D03*
X985520Y396240D02*
D03*
X949960Y388620D02*
D03*
X293370Y406400D02*
D03*
X661670Y116840D02*
D03*
X661799Y68471D02*
D03*
X657881Y46949D02*
D03*
X667954Y31531D02*
D03*
X678159Y46820D02*
D03*
X674241Y68342D02*
D03*
X629325Y133958D02*
D03*
X630476Y126506D02*
D03*
Y118966D02*
D03*
X630775Y111432D02*
D03*
X632823Y104176D02*
D03*
X636938Y97858D02*
D03*
X642634Y92917D02*
D03*
X649554Y89923D02*
D03*
X657026Y88909D02*
D03*
X677478Y81188D02*
D03*
X684798Y79381D02*
D03*
X692332Y79684D02*
D03*
X669019Y104769D02*
D03*
X661487Y104414D02*
D03*
X654524Y101522D02*
D03*
X647666Y104655D02*
D03*
X643548Y110971D02*
D03*
X642918Y118485D02*
D03*
Y126025D02*
D03*
X642384Y133546D02*
D03*
X639820Y140637D02*
D03*
X635342Y146703D02*
D03*
X629248Y151143D02*
D03*
X637540Y74930D02*
D03*
X680720Y143510D02*
D03*
X598170Y62230D02*
D03*
X542290Y69850D02*
D03*
X651510Y22860D02*
D03*
X681990D02*
D03*
X600710Y115570D02*
D03*
X775970Y118110D02*
D03*
X689610Y149860D02*
D03*
X1009187Y306960D02*
D03*
X1118179Y451663D02*
D03*
X1118599Y444135D02*
D03*
X1122884Y437931D02*
D03*
X1129962Y435332D02*
D03*
X1130377Y427803D02*
D03*
Y420263D02*
D03*
Y412723D02*
D03*
X1137838Y352798D02*
D03*
X1142819Y419268D02*
D03*
X1142870Y434347D02*
D03*
X1140751Y441584D02*
D03*
X1135193Y446679D02*
D03*
X1130621Y452675D02*
D03*
X1020778Y309646D02*
D03*
X1063182Y288180D02*
D03*
X1042670Y264160D02*
D03*
X1037590Y270510D02*
D03*
X1117141Y391206D02*
D03*
X1098601Y391618D02*
D03*
X1088485Y391536D02*
D03*
X1061790Y391881D02*
D03*
X1036881Y393503D02*
D03*
X1016585Y391473D02*
D03*
X1006505Y391812D02*
D03*
X997033Y391947D02*
D03*
X957580Y383540D02*
D03*
X961763Y355935D02*
D03*
X961390Y340360D02*
D03*
X937260Y356870D02*
D03*
Y342900D02*
D03*
X949960Y330962D02*
D03*
X960901Y318246D02*
D03*
X961390Y303530D02*
D03*
X965287Y272632D02*
D03*
X979170Y260350D02*
D03*
X1001397Y239678D02*
D03*
X991870Y267970D02*
D03*
X999490D02*
D03*
X1007690D02*
D03*
X999490Y260405D02*
D03*
X1017270Y265430D02*
D03*
X1026160Y270510D02*
D03*
X1033780Y264160D02*
D03*
X1127956Y270428D02*
D03*
X1050290Y255270D02*
D03*
X1029970Y250190D02*
D03*
X959286Y239118D02*
D03*
X1047750Y401320D02*
D03*
X1051015Y412682D02*
D03*
X1003234Y438626D02*
D03*
X1030028Y434790D02*
D03*
X1013714Y287782D02*
D03*
X1021179Y287138D02*
D03*
X1017986Y298951D02*
D03*
X999097Y353837D02*
D03*
X989452Y354901D02*
D03*
X999204Y346931D02*
D03*
X999316Y340360D02*
D03*
X1009323Y339487D02*
D03*
X999490Y322580D02*
D03*
X979170Y316230D02*
D03*
Y298450D02*
D03*
Y291084D02*
D03*
X1108710Y288290D02*
D03*
X1117570Y300960D02*
D03*
X1099820Y298450D02*
D03*
X1099404Y306924D02*
D03*
X1109281Y307162D02*
D03*
X1078952Y306939D02*
D03*
X1039277Y306822D02*
D03*
X1059180Y322580D02*
D03*
Y339090D02*
D03*
X1039575Y339450D02*
D03*
X1039334Y346934D02*
D03*
X1039092Y355005D02*
D03*
Y362683D02*
D03*
X1023620Y372110D02*
D03*
X1055116Y370894D02*
D03*
X1059160Y362458D02*
D03*
X1059055Y355097D02*
D03*
X1078810Y346735D02*
D03*
X1076960Y338960D02*
D03*
X1078810Y355252D02*
D03*
X1078476Y363059D02*
D03*
X1099130Y362960D02*
D03*
Y355518D02*
D03*
Y339193D02*
D03*
X1099368Y323032D02*
D03*
X1109346Y323057D02*
D03*
X1119409Y330876D02*
D03*
X1119409Y345654D02*
D03*
X1119551Y360942D02*
D03*
X1099368Y314960D02*
D03*
X991870Y402590D02*
D03*
X999490D02*
D03*
X999385Y298794D02*
D03*
X999490Y307340D02*
D03*
X1180691Y531079D02*
D03*
X1169691Y516511D02*
D03*
X1173609Y510069D02*
D03*
Y502529D02*
D03*
X1172931Y495019D02*
D03*
X1167712Y489578D02*
D03*
X1160219Y488741D02*
D03*
X1157043Y476299D02*
D03*
X1164583Y476357D02*
D03*
X1171964Y477897D02*
D03*
X1178384Y481852D02*
D03*
X1183135Y487707D02*
D03*
X1185711Y494793D02*
D03*
X1186051Y502325D02*
D03*
Y509865D02*
D03*
X1189969Y516307D02*
D03*
X1195681Y426532D02*
D03*
X1109980Y486410D02*
D03*
X1070610Y445770D02*
D03*
X1189376Y478420D02*
D03*
X1136031Y487954D02*
D03*
X1093470Y448310D02*
D03*
X1083310Y492760D02*
D03*
X1198880Y447040D02*
D03*
X1164590Y532130D02*
D03*
X1145048Y410352D02*
D03*
X1144911Y387975D02*
D03*
X1144453Y380449D02*
D03*
Y372909D02*
D03*
Y365369D02*
D03*
Y357829D02*
D03*
Y350289D02*
D03*
X1144106Y342757D02*
D03*
X1140518Y336126D02*
D03*
X1136751Y320397D02*
D03*
X1143739Y323229D02*
D03*
X1149671Y327883D02*
D03*
X1153949Y334092D02*
D03*
X1156388Y341227D02*
D03*
X1156787Y348756D02*
D03*
Y356296D02*
D03*
Y363836D02*
D03*
Y371376D02*
D03*
X937260Y256540D02*
D03*
X977900Y180340D02*
D03*
X1010920Y194310D02*
D03*
X1032510Y185420D02*
D03*
X1194580Y532130D02*
D03*
X889698Y241300D02*
D03*
X106680Y538480D02*
D03*
X302260Y398780D02*
D03*
X188580Y538017D02*
D03*
X246957Y361317D02*
D03*
X1060450Y138430D02*
D03*
X1022508Y125809D02*
D03*
X994338Y102870D02*
D03*
X942703Y90776D02*
D03*
X916903Y12035D02*
D03*
X1029141Y11614D02*
D03*
X1105111Y89593D02*
D03*
X1071643Y179946D02*
D03*
X1098564Y146904D02*
D03*
X1196340Y100330D02*
D03*
X1157613Y132439D02*
D03*
X1167754Y347416D02*
D03*
X1176183Y404427D02*
D03*
X1014730Y502920D02*
D03*
X975501Y468283D02*
D03*
X869846Y424177D02*
D03*
X874530Y452754D02*
D03*
X851985Y504837D02*
D03*
X820317Y504621D02*
D03*
X635706Y528213D02*
D03*
X664670Y366711D02*
D03*
X858955Y305022D02*
D03*
X748030Y167640D02*
D03*
X752777Y176922D02*
D03*
X832636Y177304D02*
D03*
X852170Y151130D02*
D03*
X804375Y83674D02*
D03*
X850782Y52766D02*
D03*
X837616Y36490D02*
D03*
X745044Y52523D02*
D03*
X757275Y36490D02*
D03*
X513598Y18903D02*
D03*
X608439Y29925D02*
D03*
X608612Y84886D02*
D03*
X608608Y136289D02*
D03*
X608700Y159238D02*
D03*
X513820Y159294D02*
D03*
X597042Y255093D02*
D03*
X560070Y241682D02*
D03*
X557158Y221929D02*
D03*
X570958Y368670D02*
D03*
X733532Y483000D02*
D03*
X734060Y530860D02*
D03*
X694690Y542290D02*
D03*
X669011Y482834D02*
D03*
X635145Y483787D02*
D03*
X568516Y531990D02*
D03*
X457015Y454062D02*
D03*
X458008Y485891D02*
D03*
X415260Y484421D02*
D03*
X391249Y483905D02*
D03*
X340431Y437435D02*
D03*
X314019Y495428D02*
D03*
X244891Y513375D02*
D03*
X255258Y513040D02*
D03*
X250190Y505460D02*
D03*
Y521970D02*
D03*
X231824Y465182D02*
D03*
X201123Y485715D02*
D03*
X149793Y484846D02*
D03*
X125635Y484556D02*
D03*
X114691Y507395D02*
D03*
X129841Y543625D02*
D03*
X136584Y257229D02*
D03*
X83613Y266217D02*
D03*
X118145Y141036D02*
D03*
X99932Y71796D02*
D03*
X38842Y113858D02*
D03*
X14992Y175714D02*
D03*
X45720Y213360D02*
D03*
X15097Y264368D02*
D03*
X69956Y266757D02*
D03*
X102870Y392430D02*
D03*
X80010Y387350D02*
D03*
X72390Y403860D02*
D03*
X16510Y421640D02*
D03*
X46990Y408940D02*
D03*
X966470Y546100D02*
D03*
X317500Y454660D02*
D03*
X346710Y485140D02*
D03*
X293370Y440690D02*
D03*
X405130Y464820D02*
D03*
X403860Y490220D02*
D03*
X252730Y544830D02*
D03*
X180340Y187960D02*
D03*
X500771Y311505D02*
D03*
X465938Y312049D02*
D03*
X191770Y224790D02*
D03*
X138430Y242570D02*
D03*
X165100Y260350D02*
D03*
X275590Y345440D02*
D03*
X237743Y321852D02*
D03*
X469900Y466090D02*
D03*
X1153160Y119380D02*
D03*
X1167130Y154940D02*
D03*
X547370Y402082D02*
D03*
X694690Y511810D02*
D03*
X199390Y514350D02*
D03*
X783590Y269240D02*
D03*
X781630Y254436D02*
D03*
X786130Y261620D02*
D03*
X998220Y121920D02*
D03*
X473710Y274320D02*
D03*
X312420Y187960D02*
D03*
X232410Y276860D02*
D03*
X674370Y245110D02*
D03*
X668020Y259080D02*
D03*
X53340Y175260D02*
D03*
X48260Y167640D02*
D03*
X509270Y290830D02*
D03*
X533400Y196850D02*
D03*
X643890Y201930D02*
D03*
X448310Y115570D02*
D03*
X648970Y274320D02*
D03*
X516890Y392430D02*
D03*
X745490Y365760D02*
D03*
X619760Y341630D02*
D03*
Y325120D02*
D03*
X694690Y532964D02*
D03*
X615950Y454660D02*
D03*
X680720Y472440D02*
D03*
X643890Y403860D02*
D03*
X1047750Y91440D02*
D03*
X919480Y424180D02*
D03*
X840304D02*
D03*
X957580Y90170D02*
D03*
X642620Y326390D02*
D03*
X528320Y251460D02*
D03*
X577850D02*
D03*
X1064260Y20320D02*
D03*
X1031240Y172720D02*
D03*
X260350Y487680D02*
D03*
X306070Y485140D02*
D03*
X751840Y222068D02*
D03*
X556006Y195238D02*
D03*
X516890Y251460D02*
D03*
X62230Y91440D02*
D03*
X571491Y241588D02*
D03*
X496697Y168910D02*
D03*
X371735Y464820D02*
D03*
X336550D02*
D03*
X716280Y186690D02*
D03*
X715010Y198120D02*
D03*
X452120Y435610D02*
D03*
X163538Y495554D02*
D03*
X432490Y420806D02*
D03*
X803656Y157480D02*
D03*
X226476Y486873D02*
D03*
X865730Y434086D02*
D03*
X1022858Y478282D02*
D03*
X408940Y420116D02*
D03*
X877189Y350520D02*
D03*
X908050Y381381D02*
D03*
X1005078Y145431D02*
D03*
X500380Y245443D02*
D03*
X423490Y459668D02*
D03*
X1034542Y537464D02*
D03*
X908812Y486664D02*
D03*
X897636Y484632D02*
D03*
X1150428Y49846D02*
D03*
X47752Y184404D02*
D03*
X100330Y274574D02*
D03*
X662891Y287577D02*
D03*
X639826Y214738D02*
D03*
X147574Y446278D02*
D03*
M02*
