G04*
G04 #@! TF.GenerationSoftware,Altium Limited,Altium Designer,21.6.4 (81)*
G04*
G04 Layer_Physical_Order=3*
G04 Layer_Color=16440176*
%FSLAX44Y44*%
%MOMM*%
G71*
G04*
G04 #@! TF.SameCoordinates,35F2EB46-45B6-4E83-8094-EA5E86E84025*
G04*
G04*
G04 #@! TF.FilePolarity,Positive*
G04*
G01*
G75*
%ADD10C,0.2000*%
%ADD12C,0.2540*%
%ADD14C,0.1500*%
%ADD172C,0.4000*%
%ADD174C,0.3000*%
%ADD175C,0.3500*%
%ADD177C,0.1650*%
%ADD183C,1.6500*%
%ADD184R,1.6500X1.6500*%
%ADD185R,1.6500X1.6500*%
%ADD187R,1.9500X1.9500*%
%ADD188C,1.9500*%
%ADD189C,0.5000*%
D10*
X619760Y450850D02*
X680720Y511810D01*
X694601D01*
X619760Y341630D02*
Y450850D01*
X616168Y454660D02*
X694472Y532964D01*
X1043940Y185420D02*
X1141730D01*
X1031240Y172720D02*
X1043940Y185420D01*
D12*
X680720Y440690D02*
Y472440D01*
X643890Y403860D02*
X680720Y440690D01*
X1117600Y486410D02*
X1156970Y447040D01*
X1198880D01*
X1109980Y486410D02*
X1117600D01*
X375273Y372931D02*
Y394323D01*
X380538Y399588D01*
X740410Y332740D02*
X762000Y311150D01*
Y226314D02*
X775970Y212344D01*
X762000Y226314D02*
Y311150D01*
X661670Y143510D02*
X664210Y146050D01*
X661670Y116840D02*
Y143510D01*
X664210Y146050D02*
Y210820D01*
X775970Y118110D02*
Y212344D01*
X612140Y262890D02*
X664210Y210820D01*
X560070Y262890D02*
X612140D01*
X423372Y399588D02*
X560070Y262890D01*
X999490Y322580D02*
X1033780D01*
X1070610Y359410D02*
Y445770D01*
X1033780Y322580D02*
X1070610Y359410D01*
X500228Y312049D02*
X500771Y311505D01*
X380538Y399588D02*
X423372D01*
D14*
X1051052Y520954D02*
X1085850D01*
X967140Y546770D02*
X1105971D01*
X1105971Y546770D01*
X1105990D01*
X1106537Y546223D01*
X1113790Y538970D01*
X966470Y546100D02*
X967140Y546770D01*
X1113790Y504190D02*
Y538970D01*
X1085850Y520954D02*
X1088367Y518437D01*
X534670Y403860D02*
Y415290D01*
X557767Y438387D02*
Y531007D01*
X534670Y415290D02*
X557767Y438387D01*
X958583Y310184D02*
X960621D01*
X961291Y310854D01*
X889698Y241300D02*
X958583Y310184D01*
X947795Y138822D02*
X948465Y138153D01*
Y134083D02*
Y138153D01*
Y134083D02*
X999232Y83316D01*
X904240Y306070D02*
Y353060D01*
X913130Y306070D02*
X953770Y346710D01*
X978408D01*
X359410Y196850D02*
X509270D01*
X359357Y196797D02*
X359410Y196850D01*
X359357Y186743D02*
Y196797D01*
X389890Y59690D02*
Y174423D01*
Y59690D02*
X408940Y40640D01*
X375951Y188361D02*
X389890Y174423D01*
X359357Y186743D02*
X378460Y167640D01*
Y60960D02*
Y167640D01*
X376353Y187960D02*
X535940D01*
X562718Y214738D01*
X904240Y353060D02*
X916724Y365544D01*
X980237D01*
X949960Y217170D02*
X984338Y182792D01*
X949960Y217170D02*
Y271780D01*
X537191Y386099D02*
X543560Y379730D01*
X522628Y386099D02*
X537191D01*
X1037590Y270510D02*
Y275590D01*
X1080570Y318570D01*
X979170Y260439D02*
X981710Y262979D01*
Y270002D02*
X986790Y275082D01*
X979170Y260350D02*
Y260439D01*
X981710Y262979D02*
Y270002D01*
X772511Y407319D02*
Y410566D01*
X767113Y415965D02*
X772511Y410566D01*
Y407319D02*
X777240Y402590D01*
X742950Y68580D02*
Y173990D01*
X725170Y125730D02*
X737870Y138430D01*
Y234861D01*
X740410Y237401D02*
Y237490D01*
X737870Y234861D02*
X740410Y237401D01*
X746760Y177800D02*
Y254436D01*
X742950Y173990D02*
X746760Y177800D01*
X712470Y148590D02*
X717543Y143517D01*
X712470Y148590D02*
Y170180D01*
X713160Y132080D02*
Y132770D01*
X734060Y153670D01*
X708660Y125730D02*
X725170D01*
X689610Y144780D02*
X708660Y125730D01*
X712470Y170180D02*
X729670Y187380D01*
X734060Y153670D02*
Y327660D01*
X727710Y323850D02*
Y332740D01*
X729670Y187380D02*
Y321890D01*
X727710Y323850D02*
X729670Y321890D01*
X777240Y402590D02*
X991870D01*
X781630Y254436D02*
X817444D01*
X913130Y158750D01*
X906526Y185674D02*
X906780Y185420D01*
X906526Y185674D02*
Y250698D01*
X954278Y298450D01*
X332740Y171450D02*
Y403860D01*
X262890Y101600D02*
X332740Y171450D01*
Y403860D02*
X340693Y411813D01*
X328295Y175895D02*
Y479425D01*
X339090Y490220D01*
X403860D01*
X690880Y366038D02*
X701722Y376881D01*
X690880Y291641D02*
X723900Y258621D01*
X690880Y291641D02*
Y366038D01*
X701722Y376881D02*
X973781D01*
X723900Y187564D02*
Y258621D01*
X700455Y164119D02*
X723900Y187564D01*
X688629Y164119D02*
X700455D01*
X949960Y388620D02*
X958100Y396760D01*
X985000D01*
X985520Y396240D01*
X293370Y388620D02*
Y406400D01*
X165100Y260350D02*
X293370Y388620D01*
X654050Y74930D02*
X673572Y94452D01*
X637540Y74930D02*
X654050D01*
X673572Y149062D02*
X688629Y164119D01*
X673572Y94452D02*
Y149062D01*
X973781Y376881D02*
X999490Y402590D01*
X689610Y144780D02*
Y149860D01*
X956056Y322580D02*
X972820D01*
X979170Y316230D01*
X895096Y261620D02*
X956056Y322580D01*
X1088367Y391655D02*
Y518437D01*
X980237Y365544D02*
X1006505Y391812D01*
X1146374Y112594D02*
X1153160Y119380D01*
X993576Y112594D02*
X1146374D01*
X984338Y121832D02*
Y182792D01*
Y121832D02*
X993576Y112594D01*
X1045210Y264160D02*
X1050290D01*
X1083310Y337820D02*
Y492760D01*
X1093470Y340360D02*
Y448310D01*
X1005078Y145431D02*
Y177038D01*
X1050290Y264160D02*
X1056640Y257810D01*
X1005078Y177038D02*
X1056640Y228600D01*
Y257810D01*
X991870Y233496D02*
Y267970D01*
Y233496D02*
X998220Y227146D01*
X1017940Y262220D02*
X1029970Y250190D01*
X1017940Y262220D02*
Y264760D01*
X1017270Y265430D02*
X1017940Y264760D01*
X1038860Y243840D02*
X1050290Y255270D01*
X999490Y260405D02*
X1016055Y243840D01*
X1038860D01*
X1051015Y412682D02*
Y413243D01*
X1030028Y434229D02*
X1051015Y413243D01*
X1030028Y434229D02*
Y434790D01*
X1084931Y318570D02*
X1103630Y337269D01*
X1024890Y264160D02*
X1033780D01*
X1021080Y267970D02*
X1024890Y264160D01*
X1021080Y267970D02*
Y275590D01*
X1083310Y337820D01*
X1088367Y391655D02*
X1088485Y391536D01*
X1026160Y270510D02*
X1026749Y271099D01*
Y273639D01*
X1093470Y340360D01*
X1080570Y318570D02*
X1084931D01*
X786130Y261620D02*
X895096D01*
X954278Y298450D02*
X979170D01*
X998220Y121920D02*
Y227146D01*
X1103630Y337269D02*
Y494030D01*
X1113790Y504190D01*
X986790Y275082D02*
Y338328D01*
X978408Y346710D02*
X986790Y338328D01*
X1034542Y537464D02*
X1051052Y520954D01*
X543560Y334010D02*
Y379730D01*
X452120Y435610D02*
Y462280D01*
X455930Y466090D02*
X469900D01*
X452120Y462280D02*
X455930Y466090D01*
X404495Y465455D02*
X405130Y464820D01*
X404495Y465455D02*
Y489585D01*
X403860Y490220D02*
X404495Y489585D01*
X62230Y120650D02*
X237743Y296163D01*
X62230Y91440D02*
Y120650D01*
X237743Y296163D02*
Y321852D01*
X1164001Y154351D02*
X1166541D01*
X1153010Y143360D02*
X1164001Y154351D01*
X1153010Y119530D02*
Y143360D01*
X1166541Y154351D02*
X1167130Y154940D01*
X1153010Y119530D02*
X1153160Y119380D01*
X784179Y269829D02*
Y272369D01*
X862330Y350520D01*
X783590Y269240D02*
X784179Y269829D01*
X862330Y350520D02*
X877189D01*
X255270Y102870D02*
X328295Y175895D01*
X255270Y39370D02*
Y102870D01*
X358140Y40640D02*
X378460Y60960D01*
X562718Y214738D02*
X639826D01*
X668020Y259080D02*
Y266700D01*
X635000Y299720D02*
X668020Y266700D01*
X543560Y334010D02*
X577850Y299720D01*
X635000D01*
X509270Y196850D02*
X533400D01*
X509270Y196850D02*
X509270Y196850D01*
X509270Y196850D02*
Y290830D01*
X694472Y532964D02*
X694690D01*
X615950Y454660D02*
X616168D01*
X999232Y83316D02*
X1039626D01*
X1047750Y91440D01*
X642620Y307848D02*
Y326390D01*
Y307848D02*
X662891Y287577D01*
X340693Y411813D02*
X400637D01*
X408940Y420116D01*
X87630Y261874D02*
X100330Y274574D01*
X87630Y224282D02*
Y261874D01*
X47752Y184404D02*
X87630Y224282D01*
D172*
X26577Y347980D02*
X124875Y446278D01*
X26577Y398780D02*
Y509178D01*
X124875Y446278D02*
X147574D01*
X986028Y35560D02*
X1043940D01*
X769620Y251968D02*
X986028Y35560D01*
X542290Y69850D02*
X556006Y83566D01*
Y195238D01*
X219710Y514350D02*
X293370Y440690D01*
X199390Y514350D02*
X219710D01*
X147574Y446278D02*
X163538Y462242D01*
Y495554D01*
X769620Y251968D02*
Y335280D01*
X180340Y187960D02*
X275590Y283210D01*
Y345440D01*
X465938Y312049D02*
X500228D01*
X746760Y358140D02*
X769620Y335280D01*
X702310Y358140D02*
X746760D01*
D174*
X988314Y77470D02*
X1016000D01*
X947482Y154494D02*
X972374D01*
X977900Y160020D01*
Y180340D01*
X941324Y124460D02*
X988314Y77470D01*
X941324Y148336D02*
X947482Y154494D01*
X941324Y124460D02*
Y148336D01*
D175*
X1039266Y203200D02*
X1131680D01*
X1139300Y210820D01*
X1141730D01*
X1032510Y196444D02*
X1039266Y203200D01*
X1032510Y185420D02*
Y196444D01*
D177*
X413785Y421875D02*
Y422123D01*
X410947Y424961D02*
X413785Y422123D01*
X417365Y423358D02*
X567094Y273629D01*
X417365Y423358D02*
Y423606D01*
X412430Y428541D02*
X417365Y423606D01*
X388395Y424961D02*
X410947D01*
X389878Y428541D02*
X412430D01*
X567094Y273629D02*
X625587D01*
X413785Y421875D02*
X565611Y270049D01*
X624104D01*
X715645Y186690D02*
X716280D01*
X711720Y190615D02*
X715645Y186690D01*
X703538Y190615D02*
X711720D01*
X624104Y270049D02*
X703538Y190615D01*
X352353Y461004D02*
X388395Y424961D01*
X352353Y461004D02*
Y463853D01*
X351386Y464820D02*
X352353Y463853D01*
X336550Y464820D02*
X351386D01*
X715010Y197485D02*
Y198120D01*
X711720Y194195D02*
X715010Y197485D01*
X705021Y194195D02*
X711720D01*
X625587Y273629D02*
X705021Y194195D01*
X355933Y462487D02*
X389878Y428541D01*
X355933Y462487D02*
Y463853D01*
X356899Y464820D01*
X371735D01*
D183*
X26577Y398780D02*
D03*
X408940Y40640D02*
D03*
X358140D02*
D03*
X255270Y39370D02*
D03*
D184*
X26577Y347980D02*
D03*
X702310Y358140D02*
D03*
D185*
X26670Y509270D02*
D03*
D187*
X1141730Y185420D02*
D03*
D188*
Y210820D02*
D03*
D189*
X1043940Y35560D02*
D03*
X534670Y403860D02*
D03*
X961291Y310854D02*
D03*
X947795Y138822D02*
D03*
X904240Y306070D02*
D03*
X913130D02*
D03*
X359410Y196850D02*
D03*
X375951Y188361D02*
D03*
X949960Y271780D02*
D03*
X522628Y386099D02*
D03*
X375273Y372931D02*
D03*
X767113Y415965D02*
D03*
X557767Y531007D02*
D03*
X1016000Y77470D02*
D03*
X740410Y237490D02*
D03*
X746760Y254436D02*
D03*
X717543Y143517D02*
D03*
X713160Y132080D02*
D03*
X727710Y332740D02*
D03*
X734060Y327660D02*
D03*
X740410Y332740D02*
D03*
X742950Y68580D02*
D03*
X913130Y158750D02*
D03*
X906780Y185420D02*
D03*
X262890Y101600D02*
D03*
X985520Y396240D02*
D03*
X949960Y388620D02*
D03*
X293370Y406400D02*
D03*
X661670Y116840D02*
D03*
X637540Y74930D02*
D03*
X542290Y69850D02*
D03*
X775970Y118110D02*
D03*
X689610Y149860D02*
D03*
X1042670Y264160D02*
D03*
X1037590Y270510D02*
D03*
X1088485Y391536D02*
D03*
X1006505Y391812D02*
D03*
X979170Y260350D02*
D03*
X991870Y267970D02*
D03*
X999490Y260405D02*
D03*
X1017270Y265430D02*
D03*
X1026160Y270510D02*
D03*
X1033780Y264160D02*
D03*
X1050290Y255270D02*
D03*
X1029970Y250190D02*
D03*
X1051015Y412682D02*
D03*
X1030028Y434790D02*
D03*
X999490Y322580D02*
D03*
X979170Y316230D02*
D03*
Y298450D02*
D03*
X991870Y402590D02*
D03*
X999490D02*
D03*
X1109980Y486410D02*
D03*
X1070610Y445770D02*
D03*
X1093470Y448310D02*
D03*
X1083310Y492760D02*
D03*
X1198880Y447040D02*
D03*
X977900Y180340D02*
D03*
X1032510Y185420D02*
D03*
X889698Y241300D02*
D03*
X966470Y546100D02*
D03*
X293370Y440690D02*
D03*
X405130Y464820D02*
D03*
X403860Y490220D02*
D03*
X180340Y187960D02*
D03*
X500771Y311505D02*
D03*
X465938Y312049D02*
D03*
X165100Y260350D02*
D03*
X275590Y345440D02*
D03*
X237743Y321852D02*
D03*
X469900Y466090D02*
D03*
X1153160Y119380D02*
D03*
X1167130Y154940D02*
D03*
X694690Y511810D02*
D03*
X199390Y514350D02*
D03*
X783590Y269240D02*
D03*
X781630Y254436D02*
D03*
X786130Y261620D02*
D03*
X998220Y121920D02*
D03*
X668020Y259080D02*
D03*
X509270Y290830D02*
D03*
X533400Y196850D02*
D03*
X619760Y341630D02*
D03*
X694690Y532964D02*
D03*
X615950Y454660D02*
D03*
X680720Y472440D02*
D03*
X643890Y403860D02*
D03*
X1047750Y91440D02*
D03*
X642620Y326390D02*
D03*
X1031240Y172720D02*
D03*
X556006Y195238D02*
D03*
X62230Y91440D02*
D03*
X371735Y464820D02*
D03*
X336550D02*
D03*
X716280Y186690D02*
D03*
X715010Y198120D02*
D03*
X452120Y435610D02*
D03*
X163538Y495554D02*
D03*
X408940Y420116D02*
D03*
X877189Y350520D02*
D03*
X1005078Y145431D02*
D03*
X1034542Y537464D02*
D03*
X47752Y184404D02*
D03*
X100330Y274574D02*
D03*
X662891Y287577D02*
D03*
X639826Y214738D02*
D03*
X147574Y446278D02*
D03*
M02*
