G04*
G04 #@! TF.GenerationSoftware,Altium Limited,Altium Designer,21.6.4 (81)*
G04*
G04 Layer_Physical_Order=3*
G04 Layer_Color=16440176*
%FSLAX44Y44*%
%MOMM*%
G71*
G04*
G04 #@! TF.SameCoordinates,0A195E51-53B8-4AD9-BF6B-D2F5FD9C9AB7*
G04*
G04*
G04 #@! TF.FilePolarity,Positive*
G04*
G01*
G75*
%ADD11C,0.2000*%
%ADD12C,0.1500*%
%ADD13C,0.2540*%
%ADD173C,0.3000*%
%ADD176C,0.4000*%
%ADD177C,0.3500*%
%ADD179C,0.1650*%
%ADD186C,1.6500*%
%ADD187R,1.6500X1.6500*%
%ADD188R,1.6500X1.6500*%
%ADD190R,1.9500X1.9500*%
%ADD191C,1.9500*%
%ADD192C,0.5000*%
D11*
X687070Y511810D02*
X694601D01*
X619760Y406743D02*
Y444500D01*
X687070Y511810D01*
X1031240Y172720D02*
X1037590D01*
X1050290Y185420D01*
X1141730D01*
X619676Y402724D02*
Y406659D01*
X619760Y341630D02*
Y402639D01*
X619676Y406659D02*
X619760Y406743D01*
X619676Y402724D02*
X619760Y402639D01*
X616168Y454660D02*
X694472Y532964D01*
D12*
X905510Y377190D02*
X928370D01*
X887730Y359410D02*
X905510Y377190D01*
X975360Y378460D02*
X998343Y401443D01*
X953756Y378460D02*
X975360D01*
X946335Y385881D02*
X953756Y378460D01*
X690880Y366038D02*
X710723Y385881D01*
X946335D01*
X887730Y342900D02*
Y359410D01*
X851667Y306837D02*
X887730Y342900D01*
X845201Y306837D02*
X851667D01*
X679450Y252730D02*
Y290830D01*
X984003Y371978D02*
X989215Y377190D01*
X1041400D01*
X1045902Y372688D01*
X1056127D01*
X939800Y372110D02*
X976630D01*
X986790Y382270D02*
X996628D01*
X976630Y372110D02*
X986790Y382270D01*
X996628D02*
X1006622Y392264D01*
X904240Y336550D02*
X939800Y372110D01*
X657860Y257810D02*
Y276860D01*
X575310Y359410D02*
X657860Y276860D01*
X862330Y350520D02*
X877189D01*
X783590Y269240D02*
X784179Y269829D01*
Y272369D02*
X862330Y350520D01*
X784179Y269829D02*
Y272369D01*
X533565Y506805D02*
X557767Y531007D01*
X533565Y403642D02*
Y506805D01*
X998220Y209550D02*
Y227146D01*
Y121920D02*
Y209550D01*
X960527Y310184D02*
X961102Y310760D01*
X955344Y310184D02*
X960527D01*
X949960Y388620D02*
X957251Y395911D01*
X984861D01*
X781114Y401964D02*
X991351D01*
X767113Y415965D02*
X781114Y401964D01*
X1000905Y401443D02*
X1001483Y402021D01*
X998343Y401443D02*
X1000905D01*
X1079500Y523240D02*
X1088446Y514294D01*
Y392164D02*
Y514294D01*
X949960Y229870D02*
Y267913D01*
X950016Y267969D01*
X949960Y229870D02*
X988060Y191770D01*
X979212Y261498D02*
X981710Y263996D01*
Y270002D01*
X979212Y260551D02*
Y261498D01*
X1025595Y269686D02*
X1093470Y337561D01*
Y448310D01*
X1024212Y263834D02*
X1031684D01*
X1019810Y268236D02*
Y273050D01*
Y268236D02*
X1024212Y263834D01*
X1019810Y273050D02*
X1083310Y336550D01*
X1017253Y263371D02*
Y263834D01*
X1029970Y250190D02*
Y250653D01*
X1017253Y263371D02*
X1029970Y250653D01*
X1038179Y271987D02*
Y273639D01*
X1037141Y270002D02*
Y270949D01*
X1038179Y271987D01*
Y273639D02*
X1083110Y318570D01*
X47752Y184404D02*
X100330Y236982D01*
Y274574D01*
X1034542Y537464D02*
X1048766Y523240D01*
X1079500D01*
X904240Y306070D02*
Y336550D01*
X1083110Y318570D02*
X1086919D01*
X1083310Y336550D02*
Y492760D01*
X1086919Y318570D02*
X1104900Y336550D01*
Y495300D01*
X1113790Y504190D01*
X988060Y118110D02*
Y191770D01*
Y118110D02*
X993576Y112594D01*
X948465Y131035D02*
Y138153D01*
X988060Y91440D02*
X1047750D01*
X948465Y131035D02*
X988060Y91440D01*
X889698Y241300D02*
X889938Y241540D01*
Y244778D01*
X955344Y310184D01*
X740410Y140970D02*
Y237401D01*
X725170Y125730D02*
X740410Y140970D01*
X746760Y196850D02*
Y254436D01*
X763270Y88900D02*
Y180340D01*
X746760Y196850D02*
X763270Y180340D01*
X742950Y68580D02*
X763270Y88900D01*
X734060Y148590D02*
Y327660D01*
X717550Y132080D02*
X734060Y148590D01*
X716280Y232410D02*
X727710Y220980D01*
X716280Y321310D02*
X727710Y332740D01*
X716280Y232410D02*
Y321310D01*
X727710Y156210D02*
Y220980D01*
X718139Y146639D02*
X727710Y156210D01*
X690880Y246380D02*
Y366038D01*
X721360Y175260D02*
Y215900D01*
X690880Y246380D02*
X721360Y215900D01*
X710219Y164119D02*
X721360Y175260D01*
X713160Y132080D02*
X717550D01*
X688629Y164119D02*
X710219D01*
X717543Y143517D02*
X718139Y144113D01*
Y146639D01*
X332740Y381000D02*
X371856Y420116D01*
X408940D01*
X332740Y171450D02*
Y381000D01*
X325120Y179070D02*
Y471170D01*
X255270Y39370D02*
Y109220D01*
X325120Y179070D01*
Y471170D02*
X344170Y490220D01*
X403860D01*
X452120Y435610D02*
X469900Y453390D01*
Y466090D01*
X561340Y359410D02*
X575310D01*
X522628Y386099D02*
X534651D01*
X561340Y359410D01*
X642620Y306070D02*
Y326390D01*
Y306070D02*
X662940Y285750D01*
X967140Y546770D02*
X1105971D01*
X1105971Y546770D01*
X1105990D01*
X1106537Y546223D01*
X1113790Y538970D01*
X966470Y546100D02*
X967140Y546770D01*
X1113790Y504190D02*
Y538970D01*
X947795Y138822D02*
X948465Y138153D01*
X913130Y306070D02*
X953770Y346710D01*
X978408D01*
X359410Y196850D02*
X509270D01*
X359357Y196797D02*
X359410Y196850D01*
X359357Y186743D02*
Y196797D01*
X389890Y59690D02*
Y174423D01*
Y59690D02*
X408940Y40640D01*
X375951Y188361D02*
X389890Y174423D01*
X359357Y186743D02*
X378460Y167640D01*
Y60960D02*
Y167640D01*
X376353Y187960D02*
X535940D01*
X562718Y214738D01*
X981710Y270002D02*
X986790Y275082D01*
X708660Y125730D02*
X725170D01*
X689610Y144780D02*
X708660Y125730D01*
X781630Y254436D02*
X817444D01*
X913130Y158750D01*
X906526Y185674D02*
X906780Y185420D01*
X906526Y185674D02*
Y250698D01*
X954278Y298450D01*
X262890Y101600D02*
X332740Y171450D01*
X293370Y388620D02*
Y406400D01*
X165100Y260350D02*
X293370Y388620D01*
X654050Y74930D02*
X673572Y94452D01*
X637540Y74930D02*
X654050D01*
X673572Y149062D02*
X688629Y164119D01*
X673572Y94452D02*
Y149062D01*
X689610Y144780D02*
Y149860D01*
X956056Y322580D02*
X972820D01*
X979170Y316230D01*
X895096Y261620D02*
X956056Y322580D01*
X1146374Y112594D02*
X1153160Y119380D01*
X993576Y112594D02*
X1146374D01*
X1045210Y264160D02*
X1050290D01*
X1005078Y145431D02*
Y177038D01*
X1050290Y264160D02*
X1056640Y257810D01*
X1005078Y177038D02*
X1056640Y228600D01*
Y257810D01*
X991870Y233496D02*
Y267970D01*
Y233496D02*
X998220Y227146D01*
X1038860Y243840D02*
X1050290Y255270D01*
X999490Y260405D02*
X1016055Y243840D01*
X1038860D01*
X1051015Y412682D02*
Y413243D01*
X1030028Y434229D02*
X1051015Y413243D01*
X1030028Y434229D02*
Y434790D01*
X786130Y261620D02*
X895096D01*
X954278Y298450D02*
X979170D01*
X986790Y275082D02*
Y338328D01*
X978408Y346710D02*
X986790Y338328D01*
X404495Y465455D02*
X405130Y464820D01*
X404495Y465455D02*
Y489585D01*
X403860Y490220D02*
X404495Y489585D01*
X62230Y120650D02*
X237743Y296163D01*
X62230Y91440D02*
Y120650D01*
X237743Y296163D02*
Y321852D01*
X1164001Y154351D02*
X1166541D01*
X1153010Y143360D02*
X1164001Y154351D01*
X1153010Y119530D02*
Y143360D01*
X1166541Y154351D02*
X1167130Y154940D01*
X1153010Y119530D02*
X1153160Y119380D01*
X358140Y40640D02*
X378460Y60960D01*
X562718Y214738D02*
X639826D01*
X509270Y196850D02*
X533400D01*
X509270Y196850D02*
X509270Y196850D01*
X509270Y196850D02*
Y290830D01*
X694472Y532964D02*
X694690D01*
X615950Y454660D02*
X616168D01*
D13*
X1109980Y486410D02*
X1149350Y447040D01*
X1198880D01*
X661670Y116840D02*
Y207010D01*
X608330Y260350D02*
X661670Y207010D01*
X375273Y372931D02*
X448759D01*
X561340Y260350D01*
X608330D01*
X680720Y440690D02*
Y472440D01*
X643890Y403860D02*
X680720Y440690D01*
X740410Y332740D02*
X762000Y311150D01*
Y226314D02*
X775970Y212344D01*
X762000Y226314D02*
Y311150D01*
X775970Y118110D02*
Y212344D01*
X999490Y322580D02*
X1033780D01*
X1070610Y359410D02*
Y445770D01*
X1033780Y322580D02*
X1070610Y359410D01*
X500228Y312049D02*
X500771Y311505D01*
D173*
X988314Y77470D02*
X1016000D01*
X947482Y154494D02*
X972374D01*
X977900Y160020D01*
Y180340D01*
X941324Y124460D02*
X988314Y77470D01*
X941324Y148336D02*
X947482Y154494D01*
X941324Y124460D02*
Y148336D01*
D176*
X26577Y347980D02*
X124875Y446278D01*
X26577Y398780D02*
Y509178D01*
X124875Y446278D02*
X147574D01*
X986028Y35560D02*
X1043940D01*
X769620Y251968D02*
X986028Y35560D01*
X542290Y69850D02*
X556006Y83566D01*
Y195238D01*
X219710Y514350D02*
X293370Y440690D01*
X199390Y514350D02*
X219710D01*
X147574Y446278D02*
X163538Y462242D01*
Y495554D01*
X769620Y251968D02*
Y335280D01*
X180340Y187960D02*
X275590Y283210D01*
Y345440D01*
X465938Y312049D02*
X500228D01*
X746760Y358140D02*
X769620Y335280D01*
X702310Y358140D02*
X746760D01*
D177*
X1032510Y185420D02*
X1057910Y210820D01*
X1141730D01*
D179*
X714016Y194195D02*
X715542Y195721D01*
X708775Y194195D02*
X714016D01*
X715542Y195721D02*
Y197056D01*
X714016Y190615D02*
X715639Y188992D01*
X707292Y190615D02*
X714016D01*
X715542Y197056D02*
X716183Y197697D01*
X715639Y187331D02*
Y188992D01*
X627858Y270049D02*
X707292Y190615D01*
X715639Y187331D02*
X716280Y186690D01*
X569438Y270049D02*
X627858D01*
X570921Y273629D02*
X629341D01*
X708775Y194195D01*
X409997Y429490D02*
X569438Y270049D01*
X352353Y461004D02*
X383866Y429490D01*
X409997D01*
X385349Y433070D02*
X411480D01*
X355933Y462487D02*
X385349Y433070D01*
X411480D02*
X570921Y273629D01*
X352353Y461004D02*
Y463853D01*
X351386Y464820D02*
X352353Y463853D01*
X336550Y464820D02*
X351386D01*
X355933Y462487D02*
Y463853D01*
X356899Y464820D01*
X371735D01*
D186*
X26577Y398780D02*
D03*
X408940Y40640D02*
D03*
X358140D02*
D03*
X255270Y39370D02*
D03*
D187*
X26670Y509270D02*
D03*
D188*
X26577Y347980D02*
D03*
X702310Y358140D02*
D03*
D190*
X1141730Y185420D02*
D03*
D191*
Y210820D02*
D03*
D192*
X928370Y377190D02*
D03*
X845201Y306837D02*
D03*
X679450Y290830D02*
D03*
Y252730D02*
D03*
X984003Y371978D02*
D03*
X657860Y257810D02*
D03*
X1056127Y372688D02*
D03*
X877189Y350520D02*
D03*
X783590Y269240D02*
D03*
X165100Y260350D02*
D03*
X533565Y403642D02*
D03*
X998220Y209550D02*
D03*
X716183Y197697D02*
D03*
X961102Y310760D02*
D03*
X984861Y395911D02*
D03*
X991351Y401964D02*
D03*
X1001483Y402021D02*
D03*
X1006622Y392264D02*
D03*
X1088446Y392164D02*
D03*
X950016Y267969D02*
D03*
X979212Y260551D02*
D03*
X1025595Y269686D02*
D03*
X1017253Y263834D02*
D03*
X1037141Y270002D02*
D03*
X1031684Y263834D02*
D03*
X662940Y285750D02*
D03*
X1043940Y35560D02*
D03*
X947795Y138822D02*
D03*
X904240Y306070D02*
D03*
X913130D02*
D03*
X359410Y196850D02*
D03*
X375951Y188361D02*
D03*
X522628Y386099D02*
D03*
X375273Y372931D02*
D03*
X767113Y415965D02*
D03*
X557767Y531007D02*
D03*
X1016000Y77470D02*
D03*
X740410Y237490D02*
D03*
X746760Y254436D02*
D03*
X717543Y143517D02*
D03*
X713160Y132080D02*
D03*
X727710Y332740D02*
D03*
X734060Y327660D02*
D03*
X740410Y332740D02*
D03*
X742950Y68580D02*
D03*
X913130Y158750D02*
D03*
X906780Y185420D02*
D03*
X262890Y101600D02*
D03*
X949960Y388620D02*
D03*
X293370Y406400D02*
D03*
X661670Y116840D02*
D03*
X637540Y74930D02*
D03*
X542290Y69850D02*
D03*
X775970Y118110D02*
D03*
X689610Y149860D02*
D03*
X1042670Y264160D02*
D03*
X991870Y267970D02*
D03*
X999490Y260405D02*
D03*
X1050290Y255270D02*
D03*
X1029970Y250190D02*
D03*
X1051015Y412682D02*
D03*
X1030028Y434790D02*
D03*
X999490Y322580D02*
D03*
X979170Y316230D02*
D03*
Y298450D02*
D03*
X1109980Y486410D02*
D03*
X1070610Y445770D02*
D03*
X1093470Y448310D02*
D03*
X1083310Y492760D02*
D03*
X1198880Y447040D02*
D03*
X977900Y180340D02*
D03*
X1032510Y185420D02*
D03*
X889698Y241300D02*
D03*
X966470Y546100D02*
D03*
X293370Y440690D02*
D03*
X405130Y464820D02*
D03*
X403860Y490220D02*
D03*
X180340Y187960D02*
D03*
X500771Y311505D02*
D03*
X465938Y312049D02*
D03*
X275590Y345440D02*
D03*
X237743Y321852D02*
D03*
X469900Y466090D02*
D03*
X1153160Y119380D02*
D03*
X1167130Y154940D02*
D03*
X694690Y511810D02*
D03*
X199390Y514350D02*
D03*
X781630Y254436D02*
D03*
X786130Y261620D02*
D03*
X998220Y121920D02*
D03*
X509270Y290830D02*
D03*
X533400Y196850D02*
D03*
X619760Y341630D02*
D03*
X694690Y532964D02*
D03*
X615950Y454660D02*
D03*
X680720Y472440D02*
D03*
X643890Y403860D02*
D03*
X1047750Y91440D02*
D03*
X642620Y326390D02*
D03*
X1031240Y172720D02*
D03*
X556006Y195238D02*
D03*
X62230Y91440D02*
D03*
X371735Y464820D02*
D03*
X336550D02*
D03*
X716280Y186690D02*
D03*
X452120Y435610D02*
D03*
X163538Y495554D02*
D03*
X408940Y420116D02*
D03*
X1005078Y145431D02*
D03*
X1034542Y537464D02*
D03*
X47752Y184404D02*
D03*
X100330Y274574D02*
D03*
X639826Y214738D02*
D03*
X147574Y446278D02*
D03*
M02*
