M48
;Layer_Color=9474304
;FILE_FORMAT=4:4
METRIC,LZ
;TYPE=PLATED
T1F00S00C0.2000
T2F00S00C0.2500
T3F00S00C0.6500
T4F00S00C1.1000
T5F00S00C1.3000
%
T01
X00663494Y00031572
X00670034
X00678118Y00045794
X00675269Y00051681
X00675072Y00071155
X00679591Y00079764
X00686122Y00079422
X00692652Y00079788
X00676215Y00085366
X00658304Y00089965
X00652491Y00092961
X00647046Y00096584
X00642352Y00101138
X00638567Y00106471
X00635817Y00112405
X0063426Y00118757
X006339Y00125287
X00633587Y00131819
X00645632Y00134565
X0064626Y00128055
X00646404Y00121517
X00648007Y00115176
X00651363Y00109563
X00656188Y00105148
X00662707Y00104616
X00669246Y00104728
X00659091Y00072884
X0066184Y00066949
X00658177Y00048451
X00657922Y00041916
X00643289Y00140671
X00639518Y00146014
X00635195Y00150922
X01137885Y00320784
X01143897Y00323359
X01149067Y00327365
X01153071Y00332536
X01155645Y00338548
X01156702Y00345002
X01156746Y00351541
Y00358082
Y00364621
Y00371161
X01160496Y0037652
X01144494Y00373609
Y00380149
X01144952Y00386673
X01145607Y0039318
X01144782Y00399668
Y00406208
X0114645Y00412531
X01152843Y00413908
X01159631Y0041352
X01162211Y00394731
X01130418Y00395066
Y00401606
Y00408146
Y00414686
Y00421226
Y00427766
Y00434305
X0112445Y0043698
X01119718Y00441494
X0111822Y00447861
X0113058Y00448177
X01130949Y00454707
X01136663Y00445774
X01141068Y0044094
X01142773Y00434626
X01142778Y00421546
X01144494Y00367069
Y00360529
Y00353989
Y00347449
X01143606Y00340969
X01139936Y00335556
X01134189Y00332436
X01136255Y003518
X01153567Y00476125
X01160104Y0047634
X01166639Y00476592
X01172938Y00478352
X01178413Y00481929
X01182659Y00486903
X01185216Y00492923
X0118601Y00499414
Y00505954
X01188536Y00511987
X01189928Y00518377
X01182661Y00531038
X01176121
X01169732Y00521598
X01169808Y00515058
X0117365Y00509766
Y00503226
X01173475Y00496688
X01170127Y0049107
X01164025Y00488717
X01157485Y00488701
X01151082Y00490035
X01144544Y00489897
T02
X00038842Y00113858
X0006223Y0009144
X00099932Y00071796
X00118145Y00141036
X0004826Y0016764
X0005334Y0017526
X00047752Y00184404
X00014992Y00175714
X0018034Y0018796
X0031242
X00375951Y00188361
X0044831Y0011557
X0048387Y0014732
X0051382Y00159294
X00513598Y00018903
X0026289Y001016
X0054229Y0006985
X0059817Y0006223
X00608612Y00084886
X0060071Y0011557
X00608608Y00136289
X006087Y00159238
X0068072Y0014351
X0068961Y0014986
X00717543Y00143517
X0071755Y0015748
X0071316Y0013208
X0071628Y0018669
X00752777Y00176922
X0074803Y0016764
X00803656Y0015748
X00832636Y00177304
X0085217Y0015113
X0091313Y0015875
X0090678Y0018542
X00850782Y00052766
X00837616Y0003649
X00757275Y0003649
X0074422Y0005207
X0074295Y0006858
X00804375Y00083674
X0077597Y0011811
X0066167Y0011684
X0063754Y0007493
X0065151Y0002286
X0068199
X00608439Y00029925
X0092964Y0001143
X00942703Y00090776
X0095758Y0009017
X00994338Y0010287
X0099822Y0012192
X01023462Y00123719
X01005078Y00145431
X0103124Y0017272
X0103251Y0018542
X0101092Y0019431
X009779Y0018034
X00947795Y00138822
X0106045Y0013843
X01098564Y00146904
X01071643Y00179946
X0104775Y0009144
X01016Y0007747
X0104394Y0003556
X0104267Y0001143
X0106426Y0002032
X010922Y0001143
X0106553Y0005588
X01105111Y00089593
X0115316Y0011938
X01157613Y00132439
X0116713Y0015494
X0119634Y0010033
X0116586Y0005588
X01150428Y00049846
X0117856Y0001143
X01127956Y00270428
X01106162Y00269343
X0109855Y0026924
X01086372Y00269325
X01075642Y00269046
X01080837Y00261687
X0111252Y0026162
X0110871Y0028829
X0109982Y0029845
X01099404Y00306924
X01099368Y0031496
Y00323032
X01109346Y00323057
X01109281Y00307162
X0111757Y0030096
X01119409Y00330876
X01119409Y00345654
X01119551Y00360942
X0109913Y0036296
Y00355518
Y00339193
X0107696Y0033896
X0107881Y00346735
Y00355252
X01078476Y00363059
X0105916Y00362458
X01059055Y00355097
X0105918Y0033909
Y0032258
X01078952Y00306939
X01063182Y0028818
X01039277Y00306822
X01020778Y00309646
X01017986Y00298951
X01021179Y00287138
X01013714Y00287782
X01009187Y0030696
X0099949Y0030734
X00999385Y00298794
X0097917Y0029845
Y00291084
Y0031623
X0096107Y0031808
X00961102Y0031076
X00961146Y00303205
X00962775Y00268042
X00950016Y00267969
X0095631Y0025146
X00936836Y00251349
X00979212Y00260551
X0099187Y0026797
X0099949
Y00260405
X0100769Y0026797
X01017253Y00263834
X01025595Y00269686
X01037141Y00270002
X0104267Y0026416
X01031684Y00263834
X0102997Y0025019
X0103632Y0023749
X0105029Y0025527
X01001397Y00239678
X0098933Y0022225
X0099822Y0020955
X0099949Y0032258
X00999316Y0034036
X00999204Y00346931
X00999097Y00353837
X00989452Y00354901
X00961763Y00355935
X0096139Y0034036
X0094996Y00330962
X0093726Y003429
Y0035687
X0094996Y0038862
X0095758Y0038354
X00984861Y00395911
X00991351Y00401964
X01001483Y00402021
X00997033Y00391947
X01006622Y00392264
X01016814Y00392098
X0103675Y00391833
X01051298Y0039219
X01051095Y00401985
X01051015Y00412682
X01061578Y00392164
X01088446
X01098488Y00392054
X01117302
X01176183Y00404427
X01195681Y00426532
X0119888Y0044704
X01189376Y0047842
X0115951Y0045466
X01136031Y00487954
X0110998Y0048641
X0108331Y0049276
X0109347Y0044831
X0107061Y0044577
X01030028Y0043479
X01003234Y00438626
X00975501Y00468283
X01022858Y00478282
X0101473Y0050292
X01034542Y00537464
X0096647Y005461
X0116459Y0053213
X0119458Y0053213
X01167754Y00347416
X01039334Y00346934
X01039575Y0033945
X01039092Y00355005
Y00362683
X01055116Y00370894
X0102362Y0037211
X01009323Y00339487
X0091313Y0030607
X0090424
X00858955Y00305022
X00877189Y0035052
X00860609Y00397407
X00845323Y00392356
X00824709Y00392799
X00826143Y00381381
X00840304Y0042418
X00869846Y00424177
X0086573Y00434086
X0087453Y00452754
X00897636Y00484632
X00908812Y00486664
X0091948Y0042418
X0090805Y00384628
X0079731Y00410772
X0081153Y0042672
X00767113Y00415965
X00734527Y0044854
X00733532Y00483
X0073406Y0053086
X0069469Y00532964
Y0054229
Y0051181
X0068072Y0047244
X00669011Y00482834
X00635145Y00483787
X00635706Y00528213
X00568516Y0053199
X00557767Y00531007
X0061595Y0045466
X0063754Y0043619
X0064389Y0040386
X00624426Y00404691
X00600292Y00392901
X00610535Y00373543
X0057612Y00374157
X00570958Y0036867
X0054737Y00402082
X0061976Y0034163
Y0032512
X0064262Y0032639
Y0027432
X00638461Y00246733
X00639826Y00214738
X0064389Y0020193
X0067437Y0024511
X0066802Y0025654
X0066294Y0028575
X0067818Y003429
X0066467Y00366711
X0074549Y0036576
X0074041Y0033274
X0073406Y0032766
X0072771Y0033274
X0072517Y0026797
X0074676Y00254436
X0075565Y002413
X0074041Y0023749
X0075184Y00222068
X00716183Y00197697
X0078163Y00254436
X0078613Y0026162
X0078359Y0026924
X00889698Y002413
X00851985Y00504837
X00820317Y00504621
X00597042Y00255093
X0057785Y0025146
X00571491Y00241588
X0056007Y00241682
X00557158Y00221929
X00556006Y00195238
X0058547Y0023368
X0052832Y0025146
X0051689
X0050038Y00245443
X0050927Y0029083
X00500771Y00311505
X00465938Y00312049
X0047371Y0027432
X00439936Y00354007
X0044577Y0041021
X0043249Y00420806
X0040894Y00420116
X0040513Y0046482
X0042349Y00459668
X0041526Y00484421
X0040386Y0049022
X00391249Y00483905
X00371735Y0046482
X0033655
X003175Y0045466
X0029337Y0044069
Y004064
X0030226Y0039878
X00338927Y00373188
X00375273Y00372931
X00340431Y00437435
X0034671Y0048514
X0030607
X00314019Y00495428
X0026035Y0048768
X0025019Y0050546
X00255258Y0051304
X00244891Y00513375
X0025019Y0052197
X0025273Y0054483
X0018858Y00538017
X0019939Y0051435
X00201123Y00485715
X00226476Y00486873
X00231824Y00465182
X00163538Y00495554
X00149793Y00484846
X00147574Y00446278
X00246957Y00361317
X0027559Y0034544
X00237743Y00321852
X0023241Y0027686
X001651Y0026035
X0018669Y0022479
X0035941Y0019685
X00384634Y00203635
X005334Y0019685
X00537254Y00374734
X00514604Y00376597
X00522628Y00386099
X0051689Y0039243
X00533565Y00403642
X0045212Y0043561
X00457015Y00454062
X004699Y0046609
X00458008Y00485891
X00125635Y00484556
X00114691Y00507395
X0010668Y0053848
X00129841Y00543625
X0010287Y0039243
X0008001Y0038735
X0007239Y0040386
X0004699Y0040894
X0001651Y0042164
X00015097Y00264368
X00069956Y00266757
X00083613Y00266217
X0010033Y00274574
X00136584Y00257229
X0013843Y0024257
X0004572Y0021336
X00127Y0036703
T03
X0037694Y0051181
X0039294
X0040894
X0040094Y0052981
X0038494
T04
X0020447Y0003937
X0022987
X0025527
X0028067
X0033274Y0004064
X0035814
X0038354
X0040894
X0043434
X0045974
X01076103Y0051054
X01101503
X01126902
Y0053594
X01101503
X01076103
X0070231Y0035814
Y0033274
Y0030734
X00026577Y0034798
Y0037338
Y0039878
X0002667Y0050927
X0005207
T05
X0114173Y0018542
X0117729
Y0021082
X0114173
M30
