M48
;Layer_Color=9474304
;FILE_FORMAT=4:4
METRIC,LZ
;TYPE=PLATED
T1F00S00C0.2000
T2F00S00C0.2500
T3F00S00C0.6500
T4F00S00C1.1000
T5F00S00C1.3000
%
T01
X00667954Y00031531
X00657881Y00046949
X00678159Y0004682
X00674241Y00068342
X00661799Y00068471
X00657026Y00088909
X00649554Y00089923
X00642634Y00092917
X00636938Y00097858
X00632823Y00104176
X00630775Y00111432
X00630476Y00118966
Y00126506
X00629325Y00133958
X00642384Y00133546
X00642918Y00126025
Y00118485
X00643548Y00110971
X00647666Y00104655
X00654524Y00101522
X00661487Y00104414
X00669019Y00104769
X00677478Y00081188
X00684798Y00079381
X00692332Y00079684
X0063982Y00140637
X00635342Y00146703
X00629248Y00151143
X01137838Y00352798
X01130377Y00397643
Y00405183
Y00412723
Y00420263
Y00427803
X01129962Y00435332
X01122884Y00437931
X01118599Y00444135
X01118179Y00451663
X01130621Y00452675
X01135193Y00446679
X01140751Y00441584
X0114287Y00434347
X01142819Y00419268
X01157043Y00476299
X01164583Y00476357
X01171964Y00477897
X01178384Y00481852
X01183135Y00487707
X01185711Y00494793
X01186051Y00502325
Y00509865
X01189969Y00516307
X01169691Y00516511
X01173609Y00510069
Y00502529
X01172931Y00495019
X01167712Y00489578
X01160219Y00488741
X0115272Y0048953
X01145199Y00490068
X01180691Y00531079
T02
X00038842Y00113858
X0006223Y0009144
X00099932Y00071796
X00118145Y00141036
X0004826Y0016764
X0005334Y0017526
X00047752Y00184404
X00014992Y00175714
X0018034Y0018796
X0031242
X00375951Y00188361
X00496697Y0016891
X0051382Y00159294
X0044831Y0011557
X00513598Y00018903
X0026289Y001016
X0054229Y0006985
X0059817Y0006223
X00608612Y00084886
X0060071Y0011557
X00608608Y00136289
X006087Y00159238
X0068072Y0014351
X0068961Y0014986
X00717543Y00143517
X0071755Y0015748
X0071316Y0013208
X0071628Y0018669
X00752777Y00176922
X0074803Y0016764
X00803656Y0015748
X00832636Y00177304
X0085217Y0015113
X0091313Y0015875
X0090678Y0018542
X00916903Y00012035
X00837616Y0003649
X00850782Y00052766
X00804375Y00083674
X0077597Y0011811
X0074295Y0006858
X00745044Y00052523
X00757275Y0003649
X0068199Y0002286
X0065151
X00608439Y00029925
X0063754Y0007493
X0066167Y0011684
X00942703Y00090776
X0095758Y0009017
X00994338Y0010287
X0099822Y0012192
X01022508Y00125809
X01005078Y00145431
X0103124Y0017272
X0103251Y0018542
X0101092Y0019431
X009779Y0018034
X00947795Y00138822
X0106045Y0013843
X01098564Y00146904
X01071643Y00179946
X0104775Y0009144
X01016Y0007747
X0104394Y0003556
X0106426Y0002032
X01079928Y00011895
X01029141Y00011614
X0106553Y0005588
X01105111Y00089593
X0115316Y0011938
X01157613Y00132439
X0116713Y0015494
X0119634Y0010033
X0116586Y0005588
X01150428Y00049846
X0119126Y0001143
X01127956Y00270428
X01115054Y00269288
X01106945Y00269385
X0109855Y0026924
X01086372Y00269325
X01075642Y00269046
X01080837Y00261687
X0105029Y0025527
X0104267Y0026416
X0103378
X0103759Y0027051
X0102616
X0101727Y0026543
X0100769Y0026797
X0099949
Y00260405
X0099187Y0026797
X0097917Y0026035
X00965287Y00272632
X0094996Y0027178
X0093726Y0025654
X00959286Y00239118
X01001397Y00239678
X0098933Y0022225
X0103632Y0023749
X0102997Y0025019
X01021179Y00287138
X01013714Y00287782
X01017986Y00298951
X01020778Y00309646
X01009187Y0030696
X0099949Y0030734
X00999385Y00298794
X0097917Y0029845
Y00291084
Y0031623
X00960901Y00318246
X00961291Y00310854
X0096139Y0030353
Y0034036
X00961763Y00355935
X0093726Y0035687
Y003429
X0094996Y00330962
Y0038862
X0095758Y0038354
X0098552Y0039624
X0099187Y0040259
X0099949
X00997033Y00391947
X01006505Y00391812
X01016585Y00391473
X01036881Y00393503
X01051298Y0039219
X0106179Y00391881
X0104775Y0040132
X01051015Y00412682
X01030028Y0043479
X01003234Y00438626
X00975501Y00468283
X01022858Y00478282
X0101473Y0050292
X01034542Y00537464
X0096647Y005461
X0108331Y0049276
X0110998Y0048641
X01136031Y00487954
X0115951Y0045466
X01159647Y00413558
X01151675Y00413949
X01145048Y00410352
X01144741Y00402818
X01146156Y00395412
X01144911Y00387975
X01144453Y00380449
Y00372909
Y00365369
Y00357829
Y00350289
X01144106Y00342757
X01140518Y00336126
X01153949Y00334092
X01156388Y00341227
X01156787Y00348756
Y00356296
Y00363836
Y00371376
X01167754Y00347416
X01149671Y00327883
X01143739Y00323229
X01136751Y00320397
X01119409Y00330876
X01119409Y00345654
X01119551Y00360942
X0109913Y0036296
Y00355518
Y00339193
X01099368Y00323032
Y0031496
X01099404Y00306924
X0109982Y0029845
X01109281Y00307162
X0111757Y0030096
X0110871Y0028829
X01109346Y00323057
X01078952Y00306939
X0107696Y0033896
X0107881Y00346735
Y00355252
X01078476Y00363059
X0105916Y00362458
X01059055Y00355097
X0105918Y0033909
Y0032258
X01039277Y00306822
X01039575Y0033945
X01039334Y00346934
X01039092Y00355005
Y00362683
X01055116Y00370894
X0102362Y0037211
X00999097Y00353837
X00999204Y00346931
X00999316Y0034036
X01009323Y00339487
X0099949Y0032258
X00989452Y00354901
X01088485Y00391536
X01098601Y00391618
X01117141Y00391206
X01176183Y00404427
X01195681Y00426532
X0119888Y0044704
X01189376Y0047842
X0119458Y0053213
X0116459Y0053213
X0109347Y0044831
X0107061Y0044577
X01063182Y0028818
X0091313Y0030607
X0090424
X00858955Y00305022
X00877189Y0035052
X0090805Y00381381
X0091948Y0042418
X00869846Y00424177
X0086573Y00434086
X0087453Y00452754
X00897636Y00484632
X00908812Y00486664
X00851985Y00504837
X00820317Y00504621
X0081153Y0042672
X0079731Y00410772
X00767113Y00415965
X00734527Y0044854
X00733532Y00483
X0073406Y0053086
X0069469Y00532964
Y0054229
Y0051181
X0068072Y0047244
X00669011Y00482834
X00635145Y00483787
X00635706Y00528213
X00568516Y0053199
X00557767Y00531007
X0061595Y0045466
X0063754Y0043619
X0064389Y0040386
X00624426Y00404691
X00600292Y00392901
X00610535Y00373543
X0057612Y00374157
X00570958Y0036867
X0054737Y00402082
X0061976Y0034163
Y0032512
X0064262Y0032639
X0067818Y003429
X0066467Y00366711
X00662891Y00287577
X0064897Y0027432
X0066802Y0025908
X0067437Y0024511
X00638461Y00246733
X00639826Y00214738
X0064389Y0020193
X0071501Y0019812
X0075184Y00222068
X0075565Y002413
X0074041Y0023749
X0074676Y00254436
X0078163
X0078613Y0026162
X0078359Y0026924
X0072517Y0026797
X0072771Y0033274
X0073406Y0032766
X0074041Y0033274
X0074549Y0036576
X00826143Y00381381
X00824709Y00392799
X00845323Y00392356
X00860339Y0039809
X00840304Y0042418
X00889698Y002413
X00597042Y00255093
X0057785Y0025146
X00571491Y00241588
X0056007Y00241682
X00557158Y00221929
X00556006Y00195238
X0058547Y0023368
X0052832Y0025146
X0051689
X0050038Y00245443
X0050927Y0029083
X00500771Y00311505
X00465938Y00312049
X0047371Y0027432
X00439936Y00354007
X0044577Y0041021
X0043249Y00420806
X0040894Y00420116
X0040513Y0046482
X0042349Y00459668
X0041526Y00484421
X0040386Y0049022
X00391249Y00483905
X00371735Y0046482
X0033655
X003175Y0045466
X0029337Y0044069
Y004064
X0030226Y0039878
X00338927Y00373188
X00375273Y00372931
X00340431Y00437435
X0034671Y0048514
X0030607
X00314019Y00495428
X0026035Y0048768
X0025019Y0050546
X00255258Y0051304
X00244891Y00513375
X0025019Y0052197
X0025273Y0054483
X0018858Y00538017
X0019939Y0051435
X00201123Y00485715
X00226476Y00486873
X00231824Y00465182
X00163538Y00495554
X00149793Y00484846
X00147574Y00446278
X00246957Y00361317
X0027559Y0034544
X00237743Y00321852
X0023241Y0027686
X001651Y0026035
X0019177Y0022479
X0035941Y0019685
X00384634Y00203635
X005334Y0019685
X00537254Y00374734
X00514604Y00376597
X00522628Y00386099
X0051689Y0039243
X0053467Y0040386
X0045212Y0043561
X00457015Y00454062
X004699Y0046609
X00458008Y00485891
X00125635Y00484556
X00114691Y00507395
X0010668Y0053848
X00129841Y00543625
X0010287Y0039243
X0008001Y0038735
X0007239Y0040386
X0004699Y0040894
X0001651Y0042164
X00015097Y00264368
X00069956Y00266757
X00083613Y00266217
X0010033Y00274574
X00136584Y00257229
X0013843Y0024257
X0004572Y0021336
X00127Y0036703
T03
X0037694Y0051181
X0039294
X0040894
X0040094Y0052981
X0038494
T04
X0020447Y0003937
X0022987
X0025527
X0028067
X0033274Y0004064
X0035814
X0038354
X0040894
X0043434
X0045974
X01076103Y0051054
X01101503
X01126902
Y0053594
X01101503
X01076103
X0070231Y0035814
Y0033274
Y0030734
X00026577Y0034798
Y0037338
Y0039878
X0002667Y0050927
X0005207
T05
X0114173Y0018542
X0117729
Y0021082
X0114173
M30
