G04*
G04 #@! TF.GenerationSoftware,Altium Limited,Altium Designer,21.6.4 (81)*
G04*
G04 Layer_Color=8421504*
%FSLAX44Y44*%
%MOMM*%
G71*
G04*
G04 #@! TF.SameCoordinates,FF1FAEB7-4318-4351-9C75-77568BB5708F*
G04*
G04*
G04 #@! TF.FilePolarity,Positive*
G04*
G01*
G75*
%ADD16R,0.9000X0.9500*%
%ADD17C,0.2500*%
%ADD18R,0.3000X0.5400*%
%ADD19R,1.0500X0.6000*%
%ADD20R,0.5400X0.3000*%
%ADD21R,1.4750X0.4500*%
%ADD22R,0.5000X0.8000*%
%ADD23R,0.9500X0.9000*%
%ADD24R,1.7810X0.8000*%
%ADD25R,1.7810X0.8000*%
%ADD26R,0.7500X1.6000*%
%ADD27R,0.7400X2.7950*%
%ADD28R,0.7800X0.9900*%
%ADD29R,0.9900X0.7800*%
%ADD30R,1.5500X0.7450*%
%ADD31R,1.5500X0.6700*%
%ADD32R,0.4250X0.5150*%
%ADD33R,0.4250X0.2750*%
%ADD34R,0.9000X0.7000*%
%ADD35R,0.7000X0.7000*%
%ADD36R,1.2000X0.6500*%
%ADD37R,0.4500X2.9000*%
%ADD38R,0.4500X1.9000*%
%ADD39R,0.7500X0.7000*%
%ADD40R,1.4000X0.5000*%
%ADD41R,0.4500X2.4000*%
%ADD42R,0.6000X0.6000*%
%ADD43R,0.8000X0.8000*%
%ADD44R,0.3000X0.3000*%
%ADD45R,0.5400X0.5400*%
%ADD46R,0.6000X1.0500*%
%ADD47R,3.0000X3.0300*%
%ADD48R,0.7000X2.0000*%
%ADD49R,2.0000X0.7000*%
%ADD50R,1.5000X0.7000*%
%ADD51R,0.7000X1.5000*%
%ADD52R,0.2540X0.2540*%
%ADD53R,1.0000X1.0500*%
%ADD54R,1.0500X2.2000*%
%ADD55R,1.5500X1.3500*%
%ADD56R,1.2000X1.0000*%
%ADD57R,1.9000X1.3500*%
%ADD58R,1.1700X1.8000*%
%ADD59R,0.7500X1.1000*%
%ADD60R,0.8500X1.1000*%
%ADD61R,1.5500X1.3000*%
%ADD62R,0.8000X0.3000*%
%ADD63R,3.0500X2.2000*%
%ADD64R,1.5250X0.6500*%
%ADD65R,0.2500X0.6000*%
%ADD66R,1.6500X2.4000*%
%ADD67R,0.6000X0.2400*%
%ADD68R,3.2000X3.1000*%
%ADD69R,3.2000X2.7300*%
%ADD70R,7.5000X1.8000*%
%ADD71R,1.2000X2.4000*%
%ADD72R,2.5000X1.6500*%
%ADD73R,1.7000X2.1000*%
%ADD74R,2.5000X2.9000*%
%ADD75R,1.4000X1.2500*%
%ADD76R,1.9500X1.1000*%
%ADD77R,2.0000X1.1000*%
%ADD78R,2.4000X2.0000*%
%ADD79R,1.0000X0.6750*%
%ADD80R,1.8500X3.5000*%
%ADD81R,1.4000X0.9000*%
%ADD82R,0.4500X1.4250*%
%ADD83R,0.4200X0.5600*%
%ADD84R,3.0500X1.1400*%
%ADD85R,0.4700X0.3000*%
%ADD86R,0.3500X0.8500*%
%ADD87R,0.8000X2.4000*%
%ADD88R,1.8000X3.3000*%
%ADD89R,0.6000X1.2000*%
%ADD90R,1.4500X0.9500*%
D16*
X666870Y238760D02*
D03*
X681870D02*
D03*
X660640Y217375D02*
D03*
X60840Y266700D02*
D03*
X45840D02*
D03*
X1154550Y386080D02*
D03*
X1169550D02*
D03*
X427870Y474980D02*
D03*
X412870D02*
D03*
X175020Y345440D02*
D03*
X160020D02*
D03*
X160140Y363483D02*
D03*
X175140D02*
D03*
Y381525D02*
D03*
X160140D02*
D03*
X669170Y128270D02*
D03*
X654170D02*
D03*
X501770Y235033D02*
D03*
X516770D02*
D03*
X45720Y124460D02*
D03*
X30720D02*
D03*
X600710Y370840D02*
D03*
X585710D02*
D03*
X243633Y474787D02*
D03*
X228633D02*
D03*
X260675D02*
D03*
X275675D02*
D03*
X149860Y475443D02*
D03*
X164860D02*
D03*
X125610Y474992D02*
D03*
X110610D02*
D03*
X176290Y533863D02*
D03*
X161290D02*
D03*
X17900Y463550D02*
D03*
X32900D02*
D03*
X962660Y166370D02*
D03*
X977660D02*
D03*
X371990Y474980D02*
D03*
X356990D02*
D03*
X321512D02*
D03*
X336512D02*
D03*
X1017150Y162297D02*
D03*
X1002150D02*
D03*
X1017030Y180340D02*
D03*
X1002030D02*
D03*
X1018420Y102870D02*
D03*
X1003420D02*
D03*
X671950Y161290D02*
D03*
X686950D02*
D03*
X675640Y217375D02*
D03*
D17*
X669153Y347820D02*
D03*
Y342820D02*
D03*
Y337820D02*
D03*
Y332820D02*
D03*
X664802Y345320D02*
D03*
Y335320D02*
D03*
X660452Y347820D02*
D03*
Y342820D02*
D03*
Y337820D02*
D03*
Y332820D02*
D03*
D18*
X1051869Y382160D02*
D03*
X976869D02*
D03*
X981869D02*
D03*
X986869D02*
D03*
X991869D02*
D03*
X996869D02*
D03*
X1001869D02*
D03*
X1006869D02*
D03*
X1011869D02*
D03*
X1016869D02*
D03*
X1021869D02*
D03*
X1026869D02*
D03*
X1031869D02*
D03*
X1036869D02*
D03*
X1041869D02*
D03*
X1046869D02*
D03*
X1056869D02*
D03*
X1061869D02*
D03*
X1066869D02*
D03*
X1071869D02*
D03*
X1076869D02*
D03*
X1081869D02*
D03*
X1086869D02*
D03*
X1091869D02*
D03*
X1096869D02*
D03*
X1101869D02*
D03*
X1106869D02*
D03*
X1111869D02*
D03*
X1116869D02*
D03*
X1121869D02*
D03*
Y279760D02*
D03*
X1116869D02*
D03*
X1111869D02*
D03*
X1106869D02*
D03*
X1101869D02*
D03*
X1096869D02*
D03*
X1091869D02*
D03*
X1086869D02*
D03*
X1081869D02*
D03*
X1076869D02*
D03*
X1071869D02*
D03*
X1066869D02*
D03*
X1061869D02*
D03*
X1056869D02*
D03*
X1051869D02*
D03*
X1046869D02*
D03*
X1041869D02*
D03*
X1036869D02*
D03*
X1031869D02*
D03*
X1026869D02*
D03*
X1021869D02*
D03*
X1016869D02*
D03*
X1011869D02*
D03*
X1006869D02*
D03*
X1001869D02*
D03*
X996869D02*
D03*
X991869D02*
D03*
X986869D02*
D03*
X981869D02*
D03*
X976869D02*
D03*
D19*
X659560Y198833D02*
D03*
Y179832D02*
D03*
X681560Y189333D02*
D03*
D20*
X970668Y375960D02*
D03*
X1128068D02*
D03*
Y370960D02*
D03*
Y365960D02*
D03*
Y360960D02*
D03*
Y355960D02*
D03*
Y350960D02*
D03*
Y345960D02*
D03*
Y340960D02*
D03*
Y335960D02*
D03*
Y330960D02*
D03*
Y325960D02*
D03*
Y320960D02*
D03*
Y315960D02*
D03*
Y310960D02*
D03*
Y305960D02*
D03*
Y300960D02*
D03*
Y295960D02*
D03*
Y290960D02*
D03*
Y285960D02*
D03*
X970668D02*
D03*
Y290960D02*
D03*
Y295960D02*
D03*
Y300960D02*
D03*
Y305960D02*
D03*
Y310960D02*
D03*
Y315960D02*
D03*
Y320960D02*
D03*
Y325960D02*
D03*
Y330960D02*
D03*
Y335960D02*
D03*
Y340960D02*
D03*
Y345960D02*
D03*
Y350960D02*
D03*
Y355960D02*
D03*
Y360960D02*
D03*
Y365960D02*
D03*
Y370960D02*
D03*
D21*
X768520Y228710D02*
D03*
Y267710D02*
D03*
X709760Y274210D02*
D03*
X500108Y414025D02*
D03*
Y407525D02*
D03*
Y401025D02*
D03*
Y394525D02*
D03*
Y388025D02*
D03*
Y381525D02*
D03*
Y375025D02*
D03*
Y368525D02*
D03*
X558868D02*
D03*
Y375025D02*
D03*
Y381525D02*
D03*
Y388025D02*
D03*
Y394525D02*
D03*
Y401025D02*
D03*
Y407525D02*
D03*
Y414025D02*
D03*
X709760Y228710D02*
D03*
Y235210D02*
D03*
Y241710D02*
D03*
Y248210D02*
D03*
Y254710D02*
D03*
Y261210D02*
D03*
Y267710D02*
D03*
X768520Y274210D02*
D03*
Y261210D02*
D03*
Y254710D02*
D03*
Y248210D02*
D03*
Y241710D02*
D03*
Y235210D02*
D03*
X628820Y188737D02*
D03*
Y195238D02*
D03*
Y201737D02*
D03*
Y208237D02*
D03*
Y214738D02*
D03*
Y221238D02*
D03*
Y227737D02*
D03*
Y234237D02*
D03*
X570060D02*
D03*
Y227737D02*
D03*
Y221238D02*
D03*
Y214738D02*
D03*
Y208237D02*
D03*
Y201737D02*
D03*
Y195238D02*
D03*
Y188737D02*
D03*
X886630Y407780D02*
D03*
Y414280D02*
D03*
Y420780D02*
D03*
Y427280D02*
D03*
Y433780D02*
D03*
Y440280D02*
D03*
Y446780D02*
D03*
Y453280D02*
D03*
X827870D02*
D03*
Y446780D02*
D03*
Y440280D02*
D03*
Y433780D02*
D03*
Y427280D02*
D03*
Y420780D02*
D03*
Y414280D02*
D03*
Y407780D02*
D03*
X1111080Y145940D02*
D03*
Y139440D02*
D03*
Y132940D02*
D03*
Y126440D02*
D03*
Y119940D02*
D03*
Y113440D02*
D03*
Y106940D02*
D03*
Y100440D02*
D03*
X1169840D02*
D03*
Y106940D02*
D03*
Y113440D02*
D03*
Y119940D02*
D03*
Y126440D02*
D03*
Y132940D02*
D03*
Y139440D02*
D03*
Y145940D02*
D03*
X126830Y514538D02*
D03*
Y508038D02*
D03*
Y501538D02*
D03*
Y495038D02*
D03*
X185590D02*
D03*
Y501538D02*
D03*
Y508038D02*
D03*
Y514538D02*
D03*
D22*
X414490Y431165D02*
D03*
X423490D02*
D03*
X432490D02*
D03*
X441490D02*
D03*
Y443165D02*
D03*
X432490D02*
D03*
X423490D02*
D03*
X414490D02*
D03*
D23*
X648970Y76302D02*
D03*
Y61302D02*
D03*
X1183705Y441840D02*
D03*
Y426840D02*
D03*
X686063Y104020D02*
D03*
Y89020D02*
D03*
X1201420Y369570D02*
D03*
Y354570D02*
D03*
X654050Y161170D02*
D03*
Y146170D02*
D03*
X1060450Y426600D02*
D03*
Y411600D02*
D03*
X1041400Y411720D02*
D03*
Y426720D02*
D03*
X970813Y426480D02*
D03*
Y411480D02*
D03*
X1068403Y463790D02*
D03*
Y478790D02*
D03*
X1086445Y478910D02*
D03*
Y463910D02*
D03*
X48260Y105170D02*
D03*
Y90170D02*
D03*
X109542Y242690D02*
D03*
Y257690D02*
D03*
X448835Y361545D02*
D03*
Y346545D02*
D03*
X412750Y346830D02*
D03*
Y361830D02*
D03*
X339090Y361098D02*
D03*
Y346098D02*
D03*
X375920Y346348D02*
D03*
Y361348D02*
D03*
X303005Y361098D02*
D03*
Y346098D02*
D03*
X589280Y326510D02*
D03*
Y341510D02*
D03*
X608330D02*
D03*
Y326510D02*
D03*
X631190D02*
D03*
Y341510D02*
D03*
X386080Y424300D02*
D03*
Y439300D02*
D03*
X464820Y446920D02*
D03*
Y431920D02*
D03*
X391160Y474860D02*
D03*
Y459860D02*
D03*
X668020Y80130D02*
D03*
Y95130D02*
D03*
X541020Y251580D02*
D03*
Y266580D02*
D03*
X519430Y261740D02*
D03*
Y276740D02*
D03*
X500380D02*
D03*
Y261740D02*
D03*
X528320Y330320D02*
D03*
Y345320D02*
D03*
X501650D02*
D03*
Y330320D02*
D03*
X96520Y535820D02*
D03*
Y520820D02*
D03*
X212090Y522193D02*
D03*
Y507193D02*
D03*
X60960Y433190D02*
D03*
Y448190D02*
D03*
X16510Y445770D02*
D03*
Y430770D02*
D03*
X1054100Y35440D02*
D03*
Y20440D02*
D03*
X466878Y361545D02*
D03*
Y346545D02*
D03*
X1054100Y58420D02*
D03*
Y73420D02*
D03*
X430793Y346545D02*
D03*
Y361545D02*
D03*
X394182D02*
D03*
Y346545D02*
D03*
X357877Y346347D02*
D03*
Y361347D02*
D03*
X321047Y361097D02*
D03*
Y346097D02*
D03*
D24*
X501162Y158945D02*
D03*
Y147945D02*
D03*
Y136945D02*
D03*
Y125945D02*
D03*
Y114945D02*
D03*
Y84945D02*
D03*
Y73945D02*
D03*
Y62945D02*
D03*
Y51945D02*
D03*
Y40945D02*
D03*
Y29945D02*
D03*
Y18945D02*
D03*
X621192D02*
D03*
Y29945D02*
D03*
Y40945D02*
D03*
Y147945D02*
D03*
Y136945D02*
D03*
Y125945D02*
D03*
Y114945D02*
D03*
Y84945D02*
D03*
Y73945D02*
D03*
Y62945D02*
D03*
Y51945D02*
D03*
D25*
Y158945D02*
D03*
D26*
X807720Y290850D02*
D03*
X820420D02*
D03*
X833120D02*
D03*
X845820D02*
D03*
X858520D02*
D03*
X871220D02*
D03*
X883920D02*
D03*
X896620D02*
D03*
Y229850D02*
D03*
X883920D02*
D03*
X871220D02*
D03*
X858520D02*
D03*
X845820D02*
D03*
X833120D02*
D03*
X820420D02*
D03*
X807720D02*
D03*
D27*
X956310Y486410D02*
D03*
Y527070D02*
D03*
X969010Y486410D02*
D03*
Y527070D02*
D03*
X981710Y486410D02*
D03*
Y527070D02*
D03*
X994410Y486410D02*
D03*
Y527070D02*
D03*
X1007110Y486410D02*
D03*
Y527070D02*
D03*
X852170Y527060D02*
D03*
Y486400D02*
D03*
X839470Y527060D02*
D03*
Y486400D02*
D03*
X826770Y527060D02*
D03*
Y486400D02*
D03*
X814070Y527060D02*
D03*
Y486400D02*
D03*
X801370Y527060D02*
D03*
Y486400D02*
D03*
D28*
X1167780Y403860D02*
D03*
X1153780D02*
D03*
X640730Y389890D02*
D03*
X626730D02*
D03*
X130160Y533863D02*
D03*
X144160D02*
D03*
X181580Y475443D02*
D03*
X195580D02*
D03*
X212740Y541020D02*
D03*
X198740D02*
D03*
X305450Y495300D02*
D03*
X291450D02*
D03*
X292070Y474980D02*
D03*
X306070D02*
D03*
X1200180Y386080D02*
D03*
X1186180D02*
D03*
X640080Y372110D02*
D03*
X626080D02*
D03*
X457850Y476250D02*
D03*
X443850D02*
D03*
D29*
X1150620Y441340D02*
D03*
Y427340D02*
D03*
X1166663D02*
D03*
Y441340D02*
D03*
X1181100Y471283D02*
D03*
Y457282D02*
D03*
X949960Y342250D02*
D03*
Y356250D02*
D03*
X924560D02*
D03*
Y342250D02*
D03*
X949960Y301610D02*
D03*
Y315610D02*
D03*
X990600Y233030D02*
D03*
Y247030D02*
D03*
X974090D02*
D03*
Y233030D02*
D03*
X1012190Y247030D02*
D03*
Y233030D02*
D03*
X1019940Y412100D02*
D03*
Y426100D02*
D03*
X1003898D02*
D03*
Y412100D02*
D03*
X987855Y426100D02*
D03*
Y412100D02*
D03*
X953770Y426750D02*
D03*
Y412750D02*
D03*
X1012190Y137810D02*
D03*
Y123810D02*
D03*
X1082040Y177180D02*
D03*
Y163180D02*
D03*
X1098550D02*
D03*
Y177180D02*
D03*
X1082040Y100300D02*
D03*
Y114300D02*
D03*
Y142890D02*
D03*
Y128890D02*
D03*
X1193800Y108570D02*
D03*
Y122570D02*
D03*
X34290Y445150D02*
D03*
Y431150D02*
D03*
X62230Y403210D02*
D03*
Y417210D02*
D03*
X212090Y472873D02*
D03*
Y486873D02*
D03*
X15240Y184150D02*
D03*
Y198150D02*
D03*
X109220Y134042D02*
D03*
Y148041D02*
D03*
X127000Y147970D02*
D03*
Y133970D02*
D03*
X544830Y208900D02*
D03*
Y222900D02*
D03*
X560070Y252700D02*
D03*
Y266700D02*
D03*
X1197143Y471283D02*
D03*
Y457282D02*
D03*
X685800Y120000D02*
D03*
Y134000D02*
D03*
X80010Y378460D02*
D03*
Y364460D02*
D03*
X1183975Y370137D02*
D03*
Y356137D02*
D03*
X1167933Y356137D02*
D03*
Y370137D02*
D03*
X127000Y257190D02*
D03*
Y243190D02*
D03*
X30480Y90790D02*
D03*
Y104790D02*
D03*
X306070Y454040D02*
D03*
Y440040D02*
D03*
X15240Y241920D02*
D03*
Y255920D02*
D03*
Y213980D02*
D03*
Y227980D02*
D03*
D30*
X1136280Y479860D02*
D03*
Y462310D02*
D03*
D31*
Y471090D02*
D03*
D32*
X1124400Y459660D02*
D03*
Y482520D02*
D03*
X1148160D02*
D03*
Y459660D02*
D03*
D33*
X1124400Y466090D02*
D03*
Y471090D02*
D03*
Y476090D02*
D03*
X1148160D02*
D03*
Y466090D02*
D03*
Y471090D02*
D03*
D34*
X669930Y522580D02*
D03*
X694330D02*
D03*
X718730D02*
D03*
X668930Y490880D02*
D03*
X694330D02*
D03*
X719730D02*
D03*
D35*
X737030Y457580D02*
D03*
D36*
X699830Y420830D02*
D03*
D37*
X740280Y529580D02*
D03*
X628780D02*
D03*
D38*
X740280Y481080D02*
D03*
X628780D02*
D03*
D39*
X735280Y439580D02*
D03*
D40*
X716330Y410080D02*
D03*
X672330D02*
D03*
D41*
X628780Y429580D02*
D03*
D42*
X682130Y541080D02*
D03*
X706530D02*
D03*
D43*
X1109369Y298960D02*
D03*
X1089369D02*
D03*
X1069369D02*
D03*
X1049369D02*
D03*
X1029369D02*
D03*
X1009369D02*
D03*
X1109369Y314960D02*
D03*
X1089369D02*
D03*
X1069369D02*
D03*
X1049369D02*
D03*
X1029369D02*
D03*
X1009369D02*
D03*
X1109369Y330960D02*
D03*
X1089369D02*
D03*
X1069369D02*
D03*
X1049369D02*
D03*
X1029369D02*
D03*
X1009369D02*
D03*
X1109369Y346960D02*
D03*
X1089369D02*
D03*
X1069369D02*
D03*
X1049369D02*
D03*
X1029369D02*
D03*
X1009369D02*
D03*
X1109369Y362960D02*
D03*
X1089369D02*
D03*
X1069369D02*
D03*
X989369Y298960D02*
D03*
Y362960D02*
D03*
Y346960D02*
D03*
Y330960D02*
D03*
X1009369Y362960D02*
D03*
X1029369D02*
D03*
X1049369D02*
D03*
X989369Y314960D02*
D03*
D44*
X1096869Y287460D02*
D03*
X1091869D02*
D03*
X1086869D02*
D03*
X1081869D02*
D03*
X1046869D02*
D03*
X1041869D02*
D03*
X1036869D02*
D03*
X1031869D02*
D03*
X991869D02*
D03*
X996869D02*
D03*
X1001869D02*
D03*
X1006869D02*
D03*
X1096869Y374460D02*
D03*
X1091869D02*
D03*
X1086869D02*
D03*
X1081869D02*
D03*
X1046869D02*
D03*
X1041869D02*
D03*
X1036869D02*
D03*
X1031869D02*
D03*
X991869D02*
D03*
X996869D02*
D03*
X1001869D02*
D03*
X1006869D02*
D03*
D45*
X1128068Y382160D02*
D03*
Y279760D02*
D03*
X970668D02*
D03*
Y382160D02*
D03*
D46*
X598780Y411133D02*
D03*
X579780D02*
D03*
X589280Y389133D02*
D03*
X518770Y216740D02*
D03*
X499770D02*
D03*
X509270Y194740D02*
D03*
D47*
X804678Y84980D02*
D03*
D48*
X842678Y21680D02*
D03*
X832678D02*
D03*
X762678D02*
D03*
X752678D02*
D03*
Y191680D02*
D03*
X832678D02*
D03*
D49*
X730177Y47480D02*
D03*
Y57480D02*
D03*
Y167480D02*
D03*
X865177Y157480D02*
D03*
Y57480D02*
D03*
Y47480D02*
D03*
D50*
X730177Y67480D02*
D03*
Y77480D02*
D03*
Y87480D02*
D03*
Y97480D02*
D03*
Y107480D02*
D03*
Y117480D02*
D03*
Y127480D02*
D03*
Y137480D02*
D03*
Y147480D02*
D03*
Y157480D02*
D03*
X865177Y167480D02*
D03*
Y147480D02*
D03*
Y137480D02*
D03*
Y127480D02*
D03*
Y117480D02*
D03*
Y107480D02*
D03*
Y97480D02*
D03*
Y87480D02*
D03*
Y77480D02*
D03*
Y67480D02*
D03*
D51*
X762678Y191680D02*
D03*
X772678D02*
D03*
X782678D02*
D03*
X792678D02*
D03*
X802678D02*
D03*
X812678D02*
D03*
X822678D02*
D03*
X842678D02*
D03*
D52*
X955040Y326390D02*
D03*
X949960D02*
D03*
X972820Y267970D02*
D03*
X977900D02*
D03*
D53*
X1179830Y520690D02*
D03*
X668020Y41920D02*
D03*
D54*
X1165080Y535940D02*
D03*
X1194580D02*
D03*
X653270Y26670D02*
D03*
X682770D02*
D03*
D55*
X488720Y540070D02*
D03*
D56*
X486970Y479820D02*
D03*
Y442820D02*
D03*
D57*
X521970Y433070D02*
D03*
X581670D02*
D03*
D58*
X601920Y537820D02*
D03*
D59*
X589820Y541320D02*
D03*
D60*
X579320D02*
D03*
X568320D02*
D03*
X557320D02*
D03*
X546320D02*
D03*
X535320D02*
D03*
X524320D02*
D03*
X513320D02*
D03*
D61*
X165480Y71480D02*
D03*
X85980D02*
D03*
X165480Y116480D02*
D03*
X85980D02*
D03*
X96862Y451760D02*
D03*
X176362D02*
D03*
X96862Y406760D02*
D03*
X176362D02*
D03*
X85980Y322220D02*
D03*
X165480D02*
D03*
X85980Y277220D02*
D03*
X165480D02*
D03*
D62*
X34689Y173280D02*
D03*
Y178280D02*
D03*
Y183280D02*
D03*
Y188280D02*
D03*
Y193280D02*
D03*
Y198280D02*
D03*
Y203280D02*
D03*
Y208280D02*
D03*
Y213280D02*
D03*
Y218280D02*
D03*
D63*
X53939Y148780D02*
D03*
Y242780D02*
D03*
D64*
X927920Y140970D02*
D03*
Y128270D02*
D03*
Y115570D02*
D03*
Y102870D02*
D03*
X982160D02*
D03*
Y115570D02*
D03*
Y128270D02*
D03*
Y140970D02*
D03*
D65*
X252642Y527580D02*
D03*
X247642D02*
D03*
X252642Y498580D02*
D03*
X247642D02*
D03*
D66*
X250142Y513080D02*
D03*
D67*
X236141Y503080D02*
D03*
Y508080D02*
D03*
Y513080D02*
D03*
Y518080D02*
D03*
Y523080D02*
D03*
X264142D02*
D03*
Y518080D02*
D03*
Y513080D02*
D03*
Y508080D02*
D03*
Y503080D02*
D03*
D68*
X1237370Y390030D02*
D03*
D69*
Y351880D02*
D03*
D70*
X1259870Y75530D02*
D03*
D71*
X1227470Y146030D02*
D03*
D72*
X1283970Y525780D02*
D03*
D73*
X1258970Y536030D02*
D03*
D74*
X1233970Y532030D02*
D03*
D75*
X1278470Y540280D02*
D03*
D76*
X1243120Y61030D02*
D03*
D77*
X1274370D02*
D03*
D78*
X443440Y520810D02*
D03*
X342440D02*
D03*
D79*
X1104488Y463550D02*
D03*
Y476790D02*
D03*
D80*
X247650Y437210D02*
D03*
Y383210D02*
D03*
D81*
X461010Y399588D02*
D03*
Y380588D02*
D03*
X425450Y399873D02*
D03*
Y380873D02*
D03*
X354330Y399390D02*
D03*
Y380390D02*
D03*
X389890Y399873D02*
D03*
Y380873D02*
D03*
D82*
X1040540Y150390D02*
D03*
X1047040D02*
D03*
X1053540D02*
D03*
X1060040D02*
D03*
Y106150D02*
D03*
X1053540D02*
D03*
X1047040D02*
D03*
X1040540D02*
D03*
D83*
X93980Y488570D02*
D03*
Y504570D02*
D03*
D84*
X299720Y511308D02*
D03*
Y532909D02*
D03*
D85*
X587280Y255350D02*
D03*
Y260350D02*
D03*
Y265350D02*
D03*
X603980D02*
D03*
Y260350D02*
D03*
Y255350D02*
D03*
D86*
X124050Y379990D02*
D03*
X117550D02*
D03*
X111050D02*
D03*
X104550D02*
D03*
Y348990D02*
D03*
X111050D02*
D03*
X117550D02*
D03*
X124050D02*
D03*
D87*
X1002820Y72640D02*
D03*
X987820D02*
D03*
X972820D02*
D03*
X957820D02*
D03*
X942820D02*
D03*
X1165428D02*
D03*
X1150428D02*
D03*
X1135428D02*
D03*
X1120427D02*
D03*
X1105428D02*
D03*
D88*
X1028820Y22140D02*
D03*
X916820D02*
D03*
X1191428D02*
D03*
X1079428D02*
D03*
D89*
X330860Y426920D02*
D03*
X340360D02*
D03*
X349860D02*
D03*
Y451920D02*
D03*
X340360D02*
D03*
X330860D02*
D03*
D90*
X317500Y380390D02*
D03*
Y399390D02*
D03*
M02*
