G04*
G04 #@! TF.GenerationSoftware,Altium Limited,Altium Designer,21.6.4 (81)*
G04*
G04 Layer_Color=8388736*
%FSLAX44Y44*%
%MOMM*%
G71*
G04*
G04 #@! TF.SameCoordinates,FF1FAEB7-4318-4351-9C75-77568BB5708F*
G04*
G04*
G04 #@! TF.FilePolarity,Negative*
G04*
G01*
G75*
%ADD91R,1.1032X1.1532*%
%ADD92C,0.4532*%
%ADD93R,0.5032X0.7432*%
%ADD94R,1.2532X0.8032*%
%ADD95R,0.7432X0.5032*%
%ADD96C,1.2032*%
%ADD97R,1.6782X0.6532*%
%ADD98R,0.7032X1.0032*%
%ADD99R,1.1532X1.1032*%
%ADD100R,1.9842X1.0032*%
%ADD101R,1.9842X1.0032*%
%ADD102R,0.9532X1.8032*%
%ADD103R,0.9432X2.9982*%
%ADD104R,0.9832X1.1932*%
%ADD105R,1.1932X0.9832*%
%ADD106R,1.7532X0.9482*%
%ADD107R,1.7532X0.8732*%
%ADD108R,0.6282X0.7182*%
%ADD109R,0.6282X0.4782*%
%ADD110R,1.1032X0.9032*%
%ADD111R,0.9032X0.9032*%
%ADD112R,1.4032X0.8532*%
%ADD113R,0.6532X3.1032*%
%ADD114R,0.6532X2.1032*%
%ADD115R,0.9532X0.9032*%
%ADD116R,1.6032X0.7032*%
%ADD117R,0.6532X2.6032*%
%ADD118R,0.8032X0.8032*%
%ADD119R,1.0032X1.0032*%
%ADD120R,0.5032X0.5032*%
%ADD121R,0.7432X0.7432*%
%ADD122R,0.8032X1.2532*%
%ADD123R,3.2032X3.2332*%
%ADD124R,0.9032X2.2032*%
%ADD125R,2.2032X0.9032*%
%ADD126R,1.7032X0.9032*%
%ADD127R,0.9032X1.7032*%
%ADD128R,0.4572X0.4572*%
%ADD129R,1.2032X1.2532*%
%ADD130R,1.2532X2.4032*%
%ADD131R,1.7532X1.5532*%
%ADD132R,1.4032X1.2032*%
%ADD133R,2.1032X1.5532*%
%ADD134R,1.3732X2.0032*%
%ADD135R,0.9532X1.3032*%
%ADD136R,1.0532X1.3032*%
%ADD137R,1.7532X1.5032*%
%ADD138R,1.0032X0.5032*%
%ADD139R,3.2532X2.4032*%
%ADD140R,1.7282X0.8532*%
%ADD141R,0.4532X0.8032*%
%ADD142R,1.8532X2.6032*%
%ADD143R,0.8032X0.4432*%
%ADD144R,3.4032X3.3032*%
%ADD145R,3.4032X2.9332*%
%ADD146R,7.7032X2.0032*%
%ADD147R,1.4032X2.6032*%
%ADD148R,2.7032X1.8532*%
%ADD149R,1.9032X2.3032*%
%ADD150R,2.7032X3.1032*%
%ADD151R,1.6032X1.4532*%
%ADD152R,2.1532X1.3032*%
%ADD153R,2.2032X1.3032*%
%ADD154R,2.6032X2.2032*%
%ADD155R,1.2032X0.8782*%
%ADD156R,2.0532X3.7032*%
%ADD157R,1.6032X1.1032*%
%ADD158R,0.6532X1.6282*%
%ADD159R,0.6232X0.7632*%
%ADD160R,3.2532X1.3432*%
%ADD161R,0.6732X0.5032*%
%ADD162R,0.5532X1.0532*%
%ADD163R,1.0032X2.6032*%
%ADD164R,2.0032X3.5032*%
%ADD165R,0.8032X1.4032*%
%ADD166R,1.6532X1.1532*%
%ADD167C,1.8532*%
%ADD168R,1.8532X1.8532*%
%ADD169R,1.8532X1.8532*%
%ADD170C,1.3032*%
%ADD171R,2.1532X2.1532*%
%ADD172C,2.1532*%
%ADD173C,0.7032*%
%ADD174C,0.6032*%
D91*
X666870Y238760D02*
D03*
X681870D02*
D03*
X660640Y217375D02*
D03*
X60840Y266700D02*
D03*
X45840D02*
D03*
X1154550Y386080D02*
D03*
X1169550D02*
D03*
X427870Y474980D02*
D03*
X412870D02*
D03*
X175020Y345440D02*
D03*
X160020D02*
D03*
X160140Y363483D02*
D03*
X175140D02*
D03*
Y381525D02*
D03*
X160140D02*
D03*
X669170Y128270D02*
D03*
X654170D02*
D03*
X501770Y235033D02*
D03*
X516770D02*
D03*
X45720Y124460D02*
D03*
X30720D02*
D03*
X600710Y370840D02*
D03*
X585710D02*
D03*
X243633Y474787D02*
D03*
X228633D02*
D03*
X260675D02*
D03*
X275675D02*
D03*
X149860Y475443D02*
D03*
X164860D02*
D03*
X125610Y474992D02*
D03*
X110610D02*
D03*
X176290Y533863D02*
D03*
X161290D02*
D03*
X17900Y463550D02*
D03*
X32900D02*
D03*
X962660Y166370D02*
D03*
X977660D02*
D03*
X371990Y474980D02*
D03*
X356990D02*
D03*
X321512D02*
D03*
X336512D02*
D03*
X1017150Y162297D02*
D03*
X1002150D02*
D03*
X1017030Y180340D02*
D03*
X1002030D02*
D03*
X1018420Y102870D02*
D03*
X1003420D02*
D03*
X671950Y161290D02*
D03*
X686950D02*
D03*
X675640Y217375D02*
D03*
D92*
X669153Y347820D02*
D03*
Y342820D02*
D03*
Y337820D02*
D03*
Y332820D02*
D03*
X664802Y345320D02*
D03*
Y335320D02*
D03*
X660452Y347820D02*
D03*
Y342820D02*
D03*
Y337820D02*
D03*
Y332820D02*
D03*
D93*
X1051869Y382160D02*
D03*
X976869D02*
D03*
X981869D02*
D03*
X986869D02*
D03*
X991869D02*
D03*
X996869D02*
D03*
X1001869D02*
D03*
X1006869D02*
D03*
X1011869D02*
D03*
X1016869D02*
D03*
X1021869D02*
D03*
X1026869D02*
D03*
X1031869D02*
D03*
X1036869D02*
D03*
X1041869D02*
D03*
X1046869D02*
D03*
X1056869D02*
D03*
X1061869D02*
D03*
X1066869D02*
D03*
X1071869D02*
D03*
X1076869D02*
D03*
X1081869D02*
D03*
X1086869D02*
D03*
X1091869D02*
D03*
X1096869D02*
D03*
X1101869D02*
D03*
X1106869D02*
D03*
X1111869D02*
D03*
X1116869D02*
D03*
X1121869D02*
D03*
Y279760D02*
D03*
X1116869D02*
D03*
X1111869D02*
D03*
X1106869D02*
D03*
X1101869D02*
D03*
X1096869D02*
D03*
X1091869D02*
D03*
X1086869D02*
D03*
X1081869D02*
D03*
X1076869D02*
D03*
X1071869D02*
D03*
X1066869D02*
D03*
X1061869D02*
D03*
X1056869D02*
D03*
X1051869D02*
D03*
X1046869D02*
D03*
X1041869D02*
D03*
X1036869D02*
D03*
X1031869D02*
D03*
X1026869D02*
D03*
X1021869D02*
D03*
X1016869D02*
D03*
X1011869D02*
D03*
X1006869D02*
D03*
X1001869D02*
D03*
X996869D02*
D03*
X991869D02*
D03*
X986869D02*
D03*
X981869D02*
D03*
X976869D02*
D03*
D94*
X659560Y198833D02*
D03*
Y179832D02*
D03*
X681560Y189333D02*
D03*
D95*
X970668Y375960D02*
D03*
X1128068D02*
D03*
Y370960D02*
D03*
Y365960D02*
D03*
Y360960D02*
D03*
Y355960D02*
D03*
Y350960D02*
D03*
Y345960D02*
D03*
Y340960D02*
D03*
Y335960D02*
D03*
Y330960D02*
D03*
Y325960D02*
D03*
Y320960D02*
D03*
Y315960D02*
D03*
Y310960D02*
D03*
Y305960D02*
D03*
Y300960D02*
D03*
Y295960D02*
D03*
Y290960D02*
D03*
Y285960D02*
D03*
X970668D02*
D03*
Y290960D02*
D03*
Y295960D02*
D03*
Y300960D02*
D03*
Y305960D02*
D03*
Y310960D02*
D03*
Y315960D02*
D03*
Y320960D02*
D03*
Y325960D02*
D03*
Y330960D02*
D03*
Y335960D02*
D03*
Y340960D02*
D03*
Y345960D02*
D03*
Y350960D02*
D03*
Y355960D02*
D03*
Y360960D02*
D03*
Y365960D02*
D03*
Y370960D02*
D03*
D96*
X904240Y351790D02*
D03*
X953770Y203200D02*
D03*
X1097280Y247650D02*
D03*
X1077059Y247735D02*
D03*
X1118351D02*
D03*
X1043940Y451027D02*
D03*
X1021080Y204470D02*
D03*
X1042670D02*
D03*
X54610Y384810D02*
D03*
Y364490D02*
D03*
X161290Y43180D02*
D03*
X54610Y343937D02*
D03*
X935990Y388620D02*
D03*
X953770Y232410D02*
D03*
X927100Y320040D02*
D03*
X138430Y43180D02*
D03*
X115570D02*
D03*
X688340Y269240D02*
D03*
X779780Y290830D02*
D03*
X619760Y292100D02*
D03*
X543560D02*
D03*
X1050290Y234950D02*
D03*
X1139073Y247801D02*
D03*
X196850Y435610D02*
D03*
X739140Y307340D02*
D03*
D97*
X768520Y228710D02*
D03*
Y267710D02*
D03*
X709760Y274210D02*
D03*
X500108Y414025D02*
D03*
Y407525D02*
D03*
Y401025D02*
D03*
Y394525D02*
D03*
Y388025D02*
D03*
Y381525D02*
D03*
Y375025D02*
D03*
Y368525D02*
D03*
X558868D02*
D03*
Y375025D02*
D03*
Y381525D02*
D03*
Y388025D02*
D03*
Y394525D02*
D03*
Y401025D02*
D03*
Y407525D02*
D03*
Y414025D02*
D03*
X709760Y228710D02*
D03*
Y235210D02*
D03*
Y241710D02*
D03*
Y248210D02*
D03*
Y254710D02*
D03*
Y261210D02*
D03*
Y267710D02*
D03*
X768520Y274210D02*
D03*
Y261210D02*
D03*
Y254710D02*
D03*
Y248210D02*
D03*
Y241710D02*
D03*
Y235210D02*
D03*
X628820Y188737D02*
D03*
Y195238D02*
D03*
Y201737D02*
D03*
Y208237D02*
D03*
Y214738D02*
D03*
Y221238D02*
D03*
Y227737D02*
D03*
Y234237D02*
D03*
X570060D02*
D03*
Y227737D02*
D03*
Y221238D02*
D03*
Y214738D02*
D03*
Y208237D02*
D03*
Y201737D02*
D03*
Y195238D02*
D03*
Y188737D02*
D03*
X886630Y407780D02*
D03*
Y414280D02*
D03*
Y420780D02*
D03*
Y427280D02*
D03*
Y433780D02*
D03*
Y440280D02*
D03*
Y446780D02*
D03*
Y453280D02*
D03*
X827870D02*
D03*
Y446780D02*
D03*
Y440280D02*
D03*
Y433780D02*
D03*
Y427280D02*
D03*
Y420780D02*
D03*
Y414280D02*
D03*
Y407780D02*
D03*
X1111080Y145940D02*
D03*
Y139440D02*
D03*
Y132940D02*
D03*
Y126440D02*
D03*
Y119940D02*
D03*
Y113440D02*
D03*
Y106940D02*
D03*
Y100440D02*
D03*
X1169840D02*
D03*
Y106940D02*
D03*
Y113440D02*
D03*
Y119940D02*
D03*
Y126440D02*
D03*
Y132940D02*
D03*
Y139440D02*
D03*
Y145940D02*
D03*
X126830Y514538D02*
D03*
Y508038D02*
D03*
Y501538D02*
D03*
Y495038D02*
D03*
X185590D02*
D03*
Y501538D02*
D03*
Y508038D02*
D03*
Y514538D02*
D03*
D98*
X414490Y431165D02*
D03*
X423490D02*
D03*
X432490D02*
D03*
X441490D02*
D03*
Y443165D02*
D03*
X432490D02*
D03*
X423490D02*
D03*
X414490D02*
D03*
D99*
X648970Y76302D02*
D03*
Y61302D02*
D03*
X1183705Y441840D02*
D03*
Y426840D02*
D03*
X686063Y104020D02*
D03*
Y89020D02*
D03*
X1201420Y369570D02*
D03*
Y354570D02*
D03*
X654050Y161170D02*
D03*
Y146170D02*
D03*
X1060450Y426600D02*
D03*
Y411600D02*
D03*
X1041400Y411720D02*
D03*
Y426720D02*
D03*
X970813Y426480D02*
D03*
Y411480D02*
D03*
X1068403Y463790D02*
D03*
Y478790D02*
D03*
X1086445Y478910D02*
D03*
Y463910D02*
D03*
X48260Y105170D02*
D03*
Y90170D02*
D03*
X109542Y242690D02*
D03*
Y257690D02*
D03*
X448835Y361545D02*
D03*
Y346545D02*
D03*
X412750Y346830D02*
D03*
Y361830D02*
D03*
X339090Y361098D02*
D03*
Y346098D02*
D03*
X375920Y346348D02*
D03*
Y361348D02*
D03*
X303005Y361098D02*
D03*
Y346098D02*
D03*
X589280Y326510D02*
D03*
Y341510D02*
D03*
X608330D02*
D03*
Y326510D02*
D03*
X631190D02*
D03*
Y341510D02*
D03*
X386080Y424300D02*
D03*
Y439300D02*
D03*
X464820Y446920D02*
D03*
Y431920D02*
D03*
X391160Y474860D02*
D03*
Y459860D02*
D03*
X668020Y80130D02*
D03*
Y95130D02*
D03*
X541020Y251580D02*
D03*
Y266580D02*
D03*
X519430Y261740D02*
D03*
Y276740D02*
D03*
X500380D02*
D03*
Y261740D02*
D03*
X528320Y330320D02*
D03*
Y345320D02*
D03*
X501650D02*
D03*
Y330320D02*
D03*
X96520Y535820D02*
D03*
Y520820D02*
D03*
X212090Y522193D02*
D03*
Y507193D02*
D03*
X60960Y433190D02*
D03*
Y448190D02*
D03*
X16510Y445770D02*
D03*
Y430770D02*
D03*
X1054100Y35440D02*
D03*
Y20440D02*
D03*
X466878Y361545D02*
D03*
Y346545D02*
D03*
X1054100Y58420D02*
D03*
Y73420D02*
D03*
X430793Y346545D02*
D03*
Y361545D02*
D03*
X394182D02*
D03*
Y346545D02*
D03*
X357877Y346347D02*
D03*
Y361347D02*
D03*
X321047Y361097D02*
D03*
Y346097D02*
D03*
D100*
X501162Y158945D02*
D03*
Y147945D02*
D03*
Y136945D02*
D03*
Y125945D02*
D03*
Y114945D02*
D03*
Y84945D02*
D03*
Y73945D02*
D03*
Y62945D02*
D03*
Y51945D02*
D03*
Y40945D02*
D03*
Y29945D02*
D03*
Y18945D02*
D03*
X621192D02*
D03*
Y29945D02*
D03*
Y40945D02*
D03*
Y147945D02*
D03*
Y136945D02*
D03*
Y125945D02*
D03*
Y114945D02*
D03*
Y84945D02*
D03*
Y73945D02*
D03*
Y62945D02*
D03*
Y51945D02*
D03*
D101*
Y158945D02*
D03*
D102*
X807720Y290850D02*
D03*
X820420D02*
D03*
X833120D02*
D03*
X845820D02*
D03*
X858520D02*
D03*
X871220D02*
D03*
X883920D02*
D03*
X896620D02*
D03*
Y229850D02*
D03*
X883920D02*
D03*
X871220D02*
D03*
X858520D02*
D03*
X845820D02*
D03*
X833120D02*
D03*
X820420D02*
D03*
X807720D02*
D03*
D103*
X956310Y486410D02*
D03*
Y527070D02*
D03*
X969010Y486410D02*
D03*
Y527070D02*
D03*
X981710Y486410D02*
D03*
Y527070D02*
D03*
X994410Y486410D02*
D03*
Y527070D02*
D03*
X1007110Y486410D02*
D03*
Y527070D02*
D03*
X852170Y527060D02*
D03*
Y486400D02*
D03*
X839470Y527060D02*
D03*
Y486400D02*
D03*
X826770Y527060D02*
D03*
Y486400D02*
D03*
X814070Y527060D02*
D03*
Y486400D02*
D03*
X801370Y527060D02*
D03*
Y486400D02*
D03*
D104*
X1167780Y403860D02*
D03*
X1153780D02*
D03*
X640730Y389890D02*
D03*
X626730D02*
D03*
X130160Y533863D02*
D03*
X144160D02*
D03*
X181580Y475443D02*
D03*
X195580D02*
D03*
X212740Y541020D02*
D03*
X198740D02*
D03*
X305450Y495300D02*
D03*
X291450D02*
D03*
X292070Y474980D02*
D03*
X306070D02*
D03*
X1200180Y386080D02*
D03*
X1186180D02*
D03*
X640080Y372110D02*
D03*
X626080D02*
D03*
X457850Y476250D02*
D03*
X443850D02*
D03*
D105*
X1150620Y441340D02*
D03*
Y427340D02*
D03*
X1166663D02*
D03*
Y441340D02*
D03*
X1181100Y471283D02*
D03*
Y457282D02*
D03*
X949960Y342250D02*
D03*
Y356250D02*
D03*
X924560D02*
D03*
Y342250D02*
D03*
X949960Y301610D02*
D03*
Y315610D02*
D03*
X990600Y233030D02*
D03*
Y247030D02*
D03*
X974090D02*
D03*
Y233030D02*
D03*
X1012190Y247030D02*
D03*
Y233030D02*
D03*
X1019940Y412100D02*
D03*
Y426100D02*
D03*
X1003898D02*
D03*
Y412100D02*
D03*
X987855Y426100D02*
D03*
Y412100D02*
D03*
X953770Y426750D02*
D03*
Y412750D02*
D03*
X1012190Y137810D02*
D03*
Y123810D02*
D03*
X1082040Y177180D02*
D03*
Y163180D02*
D03*
X1098550D02*
D03*
Y177180D02*
D03*
X1082040Y100300D02*
D03*
Y114300D02*
D03*
Y142890D02*
D03*
Y128890D02*
D03*
X1193800Y108570D02*
D03*
Y122570D02*
D03*
X34290Y445150D02*
D03*
Y431150D02*
D03*
X62230Y403210D02*
D03*
Y417210D02*
D03*
X212090Y472873D02*
D03*
Y486873D02*
D03*
X15240Y184150D02*
D03*
Y198150D02*
D03*
X109220Y134042D02*
D03*
Y148041D02*
D03*
X127000Y147970D02*
D03*
Y133970D02*
D03*
X544830Y208900D02*
D03*
Y222900D02*
D03*
X560070Y252700D02*
D03*
Y266700D02*
D03*
X1197143Y471283D02*
D03*
Y457282D02*
D03*
X685800Y120000D02*
D03*
Y134000D02*
D03*
X80010Y378460D02*
D03*
Y364460D02*
D03*
X1183975Y370137D02*
D03*
Y356137D02*
D03*
X1167933Y356137D02*
D03*
Y370137D02*
D03*
X127000Y257190D02*
D03*
Y243190D02*
D03*
X30480Y90790D02*
D03*
Y104790D02*
D03*
X306070Y454040D02*
D03*
Y440040D02*
D03*
X15240Y241920D02*
D03*
Y255920D02*
D03*
Y213980D02*
D03*
Y227980D02*
D03*
D106*
X1136280Y479860D02*
D03*
Y462310D02*
D03*
D107*
Y471090D02*
D03*
D108*
X1124400Y459660D02*
D03*
Y482520D02*
D03*
X1148160D02*
D03*
Y459660D02*
D03*
D109*
X1124400Y466090D02*
D03*
Y471090D02*
D03*
Y476090D02*
D03*
X1148160D02*
D03*
Y466090D02*
D03*
Y471090D02*
D03*
D110*
X669930Y522580D02*
D03*
X694330D02*
D03*
X718730D02*
D03*
X668930Y490880D02*
D03*
X694330D02*
D03*
X719730D02*
D03*
D111*
X737030Y457580D02*
D03*
D112*
X699830Y420830D02*
D03*
D113*
X740280Y529580D02*
D03*
X628780D02*
D03*
D114*
X740280Y481080D02*
D03*
X628780D02*
D03*
D115*
X735280Y439580D02*
D03*
D116*
X716330Y410080D02*
D03*
X672330D02*
D03*
D117*
X628780Y429580D02*
D03*
D118*
X682130Y541080D02*
D03*
X706530D02*
D03*
D119*
X1109369Y298960D02*
D03*
X1089369D02*
D03*
X1069369D02*
D03*
X1049369D02*
D03*
X1029369D02*
D03*
X1009369D02*
D03*
X1109369Y314960D02*
D03*
X1089369D02*
D03*
X1069369D02*
D03*
X1049369D02*
D03*
X1029369D02*
D03*
X1009369D02*
D03*
X1109369Y330960D02*
D03*
X1089369D02*
D03*
X1069369D02*
D03*
X1049369D02*
D03*
X1029369D02*
D03*
X1009369D02*
D03*
X1109369Y346960D02*
D03*
X1089369D02*
D03*
X1069369D02*
D03*
X1049369D02*
D03*
X1029369D02*
D03*
X1009369D02*
D03*
X1109369Y362960D02*
D03*
X1089369D02*
D03*
X1069369D02*
D03*
X989369Y298960D02*
D03*
Y362960D02*
D03*
Y346960D02*
D03*
Y330960D02*
D03*
X1009369Y362960D02*
D03*
X1029369D02*
D03*
X1049369D02*
D03*
X989369Y314960D02*
D03*
D120*
X1096869Y287460D02*
D03*
X1091869D02*
D03*
X1086869D02*
D03*
X1081869D02*
D03*
X1046869D02*
D03*
X1041869D02*
D03*
X1036869D02*
D03*
X1031869D02*
D03*
X991869D02*
D03*
X996869D02*
D03*
X1001869D02*
D03*
X1006869D02*
D03*
X1096869Y374460D02*
D03*
X1091869D02*
D03*
X1086869D02*
D03*
X1081869D02*
D03*
X1046869D02*
D03*
X1041869D02*
D03*
X1036869D02*
D03*
X1031869D02*
D03*
X991869D02*
D03*
X996869D02*
D03*
X1001869D02*
D03*
X1006869D02*
D03*
D121*
X1128068Y382160D02*
D03*
Y279760D02*
D03*
X970668D02*
D03*
Y382160D02*
D03*
D122*
X598780Y411133D02*
D03*
X579780D02*
D03*
X589280Y389133D02*
D03*
X518770Y216740D02*
D03*
X499770D02*
D03*
X509270Y194740D02*
D03*
D123*
X804678Y84980D02*
D03*
D124*
X842678Y21680D02*
D03*
X832678D02*
D03*
X762678D02*
D03*
X752678D02*
D03*
Y191680D02*
D03*
X832678D02*
D03*
D125*
X730177Y47480D02*
D03*
Y57480D02*
D03*
Y167480D02*
D03*
X865177Y157480D02*
D03*
Y57480D02*
D03*
Y47480D02*
D03*
D126*
X730177Y67480D02*
D03*
Y77480D02*
D03*
Y87480D02*
D03*
Y97480D02*
D03*
Y107480D02*
D03*
Y117480D02*
D03*
Y127480D02*
D03*
Y137480D02*
D03*
Y147480D02*
D03*
Y157480D02*
D03*
X865177Y167480D02*
D03*
Y147480D02*
D03*
Y137480D02*
D03*
Y127480D02*
D03*
Y117480D02*
D03*
Y107480D02*
D03*
Y97480D02*
D03*
Y87480D02*
D03*
Y77480D02*
D03*
Y67480D02*
D03*
D127*
X762678Y191680D02*
D03*
X772678D02*
D03*
X782678D02*
D03*
X792678D02*
D03*
X802678D02*
D03*
X812678D02*
D03*
X822678D02*
D03*
X842678D02*
D03*
D128*
X955040Y326390D02*
D03*
X949960D02*
D03*
X972820Y267970D02*
D03*
X977900D02*
D03*
D129*
X1179830Y520690D02*
D03*
X668020Y41920D02*
D03*
D130*
X1165080Y535940D02*
D03*
X1194580D02*
D03*
X653270Y26670D02*
D03*
X682770D02*
D03*
D131*
X488720Y540070D02*
D03*
D132*
X486970Y479820D02*
D03*
Y442820D02*
D03*
D133*
X521970Y433070D02*
D03*
X581670D02*
D03*
D134*
X601920Y537820D02*
D03*
D135*
X589820Y541320D02*
D03*
D136*
X579320D02*
D03*
X568320D02*
D03*
X557320D02*
D03*
X546320D02*
D03*
X535320D02*
D03*
X524320D02*
D03*
X513320D02*
D03*
D137*
X165480Y71480D02*
D03*
X85980D02*
D03*
X165480Y116480D02*
D03*
X85980D02*
D03*
X96862Y451760D02*
D03*
X176362D02*
D03*
X96862Y406760D02*
D03*
X176362D02*
D03*
X85980Y322220D02*
D03*
X165480D02*
D03*
X85980Y277220D02*
D03*
X165480D02*
D03*
D138*
X34689Y173280D02*
D03*
Y178280D02*
D03*
Y183280D02*
D03*
Y188280D02*
D03*
Y193280D02*
D03*
Y198280D02*
D03*
Y203280D02*
D03*
Y208280D02*
D03*
Y213280D02*
D03*
Y218280D02*
D03*
D139*
X53939Y148780D02*
D03*
Y242780D02*
D03*
D140*
X927920Y140970D02*
D03*
Y128270D02*
D03*
Y115570D02*
D03*
Y102870D02*
D03*
X982160D02*
D03*
Y115570D02*
D03*
Y128270D02*
D03*
Y140970D02*
D03*
D141*
X252642Y527580D02*
D03*
X247642D02*
D03*
X252642Y498580D02*
D03*
X247642D02*
D03*
D142*
X250142Y513080D02*
D03*
D143*
X236141Y503080D02*
D03*
Y508080D02*
D03*
Y513080D02*
D03*
Y518080D02*
D03*
Y523080D02*
D03*
X264142D02*
D03*
Y518080D02*
D03*
Y513080D02*
D03*
Y508080D02*
D03*
Y503080D02*
D03*
D144*
X1237370Y390030D02*
D03*
D145*
Y351880D02*
D03*
D146*
X1259870Y75530D02*
D03*
D147*
X1227470Y146030D02*
D03*
D148*
X1283970Y525780D02*
D03*
D149*
X1258970Y536030D02*
D03*
D150*
X1233970Y532030D02*
D03*
D151*
X1278470Y540280D02*
D03*
D152*
X1243120Y61030D02*
D03*
D153*
X1274370D02*
D03*
D154*
X443440Y520810D02*
D03*
X342440D02*
D03*
D155*
X1104488Y463550D02*
D03*
Y476790D02*
D03*
D156*
X247650Y437210D02*
D03*
Y383210D02*
D03*
D157*
X461010Y399588D02*
D03*
Y380588D02*
D03*
X425450Y399873D02*
D03*
Y380873D02*
D03*
X354330Y399390D02*
D03*
Y380390D02*
D03*
X389890Y399873D02*
D03*
Y380873D02*
D03*
D158*
X1040540Y150390D02*
D03*
X1047040D02*
D03*
X1053540D02*
D03*
X1060040D02*
D03*
Y106150D02*
D03*
X1053540D02*
D03*
X1047040D02*
D03*
X1040540D02*
D03*
D159*
X93980Y488570D02*
D03*
Y504570D02*
D03*
D160*
X299720Y511308D02*
D03*
Y532909D02*
D03*
D161*
X587280Y255350D02*
D03*
Y260350D02*
D03*
Y265350D02*
D03*
X603980D02*
D03*
Y260350D02*
D03*
Y255350D02*
D03*
D162*
X124050Y379990D02*
D03*
X117550D02*
D03*
X111050D02*
D03*
X104550D02*
D03*
Y348990D02*
D03*
X111050D02*
D03*
X117550D02*
D03*
X124050D02*
D03*
D163*
X1002820Y72640D02*
D03*
X987820D02*
D03*
X972820D02*
D03*
X957820D02*
D03*
X942820D02*
D03*
X1165428D02*
D03*
X1150428D02*
D03*
X1135428D02*
D03*
X1120427D02*
D03*
X1105428D02*
D03*
D164*
X1028820Y22140D02*
D03*
X916820D02*
D03*
X1191428D02*
D03*
X1079428D02*
D03*
D165*
X330860Y426920D02*
D03*
X340360D02*
D03*
X349860D02*
D03*
Y451920D02*
D03*
X340360D02*
D03*
X330860D02*
D03*
D166*
X317500Y380390D02*
D03*
Y399390D02*
D03*
D167*
X1076103Y510540D02*
D03*
X26577Y398780D02*
D03*
Y373380D02*
D03*
X1126902Y510540D02*
D03*
X1101503Y535940D02*
D03*
Y510540D02*
D03*
X1076103Y535940D02*
D03*
X52070Y509270D02*
D03*
X702310Y332740D02*
D03*
Y307340D02*
D03*
X434340Y40640D02*
D03*
X408940D02*
D03*
X383540D02*
D03*
X358140D02*
D03*
X332740D02*
D03*
X255270Y39370D02*
D03*
X229870D02*
D03*
X204470D02*
D03*
D168*
X1126902Y535940D02*
D03*
X26670Y509270D02*
D03*
X459740Y40640D02*
D03*
X280670Y39370D02*
D03*
D169*
X26577Y347980D02*
D03*
X702310Y358140D02*
D03*
D170*
X408940Y511810D02*
D03*
X400940Y529810D02*
D03*
X392940Y511810D02*
D03*
X384940Y529810D02*
D03*
X376940Y511810D02*
D03*
D171*
X1141730Y185420D02*
D03*
X1177290Y210820D02*
D03*
D172*
X1141730D02*
D03*
X1177290Y185420D02*
D03*
D173*
X928370Y377190D02*
D03*
X845201Y306837D02*
D03*
X679450Y290830D02*
D03*
Y252730D02*
D03*
X984003Y371978D02*
D03*
X665480Y252730D02*
D03*
X657860Y257810D02*
D03*
X1056127Y372688D02*
D03*
X877189Y350520D02*
D03*
X751840Y222068D02*
D03*
X783590Y269240D02*
D03*
X165100Y260350D02*
D03*
X533565Y403642D02*
D03*
X483870Y147320D02*
D03*
X998220Y209550D02*
D03*
X716183Y197697D02*
D03*
X1023462Y123719D02*
D03*
X961070Y318080D02*
D03*
X961102Y310760D02*
D03*
X961146Y303205D02*
D03*
X984861Y395911D02*
D03*
X860609Y397407D02*
D03*
X991351Y401964D02*
D03*
X1001483Y402021D02*
D03*
X1006622Y392264D02*
D03*
X1016814Y392098D02*
D03*
X1051095Y401985D02*
D03*
X1036750Y391833D02*
D03*
X1061578Y392164D02*
D03*
X1088446D02*
D03*
X1098488Y392054D02*
D03*
X1117302D02*
D03*
X936836Y251349D02*
D03*
X950016Y267969D02*
D03*
X962775Y268042D02*
D03*
X979212Y260551D02*
D03*
X1025595Y269686D02*
D03*
X1017253Y263834D02*
D03*
X1037141Y270002D02*
D03*
X1031684Y263834D02*
D03*
X1106162Y269343D02*
D03*
X1112520Y261620D02*
D03*
X956310Y251460D02*
D03*
X642620Y274320D02*
D03*
X929640Y11430D02*
D03*
X1092200D02*
D03*
X1178560D02*
D03*
X1042670D02*
D03*
X186690Y224790D02*
D03*
X662940Y285750D02*
D03*
X744220Y52070D02*
D03*
X69956Y266757D02*
D03*
X1043940Y35560D02*
D03*
X755650Y241300D02*
D03*
X947795Y138822D02*
D03*
X904240Y306070D02*
D03*
X913130D02*
D03*
X359410Y196850D02*
D03*
X375951Y188361D02*
D03*
X384634Y203635D02*
D03*
X1080837Y261687D02*
D03*
X1075642Y269046D02*
D03*
X1086372Y269325D02*
D03*
X1098550Y269240D02*
D03*
X537254Y374734D02*
D03*
X514604Y376597D02*
D03*
X522628Y386099D02*
D03*
X585470Y233680D02*
D03*
X638461Y246733D02*
D03*
X1159510Y454660D02*
D03*
X824709Y392799D02*
D03*
X826143Y381381D02*
D03*
X610535Y373543D02*
D03*
X576120Y374157D02*
D03*
X600292Y392901D02*
D03*
X445770Y410210D02*
D03*
X338927Y373188D02*
D03*
X375273Y372931D02*
D03*
X811530Y426720D02*
D03*
X767113Y415965D02*
D03*
X845323Y392356D02*
D03*
X637540Y436190D02*
D03*
X624426Y404691D02*
D03*
X797310Y410772D02*
D03*
X557767Y531007D02*
D03*
X734527Y448540D02*
D03*
X439936Y354007D02*
D03*
X678180Y342900D02*
D03*
X1051298Y392190D02*
D03*
X1065530Y55880D02*
D03*
X1165860D02*
D03*
X1016000Y77470D02*
D03*
X127000Y367030D02*
D03*
X740410Y237490D02*
D03*
X746760Y254436D02*
D03*
X717543Y143517D02*
D03*
X713160Y132080D02*
D03*
X717550Y157480D02*
D03*
X727710Y332740D02*
D03*
X734060Y327660D02*
D03*
X740410Y332740D02*
D03*
X725170Y267970D02*
D03*
X742950Y68580D02*
D03*
X913130Y158750D02*
D03*
X906780Y185420D02*
D03*
X1036320Y237490D02*
D03*
X989330Y222250D02*
D03*
X262890Y101600D02*
D03*
X949960Y388620D02*
D03*
X293370Y406400D02*
D03*
X661670Y116840D02*
D03*
X637540Y74930D02*
D03*
X680720Y143510D02*
D03*
X598170Y62230D02*
D03*
X542290Y69850D02*
D03*
X651510Y22860D02*
D03*
X681990D02*
D03*
X600710Y115570D02*
D03*
X775970Y118110D02*
D03*
X689610Y149860D02*
D03*
X1009187Y306960D02*
D03*
X1020778Y309646D02*
D03*
X1063182Y288180D02*
D03*
X1042670Y264160D02*
D03*
X997033Y391947D02*
D03*
X957580Y383540D02*
D03*
X961763Y355935D02*
D03*
X961390Y340360D02*
D03*
X937260Y356870D02*
D03*
Y342900D02*
D03*
X949960Y330962D02*
D03*
X1001397Y239678D02*
D03*
X991870Y267970D02*
D03*
X999490D02*
D03*
X1007690D02*
D03*
X999490Y260405D02*
D03*
X1127956Y270428D02*
D03*
X1050290Y255270D02*
D03*
X1029970Y250190D02*
D03*
X1051015Y412682D02*
D03*
X1003234Y438626D02*
D03*
X1030028Y434790D02*
D03*
X1013714Y287782D02*
D03*
X1021179Y287138D02*
D03*
X1017986Y298951D02*
D03*
X999097Y353837D02*
D03*
X989452Y354901D02*
D03*
X999204Y346931D02*
D03*
X999316Y340360D02*
D03*
X1009323Y339487D02*
D03*
X999490Y322580D02*
D03*
X979170Y316230D02*
D03*
Y298450D02*
D03*
Y291084D02*
D03*
X1108710Y288290D02*
D03*
X1117570Y300960D02*
D03*
X1099820Y298450D02*
D03*
X1099404Y306924D02*
D03*
X1109281Y307162D02*
D03*
X1078952Y306939D02*
D03*
X1039277Y306822D02*
D03*
X1059180Y322580D02*
D03*
Y339090D02*
D03*
X1039575Y339450D02*
D03*
X1039334Y346934D02*
D03*
X1039092Y355005D02*
D03*
Y362683D02*
D03*
X1023620Y372110D02*
D03*
X1059160Y362458D02*
D03*
X1059055Y355097D02*
D03*
X1078810Y346735D02*
D03*
X1076960Y338960D02*
D03*
X1078810Y355252D02*
D03*
X1078476Y363059D02*
D03*
X1099130Y362960D02*
D03*
Y355518D02*
D03*
Y339193D02*
D03*
X1099368Y323032D02*
D03*
X1109346Y323057D02*
D03*
X1119409Y330876D02*
D03*
X1119409Y345654D02*
D03*
X1119551Y360942D02*
D03*
X1099368Y314960D02*
D03*
X999385Y298794D02*
D03*
X999490Y307340D02*
D03*
X1195681Y426532D02*
D03*
X1109980Y486410D02*
D03*
X1070610Y445770D02*
D03*
X1189376Y478420D02*
D03*
X1136031Y487954D02*
D03*
X1093470Y448310D02*
D03*
X1083310Y492760D02*
D03*
X1198880Y447040D02*
D03*
X1164590Y532130D02*
D03*
X977900Y180340D02*
D03*
X1010920Y194310D02*
D03*
X1032510Y185420D02*
D03*
X1194580Y532130D02*
D03*
X889698Y241300D02*
D03*
X106680Y538480D02*
D03*
X302260Y398780D02*
D03*
X188580Y538017D02*
D03*
X246957Y361317D02*
D03*
X1060450Y138430D02*
D03*
X994338Y102870D02*
D03*
X942703Y90776D02*
D03*
X1105111Y89593D02*
D03*
X1071643Y179946D02*
D03*
X1098564Y146904D02*
D03*
X1196340Y100330D02*
D03*
X1157613Y132439D02*
D03*
X1167754Y347416D02*
D03*
X1176183Y404427D02*
D03*
X1014730Y502920D02*
D03*
X975501Y468283D02*
D03*
X869846Y424177D02*
D03*
X874530Y452754D02*
D03*
X851985Y504837D02*
D03*
X820317Y504621D02*
D03*
X635706Y528213D02*
D03*
X664670Y366711D02*
D03*
X858955Y305022D02*
D03*
X748030Y167640D02*
D03*
X752777Y176922D02*
D03*
X832636Y177304D02*
D03*
X852170Y151130D02*
D03*
X804375Y83674D02*
D03*
X850782Y52766D02*
D03*
X837616Y36490D02*
D03*
X757275Y36490D02*
D03*
X513598Y18903D02*
D03*
X608439Y29925D02*
D03*
X608612Y84886D02*
D03*
X608608Y136289D02*
D03*
X608700Y159238D02*
D03*
X513820Y159294D02*
D03*
X597042Y255093D02*
D03*
X560070Y241682D02*
D03*
X557158Y221929D02*
D03*
X570958Y368670D02*
D03*
X733532Y483000D02*
D03*
X734060Y530860D02*
D03*
X694690Y542290D02*
D03*
X669011Y482834D02*
D03*
X635145Y483787D02*
D03*
X568516Y531990D02*
D03*
X457015Y454062D02*
D03*
X458008Y485891D02*
D03*
X415260Y484421D02*
D03*
X391249Y483905D02*
D03*
X340431Y437435D02*
D03*
X314019Y495428D02*
D03*
X244891Y513375D02*
D03*
X255258Y513040D02*
D03*
X250190Y505460D02*
D03*
Y521970D02*
D03*
X231824Y465182D02*
D03*
X201123Y485715D02*
D03*
X149793Y484846D02*
D03*
X125635Y484556D02*
D03*
X114691Y507395D02*
D03*
X129841Y543625D02*
D03*
X136584Y257229D02*
D03*
X83613Y266217D02*
D03*
X118145Y141036D02*
D03*
X99932Y71796D02*
D03*
X38842Y113858D02*
D03*
X14992Y175714D02*
D03*
X45720Y213360D02*
D03*
X15097Y264368D02*
D03*
X102870Y392430D02*
D03*
X80010Y387350D02*
D03*
X72390Y403860D02*
D03*
X16510Y421640D02*
D03*
X46990Y408940D02*
D03*
X966470Y546100D02*
D03*
X317500Y454660D02*
D03*
X346710Y485140D02*
D03*
X293370Y440690D02*
D03*
X405130Y464820D02*
D03*
X403860Y490220D02*
D03*
X252730Y544830D02*
D03*
X180340Y187960D02*
D03*
X500771Y311505D02*
D03*
X465938Y312049D02*
D03*
X138430Y242570D02*
D03*
X275590Y345440D02*
D03*
X237743Y321852D02*
D03*
X469900Y466090D02*
D03*
X1153160Y119380D02*
D03*
X1167130Y154940D02*
D03*
X547370Y402082D02*
D03*
X694690Y511810D02*
D03*
X199390Y514350D02*
D03*
X781630Y254436D02*
D03*
X786130Y261620D02*
D03*
X998220Y121920D02*
D03*
X473710Y274320D02*
D03*
X312420Y187960D02*
D03*
X232410Y276860D02*
D03*
X53340Y175260D02*
D03*
X48260Y167640D02*
D03*
X509270Y290830D02*
D03*
X533400Y196850D02*
D03*
X643890Y201930D02*
D03*
X448310Y115570D02*
D03*
X516890Y392430D02*
D03*
X745490Y365760D02*
D03*
X619760Y341630D02*
D03*
Y325120D02*
D03*
X694690Y532964D02*
D03*
X615950Y454660D02*
D03*
X680720Y472440D02*
D03*
X643890Y403860D02*
D03*
X1047750Y91440D02*
D03*
X919480Y424180D02*
D03*
X840304D02*
D03*
X957580Y90170D02*
D03*
X642620Y326390D02*
D03*
X528320Y251460D02*
D03*
X577850D02*
D03*
X1064260Y20320D02*
D03*
X1031240Y172720D02*
D03*
X260350Y487680D02*
D03*
X306070Y485140D02*
D03*
X556006Y195238D02*
D03*
X516890Y251460D02*
D03*
X62230Y91440D02*
D03*
X571491Y241588D02*
D03*
X371735Y464820D02*
D03*
X336550D02*
D03*
X716280Y186690D02*
D03*
X452120Y435610D02*
D03*
X163538Y495554D02*
D03*
X432490Y420806D02*
D03*
X803656Y157480D02*
D03*
X226476Y486873D02*
D03*
X865730Y434086D02*
D03*
X1022858Y478282D02*
D03*
X408940Y420116D02*
D03*
X1005078Y145431D02*
D03*
X500380Y245443D02*
D03*
X423490Y459668D02*
D03*
X1034542Y537464D02*
D03*
X908812Y486664D02*
D03*
X897636Y484632D02*
D03*
X1150428Y49846D02*
D03*
X47752Y184404D02*
D03*
X100330Y274574D02*
D03*
X639826Y214738D02*
D03*
X147574Y446278D02*
D03*
D174*
X659091Y72884D02*
D03*
X661840Y66949D02*
D03*
X658177Y48451D02*
D03*
X657922Y41916D02*
D03*
X663494Y31572D02*
D03*
X670034D02*
D03*
X678118Y45794D02*
D03*
X675269Y51681D02*
D03*
X675072Y71155D02*
D03*
X633587Y131819D02*
D03*
X633900Y125287D02*
D03*
X634260Y118757D02*
D03*
X635817Y112405D02*
D03*
X638567Y106471D02*
D03*
X642352Y101138D02*
D03*
X647046Y96584D02*
D03*
X652491Y92961D02*
D03*
X658304Y89965D02*
D03*
X676215Y85366D02*
D03*
X679591Y79764D02*
D03*
X686122Y79422D02*
D03*
X692652Y79788D02*
D03*
X669246Y104728D02*
D03*
X662707Y104616D02*
D03*
X656188Y105148D02*
D03*
X651363Y109563D02*
D03*
X648007Y115176D02*
D03*
X646404Y121517D02*
D03*
X646260Y128055D02*
D03*
X645632Y134565D02*
D03*
X643289Y140671D02*
D03*
X639518Y146014D02*
D03*
X635195Y150922D02*
D03*
X1182661Y531038D02*
D03*
X1176121D02*
D03*
X1169732Y521598D02*
D03*
X1169808Y515058D02*
D03*
X1173650Y509766D02*
D03*
Y503226D02*
D03*
X1173475Y496688D02*
D03*
X1170127Y491070D02*
D03*
X1164025Y488717D02*
D03*
X1157485Y488701D02*
D03*
X1151082Y490035D02*
D03*
X1144544Y489897D02*
D03*
X1153567Y476125D02*
D03*
X1160104Y476340D02*
D03*
X1166639Y476592D02*
D03*
X1172938Y478352D02*
D03*
X1178413Y481929D02*
D03*
X1182659Y486903D02*
D03*
X1185216Y492923D02*
D03*
X1186010Y499414D02*
D03*
Y505954D02*
D03*
X1188536Y511987D02*
D03*
X1189928Y518377D02*
D03*
X1118220Y447861D02*
D03*
X1119718Y441494D02*
D03*
X1124450Y436980D02*
D03*
X1130418Y434305D02*
D03*
Y427766D02*
D03*
Y421226D02*
D03*
Y414686D02*
D03*
Y408146D02*
D03*
Y401606D02*
D03*
Y395066D02*
D03*
X1136255Y351800D02*
D03*
X1142778Y421546D02*
D03*
X1142773Y434626D02*
D03*
X1141068Y440940D02*
D03*
X1136663Y445774D02*
D03*
X1130580Y448177D02*
D03*
X1130949Y454707D02*
D03*
X1152843Y413908D02*
D03*
X1146450Y412531D02*
D03*
X1144782Y406208D02*
D03*
Y399668D02*
D03*
X1145607Y393180D02*
D03*
X1144952Y386673D02*
D03*
X1144494Y380149D02*
D03*
Y373609D02*
D03*
Y367069D02*
D03*
Y360529D02*
D03*
Y353989D02*
D03*
Y347449D02*
D03*
X1143606Y340969D02*
D03*
X1139936Y335556D02*
D03*
X1134189Y332436D02*
D03*
X1137885Y320784D02*
D03*
X1143897Y323359D02*
D03*
X1149067Y327365D02*
D03*
X1153071Y332536D02*
D03*
X1155645Y338548D02*
D03*
X1156702Y345002D02*
D03*
X1156746Y351541D02*
D03*
Y358082D02*
D03*
Y364621D02*
D03*
Y371161D02*
D03*
X1160496Y376520D02*
D03*
X1162211Y394731D02*
D03*
X1159631Y413520D02*
D03*
M02*
