G04*
G04 #@! TF.GenerationSoftware,Altium Limited,Altium Designer,21.6.4 (81)*
G04*
G04 Layer_Color=32896*
%FSLAX44Y44*%
%MOMM*%
G71*
G04*
G04 #@! TF.SameCoordinates,35F2EB46-45B6-4E83-8094-EA5E86E84025*
G04*
G04*
G04 #@! TF.FilePolarity,Positive*
G04*
G01*
G75*
G36*
X273578Y433396D02*
X273845D01*
Y432328D01*
X273578D01*
Y431795D01*
X273311D01*
Y431528D01*
X273045D01*
Y431795D01*
X272778D01*
Y432061D01*
X272511D01*
Y433662D01*
X273578D01*
Y433396D01*
D02*
G37*
G36*
X276247Y409113D02*
X277581D01*
Y408846D01*
X278915D01*
Y408579D01*
X279716D01*
Y408312D01*
X281050D01*
Y408045D01*
X281850D01*
Y407779D01*
X283451D01*
Y407512D01*
X285053D01*
Y407245D01*
X285319D01*
Y406978D01*
X286387D01*
Y406711D01*
X286654D01*
Y406444D01*
X287454D01*
Y406177D01*
X287988D01*
Y405911D01*
X288788D01*
Y405644D01*
X289322D01*
Y405377D01*
X289856D01*
Y405110D01*
X290123D01*
Y404843D01*
X291190D01*
Y404576D01*
X291724D01*
Y404310D01*
X292524D01*
Y404043D01*
X293058D01*
Y403776D01*
X293325D01*
Y403509D01*
X294125D01*
Y403242D01*
X294926D01*
Y402975D01*
X295193D01*
Y402709D01*
X295459D01*
Y402442D01*
X296260D01*
Y401908D01*
X296794D01*
Y401641D01*
X297061D01*
Y401374D01*
X297327D01*
Y401107D01*
X297861D01*
Y400841D01*
X298395D01*
Y400574D01*
X298929D01*
Y400307D01*
X299195D01*
Y400040D01*
X299729D01*
Y399773D01*
X299996D01*
Y399506D01*
X300263D01*
Y399240D01*
X301063D01*
Y398973D01*
X301597D01*
Y398706D01*
X301864D01*
Y398172D01*
X302131D01*
Y397905D01*
X302397D01*
Y397638D01*
X302664D01*
Y397372D01*
X302931D01*
Y397105D01*
X303198D01*
Y396838D01*
X303465D01*
Y396571D01*
X303999D01*
Y396304D01*
X304265D01*
Y396037D01*
X304532D01*
Y395770D01*
X305066D01*
Y395504D01*
X305333D01*
Y395237D01*
X305600D01*
Y394970D01*
X305867D01*
Y394703D01*
X306400D01*
Y394436D01*
X306667D01*
Y394170D01*
X306934D01*
Y393636D01*
X307468D01*
Y393102D01*
X307734D01*
Y392835D01*
X308001D01*
Y392568D01*
X308268D01*
Y392302D01*
X308535D01*
Y392035D01*
X308802D01*
Y391768D01*
X309069D01*
Y391234D01*
X309335D01*
Y390967D01*
X309602D01*
Y390700D01*
X309869D01*
Y390434D01*
X310136D01*
Y390167D01*
X310403D01*
Y389900D01*
X310670D01*
Y389633D01*
X310937D01*
Y389366D01*
X311203D01*
Y389099D01*
X311470D01*
Y388833D01*
X311737D01*
Y388299D01*
X312004D01*
Y388032D01*
X312271D01*
Y387765D01*
X312538D01*
Y386965D01*
X312805D01*
Y386698D01*
X313338D01*
Y386164D01*
X313605D01*
Y385897D01*
X313872D01*
Y385097D01*
X314139D01*
Y384563D01*
X314405D01*
Y384296D01*
X314672D01*
Y384029D01*
X314939D01*
Y383229D01*
X315206D01*
Y382962D01*
X315473D01*
Y382161D01*
X315740D01*
Y381628D01*
X316007D01*
Y381361D01*
X316273D01*
Y380827D01*
X316540D01*
Y379760D01*
X316807D01*
Y379226D01*
Y378959D01*
X317074D01*
Y378693D01*
X317341D01*
Y377892D01*
X317608D01*
Y376291D01*
X317875D01*
Y376024D01*
X317608D01*
Y375490D01*
X317875D01*
Y372021D01*
X318141D01*
Y371754D01*
X317875D01*
Y371488D01*
X318141D01*
Y368019D01*
X318408D01*
Y367752D01*
X318141D01*
Y367485D01*
X318408D01*
Y366684D01*
X318141D01*
Y366418D01*
X318408D01*
Y364817D01*
X318141D01*
Y363482D01*
X317875D01*
Y362949D01*
X317608D01*
Y362682D01*
X316540D01*
Y363215D01*
X316273D01*
Y363749D01*
X315473D01*
Y364283D01*
X315206D01*
Y364817D01*
X315473D01*
Y367485D01*
X315206D01*
Y368285D01*
X314939D01*
Y368819D01*
X314672D01*
Y370153D01*
X314405D01*
Y371221D01*
X314139D01*
Y372288D01*
X313872D01*
Y372822D01*
X313605D01*
Y374423D01*
X313338D01*
Y375224D01*
X313071D01*
Y375757D01*
X312805D01*
Y376558D01*
X312538D01*
Y377358D01*
X312271D01*
Y377892D01*
X312004D01*
Y378693D01*
X311737D01*
Y379493D01*
X311470D01*
Y380027D01*
X311203D01*
Y380294D01*
X310937D01*
Y381361D01*
X310670D01*
Y381628D01*
X310403D01*
Y382428D01*
X310136D01*
Y382695D01*
X309869D01*
Y383496D01*
X309602D01*
Y384029D01*
X309335D01*
Y384563D01*
X309069D01*
Y385097D01*
X308802D01*
Y385630D01*
X308535D01*
Y385897D01*
X308268D01*
Y386431D01*
X308001D01*
Y386698D01*
X307734D01*
Y387231D01*
X307468D01*
Y387765D01*
X307201D01*
Y388032D01*
X306934D01*
Y388299D01*
X306667D01*
Y388566D01*
X306400D01*
Y389099D01*
X306133D01*
Y389366D01*
X305867D01*
Y389633D01*
X305600D01*
Y390167D01*
X305333D01*
Y390434D01*
X305066D01*
Y390967D01*
X304799D01*
Y391234D01*
X304265D01*
Y391768D01*
X303999D01*
Y392035D01*
X303732D01*
Y392302D01*
X303465D01*
Y392835D01*
X302931D01*
Y393102D01*
X302664D01*
Y393369D01*
X302397D01*
Y393636D01*
X302131D01*
Y393903D01*
X301864D01*
Y394170D01*
X301330D01*
Y394436D01*
X301063D01*
Y394970D01*
X300530D01*
Y395237D01*
X300263D01*
Y395504D01*
X299996D01*
Y396037D01*
X299462D01*
Y396304D01*
X299729D01*
Y396571D01*
X299462D01*
Y396838D01*
X298929D01*
Y397105D01*
X298662D01*
Y397372D01*
X298395D01*
Y397638D01*
X297861D01*
Y397905D01*
X297594D01*
Y398172D01*
X297061D01*
Y398439D01*
X296527D01*
Y398706D01*
X295993D01*
Y398973D01*
X295726D01*
Y399240D01*
X294926D01*
Y399506D01*
X294659D01*
Y399773D01*
X294392D01*
Y400040D01*
X293859D01*
Y400307D01*
X293325D01*
Y400574D01*
X292791D01*
Y400841D01*
X292524D01*
Y401107D01*
X291991D01*
Y401374D01*
X291190D01*
Y401641D01*
X290923D01*
Y401908D01*
X290656D01*
Y402175D01*
X290389D01*
Y402442D01*
X289856D01*
Y402709D01*
X289322D01*
Y402975D01*
X288788D01*
Y403242D01*
X287721D01*
Y403509D01*
X287187D01*
Y403776D01*
X286654D01*
Y404043D01*
X286387D01*
Y404310D01*
X285586D01*
Y404576D01*
X284252D01*
Y404843D01*
X283718D01*
Y405110D01*
X282117D01*
Y405377D01*
X281050D01*
Y405644D01*
X280516D01*
Y405911D01*
X279182D01*
Y406177D01*
X278648D01*
Y406444D01*
X275179D01*
Y406711D01*
X273845D01*
Y406978D01*
X273578D01*
Y407779D01*
X273845D01*
Y408045D01*
X274112D01*
Y408312D01*
X274379D01*
Y408579D01*
X274112D01*
Y409113D01*
X274379D01*
Y409380D01*
X275713D01*
Y409113D01*
X275980D01*
Y409380D01*
X276247D01*
Y409113D01*
D02*
G37*
G36*
X241290Y394703D02*
X241023D01*
Y394970D01*
X241290D01*
Y394703D01*
D02*
G37*
G36*
X237554Y397905D02*
X237821D01*
Y397372D01*
X238088D01*
Y396571D01*
X238622D01*
Y396304D01*
X239689D01*
Y396037D01*
X239956D01*
Y395504D01*
X240223D01*
Y395237D01*
X240490D01*
Y394970D01*
X240756D01*
Y394703D01*
X241023D01*
Y394436D01*
X241290D01*
Y394170D01*
X241824D01*
Y393903D01*
X242091D01*
Y393636D01*
X242357D01*
Y393102D01*
X242624D01*
Y392568D01*
X243158D01*
Y392302D01*
X243425D01*
Y392035D01*
X243692D01*
Y391768D01*
X243958D01*
Y391501D01*
X244225D01*
Y391234D01*
X244492D01*
Y390967D01*
X244225D01*
Y391234D01*
X243958D01*
Y390967D01*
X244225D01*
Y390700D01*
X244492D01*
Y390434D01*
X244759D01*
Y390167D01*
X245026D01*
Y389366D01*
X245560D01*
Y389099D01*
X245826D01*
Y388299D01*
X246360D01*
Y387765D01*
X246627D01*
Y387498D01*
X246894D01*
Y386698D01*
X247161D01*
Y386431D01*
X247428D01*
Y385897D01*
X247694D01*
Y385364D01*
X248228D01*
Y384830D01*
X248762D01*
Y384563D01*
X248495D01*
Y384296D01*
X249029D01*
Y383763D01*
X249295D01*
Y383229D01*
X249829D01*
Y382695D01*
X250096D01*
Y382428D01*
X250363D01*
Y382161D01*
X250630D01*
Y381895D01*
X250363D01*
Y381628D01*
X250896D01*
Y381361D01*
X251163D01*
Y380827D01*
X251430D01*
Y380027D01*
X251964D01*
Y379760D01*
X252231D01*
Y378959D01*
X252764D01*
Y378159D01*
X253031D01*
Y377625D01*
X253565D01*
Y377091D01*
X253832D01*
Y376558D01*
X254099D01*
Y376291D01*
X254366D01*
Y375757D01*
X254632D01*
Y375224D01*
X254899D01*
Y374957D01*
X255166D01*
Y374690D01*
X254899D01*
Y374423D01*
X255433D01*
Y374156D01*
X255166D01*
Y373889D01*
X255700D01*
Y373622D01*
X255433D01*
Y373356D01*
X255700D01*
Y373089D01*
X255966D01*
Y372822D01*
X256233D01*
Y372288D01*
X256500D01*
Y371754D01*
X256767D01*
Y371221D01*
X257034D01*
Y370954D01*
X257301D01*
Y370420D01*
X257568D01*
Y369887D01*
X257834D01*
Y369353D01*
X258101D01*
Y369086D01*
X258368D01*
Y368552D01*
X258635D01*
Y368285D01*
X258902D01*
Y367752D01*
X259169D01*
Y367485D01*
X259436D01*
Y366951D01*
X259702D01*
Y366684D01*
X259969D01*
Y366151D01*
X260236D01*
Y365617D01*
X260503D01*
Y365083D01*
X260770D01*
Y364550D01*
X261037D01*
Y363749D01*
X261303D01*
Y363482D01*
X261570D01*
Y362949D01*
X261837D01*
Y362415D01*
X262104D01*
Y361614D01*
X262371D01*
Y361348D01*
X262638D01*
Y360814D01*
X262904D01*
Y360013D01*
X263171D01*
Y359213D01*
X263438D01*
Y358412D01*
X263705D01*
Y357879D01*
X263972D01*
Y357078D01*
X264239D01*
Y356544D01*
X264506D01*
Y355744D01*
X264772D01*
Y355210D01*
X265039D01*
Y354677D01*
X265306D01*
Y353876D01*
X265573D01*
Y353075D01*
X265840D01*
Y352542D01*
X266107D01*
Y351741D01*
X266374D01*
Y351208D01*
X266640D01*
Y350407D01*
X266907D01*
Y349606D01*
X267174D01*
Y349073D01*
X267441D01*
Y348272D01*
X267708D01*
Y347472D01*
X267974D01*
Y346671D01*
X268241D01*
Y345871D01*
X268508D01*
Y345070D01*
X268775D01*
Y343469D01*
X269042D01*
Y342935D01*
X269309D01*
Y342668D01*
X269042D01*
Y342402D01*
X269309D01*
Y341601D01*
X269576D01*
Y340534D01*
X269842D01*
Y339733D01*
X270109D01*
Y338933D01*
X270376D01*
Y337865D01*
X270643D01*
Y336798D01*
X270910D01*
Y335464D01*
X271177D01*
Y334396D01*
X271444D01*
Y333329D01*
X271710D01*
Y331995D01*
X271977D01*
Y331461D01*
X272244D01*
Y331194D01*
X272511D01*
Y330660D01*
X272778D01*
Y329593D01*
X272244D01*
Y329326D01*
X272511D01*
Y328259D01*
X272778D01*
Y326925D01*
X273045D01*
Y325590D01*
X273311D01*
Y325057D01*
X273045D01*
Y323722D01*
X273311D01*
Y321054D01*
X273845D01*
Y321321D01*
X274646D01*
Y321054D01*
X275179D01*
Y320787D01*
X275713D01*
Y320520D01*
X276247D01*
Y320253D01*
X276780D01*
Y320520D01*
X277047D01*
Y319987D01*
X277314D01*
Y320253D01*
X277848D01*
Y319987D01*
X278648D01*
Y319720D01*
X279182D01*
Y319453D01*
X279982D01*
Y319186D01*
X280249D01*
Y318919D01*
X280783D01*
Y318652D01*
X281317D01*
Y318386D01*
X281850D01*
Y318119D01*
X282384D01*
Y317852D01*
X282918D01*
Y317585D01*
X283451D01*
Y317318D01*
X283718D01*
Y317051D01*
X284252D01*
Y316784D01*
X284519D01*
Y316518D01*
X285053D01*
Y316251D01*
X285853D01*
Y315984D01*
X286120D01*
Y315717D01*
X286654D01*
Y315450D01*
X287187D01*
Y315183D01*
X287454D01*
Y314917D01*
X287721D01*
Y314650D01*
X287988D01*
Y314383D01*
X288522D01*
Y314116D01*
X288788D01*
Y313582D01*
X289055D01*
Y313316D01*
X289322D01*
Y313049D01*
X289589D01*
Y312515D01*
X289856D01*
Y312248D01*
X290123D01*
Y311714D01*
X290389D01*
Y311448D01*
X290656D01*
Y310647D01*
X290923D01*
Y309846D01*
X291190D01*
Y309313D01*
X291457D01*
Y308512D01*
X291724D01*
Y308246D01*
X291991D01*
Y307178D01*
X292257D01*
Y306644D01*
X292524D01*
Y306378D01*
X292257D01*
Y306111D01*
X292791D01*
Y305310D01*
X293058D01*
Y305043D01*
X292791D01*
Y304776D01*
X293058D01*
Y304243D01*
X293325D01*
Y303175D01*
X293592D01*
Y302909D01*
X293325D01*
Y302642D01*
X293592D01*
Y296504D01*
X293325D01*
Y296238D01*
X293592D01*
Y295971D01*
X293325D01*
Y295704D01*
X293592D01*
Y294370D01*
X293325D01*
Y293836D01*
X293058D01*
Y293302D01*
X292791D01*
Y292768D01*
X292524D01*
Y291968D01*
X292257D01*
Y290367D01*
X291991D01*
Y290100D01*
X292257D01*
Y289833D01*
X291991D01*
Y289033D01*
X291724D01*
Y288766D01*
X291991D01*
Y288499D01*
X291724D01*
Y286631D01*
X291457D01*
Y285297D01*
X291190D01*
Y285030D01*
X291457D01*
Y284763D01*
X291190D01*
Y283696D01*
X290923D01*
Y282362D01*
X290656D01*
Y281294D01*
X290389D01*
Y280494D01*
X290123D01*
Y279426D01*
X289589D01*
Y278892D01*
X289322D01*
Y278626D01*
X289055D01*
Y278092D01*
X288788D01*
Y277825D01*
X288255D01*
Y277558D01*
X287988D01*
Y277292D01*
X287721D01*
Y277025D01*
X286921D01*
Y276758D01*
X286654D01*
Y276491D01*
X285586D01*
Y276224D01*
X285319D01*
Y276491D01*
X283985D01*
Y276758D01*
X283185D01*
Y277025D01*
X282651D01*
Y277292D01*
X282384D01*
Y277558D01*
X281850D01*
Y277825D01*
X281584D01*
Y278092D01*
X281050D01*
Y278359D01*
X280783D01*
Y278626D01*
X280249D01*
Y279159D01*
X279716D01*
Y279426D01*
X279449D01*
Y279960D01*
X278915D01*
Y280227D01*
X278648D01*
Y280494D01*
X278382D01*
Y280760D01*
X278115D01*
Y281027D01*
X277848D01*
Y281294D01*
X277314D01*
Y281561D01*
X277047D01*
Y281828D01*
X276780D01*
Y282095D01*
X276514D01*
Y282362D01*
X276247D01*
Y282628D01*
X275980D01*
Y282895D01*
X275446D01*
Y283162D01*
X275179D01*
Y283429D01*
X274912D01*
Y283696D01*
X274379D01*
Y283963D01*
X274112D01*
Y284229D01*
X273845D01*
Y284496D01*
X273578D01*
Y284229D01*
X273045D01*
Y284496D01*
X272511D01*
Y284763D01*
X272244D01*
Y281294D01*
X271977D01*
Y281027D01*
X271710D01*
Y280494D01*
X271444D01*
Y279960D01*
X271177D01*
Y279159D01*
X270910D01*
Y278359D01*
X270643D01*
Y277825D01*
X270376D01*
Y277292D01*
X270109D01*
Y276491D01*
X269842D01*
Y275424D01*
X269576D01*
Y274890D01*
X269309D01*
Y274356D01*
X269042D01*
Y273556D01*
X268775D01*
Y272755D01*
X268508D01*
Y272221D01*
X268241D01*
Y271421D01*
X267974D01*
Y270887D01*
X267708D01*
Y270087D01*
X267174D01*
Y269820D01*
X267441D01*
Y269286D01*
X267174D01*
Y268752D01*
X266907D01*
Y267685D01*
X266640D01*
Y266084D01*
X266374D01*
Y265817D01*
X266107D01*
Y264483D01*
X265840D01*
Y263949D01*
X265573D01*
Y263149D01*
X265306D01*
Y262348D01*
X265039D01*
Y261548D01*
X264772D01*
Y260747D01*
X264506D01*
Y259947D01*
X264239D01*
Y259146D01*
X263972D01*
Y258879D01*
X263705D01*
Y258612D01*
X263972D01*
Y258346D01*
X263705D01*
Y257812D01*
X263438D01*
Y257545D01*
X263705D01*
Y257278D01*
X263438D01*
Y256744D01*
X263171D01*
Y255944D01*
X262904D01*
Y255143D01*
X262638D01*
Y254876D01*
X262371D01*
Y254076D01*
X262104D01*
Y253275D01*
X261837D01*
Y252208D01*
X261570D01*
Y251674D01*
X261303D01*
Y250874D01*
X261037D01*
Y249806D01*
X260770D01*
Y249273D01*
X260503D01*
Y248739D01*
X260236D01*
Y248205D01*
X259969D01*
Y247405D01*
X259702D01*
Y246604D01*
X259436D01*
Y246071D01*
X259169D01*
Y245537D01*
X258902D01*
Y245003D01*
X258635D01*
Y244470D01*
X258368D01*
Y244203D01*
X258101D01*
Y243936D01*
X257834D01*
Y243135D01*
X257568D01*
Y242602D01*
X257301D01*
Y242068D01*
X257034D01*
Y241534D01*
X256767D01*
Y240734D01*
X256500D01*
Y240200D01*
X256233D01*
Y239666D01*
X255966D01*
Y239133D01*
X255700D01*
Y238599D01*
X255433D01*
Y238065D01*
X255166D01*
Y237799D01*
X254899D01*
Y237265D01*
X254632D01*
Y236464D01*
X254366D01*
Y235931D01*
X254099D01*
Y235664D01*
X253832D01*
Y234863D01*
X253565D01*
Y234596D01*
X253298D01*
Y234063D01*
X253031D01*
Y233796D01*
X252764D01*
Y233262D01*
X252498D01*
Y232728D01*
X252231D01*
Y232195D01*
X251964D01*
Y231661D01*
X251697D01*
Y231394D01*
X251430D01*
Y230594D01*
X251163D01*
Y230060D01*
X250896D01*
Y229526D01*
X250630D01*
Y228993D01*
X250363D01*
Y228192D01*
X250096D01*
Y227658D01*
X249829D01*
Y227125D01*
X249562D01*
Y226591D01*
X249295D01*
Y226057D01*
X249029D01*
Y225524D01*
X248762D01*
Y225257D01*
X248495D01*
Y224723D01*
X248228D01*
Y224189D01*
X247961D01*
Y223656D01*
X247694D01*
Y223389D01*
X247428D01*
Y223122D01*
X247161D01*
Y222855D01*
X247428D01*
Y222588D01*
X246894D01*
Y222055D01*
X246627D01*
Y221788D01*
X246894D01*
Y221521D01*
X246360D01*
Y220987D01*
X246093D01*
Y220187D01*
X245826D01*
Y219920D01*
X245560D01*
Y219653D01*
X245826D01*
Y219386D01*
X245560D01*
Y219119D01*
X245293D01*
Y218052D01*
X244759D01*
Y217518D01*
X245293D01*
Y217251D01*
X245560D01*
Y216985D01*
X245826D01*
Y217251D01*
X246360D01*
Y216985D01*
X246894D01*
Y216718D01*
X247428D01*
Y216451D01*
X247694D01*
Y216184D01*
X247961D01*
Y215917D01*
X248228D01*
Y215650D01*
X248495D01*
Y215383D01*
X248762D01*
Y215117D01*
X249029D01*
Y214583D01*
X249562D01*
Y214316D01*
X249829D01*
Y213782D01*
X250096D01*
Y213516D01*
X250363D01*
Y213249D01*
X250630D01*
Y212715D01*
X250896D01*
Y212181D01*
X251163D01*
Y211915D01*
X251430D01*
Y211381D01*
X251697D01*
Y210847D01*
X251964D01*
Y210313D01*
X252231D01*
Y209780D01*
X252498D01*
Y208979D01*
X252764D01*
Y208712D01*
X253031D01*
Y207912D01*
X253298D01*
Y207111D01*
X253565D01*
Y206578D01*
X253832D01*
Y206044D01*
X254099D01*
Y204977D01*
X254366D01*
Y202842D01*
X254632D01*
Y199640D01*
X254366D01*
Y198305D01*
X254099D01*
Y198039D01*
X253832D01*
Y197772D01*
X254099D01*
Y197238D01*
X253565D01*
Y196704D01*
X253298D01*
Y196171D01*
X252764D01*
Y195904D01*
X252498D01*
Y195637D01*
X251964D01*
Y195370D01*
X251697D01*
Y195103D01*
X250896D01*
Y194837D01*
X249562D01*
Y195103D01*
X248762D01*
Y195637D01*
X248228D01*
Y195904D01*
X247961D01*
Y196437D01*
X247694D01*
Y196971D01*
X247428D01*
Y197772D01*
X247161D01*
Y198039D01*
X246894D01*
Y198572D01*
X246627D01*
Y198839D01*
X246360D01*
Y199373D01*
X246093D01*
Y199640D01*
X245826D01*
Y200173D01*
X245560D01*
Y200440D01*
X245293D01*
Y200707D01*
X245026D01*
Y200974D01*
X244759D01*
Y201508D01*
X244492D01*
Y202041D01*
X244225D01*
Y202308D01*
X243958D01*
Y202575D01*
X243692D01*
Y202842D01*
X243425D01*
Y203109D01*
X243158D01*
Y203642D01*
X242624D01*
Y203909D01*
X242357D01*
Y204176D01*
X242091D01*
Y204443D01*
X241824D01*
Y204710D01*
X241290D01*
Y204977D01*
X241023D01*
Y205243D01*
X239956D01*
Y205510D01*
X239689D01*
Y205777D01*
X239155D01*
Y205243D01*
X238888D01*
Y204977D01*
X238622D01*
Y204176D01*
X238355D01*
Y203642D01*
X238088D01*
Y202842D01*
X237821D01*
Y202308D01*
X237554D01*
Y201508D01*
X237287D01*
Y200974D01*
X237020D01*
Y200173D01*
X236754D01*
Y199373D01*
X236487D01*
Y198839D01*
X236220D01*
Y198305D01*
X235953D01*
Y198039D01*
X235420D01*
Y197772D01*
X235686D01*
Y197238D01*
X235420D01*
Y196704D01*
X235153D01*
Y196171D01*
X234886D01*
Y195637D01*
X234619D01*
Y195103D01*
X234352D01*
Y194303D01*
X233818D01*
Y193769D01*
X233552D01*
Y193502D01*
X233818D01*
Y193235D01*
X233552D01*
Y192969D01*
X233285D01*
Y192168D01*
X233018D01*
Y191367D01*
X232751D01*
Y191101D01*
X233018D01*
Y190567D01*
X233285D01*
Y190300D01*
X233552D01*
Y189766D01*
X233818D01*
Y189233D01*
X234085D01*
Y188432D01*
X234352D01*
Y188165D01*
X234619D01*
Y187632D01*
X234886D01*
Y187098D01*
X235153D01*
Y186564D01*
X235420D01*
Y186031D01*
X235686D01*
Y185764D01*
X235953D01*
Y185230D01*
X236220D01*
Y184963D01*
X236487D01*
Y184696D01*
X236754D01*
Y184163D01*
X237020D01*
Y183629D01*
X237287D01*
Y183362D01*
X237554D01*
Y183095D01*
X237821D01*
Y182562D01*
X238088D01*
Y182028D01*
X238355D01*
Y181494D01*
X238622D01*
Y181227D01*
X238888D01*
Y180694D01*
X239155D01*
Y180160D01*
X239422D01*
Y179893D01*
X239689D01*
Y179359D01*
X239956D01*
Y178826D01*
X240223D01*
Y178292D01*
X240490D01*
Y177758D01*
X240756D01*
Y177225D01*
X241023D01*
Y176958D01*
X241290D01*
Y176424D01*
X241557D01*
Y175891D01*
X241824D01*
Y175090D01*
X242091D01*
Y174823D01*
X242357D01*
Y174556D01*
X242624D01*
Y174023D01*
X242891D01*
Y173489D01*
X243158D01*
Y173222D01*
X243425D01*
Y172688D01*
X243692D01*
Y172421D01*
X243958D01*
Y171888D01*
X244225D01*
Y171087D01*
X244492D01*
Y170820D01*
X244759D01*
Y170287D01*
X245026D01*
Y170020D01*
X245293D01*
Y169486D01*
X245560D01*
Y168953D01*
X245826D01*
Y168686D01*
X246093D01*
Y168152D01*
X246360D01*
Y167618D01*
X246627D01*
Y167351D01*
X246894D01*
Y166818D01*
X247161D01*
Y166284D01*
X247428D01*
Y166017D01*
X247694D01*
Y165750D01*
X247961D01*
Y165217D01*
X248228D01*
Y164683D01*
X248495D01*
Y164416D01*
X248762D01*
Y163883D01*
X249029D01*
Y163349D01*
X249295D01*
Y162815D01*
X249562D01*
Y162548D01*
X249829D01*
Y161748D01*
X250096D01*
Y161214D01*
X250363D01*
Y160947D01*
X250630D01*
Y160680D01*
X250896D01*
Y160413D01*
X251163D01*
Y160147D01*
X251430D01*
Y159613D01*
X251697D01*
Y159346D01*
X251964D01*
Y159079D01*
X252231D01*
Y158812D01*
X252498D01*
Y158279D01*
X252764D01*
Y158012D01*
X253031D01*
Y157745D01*
X253298D01*
Y157211D01*
X253565D01*
Y156945D01*
X253832D01*
Y156678D01*
X254099D01*
Y156411D01*
X254366D01*
Y155877D01*
X254632D01*
Y155610D01*
X254899D01*
Y155077D01*
X255166D01*
Y154810D01*
X255700D01*
Y154543D01*
X255966D01*
Y154276D01*
X256233D01*
Y153742D01*
X256500D01*
Y153476D01*
X256767D01*
Y153209D01*
X257034D01*
Y152942D01*
X257301D01*
Y152408D01*
X257568D01*
Y152141D01*
X257834D01*
Y151874D01*
X258101D01*
Y151608D01*
X258368D01*
Y151341D01*
X258635D01*
Y151074D01*
X258902D01*
Y150540D01*
X259169D01*
Y150273D01*
X259436D01*
Y150007D01*
X259702D01*
Y149740D01*
X259969D01*
Y149473D01*
X260236D01*
Y148939D01*
X260503D01*
Y148672D01*
X260770D01*
Y148406D01*
X261037D01*
Y148139D01*
X261303D01*
Y147338D01*
X261837D01*
Y146804D01*
X262371D01*
Y146538D01*
X262638D01*
Y146271D01*
X262904D01*
Y146004D01*
X263438D01*
Y145470D01*
X263705D01*
Y145203D01*
X263972D01*
Y144937D01*
X264772D01*
Y144670D01*
X265039D01*
Y144403D01*
X264772D01*
Y144136D01*
X265306D01*
Y143335D01*
X265573D01*
Y143069D01*
X265840D01*
Y142802D01*
X266107D01*
Y142268D01*
X266374D01*
Y141201D01*
X266107D01*
Y140667D01*
X265840D01*
Y140133D01*
X265306D01*
Y139866D01*
X264772D01*
Y139600D01*
X263438D01*
Y139866D01*
X263171D01*
Y140133D01*
X262904D01*
Y140400D01*
X262638D01*
Y140667D01*
X262104D01*
Y140400D01*
X261837D01*
Y140934D01*
X261570D01*
Y140667D01*
X261303D01*
Y141201D01*
X261037D01*
Y141468D01*
X260770D01*
Y141201D01*
X260236D01*
Y141468D01*
X259969D01*
Y141734D01*
X259702D01*
Y142001D01*
X258902D01*
Y142268D01*
X258635D01*
Y142535D01*
X258368D01*
Y142268D01*
X258101D01*
Y142535D01*
X257834D01*
Y142802D01*
X257034D01*
Y143069D01*
X255966D01*
Y143335D01*
X255166D01*
Y143602D01*
X254632D01*
Y143869D01*
X254099D01*
Y144136D01*
X253832D01*
Y144403D01*
X253298D01*
Y144670D01*
X252764D01*
Y144937D01*
X252231D01*
Y145203D01*
X251430D01*
Y145470D01*
X250896D01*
Y145737D01*
X250363D01*
Y146004D01*
X249562D01*
Y146271D01*
X248228D01*
Y146538D01*
X247428D01*
Y146804D01*
X246894D01*
Y147071D01*
X246627D01*
Y146804D01*
X246360D01*
Y147071D01*
X245560D01*
Y147338D01*
X244492D01*
Y147605D01*
X242357D01*
Y147872D01*
X242091D01*
Y147605D01*
X241824D01*
Y147872D01*
X240756D01*
Y148139D01*
X238622D01*
Y148406D01*
X238355D01*
Y148139D01*
X235953D01*
Y147872D01*
X234886D01*
Y148139D01*
X234352D01*
Y147872D01*
X234619D01*
Y147605D01*
X233818D01*
Y147872D01*
X232484D01*
Y147605D01*
X232751D01*
Y147338D01*
X232484D01*
Y147605D01*
X232217D01*
Y147338D01*
X231684D01*
Y147605D01*
X231150D01*
Y147338D01*
X230883D01*
Y147071D01*
X229816D01*
Y147338D01*
X229549D01*
Y147071D01*
X229816D01*
Y146804D01*
X229282D01*
Y146538D01*
X228748D01*
Y146271D01*
X228215D01*
Y146004D01*
X227681D01*
Y145737D01*
X227147D01*
Y146004D01*
X226880D01*
Y145737D01*
X226614D01*
Y145470D01*
X225813D01*
Y145203D01*
X225279D01*
Y144937D01*
X224746D01*
Y144670D01*
X223945D01*
Y144403D01*
X223412D01*
Y144136D01*
X222878D01*
Y143869D01*
X222077D01*
Y143602D01*
X221544D01*
Y143335D01*
X221277D01*
Y143069D01*
X220476D01*
Y142802D01*
X220209D01*
Y142535D01*
X219676D01*
Y142268D01*
X219142D01*
Y142001D01*
X218608D01*
Y141734D01*
X218075D01*
Y141468D01*
X217541D01*
Y141201D01*
X217007D01*
Y140934D01*
X216474D01*
Y140667D01*
X215940D01*
Y140400D01*
X215406D01*
Y140133D01*
X214872D01*
Y139866D01*
X214339D01*
Y139600D01*
X213538D01*
Y139333D01*
X212738D01*
Y139066D01*
X211670D01*
Y138799D01*
X210069D01*
Y138532D01*
X209269D01*
Y138265D01*
X208201D01*
Y137999D01*
X207934D01*
Y138265D01*
X207134D01*
Y137999D01*
X206867D01*
Y137732D01*
X206600D01*
Y137999D01*
X205800D01*
Y137732D01*
X204466D01*
Y137465D01*
X202598D01*
Y137198D01*
X202331D01*
Y137465D01*
X200996D01*
Y137732D01*
X200730D01*
Y138265D01*
X200463D01*
Y139066D01*
X200730D01*
Y139333D01*
X200996D01*
Y139600D01*
X201263D01*
Y140400D01*
X201530D01*
Y140667D01*
X201797D01*
Y141201D01*
X202064D01*
Y141734D01*
X202331D01*
Y142001D01*
X202598D01*
Y142535D01*
X202864D01*
Y143069D01*
X203131D01*
Y143602D01*
X203398D01*
Y144136D01*
X203665D01*
Y144403D01*
X203932D01*
Y144670D01*
X204199D01*
Y145203D01*
X204466D01*
Y145470D01*
X204732D01*
Y145737D01*
X205266D01*
Y146004D01*
X204999D01*
Y146271D01*
X205533D01*
Y146538D01*
X205800D01*
Y147071D01*
X206333D01*
Y147338D01*
X206600D01*
Y147605D01*
X206867D01*
Y148139D01*
X207134D01*
Y148672D01*
X207401D01*
Y149206D01*
X207668D01*
Y149473D01*
X207934D01*
Y149740D01*
X208201D01*
Y150273D01*
X208468D01*
Y151341D01*
X208735D01*
Y151874D01*
X209002D01*
Y152408D01*
X209269D01*
Y152675D01*
X209536D01*
Y153209D01*
X209802D01*
Y154276D01*
X210069D01*
Y154810D01*
X209802D01*
Y155077D01*
X210069D01*
Y154810D01*
X210336D01*
Y155077D01*
X210603D01*
Y155610D01*
X210870D01*
Y156144D01*
X211137D01*
Y156945D01*
X211403D01*
Y157478D01*
X211670D01*
Y157745D01*
X211937D01*
Y158279D01*
X212204D01*
Y158812D01*
X212471D01*
Y159346D01*
X212738D01*
Y159880D01*
X213004D01*
Y160680D01*
X213271D01*
Y161214D01*
X213538D01*
Y161481D01*
X213805D01*
Y162281D01*
X214072D01*
Y162815D01*
X214339D01*
Y163082D01*
X214606D01*
Y163616D01*
X214872D01*
Y164149D01*
X215139D01*
Y164416D01*
X215406D01*
Y164683D01*
X215673D01*
Y164950D01*
X216207D01*
Y165217D01*
X216474D01*
Y166017D01*
X216740D01*
Y165750D01*
X217007D01*
Y166017D01*
X217274D01*
Y166284D01*
X217007D01*
Y166551D01*
X217274D01*
Y166818D01*
X217541D01*
Y167351D01*
X217808D01*
Y167618D01*
X218075D01*
Y168152D01*
X218341D01*
Y168419D01*
X218608D01*
Y169219D01*
X218875D01*
Y169486D01*
X219142D01*
Y169753D01*
X219409D01*
Y170020D01*
X219676D01*
Y170287D01*
X219409D01*
Y170554D01*
X219676D01*
Y170287D01*
X219942D01*
Y170820D01*
X220209D01*
Y171087D01*
X219942D01*
Y171354D01*
X220476D01*
Y171621D01*
X220209D01*
Y171888D01*
X220743D01*
Y172421D01*
X221010D01*
Y172688D01*
X221277D01*
Y173222D01*
X221544D01*
Y173489D01*
X221810D01*
Y173756D01*
X222077D01*
Y174023D01*
X222344D01*
Y174556D01*
X222611D01*
Y174823D01*
X222878D01*
Y175357D01*
X223145D01*
Y175891D01*
X223678D01*
Y176424D01*
X223945D01*
Y176691D01*
X224212D01*
Y177225D01*
X224479D01*
Y177758D01*
X224746D01*
Y178292D01*
X225012D01*
Y178826D01*
X225279D01*
Y179359D01*
X225546D01*
Y179893D01*
X225813D01*
Y180961D01*
X226080D01*
Y181494D01*
X226347D01*
Y181761D01*
X226614D01*
Y182028D01*
X226880D01*
Y182295D01*
X227147D01*
Y182562D01*
X227414D01*
Y182828D01*
X227681D01*
Y183095D01*
X227948D01*
Y183362D01*
X228215D01*
Y185497D01*
X228482D01*
Y186297D01*
X228215D01*
Y186564D01*
X228482D01*
Y187365D01*
X228748D01*
Y187899D01*
X229015D01*
Y188432D01*
X229282D01*
Y190033D01*
X229015D01*
Y190567D01*
X228748D01*
Y191634D01*
X228482D01*
Y192435D01*
X228215D01*
Y193235D01*
X227948D01*
Y193769D01*
X227681D01*
Y194837D01*
X227414D01*
Y195370D01*
X227147D01*
Y196437D01*
X226880D01*
Y197505D01*
X226614D01*
Y197238D01*
X226347D01*
Y196971D01*
X226080D01*
Y196704D01*
X225813D01*
Y196437D01*
X225279D01*
Y196171D01*
X225012D01*
Y195904D01*
X224746D01*
Y195637D01*
X224212D01*
Y195370D01*
X223678D01*
Y195103D01*
X223412D01*
Y194837D01*
X222611D01*
Y194570D01*
X220209D01*
Y194837D01*
X219409D01*
Y195103D01*
X218875D01*
Y195370D01*
X218341D01*
Y195637D01*
X218075D01*
Y195904D01*
X217541D01*
Y196171D01*
X217007D01*
Y196437D01*
X216474D01*
Y196704D01*
X216207D01*
Y196971D01*
X215940D01*
Y197238D01*
X215673D01*
Y197772D01*
X215139D01*
Y198572D01*
X214606D01*
Y198839D01*
X214339D01*
Y199106D01*
X214072D01*
Y199640D01*
X213805D01*
Y199907D01*
X213538D01*
Y200173D01*
X213271D01*
Y200707D01*
X213004D01*
Y200974D01*
X212738D01*
Y201508D01*
X212471D01*
Y201774D01*
X212204D01*
Y202308D01*
X211937D01*
Y202842D01*
X211670D01*
Y203109D01*
X211403D01*
Y203642D01*
X211137D01*
Y203909D01*
X210870D01*
Y204176D01*
X210603D01*
Y204710D01*
X210336D01*
Y204977D01*
X210069D01*
Y205777D01*
X209802D01*
Y206044D01*
X209536D01*
Y206578D01*
X209269D01*
Y207111D01*
X209002D01*
Y207645D01*
X208735D01*
Y208179D01*
X208468D01*
Y208712D01*
X208201D01*
Y209780D01*
X207934D01*
Y210047D01*
X207668D01*
Y211114D01*
X207401D01*
Y212448D01*
X207134D01*
Y214583D01*
X206867D01*
Y214850D01*
X207134D01*
Y215650D01*
X207401D01*
Y215917D01*
X207134D01*
Y216184D01*
X207401D01*
Y216451D01*
X207668D01*
Y216718D01*
X207401D01*
Y216985D01*
X207668D01*
Y217251D01*
X207934D01*
Y217518D01*
X208201D01*
Y217785D01*
X208468D01*
Y218052D01*
X208735D01*
Y218586D01*
X209002D01*
Y219653D01*
X209269D01*
Y219920D01*
X209802D01*
Y220720D01*
X210069D01*
Y220987D01*
X210336D01*
Y221521D01*
X210603D01*
Y221254D01*
X210870D01*
Y221788D01*
X211137D01*
Y222055D01*
X211403D01*
Y222321D01*
X211670D01*
Y222855D01*
X212204D01*
Y223122D01*
X212471D01*
Y223389D01*
X212738D01*
Y223656D01*
X213004D01*
Y223923D01*
X213805D01*
Y224189D01*
X214339D01*
Y224456D01*
X214606D01*
Y224723D01*
X214872D01*
Y224990D01*
X215139D01*
Y225257D01*
X215673D01*
Y225524D01*
X216207D01*
Y225791D01*
X216740D01*
Y226324D01*
X216474D01*
Y227125D01*
X216207D01*
Y228192D01*
X215940D01*
Y229526D01*
X215673D01*
Y230327D01*
X215406D01*
Y231928D01*
X215139D01*
Y233262D01*
X214872D01*
Y234063D01*
X214606D01*
Y234329D01*
X214872D01*
Y234596D01*
X214606D01*
Y235664D01*
X214339D01*
Y237265D01*
X214072D01*
Y238332D01*
X213805D01*
Y239400D01*
X213538D01*
Y240467D01*
X213271D01*
Y240734D01*
X213538D01*
Y241001D01*
X213271D01*
Y241801D01*
X213004D01*
Y243402D01*
X212738D01*
Y244736D01*
X212471D01*
Y246071D01*
X212204D01*
Y247939D01*
X211937D01*
Y249006D01*
X211670D01*
Y250874D01*
X211403D01*
Y251408D01*
X211670D01*
Y251674D01*
X211403D01*
Y252742D01*
X211137D01*
Y253275D01*
X211403D01*
Y253542D01*
X211137D01*
Y253809D01*
X211403D01*
Y254343D01*
X211137D01*
Y254876D01*
X210870D01*
Y255143D01*
X211137D01*
Y255944D01*
X210870D01*
Y257545D01*
X210603D01*
Y258879D01*
X210336D01*
Y260213D01*
X210069D01*
Y261281D01*
X209802D01*
Y262348D01*
X209536D01*
Y262882D01*
X209802D01*
Y263149D01*
X209536D01*
Y264483D01*
X209269D01*
Y264750D01*
X209536D01*
Y265017D01*
X209269D01*
Y265550D01*
X209002D01*
Y265817D01*
X209269D01*
Y266084D01*
X209002D01*
Y266884D01*
X208735D01*
Y267151D01*
X209002D01*
Y267952D01*
X208735D01*
Y269019D01*
X208201D01*
Y269820D01*
X207934D01*
Y270087D01*
X208468D01*
Y272221D01*
X208201D01*
Y274089D01*
X207934D01*
Y275690D01*
X208201D01*
Y275957D01*
X207934D01*
Y276224D01*
X208201D01*
Y277025D01*
X207934D01*
Y277825D01*
X207668D01*
Y278626D01*
X207401D01*
Y279426D01*
X207668D01*
Y281027D01*
X207134D01*
Y281294D01*
X207401D01*
Y281561D01*
X207134D01*
Y281828D01*
X207401D01*
Y282362D01*
X206600D01*
Y283429D01*
X206867D01*
Y284229D01*
X207134D01*
Y286097D01*
X206600D01*
Y286364D01*
X206867D01*
Y286898D01*
X206600D01*
Y287165D01*
X206867D01*
Y287698D01*
X206600D01*
Y287965D01*
X206867D01*
Y289566D01*
X206600D01*
Y291968D01*
X206333D01*
Y295170D01*
X206067D01*
Y297305D01*
X205800D01*
Y298906D01*
X206067D01*
Y299440D01*
X205800D01*
Y299706D01*
X206067D01*
Y299973D01*
X205800D01*
Y303442D01*
X205533D01*
Y303709D01*
X205800D01*
Y304776D01*
X205533D01*
Y305310D01*
X205266D01*
Y306111D01*
X205533D01*
Y307178D01*
X205800D01*
Y307445D01*
X205533D01*
Y308779D01*
X205266D01*
Y309313D01*
X205533D01*
Y309846D01*
X205266D01*
Y310113D01*
X205533D01*
Y310647D01*
X205266D01*
Y310914D01*
X205533D01*
Y311714D01*
X205266D01*
Y311981D01*
X205533D01*
Y312248D01*
X205800D01*
Y312782D01*
X205533D01*
Y313049D01*
X205266D01*
Y313582D01*
X205533D01*
Y313849D01*
X205266D01*
Y314650D01*
X205533D01*
Y315183D01*
X205800D01*
Y315450D01*
X205533D01*
Y317051D01*
X205800D01*
Y317318D01*
X205533D01*
Y317585D01*
X205800D01*
Y318119D01*
X205533D01*
Y318386D01*
X205800D01*
Y318119D01*
X206067D01*
Y318386D01*
X205800D01*
Y318652D01*
X205533D01*
Y318919D01*
X206067D01*
Y319453D01*
X205800D01*
Y319720D01*
X205533D01*
Y319987D01*
X205800D01*
Y320253D01*
X206067D01*
Y320520D01*
X205800D01*
Y320787D01*
X206067D01*
Y321855D01*
X205800D01*
Y322121D01*
X206067D01*
Y322388D01*
X206333D01*
Y322655D01*
X206067D01*
Y323189D01*
X206333D01*
Y323989D01*
X206600D01*
Y326124D01*
X206867D01*
Y326391D01*
X206600D01*
Y326658D01*
X206867D01*
Y329593D01*
X207134D01*
Y330394D01*
X206867D01*
Y330660D01*
X207134D01*
Y333062D01*
X207401D01*
Y335464D01*
X207668D01*
Y337332D01*
X207934D01*
Y338933D01*
X208201D01*
Y340000D01*
X208468D01*
Y341601D01*
X208735D01*
Y342935D01*
X209002D01*
Y344269D01*
X209269D01*
Y345604D01*
X209536D01*
Y346671D01*
X209802D01*
Y347472D01*
X210069D01*
Y348005D01*
X210336D01*
Y348806D01*
X210603D01*
Y349073D01*
X210870D01*
Y349873D01*
X211137D01*
Y350407D01*
X211403D01*
Y351208D01*
X211670D01*
Y351741D01*
X211937D01*
Y352275D01*
X212204D01*
Y353075D01*
X212471D01*
Y353876D01*
X212738D01*
Y354410D01*
X213004D01*
Y355210D01*
X213271D01*
Y356011D01*
X213538D01*
Y356811D01*
X213805D01*
Y357078D01*
X214072D01*
Y357879D01*
X214339D01*
Y358679D01*
X214606D01*
Y359480D01*
X214872D01*
Y360547D01*
X215139D01*
Y361348D01*
X215406D01*
Y362148D01*
X215673D01*
Y362415D01*
X215940D01*
Y362949D01*
X216207D01*
Y363482D01*
X216474D01*
Y364016D01*
X216740D01*
Y364550D01*
X217007D01*
Y364817D01*
X217274D01*
Y365617D01*
X217541D01*
Y366418D01*
X217808D01*
Y366951D01*
X218075D01*
Y367218D01*
X218341D01*
Y367752D01*
X218608D01*
Y368285D01*
X218875D01*
Y368819D01*
X219142D01*
Y369353D01*
X219409D01*
Y369887D01*
X219676D01*
Y370687D01*
X219942D01*
Y371488D01*
X220476D01*
Y371754D01*
X220209D01*
Y372021D01*
X220476D01*
Y372555D01*
X220743D01*
Y372822D01*
X221010D01*
Y373089D01*
X220743D01*
Y373356D01*
X221010D01*
Y374156D01*
X221277D01*
Y374423D01*
X221544D01*
Y375224D01*
X221810D01*
Y375757D01*
X222077D01*
Y376558D01*
X222344D01*
Y377091D01*
X222611D01*
Y377892D01*
X222878D01*
Y378693D01*
X223145D01*
Y379226D01*
X222878D01*
Y379493D01*
X223145D01*
Y379226D01*
X223412D01*
Y379760D01*
X223678D01*
Y380827D01*
X223945D01*
Y381094D01*
X224212D01*
Y381361D01*
X223945D01*
Y381628D01*
X224212D01*
Y382161D01*
X224479D01*
Y382695D01*
X224746D01*
Y383229D01*
X225012D01*
Y383763D01*
X225546D01*
Y384029D01*
X225279D01*
Y384296D01*
X225546D01*
Y384563D01*
X226080D01*
Y385097D01*
X226347D01*
Y385630D01*
X226614D01*
Y385897D01*
X226880D01*
Y386431D01*
X227147D01*
Y386965D01*
X227414D01*
Y387231D01*
X227681D01*
Y387498D01*
X227948D01*
Y388032D01*
X228215D01*
Y388299D01*
X227948D01*
Y388566D01*
X228215D01*
Y388299D01*
X228482D01*
Y388566D01*
X228748D01*
Y389099D01*
X229015D01*
Y389366D01*
X229282D01*
Y389900D01*
X229549D01*
Y390167D01*
X229816D01*
Y390700D01*
X230083D01*
Y391234D01*
X230349D01*
Y391768D01*
X230616D01*
Y392035D01*
X230883D01*
Y392302D01*
X231150D01*
Y392835D01*
X231684D01*
Y393369D01*
X231950D01*
Y393636D01*
X232217D01*
Y393903D01*
X232484D01*
Y394436D01*
X232751D01*
Y394703D01*
X233018D01*
Y394970D01*
X233285D01*
Y395237D01*
X233552D01*
Y395770D01*
X233818D01*
Y396037D01*
X234085D01*
Y396304D01*
X234352D01*
Y396571D01*
X234886D01*
Y396838D01*
X235420D01*
Y397105D01*
X235953D01*
Y397638D01*
X236220D01*
Y397905D01*
X237020D01*
Y398172D01*
X237554D01*
Y397905D01*
D02*
G37*
G36*
X247428Y386698D02*
X247161D01*
Y386965D01*
X247428D01*
Y386698D01*
D02*
G37*
G36*
X277581Y432862D02*
X278115D01*
Y432595D01*
X280783D01*
Y432328D01*
X281850D01*
Y432061D01*
X284786D01*
Y431795D01*
X290123D01*
Y432061D01*
X291724D01*
Y431795D01*
X294926D01*
Y432061D01*
X297861D01*
Y431795D01*
X299195D01*
Y431528D01*
X300530D01*
Y431261D01*
X301864D01*
Y430994D01*
X303198D01*
Y430727D01*
X304532D01*
Y430460D01*
X305333D01*
Y430193D01*
X305867D01*
Y429927D01*
X306934D01*
Y429660D01*
X307201D01*
Y429393D01*
X307734D01*
Y429126D01*
X308001D01*
Y429393D01*
X308535D01*
Y429126D01*
X308802D01*
Y428859D01*
X309069D01*
Y429126D01*
X309602D01*
Y428859D01*
X310136D01*
Y428592D01*
X310670D01*
Y428326D01*
X311203D01*
Y428059D01*
X312271D01*
Y427792D01*
X312538D01*
Y428059D01*
X313338D01*
Y427792D01*
X314939D01*
Y427525D01*
X315473D01*
Y427258D01*
X316007D01*
Y426991D01*
X316807D01*
Y426725D01*
X317608D01*
Y426458D01*
X318141D01*
Y426191D01*
X318675D01*
Y425924D01*
X319209D01*
Y425390D01*
X320009D01*
Y425123D01*
X320276D01*
Y424857D01*
X320810D01*
Y424590D01*
X321610D01*
Y424323D01*
X322144D01*
Y423789D01*
X322411D01*
Y423522D01*
X322944D01*
Y423256D01*
X323211D01*
Y422989D01*
X323478D01*
Y422722D01*
X323745D01*
Y422455D01*
X324012D01*
Y421921D01*
X324546D01*
Y421655D01*
X324813D01*
Y421388D01*
X325346D01*
Y421121D01*
X325613D01*
Y420854D01*
X325880D01*
Y420587D01*
X326147D01*
Y420320D01*
X326413D01*
Y420053D01*
X326680D01*
Y419787D01*
X326947D01*
Y419520D01*
X327481D01*
Y419253D01*
X327748D01*
Y418986D01*
X328015D01*
Y418452D01*
X328281D01*
Y418186D01*
X328548D01*
Y417919D01*
X328815D01*
Y417652D01*
X329082D01*
Y417385D01*
X329349D01*
Y417118D01*
X329616D01*
Y416584D01*
X330149D01*
Y416318D01*
X330416D01*
Y415784D01*
X330683D01*
Y415517D01*
X330950D01*
Y415250D01*
X331217D01*
Y414716D01*
X331484D01*
Y414450D01*
X332017D01*
Y413916D01*
X332284D01*
Y413649D01*
X332551D01*
Y413382D01*
X332818D01*
Y412582D01*
X333085D01*
Y412315D01*
X333352D01*
Y412048D01*
X333618D01*
Y411514D01*
X333885D01*
Y411247D01*
X334152D01*
Y410714D01*
X334419D01*
Y410447D01*
X334686D01*
Y410180D01*
X334953D01*
Y409646D01*
X335219D01*
Y409113D01*
X335486D01*
Y408312D01*
X336020D01*
Y407512D01*
X336287D01*
Y406711D01*
X336554D01*
Y406177D01*
X336820D01*
Y405644D01*
X337087D01*
Y404576D01*
X337354D01*
Y404310D01*
X337621D01*
Y403509D01*
X337888D01*
Y402709D01*
X338155D01*
Y402175D01*
X338422D01*
Y401641D01*
X338688D01*
Y401374D01*
X338955D01*
Y399240D01*
X339222D01*
Y398439D01*
X339489D01*
Y397638D01*
X339756D01*
Y396304D01*
X340023D01*
Y396037D01*
X339756D01*
Y395504D01*
X340023D01*
Y394970D01*
X340289D01*
Y392835D01*
X340556D01*
Y390967D01*
X340823D01*
Y389366D01*
X341090D01*
Y386698D01*
X341357D01*
Y382695D01*
X341624D01*
Y382161D01*
X341357D01*
Y381895D01*
X341624D01*
Y380827D01*
X341357D01*
Y380294D01*
X341624D01*
Y377358D01*
X341890D01*
Y376825D01*
X342157D01*
Y376291D01*
X341890D01*
Y376024D01*
X342157D01*
Y375757D01*
X341890D01*
Y375490D01*
X342157D01*
Y375224D01*
X341890D01*
Y374957D01*
X342157D01*
Y374423D01*
X342424D01*
Y369086D01*
X342157D01*
Y368552D01*
X341890D01*
Y367218D01*
X341624D01*
Y366418D01*
X341357D01*
Y365617D01*
X341090D01*
Y365350D01*
X340823D01*
Y365083D01*
X341090D01*
Y364550D01*
X341357D01*
Y364283D01*
X341090D01*
Y364016D01*
X340556D01*
Y363749D01*
X339756D01*
Y363482D01*
X339222D01*
Y364817D01*
X338955D01*
Y364283D01*
X338688D01*
Y364016D01*
X337888D01*
Y364550D01*
X337621D01*
Y364817D01*
X337888D01*
Y368285D01*
X338155D01*
Y368552D01*
X337888D01*
Y368819D01*
X338155D01*
Y369086D01*
X337888D01*
Y369620D01*
X338155D01*
Y370153D01*
X337888D01*
Y370420D01*
X338155D01*
Y370954D01*
X337888D01*
Y371221D01*
X338155D01*
Y373356D01*
X338422D01*
Y373889D01*
X338155D01*
Y374423D01*
X338422D01*
Y374690D01*
X338155D01*
Y374957D01*
X338422D01*
Y376291D01*
X338155D01*
Y376558D01*
X338422D01*
Y377358D01*
X338155D01*
Y380560D01*
X337888D01*
Y382161D01*
X337621D01*
Y383496D01*
X337354D01*
Y384296D01*
X337087D01*
Y384563D01*
X337354D01*
Y384830D01*
X337087D01*
Y385097D01*
X337354D01*
Y385364D01*
X337087D01*
Y386698D01*
X336820D01*
Y387498D01*
X336554D01*
Y388299D01*
X336287D01*
Y389900D01*
X336554D01*
Y390700D01*
X336287D01*
Y391501D01*
X336020D01*
Y392568D01*
X335753D01*
Y393369D01*
X335486D01*
Y394970D01*
X335219D01*
Y395237D01*
X334953D01*
Y396037D01*
X334686D01*
Y396571D01*
X334419D01*
Y397105D01*
X334152D01*
Y397905D01*
X333885D01*
Y398439D01*
X333618D01*
Y399240D01*
X333352D01*
Y399773D01*
X333085D01*
Y400841D01*
X332818D01*
Y401374D01*
X332551D01*
Y402442D01*
X332284D01*
Y403242D01*
X332017D01*
Y403776D01*
X331750D01*
Y404576D01*
X331484D01*
Y404843D01*
X331217D01*
Y405644D01*
X330950D01*
Y405911D01*
X330683D01*
Y406177D01*
X330416D01*
Y406444D01*
X330149D01*
Y406978D01*
X329883D01*
Y407245D01*
X329616D01*
Y408045D01*
X329349D01*
Y408312D01*
X329082D01*
Y408846D01*
X328815D01*
Y409380D01*
X328548D01*
Y409646D01*
X328281D01*
Y409913D01*
X328015D01*
Y410180D01*
X327748D01*
Y410447D01*
X327481D01*
Y410714D01*
X327214D01*
Y411247D01*
X326680D01*
Y411514D01*
X326413D01*
Y411781D01*
X325880D01*
Y412315D01*
X325613D01*
Y412849D01*
X325346D01*
Y413116D01*
X325079D01*
Y413382D01*
X324813D01*
Y413916D01*
X324546D01*
Y414183D01*
X324279D01*
Y414450D01*
X324012D01*
Y414983D01*
X323745D01*
Y415250D01*
X323478D01*
Y415517D01*
X323211D01*
Y415784D01*
X322944D01*
Y416051D01*
X322678D01*
Y416318D01*
X322411D01*
Y416851D01*
X322144D01*
Y417118D01*
X321877D01*
Y417385D01*
X321610D01*
Y417652D01*
X321343D01*
Y417919D01*
X321077D01*
Y418186D01*
X320810D01*
Y418452D01*
X320543D01*
Y418719D01*
X320009D01*
Y418986D01*
X319742D01*
Y419253D01*
X319476D01*
Y419520D01*
X319209D01*
Y419787D01*
X318942D01*
Y420053D01*
X318675D01*
Y420320D01*
X318408D01*
Y420587D01*
X317875D01*
Y420854D01*
X317341D01*
Y421121D01*
X317074D01*
Y421388D01*
X316273D01*
Y421655D01*
X315740D01*
Y421921D01*
X315473D01*
Y422188D01*
X314939D01*
Y422455D01*
X314405D01*
Y422722D01*
X313605D01*
Y422989D01*
X313338D01*
Y423256D01*
X312805D01*
Y423522D01*
X312004D01*
Y423789D01*
X311203D01*
Y424056D01*
X310937D01*
Y424323D01*
X310136D01*
Y424590D01*
X309602D01*
Y424857D01*
X309069D01*
Y425123D01*
X308802D01*
Y424857D01*
X308535D01*
Y425123D01*
X307734D01*
Y425657D01*
X307468D01*
Y425924D01*
X306934D01*
Y426191D01*
X306133D01*
Y426458D01*
X305867D01*
Y426191D01*
X305066D01*
Y426458D01*
X304265D01*
Y426725D01*
X302931D01*
Y426991D01*
X301597D01*
Y427258D01*
X300796D01*
Y427525D01*
X298929D01*
Y427792D01*
X298395D01*
Y427525D01*
X297861D01*
Y427792D01*
X296794D01*
Y428059D01*
X294659D01*
Y428326D01*
X293058D01*
Y428592D01*
X291991D01*
Y428326D01*
X290923D01*
Y428592D01*
X289589D01*
Y428859D01*
X289322D01*
Y428592D01*
X289055D01*
Y428859D01*
X287454D01*
Y429126D01*
X285853D01*
Y429393D01*
X285586D01*
Y429126D01*
X283718D01*
Y429393D01*
X282651D01*
Y429126D01*
X282117D01*
Y429393D01*
X280516D01*
Y429660D01*
X278382D01*
Y429927D01*
X277314D01*
Y429660D01*
X276780D01*
Y429393D01*
X276514D01*
Y429660D01*
X276247D01*
Y429927D01*
X275713D01*
Y430460D01*
X275446D01*
Y430994D01*
X275179D01*
Y430460D01*
X274912D01*
Y430193D01*
X274646D01*
Y430460D01*
X274112D01*
Y430727D01*
X273845D01*
Y432061D01*
X274112D01*
Y432328D01*
X274379D01*
Y432595D01*
X274912D01*
Y432862D01*
X275980D01*
Y433129D01*
X277581D01*
Y432862D01*
D02*
G37*
G36*
X273845Y385897D02*
X275179D01*
Y385630D01*
X275980D01*
Y385364D01*
X276247D01*
Y385630D01*
X276780D01*
Y385364D01*
X277581D01*
Y385097D01*
X278382D01*
Y384830D01*
X279182D01*
Y384563D01*
X279982D01*
Y384296D01*
X280783D01*
Y384029D01*
X281584D01*
Y383763D01*
X282918D01*
Y383496D01*
X283451D01*
Y383229D01*
X283985D01*
Y382962D01*
X285053D01*
Y382695D01*
X285586D01*
Y382428D01*
X286120D01*
Y382161D01*
X286387D01*
Y381895D01*
X286921D01*
Y381628D01*
X287187D01*
Y381361D01*
X287454D01*
Y381094D01*
X287721D01*
Y380827D01*
X287988D01*
Y380294D01*
X288255D01*
Y380027D01*
X288522D01*
Y379760D01*
X289055D01*
Y379493D01*
X289322D01*
Y379226D01*
X289589D01*
Y378693D01*
X289856D01*
Y378426D01*
X290123D01*
Y378159D01*
X290389D01*
Y377892D01*
X290656D01*
Y377358D01*
X290923D01*
Y377091D01*
X291190D01*
Y376558D01*
X291457D01*
Y376291D01*
X291724D01*
Y375757D01*
X291991D01*
Y375490D01*
X292257D01*
Y374957D01*
X292524D01*
Y374423D01*
X292791D01*
Y373889D01*
X293058D01*
Y373622D01*
X293325D01*
Y373089D01*
X293592D01*
Y372555D01*
X293859D01*
Y371754D01*
X294125D01*
Y370153D01*
X294392D01*
Y369887D01*
X294125D01*
Y369620D01*
X294392D01*
Y368819D01*
X294659D01*
Y367485D01*
X294926D01*
Y366684D01*
X295193D01*
Y365083D01*
X295459D01*
Y364283D01*
X295193D01*
Y364016D01*
X295459D01*
Y362148D01*
X295193D01*
Y361881D01*
X294392D01*
Y362148D01*
X294125D01*
Y362415D01*
X293592D01*
Y362682D01*
X293325D01*
Y362949D01*
X293058D01*
Y363749D01*
X293325D01*
Y364817D01*
X293058D01*
Y365350D01*
X292791D01*
Y366151D01*
X292524D01*
Y366951D01*
X292257D01*
Y367485D01*
X291991D01*
Y368285D01*
X291724D01*
Y369353D01*
X291457D01*
Y370153D01*
X291190D01*
Y370420D01*
X290923D01*
Y370954D01*
X290656D01*
Y371754D01*
X290389D01*
Y372288D01*
X290123D01*
Y372822D01*
X289856D01*
Y373356D01*
X289589D01*
Y373622D01*
X289322D01*
Y373889D01*
X289055D01*
Y374423D01*
X288522D01*
Y374957D01*
X288255D01*
Y375224D01*
X287988D01*
Y375490D01*
X287454D01*
Y375757D01*
X287187D01*
Y376291D01*
X286654D01*
Y376558D01*
X286387D01*
Y376825D01*
X286120D01*
Y377091D01*
X285853D01*
Y377358D01*
X285586D01*
Y377625D01*
X285319D01*
Y377892D01*
X285053D01*
Y378159D01*
X284786D01*
Y378426D01*
X284252D01*
Y378693D01*
X283985D01*
Y378959D01*
X283718D01*
Y379226D01*
X283451D01*
Y379493D01*
X282918D01*
Y379760D01*
X282651D01*
Y380027D01*
X282384D01*
Y380294D01*
X281584D01*
Y380560D01*
X281050D01*
Y380827D01*
X280783D01*
Y381094D01*
X279982D01*
Y381361D01*
X279716D01*
Y381628D01*
X278648D01*
Y381895D01*
X277581D01*
Y382161D01*
X276247D01*
Y382428D01*
X275713D01*
Y382695D01*
X274112D01*
Y382962D01*
X273845D01*
Y383229D01*
X273578D01*
Y383496D01*
X273311D01*
Y384029D01*
X273045D01*
Y384563D01*
X273311D01*
Y384830D01*
X273045D01*
Y385630D01*
X273311D01*
Y385897D01*
X273578D01*
Y386164D01*
X273845D01*
Y385897D01*
D02*
G37*
G36*
X146560Y345070D02*
X146827D01*
Y344269D01*
X146560D01*
Y343736D01*
X145760D01*
Y344536D01*
X145493D01*
Y344803D01*
X146293D01*
Y345070D01*
Y345337D01*
X146560D01*
Y345070D01*
D02*
G37*
G36*
X245560Y217518D02*
X245293D01*
Y217785D01*
X245560D01*
Y217518D01*
D02*
G37*
G36*
X251964Y159613D02*
X251697D01*
Y159880D01*
X251964D01*
Y159613D01*
D02*
G37*
G36*
X233285Y147338D02*
X233018D01*
Y147605D01*
X233285D01*
Y147338D01*
D02*
G37*
%LPC*%
G36*
X307201Y390700D02*
X306934D01*
Y390434D01*
X307201D01*
Y390700D01*
D02*
G37*
G36*
X311737Y383496D02*
X311470D01*
Y383229D01*
X311737D01*
Y382695D01*
X312004D01*
Y382428D01*
X312271D01*
Y382695D01*
X312004Y382962D01*
Y383229D01*
X311737D01*
Y383496D01*
D02*
G37*
G36*
X312805Y381361D02*
X312538D01*
Y380827D01*
X312805D01*
Y380560D01*
X313071D01*
Y380827D01*
X312805D01*
Y381361D01*
D02*
G37*
G36*
X313338Y380027D02*
X313071D01*
Y379760D01*
X313338D01*
Y380027D01*
D02*
G37*
G36*
X314939Y375757D02*
X314672D01*
Y375490D01*
X314939D01*
Y375757D01*
D02*
G37*
G36*
X316007Y371488D02*
X315740D01*
Y371221D01*
X316007D01*
Y371488D01*
D02*
G37*
G36*
X316807Y365350D02*
X316540D01*
Y365083D01*
X316807D01*
Y365350D01*
D02*
G37*
G36*
X316540Y364550D02*
X316273D01*
Y363749D01*
X316540D01*
Y364550D01*
D02*
G37*
G36*
X237287Y395237D02*
X237020D01*
Y394970D01*
X236754D01*
Y395237D01*
X236487D01*
Y394970D01*
X236220D01*
Y394436D01*
X235686D01*
Y394170D01*
X235420D01*
Y393636D01*
X235153D01*
Y393369D01*
X234886D01*
Y393102D01*
X234619D01*
Y392568D01*
X234352D01*
Y392835D01*
X234085D01*
Y392568D01*
X234352D01*
Y392302D01*
X234085D01*
Y392035D01*
X233818D01*
Y392302D01*
X233552D01*
Y391768D01*
X233285D01*
Y391501D01*
X233552D01*
Y391234D01*
X233285D01*
Y390967D01*
X233018D01*
Y391234D01*
X232751D01*
Y390967D01*
X233018D01*
Y390700D01*
X232751D01*
Y390434D01*
X232217D01*
Y390167D01*
X231950D01*
Y389633D01*
X231684D01*
Y389366D01*
X231950D01*
Y389099D01*
X231417D01*
Y388833D01*
X231684D01*
Y388566D01*
X231150D01*
Y387765D01*
X230883D01*
Y387498D01*
X230616D01*
Y387231D01*
X230349D01*
Y386965D01*
X230083D01*
Y386431D01*
X229549D01*
Y385897D01*
X229282D01*
Y385364D01*
X229015D01*
Y384830D01*
X228748D01*
Y384563D01*
X228482D01*
Y384029D01*
X228215D01*
Y383496D01*
X227948D01*
Y383229D01*
X227681D01*
Y382695D01*
X227414D01*
Y382161D01*
X227147D01*
Y381895D01*
X226880D01*
Y381361D01*
X226614D01*
Y380827D01*
X226347D01*
Y380027D01*
X226080D01*
Y379226D01*
X225813D01*
Y378693D01*
X225546D01*
Y378159D01*
X225279D01*
Y377358D01*
X225012D01*
Y376825D01*
X224746D01*
Y376024D01*
X224479D01*
Y375224D01*
X224212D01*
Y374690D01*
X223945D01*
Y373889D01*
X223678D01*
Y373089D01*
X223412D01*
Y372288D01*
X223145D01*
Y371488D01*
X222878D01*
Y370954D01*
X222611D01*
Y370153D01*
X222344D01*
Y369353D01*
X222077D01*
Y368819D01*
X221810D01*
Y368552D01*
Y368285D01*
Y368019D01*
X221544D01*
Y367485D01*
X221277D01*
Y366951D01*
X221010D01*
Y366418D01*
X220743D01*
Y365884D01*
X220476D01*
Y365617D01*
X220209D01*
Y365083D01*
X219942D01*
Y364283D01*
X219676D01*
Y363482D01*
X219409D01*
Y363215D01*
X219142D01*
Y362682D01*
X218875D01*
Y362148D01*
X218608D01*
Y361614D01*
X218341D01*
Y361081D01*
X218075D01*
Y360280D01*
X217808D01*
Y359747D01*
X217541D01*
Y358679D01*
X217274D01*
Y358145D01*
X217007D01*
Y357345D01*
X216740D01*
Y356544D01*
X216474D01*
Y356011D01*
X216207D01*
Y355477D01*
X215940D01*
Y354410D01*
X215673D01*
Y353876D01*
X215406D01*
Y353075D01*
X215139D01*
Y352542D01*
X214872D01*
Y351474D01*
X214606D01*
Y351208D01*
X214339D01*
Y350407D01*
X214072D01*
Y349873D01*
X213805D01*
Y349340D01*
X213538D01*
Y348539D01*
X213271D01*
Y347738D01*
X213004D01*
Y347205D01*
X212738D01*
Y346404D01*
X212471D01*
Y345070D01*
X212204D01*
Y343736D01*
X211937D01*
Y342402D01*
X211670D01*
Y341067D01*
X211403D01*
Y339466D01*
X211137D01*
Y338132D01*
X210870D01*
Y336798D01*
X210603D01*
Y334930D01*
X210336D01*
Y333329D01*
X210069D01*
Y330660D01*
X209802D01*
Y326658D01*
X209536D01*
Y326124D01*
X210336D01*
Y324523D01*
X210069D01*
Y324790D01*
X209536D01*
Y323722D01*
X209269D01*
Y322388D01*
X209536D01*
Y322121D01*
X209002D01*
Y321321D01*
X209269D01*
Y321054D01*
X209002D01*
Y317318D01*
X208735D01*
Y316784D01*
X208468D01*
Y310380D01*
X208735D01*
Y307178D01*
X209002D01*
Y306911D01*
X208735D01*
Y306111D01*
X209002D01*
Y304510D01*
X208735D01*
Y304243D01*
X209002D01*
Y299973D01*
X209269D01*
Y299706D01*
X209002D01*
Y299440D01*
X209269D01*
Y298639D01*
X209536D01*
Y297038D01*
X209269D01*
Y296771D01*
X209536D01*
Y294636D01*
X209802D01*
Y291167D01*
X210069D01*
Y287965D01*
X210336D01*
Y287432D01*
X210603D01*
Y286631D01*
X210336D01*
Y286364D01*
X210069D01*
Y285297D01*
X210336D01*
Y283696D01*
X210603D01*
Y282362D01*
X210870D01*
Y280494D01*
X211137D01*
Y279159D01*
X211403D01*
Y276758D01*
X211670D01*
Y275957D01*
X211403D01*
Y275690D01*
X211670D01*
Y274890D01*
X211937D01*
Y273822D01*
X211670D01*
Y273556D01*
X211937D01*
Y273289D01*
X211670D01*
Y272755D01*
X211937D01*
Y271154D01*
X212204D01*
Y270620D01*
X212471D01*
Y270087D01*
X212738D01*
Y269553D01*
X213004D01*
Y269286D01*
X213271D01*
Y269019D01*
X212738D01*
Y268486D01*
X212471D01*
Y268219D01*
X212738D01*
Y266884D01*
X213004D01*
Y266351D01*
X212738D01*
Y265817D01*
X213004D01*
Y264750D01*
X213271D01*
Y262081D01*
X213538D01*
Y260747D01*
X213805D01*
Y259413D01*
X214072D01*
Y257545D01*
X214339D01*
Y255944D01*
X214606D01*
Y254610D01*
X214872D01*
Y252742D01*
X215139D01*
Y251941D01*
X215406D01*
Y251408D01*
X215139D01*
Y251141D01*
X215406D01*
Y250340D01*
X215673D01*
Y249006D01*
X215940D01*
Y248739D01*
X215673D01*
Y248472D01*
X215940D01*
Y247138D01*
X216207D01*
Y245537D01*
X216474D01*
Y244736D01*
X216740D01*
Y243135D01*
X217007D01*
Y241801D01*
X217274D01*
Y241001D01*
X217007D01*
Y240734D01*
X217274D01*
Y240200D01*
X217541D01*
Y239133D01*
X217808D01*
Y237799D01*
X218075D01*
Y236464D01*
X218341D01*
Y236197D01*
X218075D01*
Y235931D01*
X218341D01*
Y234596D01*
X218608D01*
Y234329D01*
X218341D01*
Y234063D01*
X218608D01*
Y233796D01*
X218875D01*
Y233262D01*
X218608D01*
Y232462D01*
X218875D01*
Y232195D01*
X219142D01*
Y231928D01*
X218875D01*
Y231127D01*
X219142D01*
Y230060D01*
X219409D01*
Y228993D01*
X219676D01*
Y228192D01*
X219942D01*
Y227925D01*
X219676D01*
Y227658D01*
X219942D01*
Y227125D01*
X220209D01*
Y225791D01*
X220476D01*
Y225257D01*
X220743D01*
Y224990D01*
X220476D01*
Y224723D01*
X220743D01*
Y223923D01*
X221010D01*
Y222588D01*
X221277D01*
Y222055D01*
X221544D01*
Y221521D01*
X221810D01*
Y220454D01*
X222077D01*
Y220187D01*
X222344D01*
Y219920D01*
X222077D01*
Y219386D01*
X222344D01*
Y218853D01*
X222611D01*
Y217785D01*
X222878D01*
Y217251D01*
X223145D01*
Y216985D01*
X223412D01*
Y216718D01*
X223145D01*
Y216451D01*
X223412D01*
Y215917D01*
X223678D01*
Y215117D01*
X223945D01*
Y214850D01*
X224212D01*
Y214049D01*
X224479D01*
Y213516D01*
X224746D01*
Y213249D01*
X224479D01*
Y212982D01*
X224746D01*
Y212448D01*
X225012D01*
Y211915D01*
X225279D01*
Y211381D01*
X225546D01*
Y210580D01*
X225813D01*
Y210047D01*
X226080D01*
Y209246D01*
X226347D01*
Y208979D01*
X226614D01*
Y208179D01*
X226880D01*
Y207378D01*
X227147D01*
Y206578D01*
X227414D01*
Y205777D01*
X227681D01*
Y205243D01*
X227948D01*
Y204443D01*
X228215D01*
Y203642D01*
X228482D01*
Y202842D01*
X228748D01*
Y202041D01*
X229015D01*
Y201774D01*
X229282D01*
Y200707D01*
X229549D01*
Y200173D01*
X229816D01*
Y199640D01*
X230083D01*
Y199373D01*
X229816D01*
Y198839D01*
X230083D01*
Y198572D01*
X229816D01*
Y198305D01*
X230083D01*
Y198039D01*
X230349D01*
Y197505D01*
X230083D01*
Y197238D01*
X230616D01*
Y196971D01*
X230349D01*
Y196437D01*
X230616D01*
Y195370D01*
X230883D01*
Y195103D01*
X231150D01*
Y194837D01*
X231417D01*
Y195370D01*
X231684D01*
Y195904D01*
X231950D01*
Y196704D01*
X232217D01*
Y197238D01*
X232484D01*
Y197505D01*
X232217D01*
Y197772D01*
X232484D01*
Y198305D01*
X232751D01*
Y198839D01*
X233018D01*
Y199640D01*
X233285D01*
Y199907D01*
X233552D01*
Y200173D01*
X233818D01*
Y200974D01*
X234085D01*
Y201241D01*
X234352D01*
Y202041D01*
X234619D01*
Y202842D01*
X234886D01*
Y203109D01*
X234619D01*
Y203375D01*
X234886D01*
Y203642D01*
X235153D01*
Y203909D01*
X235420D01*
Y204710D01*
X235686D01*
Y205243D01*
X235953D01*
Y205777D01*
X236220D01*
Y206311D01*
X236487D01*
Y207378D01*
X236754D01*
Y207645D01*
X237020D01*
Y208445D01*
X237287D01*
Y208712D01*
X237554D01*
Y209513D01*
X237821D01*
Y210047D01*
X238088D01*
Y210313D01*
X238355D01*
Y211114D01*
X238622D01*
Y211648D01*
X238888D01*
Y212181D01*
X239155D01*
Y212448D01*
X239422D01*
Y213249D01*
X239689D01*
Y213782D01*
X239956D01*
Y214316D01*
X240223D01*
Y214850D01*
X240490D01*
Y215383D01*
X240756D01*
Y215650D01*
X241023D01*
Y215917D01*
X241290D01*
Y216184D01*
X241023D01*
Y216451D01*
X241290D01*
Y216985D01*
X241557D01*
Y217251D01*
X241824D01*
Y217785D01*
X242091D01*
Y218319D01*
X242357D01*
Y218853D01*
X242624D01*
Y219386D01*
X242891D01*
Y219920D01*
X243158D01*
Y220987D01*
X243425D01*
Y221254D01*
X243692D01*
Y221788D01*
X243958D01*
Y222055D01*
X244225D01*
Y222855D01*
X244492D01*
Y223122D01*
X244759D01*
Y223656D01*
X245026D01*
Y223923D01*
X244759D01*
Y224189D01*
X245293D01*
Y224456D01*
X245560D01*
Y224723D01*
X245293D01*
Y224990D01*
X245560D01*
Y225791D01*
X245826D01*
Y226324D01*
X246093D01*
Y226591D01*
X246360D01*
Y226858D01*
X246627D01*
Y227658D01*
X246894D01*
Y228192D01*
X247161D01*
Y228726D01*
X247428D01*
Y229259D01*
X247694D01*
Y230060D01*
X247961D01*
Y230861D01*
X248228D01*
Y231394D01*
X248495D01*
Y231661D01*
X248762D01*
Y232195D01*
X249029D01*
Y232995D01*
X249295D01*
Y233262D01*
X249562D01*
Y233796D01*
X249829D01*
Y234329D01*
X250096D01*
Y234863D01*
X250363D01*
Y235397D01*
X250630D01*
Y235931D01*
X250896D01*
Y236464D01*
X251163D01*
Y236731D01*
X251430D01*
Y237265D01*
X251697D01*
Y237799D01*
X251964D01*
Y238332D01*
X252231D01*
Y239400D01*
X252764D01*
Y239933D01*
X253031D01*
Y240734D01*
X253298D01*
Y241001D01*
X253565D01*
Y241801D01*
X253832D01*
Y242335D01*
X254099D01*
Y243135D01*
X254366D01*
Y243669D01*
X254632D01*
Y244470D01*
X254899D01*
Y245003D01*
X255166D01*
Y245537D01*
X255433D01*
Y246071D01*
X255700D01*
Y246338D01*
X255966D01*
Y246871D01*
X256233D01*
Y247138D01*
X256500D01*
Y247939D01*
X256767D01*
Y248739D01*
X257034D01*
Y249273D01*
X257301D01*
Y249806D01*
X257568D01*
Y250340D01*
X257834D01*
Y251141D01*
X258101D01*
Y251674D01*
X258368D01*
Y252742D01*
X258635D01*
Y253542D01*
X258902D01*
Y254076D01*
X259169D01*
Y254610D01*
X259436D01*
Y255410D01*
X259702D01*
Y256211D01*
X259969D01*
Y257011D01*
X260236D01*
Y257812D01*
X260503D01*
Y258612D01*
X260770D01*
Y259146D01*
X261037D01*
Y259413D01*
X260770D01*
Y259680D01*
X261037D01*
Y260480D01*
X261303D01*
Y260747D01*
X261570D01*
Y261548D01*
X261837D01*
Y262081D01*
X262104D01*
Y262882D01*
X262371D01*
Y263682D01*
X262638D01*
Y264216D01*
X262904D01*
Y265284D01*
X263171D01*
Y265817D01*
X263438D01*
Y266618D01*
X263705D01*
Y267685D01*
X263972D01*
Y268752D01*
X264239D01*
Y269553D01*
X264506D01*
Y270354D01*
X264772D01*
Y271154D01*
X265039D01*
Y271688D01*
X265306D01*
Y272488D01*
X265573D01*
Y273289D01*
X265840D01*
Y274089D01*
X266107D01*
Y274623D01*
X266374D01*
Y275424D01*
X266640D01*
Y276224D01*
X266907D01*
Y277558D01*
X267174D01*
Y277825D01*
X267441D01*
Y278092D01*
X267174D01*
Y278359D01*
X267441D01*
Y279159D01*
X267708D01*
Y279960D01*
X267974D01*
Y280760D01*
X268241D01*
Y281561D01*
X268508D01*
Y282628D01*
X268775D01*
Y283162D01*
X269042D01*
Y284229D01*
X269309D01*
Y285297D01*
X269576D01*
Y286364D01*
X269842D01*
Y287432D01*
X270109D01*
Y289033D01*
X270376D01*
Y289833D01*
X270109D01*
Y290100D01*
X270376D01*
Y290367D01*
X270109D01*
Y290634D01*
X270376D01*
Y291434D01*
X270109D01*
Y291701D01*
X270376D01*
Y292768D01*
X270643D01*
Y294370D01*
X270910D01*
Y297305D01*
X271177D01*
Y297838D01*
X270910D01*
Y298105D01*
X271177D01*
Y299973D01*
X271444D01*
Y300240D01*
X271177D01*
Y300507D01*
X271444D01*
Y301574D01*
X271710D01*
Y301841D01*
X271444D01*
Y302108D01*
X271710D01*
Y302642D01*
X271444D01*
Y302909D01*
X271710D01*
Y306644D01*
X271444D01*
Y306911D01*
X271710D01*
Y307445D01*
X271977D01*
Y309313D01*
X272244D01*
Y311714D01*
X272511D01*
Y312515D01*
X272244D01*
Y313316D01*
X271977D01*
Y316518D01*
X271710D01*
Y318386D01*
X271444D01*
Y319453D01*
X271177D01*
Y321321D01*
X270910D01*
Y322922D01*
X270643D01*
Y324523D01*
X270376D01*
Y326124D01*
X270109D01*
Y327458D01*
X269842D01*
Y329059D01*
X269576D01*
Y329593D01*
X269309D01*
Y331728D01*
X269042D01*
Y332795D01*
X268775D01*
Y333062D01*
X268508D01*
Y333329D01*
X268775D01*
Y333863D01*
X268508D01*
Y334396D01*
X268241D01*
Y334930D01*
X268508D01*
Y335197D01*
X268241D01*
Y335731D01*
X267974D01*
Y336531D01*
X267708D01*
Y337065D01*
X267974D01*
Y337332D01*
X267708D01*
Y337598D01*
X267441D01*
Y338666D01*
X267174D01*
Y339199D01*
X267441D01*
Y339466D01*
X267174D01*
Y339733D01*
X266907D01*
Y340801D01*
X266640D01*
Y341067D01*
X266907D01*
Y341334D01*
X266640D01*
Y342402D01*
X266374D01*
Y343736D01*
X266107D01*
Y344536D01*
X265840D01*
Y345604D01*
X265573D01*
Y346671D01*
X265306D01*
Y347205D01*
X265039D01*
Y348005D01*
X264772D01*
Y348539D01*
X264506D01*
Y349073D01*
X264239D01*
Y350140D01*
X263972D01*
Y350674D01*
X263705D01*
Y351474D01*
X263438D01*
Y352008D01*
X263171D01*
Y352808D01*
X262904D01*
Y353609D01*
X262638D01*
Y354143D01*
X262371D01*
Y354677D01*
X262104D01*
Y355477D01*
X261837D01*
Y356011D01*
X261570D01*
Y356544D01*
X261303D01*
Y357345D01*
X261037D01*
Y357879D01*
X260770D01*
Y358946D01*
X260503D01*
Y359480D01*
X260236D01*
Y360013D01*
X259969D01*
Y360547D01*
X259702D01*
Y361348D01*
X259436D01*
Y361614D01*
X259169D01*
Y362148D01*
X258902D01*
Y362682D01*
X258635D01*
Y363482D01*
X258368D01*
Y364016D01*
X258101D01*
Y364550D01*
X257834D01*
Y365350D01*
X257568D01*
Y365884D01*
X257301D01*
Y366151D01*
X257034D01*
Y366684D01*
X256767D01*
Y366951D01*
X256500D01*
Y367485D01*
X256233D01*
Y368019D01*
X255966D01*
Y368285D01*
X255700D01*
Y368819D01*
X255433D01*
Y369353D01*
X255166D01*
Y369620D01*
X254899D01*
Y370153D01*
X254632D01*
Y370687D01*
X254366D01*
Y371221D01*
X254099D01*
Y371754D01*
X253832D01*
Y372288D01*
X253565D01*
Y372822D01*
X253298D01*
Y373356D01*
X253031D01*
Y373889D01*
X252764D01*
Y374423D01*
X252498D01*
Y374957D01*
X252231D01*
Y375224D01*
X251964D01*
Y375757D01*
X251697D01*
Y376024D01*
X251430D01*
Y376558D01*
X251163D01*
Y376825D01*
X250896D01*
Y377358D01*
X250630D01*
Y377892D01*
X250363D01*
Y378159D01*
X250096D01*
Y378426D01*
X249829D01*
Y378959D01*
X249562D01*
Y379493D01*
X249295D01*
Y379760D01*
X249029D01*
Y380294D01*
X248762D01*
Y380560D01*
X248495D01*
Y380827D01*
X248228D01*
Y381361D01*
X247961D01*
Y381628D01*
X247694D01*
Y382161D01*
X247428D01*
Y382428D01*
X247161D01*
Y382962D01*
X246627D01*
Y383496D01*
X246360D01*
Y384029D01*
X246093D01*
Y384296D01*
X245826D01*
Y384563D01*
X245560D01*
Y385364D01*
X245293D01*
Y385630D01*
X245026D01*
Y386164D01*
X244759D01*
Y386431D01*
X244492D01*
Y386698D01*
X244225D01*
Y387231D01*
X243958D01*
Y387498D01*
X243692D01*
Y387765D01*
X243425D01*
Y388299D01*
X243158D01*
Y388566D01*
X242891D01*
Y388833D01*
X242624D01*
Y389366D01*
X242357D01*
Y389900D01*
X242091D01*
Y390167D01*
X241824D01*
Y390434D01*
X241557D01*
Y390700D01*
X241290D01*
Y390967D01*
X241023D01*
Y391501D01*
X240756D01*
Y391768D01*
X240490D01*
Y392035D01*
X240223D01*
Y392302D01*
X239422D01*
Y392568D01*
X239689D01*
Y393369D01*
X239422D01*
Y393903D01*
X239155D01*
Y394170D01*
X238622D01*
Y394436D01*
X237554D01*
Y394703D01*
X237287D01*
Y395237D01*
D02*
G37*
G36*
X243425Y392035D02*
X243158D01*
Y391768D01*
X243425D01*
Y392035D01*
D02*
G37*
G36*
X282384Y309313D02*
X282117D01*
Y309046D01*
X282384D01*
Y309313D01*
D02*
G37*
G36*
X275179Y318919D02*
X274912D01*
Y318386D01*
X275179D01*
Y316251D01*
X275713D01*
Y316518D01*
X275980D01*
Y316251D01*
X277047D01*
Y315984D01*
X277848D01*
Y315717D01*
X278382D01*
Y315450D01*
X278915D01*
Y315183D01*
X279449D01*
Y314917D01*
X279716D01*
Y315183D01*
X279982D01*
Y314917D01*
X280249D01*
Y314650D01*
X280783D01*
Y314383D01*
X281317D01*
Y314116D01*
X281584D01*
Y313849D01*
X282117D01*
Y313582D01*
X282384D01*
Y313316D01*
X282918D01*
Y313049D01*
X283185D01*
Y312782D01*
X283451D01*
Y312515D01*
X283718D01*
Y312248D01*
X284252D01*
Y311714D01*
X284519D01*
Y311448D01*
X284786D01*
Y311181D01*
X285319D01*
Y310914D01*
X285586D01*
Y310647D01*
X285853D01*
Y310380D01*
X286120D01*
Y309846D01*
X286387D01*
Y309580D01*
X286921D01*
Y308779D01*
X287187D01*
Y308512D01*
X287454D01*
Y308246D01*
X287187D01*
Y307445D01*
X286921D01*
Y307178D01*
X286654D01*
Y306911D01*
X286387D01*
Y306644D01*
X286120D01*
Y306378D01*
X285853D01*
Y306111D01*
X285053D01*
Y306644D01*
X284786D01*
Y306378D01*
X284519D01*
Y306644D01*
X284252D01*
Y306911D01*
X283718D01*
Y307178D01*
X283451D01*
Y307445D01*
X283185D01*
Y307979D01*
X282918D01*
Y308512D01*
X282384D01*
Y308779D01*
X282117D01*
Y309046D01*
X281850D01*
Y309846D01*
X281317D01*
Y310113D01*
X281050D01*
Y310380D01*
X280783D01*
Y310647D01*
X280516D01*
Y310380D01*
X280249D01*
Y311181D01*
X279982D01*
Y311448D01*
X279449D01*
Y311714D01*
X279182D01*
Y311981D01*
X278915D01*
Y312248D01*
X278648D01*
Y312515D01*
X278115D01*
Y312782D01*
X277581D01*
Y313049D01*
X277314D01*
Y313316D01*
X276780D01*
Y313582D01*
X276247D01*
Y313849D01*
X275713D01*
Y314116D01*
X275179D01*
Y314383D01*
X274646D01*
Y313849D01*
X274912D01*
Y312515D01*
X275179D01*
Y310113D01*
X276514D01*
Y309846D01*
X277314D01*
Y309580D01*
X277848D01*
Y309313D01*
X278382D01*
Y309046D01*
X278648D01*
Y308779D01*
X278915D01*
Y308512D01*
X279449D01*
Y308246D01*
X279716D01*
Y307979D01*
X280249D01*
Y307712D01*
X280516D01*
Y307445D01*
X280783D01*
Y307178D01*
X281050D01*
Y306911D01*
X281317D01*
Y306644D01*
X281584D01*
Y306378D01*
X282117D01*
Y305844D01*
X282384D01*
Y305577D01*
X282651D01*
Y305310D01*
X283185D01*
Y305043D01*
X283451D01*
Y304776D01*
X283985D01*
Y304510D01*
X284252D01*
Y304243D01*
X284519D01*
Y303976D01*
X284786D01*
Y303709D01*
X285319D01*
Y303442D01*
X285586D01*
Y303175D01*
X285853D01*
Y302909D01*
X286120D01*
Y302642D01*
X286387D01*
Y302375D01*
X286654D01*
Y302108D01*
X286921D01*
Y301841D01*
X287187D01*
Y301308D01*
X287721D01*
Y300774D01*
X287988D01*
Y300507D01*
X288255D01*
Y300240D01*
X288522D01*
Y299706D01*
X288788D01*
Y299440D01*
X289055D01*
Y298639D01*
X289322D01*
Y297038D01*
X288788D01*
Y296771D01*
X288522D01*
Y296504D01*
X287187D01*
Y296771D01*
X286654D01*
Y297038D01*
X286387D01*
Y297305D01*
X286120D01*
Y297572D01*
X285853D01*
Y298105D01*
X285586D01*
Y298372D01*
X285319D01*
Y298639D01*
X285053D01*
Y299173D01*
X284786D01*
Y299440D01*
X284519D01*
Y299706D01*
X284252D01*
Y299973D01*
X283985D01*
Y300240D01*
X283718D01*
Y300507D01*
X283451D01*
Y301041D01*
X283185D01*
Y301308D01*
X282918D01*
Y301574D01*
X282651D01*
Y301841D01*
X282384D01*
Y302108D01*
X282117D01*
Y302375D01*
X281584D01*
Y302642D01*
X281317D01*
Y303175D01*
X280783D01*
Y303442D01*
X280516D01*
Y303709D01*
X280249D01*
Y303976D01*
X279982D01*
Y304243D01*
X279716D01*
Y304510D01*
X279449D01*
Y304776D01*
X279182D01*
Y305043D01*
X278915D01*
Y305310D01*
X278648D01*
Y305844D01*
X278382D01*
Y305577D01*
X278115D01*
Y305844D01*
X277848D01*
Y306378D01*
X277314D01*
Y306644D01*
X276780D01*
Y306911D01*
X276514D01*
Y307178D01*
X276247D01*
Y307445D01*
X275980D01*
Y307712D01*
X275713D01*
Y307979D01*
X275179D01*
Y304510D01*
X274912D01*
Y303976D01*
X274646D01*
Y301308D01*
X275713D01*
Y301041D01*
X275980D01*
Y300774D01*
X277047D01*
Y300507D01*
X277848D01*
Y300240D01*
X278382D01*
Y299973D01*
X278648D01*
Y299706D01*
X278915D01*
Y299440D01*
X279182D01*
Y299173D01*
X279449D01*
Y298906D01*
X279716D01*
Y298639D01*
X279982D01*
Y298372D01*
X280516D01*
Y298105D01*
X280783D01*
Y297838D01*
X281050D01*
Y297572D01*
X281317D01*
Y297305D01*
X281850D01*
Y297038D01*
X282117D01*
Y296771D01*
X282384D01*
Y296504D01*
X282651D01*
Y296238D01*
X282918D01*
Y295971D01*
X283185D01*
Y295704D01*
X283451D01*
Y295437D01*
X283718D01*
Y294903D01*
X283985D01*
Y294636D01*
X284252D01*
Y294370D01*
X284519D01*
Y294103D01*
X284786D01*
Y293836D01*
X285053D01*
Y293569D01*
X285319D01*
Y293035D01*
X285586D01*
Y292502D01*
X285853D01*
Y292235D01*
X286120D01*
Y291701D01*
X286387D01*
Y290901D01*
X286654D01*
Y290634D01*
X286387D01*
Y290367D01*
X286654D01*
Y289033D01*
X286387D01*
Y288766D01*
X286120D01*
Y288499D01*
X285853D01*
Y288232D01*
X285586D01*
Y287965D01*
X285053D01*
Y287698D01*
X284252D01*
Y287965D01*
X283451D01*
Y288499D01*
X283185D01*
Y288766D01*
X282918D01*
Y289300D01*
X282651D01*
Y289566D01*
X282384D01*
Y290100D01*
X282117D01*
Y290634D01*
X281850D01*
Y291167D01*
X281584D01*
Y291701D01*
X281317D01*
Y292235D01*
X281050D01*
Y292502D01*
X280783D01*
Y293035D01*
X280516D01*
Y293569D01*
X280249D01*
Y293836D01*
X279982D01*
Y294370D01*
X279449D01*
Y294636D01*
X279182D01*
Y294903D01*
X278915D01*
Y295170D01*
X278382D01*
Y295437D01*
X277848D01*
Y295704D01*
X277581D01*
Y296238D01*
X277314D01*
Y295971D01*
X277047D01*
Y296504D01*
X276780D01*
Y296238D01*
X276514D01*
Y296771D01*
X275980D01*
Y297038D01*
X275713D01*
Y296771D01*
X275446D01*
Y297038D01*
X274912D01*
Y297305D01*
X274112D01*
Y295704D01*
X273845D01*
Y294903D01*
X273578D01*
Y292768D01*
X274646D01*
Y292502D01*
X275446D01*
Y292235D01*
X275713D01*
Y291968D01*
X276247D01*
Y291701D01*
X276780D01*
Y291434D01*
X277047D01*
Y291167D01*
X277581D01*
Y290901D01*
X277848D01*
Y290634D01*
X278382D01*
Y290367D01*
X278648D01*
Y290100D01*
X278915D01*
Y289566D01*
X279182D01*
Y289300D01*
X279449D01*
Y289033D01*
X279716D01*
Y288766D01*
X279982D01*
Y288499D01*
X280249D01*
Y288232D01*
X280516D01*
Y287965D01*
X280783D01*
Y287698D01*
X281050D01*
Y287165D01*
X281317D01*
Y286898D01*
X281584D01*
Y286631D01*
X281850D01*
Y286364D01*
X282117D01*
Y285830D01*
X282384D01*
Y285564D01*
X282651D01*
Y285030D01*
X282918D01*
Y284763D01*
X283185D01*
Y283963D01*
X283451D01*
Y283429D01*
X283718D01*
Y282895D01*
X283985D01*
Y281561D01*
X283718D01*
Y281294D01*
X283185D01*
Y281027D01*
X282918D01*
Y280760D01*
X282651D01*
Y281027D01*
X282384D01*
Y281294D01*
X282117D01*
Y281561D01*
X281850D01*
Y282095D01*
X281584D01*
Y282362D01*
X281317D01*
Y282895D01*
X281050D01*
Y283162D01*
X280516D01*
Y283429D01*
X280249D01*
Y283963D01*
X279982D01*
Y284229D01*
X279716D01*
Y284496D01*
X279449D01*
Y285030D01*
X279182D01*
Y285297D01*
X278915D01*
Y285564D01*
X278648D01*
Y285830D01*
X278382D01*
Y286097D01*
X278115D01*
Y286364D01*
X277848D01*
Y286898D01*
X277581D01*
Y287165D01*
X277314D01*
Y287432D01*
X276780D01*
Y287965D01*
X276247D01*
Y288499D01*
X275713D01*
Y289033D01*
X275179D01*
Y289566D01*
X274646D01*
Y289833D01*
X274379D01*
Y290100D01*
X273845D01*
Y290367D01*
X273311D01*
Y290100D01*
X273045D01*
Y288499D01*
X273578D01*
Y288232D01*
X273845D01*
Y287965D01*
X274379D01*
Y287698D01*
X274646D01*
Y287432D01*
X274912D01*
Y287165D01*
X275179D01*
Y286898D01*
X275713D01*
Y286364D01*
X275980D01*
Y286097D01*
X276247D01*
Y285830D01*
X276780D01*
Y285564D01*
X277047D01*
Y285030D01*
X277581D01*
Y284763D01*
X277848D01*
Y284496D01*
X278115D01*
Y284229D01*
X278382D01*
Y283963D01*
X278915D01*
Y283696D01*
X279449D01*
Y283162D01*
X279982D01*
Y282628D01*
X280249D01*
Y282362D01*
X280783D01*
Y281828D01*
X281050D01*
Y281561D01*
X281584D01*
Y281027D01*
X282117D01*
Y280760D01*
X282384D01*
Y280494D01*
X282918D01*
Y280227D01*
X283185D01*
Y279960D01*
X283985D01*
Y279693D01*
X284252D01*
Y279960D01*
X284519D01*
Y279693D01*
X285319D01*
Y279960D01*
X285853D01*
Y280227D01*
X286387D01*
Y280494D01*
X286654D01*
Y280760D01*
X286921D01*
Y281294D01*
X287187D01*
Y281828D01*
X287454D01*
Y282095D01*
X287721D01*
Y282362D01*
X287454D01*
Y282628D01*
X287721D01*
Y283696D01*
X287988D01*
Y286097D01*
X288255D01*
Y287432D01*
X288522D01*
Y287698D01*
X288255D01*
Y289033D01*
X288522D01*
Y290367D01*
X288788D01*
Y292235D01*
X288522D01*
Y292502D01*
X288788D01*
Y292235D01*
X289055D01*
Y293035D01*
X288788D01*
Y293569D01*
X289322D01*
Y294370D01*
X289589D01*
Y294903D01*
X289856D01*
Y295170D01*
X289589D01*
Y295704D01*
X289856D01*
Y296771D01*
X289589D01*
Y297305D01*
X289856D01*
Y297572D01*
X289589D01*
Y298105D01*
X289856D01*
Y298372D01*
X289589D01*
Y298639D01*
X289856D01*
Y299173D01*
X289589D01*
Y299706D01*
X289856D01*
Y301041D01*
X289589D01*
Y301308D01*
X289856D01*
Y302642D01*
X289589D01*
Y303976D01*
X289322D01*
Y305310D01*
X289055D01*
Y306378D01*
X288788D01*
Y307178D01*
X288522D01*
Y308779D01*
X288255D01*
Y309313D01*
X287988D01*
Y310380D01*
X287721D01*
Y311181D01*
X287187D01*
Y311448D01*
X286921D01*
Y311981D01*
X286654D01*
Y312515D01*
X286387D01*
Y312782D01*
X285586D01*
Y313316D01*
X284786D01*
Y313582D01*
X284252D01*
Y313849D01*
X283718D01*
Y314116D01*
X283185D01*
Y314383D01*
X282918D01*
Y314650D01*
X282384D01*
Y315183D01*
X281850D01*
Y315450D01*
X281317D01*
Y315717D01*
X281050D01*
Y315984D01*
X280516D01*
Y316251D01*
X279716D01*
Y316518D01*
X279182D01*
Y316784D01*
X278915D01*
Y317051D01*
X278115D01*
Y316784D01*
X277314D01*
Y317051D01*
X277047D01*
Y317852D01*
X276514D01*
Y318119D01*
X275980D01*
Y318386D01*
X275446D01*
Y318652D01*
X275179D01*
Y318919D01*
D02*
G37*
G36*
X207401Y283963D02*
X207134D01*
Y283696D01*
X207401D01*
Y283963D01*
D02*
G37*
G36*
X208735Y273022D02*
X208468D01*
Y272755D01*
X208735D01*
Y273022D01*
D02*
G37*
G36*
X209002Y270887D02*
X208735D01*
Y270620D01*
X209002D01*
Y270887D01*
D02*
G37*
G36*
X217541Y223122D02*
X217274D01*
Y222855D01*
X216740D01*
Y222588D01*
X216474D01*
Y222321D01*
X216207D01*
Y222055D01*
X215940D01*
Y221788D01*
X215673D01*
Y221521D01*
X215139D01*
Y220987D01*
X214872D01*
Y220720D01*
X214606D01*
Y220454D01*
X214339D01*
Y220187D01*
X214072D01*
Y219920D01*
X213805D01*
Y219653D01*
X213538D01*
Y219386D01*
X213271D01*
Y219119D01*
X213538D01*
Y218853D01*
X213004D01*
Y218052D01*
X212738D01*
Y218319D01*
X212471D01*
Y217785D01*
X212738D01*
Y217518D01*
X212471D01*
Y217785D01*
X212204D01*
Y217518D01*
X211937D01*
Y217251D01*
X211670D01*
Y216985D01*
X211403D01*
Y216718D01*
X211137D01*
Y216451D01*
X210870D01*
Y215917D01*
X210603D01*
Y215117D01*
X210336D01*
Y214583D01*
X210069D01*
Y212181D01*
X210336D01*
Y210847D01*
X210603D01*
Y210047D01*
X210870D01*
Y209513D01*
X211137D01*
Y209246D01*
X211403D01*
Y208179D01*
X211670D01*
Y207378D01*
X212204D01*
Y206845D01*
X212471D01*
Y206044D01*
X212738D01*
Y205777D01*
X213271D01*
Y205510D01*
X213004D01*
Y205243D01*
X213538D01*
Y204443D01*
X213805D01*
Y203642D01*
X214072D01*
Y203375D01*
X214339D01*
Y203109D01*
X214872D01*
Y202575D01*
X215406D01*
Y202308D01*
X215139D01*
Y202041D01*
X215406D01*
Y201508D01*
X215673D01*
Y200974D01*
X215940D01*
Y200707D01*
X216740D01*
Y199907D01*
X217274D01*
Y199640D01*
X217541D01*
Y199373D01*
X217808D01*
Y199106D01*
X218075D01*
Y198839D01*
X218608D01*
Y199106D01*
X218341D01*
Y200440D01*
X218608D01*
Y200974D01*
X218875D01*
Y201241D01*
X219142D01*
Y201774D01*
X219409D01*
Y202041D01*
X219676D01*
Y202308D01*
X220209D01*
Y202575D01*
X220476D01*
Y202842D01*
X220743D01*
Y203109D01*
X221010D01*
Y203375D01*
X221544D01*
Y203642D01*
X221810D01*
Y203909D01*
X222344D01*
Y204176D01*
X223145D01*
Y204443D01*
X223678D01*
Y204710D01*
X223945D01*
Y204977D01*
X223678D01*
Y205510D01*
X223945D01*
Y206044D01*
X223678D01*
Y205777D01*
X223412D01*
Y206311D01*
X223145D01*
Y206578D01*
X222077D01*
Y206845D01*
X221810D01*
Y206578D01*
X221544D01*
Y206044D01*
X221277D01*
Y206311D01*
X221010D01*
Y206044D01*
X221277D01*
Y205777D01*
X220743D01*
Y205510D01*
X220476D01*
Y205243D01*
X220209D01*
Y204977D01*
X219942D01*
Y204710D01*
X219676D01*
Y204443D01*
X219142D01*
Y204176D01*
X218875D01*
Y203642D01*
X218608D01*
Y203375D01*
X218341D01*
Y202575D01*
X218075D01*
Y202308D01*
X217007D01*
Y202041D01*
X216207D01*
Y203642D01*
Y203909D01*
Y204443D01*
X216474D01*
Y204710D01*
X215673D01*
Y204443D01*
X215406D01*
Y204710D01*
X215139D01*
Y205510D01*
X214872D01*
Y206578D01*
X215139D01*
Y207111D01*
X215406D01*
Y207378D01*
X215673D01*
Y207912D01*
X215940D01*
Y208179D01*
X216207D01*
Y208445D01*
X216474D01*
Y208712D01*
X216740D01*
Y208979D01*
X217007D01*
Y209246D01*
X217274D01*
Y209513D01*
X217541D01*
Y209780D01*
X217808D01*
Y210047D01*
X218075D01*
Y210313D01*
X218341D01*
Y210580D01*
X218875D01*
Y210847D01*
X219142D01*
Y211114D01*
X219676D01*
Y211381D01*
X220209D01*
Y211648D01*
X220743D01*
Y211915D01*
X221010D01*
Y212715D01*
X220743D01*
Y213516D01*
X219409D01*
Y213249D01*
X218875D01*
Y212982D01*
X218608D01*
Y212715D01*
X218341D01*
Y212448D01*
X217808D01*
Y212181D01*
X217541D01*
Y211915D01*
X217274D01*
Y211648D01*
X217007D01*
Y211381D01*
X216740D01*
Y211114D01*
X216474D01*
Y210847D01*
X215940D01*
Y210580D01*
X215673D01*
Y210313D01*
X215406D01*
Y210047D01*
X215139D01*
Y209780D01*
X214606D01*
Y209246D01*
X214339D01*
Y208979D01*
X214072D01*
Y208712D01*
X213805D01*
Y208179D01*
X213538D01*
Y207912D01*
X213271D01*
Y207645D01*
X212471D01*
Y207912D01*
X212204D01*
Y208179D01*
X212471D01*
Y208712D01*
X212738D01*
Y208979D01*
X213004D01*
Y209246D01*
X212738D01*
Y209513D01*
X212471D01*
Y210847D01*
X212738D01*
Y211114D01*
X213004D01*
Y211381D01*
X213271D01*
Y211648D01*
X213538D01*
Y212181D01*
X213805D01*
Y212448D01*
X214339D01*
Y212715D01*
X214606D01*
Y212982D01*
X215139D01*
Y213249D01*
X215406D01*
Y213516D01*
X215940D01*
Y213782D01*
X216474D01*
Y214049D01*
X217007D01*
Y214316D01*
X217541D01*
Y214583D01*
X217808D01*
Y214850D01*
X218341D01*
Y215117D01*
X218875D01*
Y215383D01*
X219676D01*
Y216184D01*
X219942D01*
Y216451D01*
X219409D01*
Y216985D01*
X219676D01*
Y217251D01*
X219142D01*
Y217785D01*
X218875D01*
Y218052D01*
X218608D01*
Y217785D01*
X218341D01*
Y217518D01*
X218075D01*
Y216985D01*
X217808D01*
Y216718D01*
X217274D01*
Y216451D01*
X217007D01*
Y216184D01*
X216740D01*
Y215917D01*
X216474D01*
Y215650D01*
X216207D01*
Y215383D01*
X215673D01*
Y215117D01*
X215139D01*
Y214850D01*
X214872D01*
Y214583D01*
X214339D01*
Y214316D01*
X214072D01*
Y214049D01*
X213271D01*
Y213782D01*
X212738D01*
Y213516D01*
X212471D01*
Y213249D01*
X211670D01*
Y213516D01*
X211137D01*
Y214850D01*
X211403D01*
Y215383D01*
X211937D01*
Y215650D01*
X212204D01*
Y215917D01*
X212471D01*
Y216184D01*
X213004D01*
Y216451D01*
X213271D01*
Y216718D01*
X213538D01*
Y216985D01*
X213805D01*
Y217251D01*
X214339D01*
Y217518D01*
X214606D01*
Y217785D01*
X214872D01*
Y218052D01*
X215406D01*
Y218319D01*
X215673D01*
Y218586D01*
X215940D01*
Y218853D01*
X216207D01*
Y219119D01*
X216474D01*
Y219653D01*
X216740D01*
Y219920D01*
X217274D01*
Y220454D01*
X217808D01*
Y220720D01*
X218075D01*
Y221254D01*
X217808D01*
Y221521D01*
X218075D01*
Y221788D01*
X217808D01*
Y222588D01*
X217541D01*
Y223122D01*
D02*
G37*
G36*
X220209Y215917D02*
X219942D01*
Y215650D01*
X220209D01*
Y215917D01*
D02*
G37*
G36*
X221277Y212982D02*
X221010D01*
Y212715D01*
X221277D01*
Y212982D01*
D02*
G37*
G36*
X221544Y212181D02*
X221277D01*
Y211915D01*
X221544D01*
Y212181D01*
D02*
G37*
G36*
X222344Y209780D02*
X222077D01*
Y209513D01*
X222344D01*
Y209780D01*
D02*
G37*
G36*
X222077Y209513D02*
X221277D01*
Y209246D01*
X221010D01*
Y209513D01*
X220476D01*
Y208979D01*
X220209D01*
Y208712D01*
X219676D01*
Y208445D01*
X219409D01*
Y208179D01*
X219142D01*
Y207645D01*
X219676D01*
Y207912D01*
X220209D01*
Y208179D01*
X220476D01*
Y208445D01*
X222077D01*
Y208712D01*
X222344D01*
Y208979D01*
X222077D01*
Y209513D01*
D02*
G37*
G36*
X222611Y209246D02*
X222344D01*
Y208979D01*
X222611D01*
Y208445D01*
X222878D01*
Y208979D01*
X222611D01*
Y209246D01*
D02*
G37*
G36*
X219142Y207645D02*
X218875D01*
Y207378D01*
X219142D01*
Y207645D01*
D02*
G37*
G36*
X223412Y207378D02*
X223145D01*
Y207111D01*
X223412D01*
Y207378D01*
D02*
G37*
G36*
X218875D02*
X218341D01*
Y207111D01*
X218875D01*
Y207378D01*
D02*
G37*
G36*
X218341Y206845D02*
X218075D01*
Y206578D01*
X218341D01*
Y206845D01*
D02*
G37*
G36*
X217808Y206578D02*
X217541D01*
Y206311D01*
X217808D01*
Y206578D01*
D02*
G37*
G36*
X244492Y215650D02*
X243958D01*
Y215383D01*
X243692D01*
Y214850D01*
X243425D01*
Y214583D01*
X244225D01*
Y214316D01*
X244759D01*
Y214049D01*
X244492D01*
Y213782D01*
X244759D01*
Y213516D01*
X245026D01*
Y213782D01*
X245293D01*
Y213516D01*
X245026D01*
Y213249D01*
X245293D01*
Y212982D01*
X245560D01*
Y212715D01*
X245826D01*
Y212448D01*
X246093D01*
Y212181D01*
X246360D01*
Y211648D01*
X246627D01*
Y211114D01*
X246894D01*
Y210847D01*
X247161D01*
Y210047D01*
X247428D01*
Y209513D01*
X247694D01*
Y208712D01*
X247961D01*
Y207912D01*
X248228D01*
Y207111D01*
X248495D01*
Y206311D01*
X248228D01*
Y205777D01*
X247694D01*
Y205510D01*
X247161D01*
Y205777D01*
X246627D01*
Y206044D01*
X246093D01*
Y206845D01*
X246360D01*
Y207378D01*
X246093D01*
Y208179D01*
X245826D01*
Y208979D01*
X245560D01*
Y209246D01*
X245293D01*
Y210047D01*
X245026D01*
Y210313D01*
X244759D01*
Y210847D01*
X244492D01*
Y211114D01*
X244225D01*
Y211648D01*
X243958D01*
Y211915D01*
X243425D01*
Y212448D01*
X242891D01*
Y212715D01*
X242357D01*
Y212181D01*
X242091D01*
Y211648D01*
X242624D01*
Y211381D01*
X242891D01*
Y211114D01*
X243425D01*
Y210580D01*
X243958D01*
Y210047D01*
X244225D01*
Y209246D01*
X244492D01*
Y208179D01*
X244225D01*
Y207645D01*
X243692D01*
Y207378D01*
X242891D01*
Y207645D01*
X242357D01*
Y208712D01*
X242624D01*
Y208979D01*
X242357D01*
Y209513D01*
X242091D01*
Y209780D01*
X241557D01*
Y210047D01*
X241290D01*
Y209780D01*
X241023D01*
Y209513D01*
X240756D01*
Y208979D01*
X240490D01*
Y208712D01*
Y208179D01*
X241023D01*
Y207912D01*
X241290D01*
Y207645D01*
X242091D01*
Y207378D01*
X242624D01*
Y207111D01*
X242891D01*
Y206845D01*
X243425D01*
Y206578D01*
X243692D01*
Y206311D01*
X244225D01*
Y206044D01*
X244492D01*
Y205777D01*
X244759D01*
Y205510D01*
X245026D01*
Y205243D01*
X245293D01*
Y204977D01*
X245826D01*
Y204710D01*
X246093D01*
Y204443D01*
X246360D01*
Y204176D01*
X246627D01*
Y203909D01*
X246894D01*
Y203642D01*
X247161D01*
Y203375D01*
X247428D01*
Y202842D01*
X247694D01*
Y202575D01*
X247961D01*
Y201774D01*
X248228D01*
Y201508D01*
X248495D01*
Y200974D01*
X248762D01*
Y200173D01*
X249029D01*
Y199907D01*
X249295D01*
Y199373D01*
X249562D01*
Y199106D01*
X249829D01*
Y198572D01*
X250096D01*
Y198039D01*
X250363D01*
Y198305D01*
X250896D01*
Y198572D01*
X251163D01*
Y199106D01*
X251430D01*
Y199373D01*
X251964D01*
Y199907D01*
X252231D01*
Y200440D01*
X251964D01*
Y200707D01*
X252231D01*
Y200974D01*
X251964D01*
Y201508D01*
X252231D01*
Y201774D01*
X251964D01*
Y202041D01*
X251697D01*
Y203909D01*
X251430D01*
Y204710D01*
X251697D01*
Y205243D01*
X251430D01*
Y205777D01*
X250896D01*
Y206578D01*
X250630D01*
Y206845D01*
X250896D01*
Y207111D01*
X250363D01*
Y208445D01*
X249829D01*
Y209246D01*
X249562D01*
Y209513D01*
X249295D01*
Y210047D01*
X249029D01*
Y210313D01*
X248762D01*
Y210847D01*
X248495D01*
Y211114D01*
X248228D01*
Y211648D01*
X247961D01*
Y212448D01*
X247694D01*
Y212715D01*
X247428D01*
Y212982D01*
X247161D01*
Y213249D01*
X246894D01*
Y213516D01*
X246627D01*
Y213782D01*
X246360D01*
Y214049D01*
X246093D01*
Y214316D01*
X245826D01*
Y214583D01*
X245560D01*
Y215117D01*
X244759D01*
Y215383D01*
X244492D01*
Y215650D01*
D02*
G37*
G36*
X224212Y205243D02*
X223945D01*
Y204977D01*
X224212D01*
Y205243D01*
D02*
G37*
G36*
X235153Y202575D02*
X234886D01*
Y202308D01*
X235153D01*
Y202575D01*
D02*
G37*
G36*
X224479Y203109D02*
X224212D01*
Y202842D01*
X223945D01*
Y202575D01*
X223145D01*
Y202041D01*
X222878D01*
Y201508D01*
X222344D01*
Y201241D01*
X222077D01*
Y200707D01*
X221544D01*
Y200173D01*
X221010D01*
Y199907D01*
X220743D01*
Y198572D01*
X220476D01*
Y198305D01*
X219409D01*
Y198039D01*
X219142D01*
Y197772D01*
X219676D01*
Y197505D01*
X220209D01*
Y197238D01*
X222344D01*
Y197505D01*
X222878D01*
Y197772D01*
X223145D01*
Y198039D01*
X223412D01*
Y198305D01*
X223945D01*
Y198572D01*
X224479D01*
Y198839D01*
X224746D01*
Y199106D01*
X225012D01*
Y199373D01*
X225279D01*
Y199640D01*
X225813D01*
Y200173D01*
X225546D01*
Y200974D01*
X225279D01*
Y201774D01*
X225012D01*
Y202041D01*
X224746D01*
Y202575D01*
X224479D01*
Y203109D01*
D02*
G37*
G36*
X233285Y190300D02*
X233018D01*
Y190033D01*
X233285D01*
Y190300D01*
D02*
G37*
G36*
X234619Y187632D02*
X234352D01*
Y187365D01*
X234619D01*
Y187632D01*
D02*
G37*
G36*
X240490Y173222D02*
X240223D01*
Y172955D01*
X240490D01*
Y173222D01*
D02*
G37*
G36*
X232217Y187098D02*
X231417D01*
Y186564D01*
X231150D01*
Y186031D01*
X230883D01*
Y185764D01*
X230616D01*
Y185497D01*
X230349D01*
Y184429D01*
X230083D01*
Y182562D01*
X229816D01*
Y182028D01*
X229549D01*
Y181761D01*
X229282D01*
Y181494D01*
X228748D01*
Y180961D01*
X228482D01*
Y180694D01*
X228215D01*
Y180427D01*
X227948D01*
Y179626D01*
X227681D01*
Y179359D01*
X227948D01*
Y178826D01*
X227681D01*
Y178292D01*
X227414D01*
Y177491D01*
X227147D01*
Y176958D01*
X226880D01*
Y176424D01*
X226614D01*
Y176157D01*
X226347D01*
Y175891D01*
X226080D01*
Y175090D01*
X225813D01*
Y174556D01*
X225279D01*
Y174023D01*
X225012D01*
Y173489D01*
X224746D01*
Y173222D01*
X224479D01*
Y172688D01*
X224212D01*
Y172421D01*
X223945D01*
Y171888D01*
X223678D01*
Y171621D01*
X223412D01*
Y171354D01*
X223145D01*
Y170820D01*
X222878D01*
Y170554D01*
X222611D01*
Y170020D01*
X222344D01*
Y169486D01*
X222077D01*
Y169219D01*
X221810D01*
Y168953D01*
X221544D01*
Y168419D01*
X221277D01*
Y168152D01*
X221010D01*
Y167885D01*
X220743D01*
Y167351D01*
X220476D01*
Y166818D01*
X220209D01*
Y166284D01*
X219942D01*
Y166017D01*
X219676D01*
Y165217D01*
X219409D01*
Y164683D01*
X219142D01*
Y164149D01*
X218875D01*
Y163883D01*
X218608D01*
Y163616D01*
X218341D01*
Y163082D01*
X218075D01*
Y162815D01*
X217808D01*
Y162548D01*
X217541D01*
Y162281D01*
X217274D01*
Y162015D01*
X217007D01*
Y161481D01*
X216740D01*
Y160947D01*
X216474D01*
Y160147D01*
X216207D01*
Y159613D01*
X215940D01*
Y159346D01*
X215673D01*
Y158812D01*
X215406D01*
Y158012D01*
X215139D01*
Y157478D01*
X214872D01*
Y156678D01*
X214606D01*
Y156411D01*
X214339D01*
Y155610D01*
X213805D01*
Y155077D01*
X214072D01*
Y154810D01*
X213805D01*
Y154543D01*
X214072D01*
Y154276D01*
X213538D01*
Y154009D01*
X213805D01*
Y153742D01*
X213538D01*
Y154009D01*
X213271D01*
Y153209D01*
X213004D01*
Y152675D01*
X212471D01*
Y152408D01*
X212204D01*
Y152141D01*
X211937D01*
Y151874D01*
X211670D01*
Y151608D01*
X211403D01*
Y151874D01*
X211137D01*
Y151608D01*
X211403D01*
Y151341D01*
X211137D01*
Y150540D01*
X210870D01*
Y150807D01*
X210603D01*
Y150540D01*
X210870D01*
Y149740D01*
X210336D01*
Y149473D01*
X210603D01*
Y148939D01*
X210336D01*
Y148406D01*
X210069D01*
Y148139D01*
X209802D01*
Y147605D01*
X209536D01*
Y147338D01*
X209269D01*
Y146538D01*
X209002D01*
Y146271D01*
X208735D01*
Y146004D01*
X208468D01*
Y145470D01*
X208201D01*
Y145203D01*
X207934D01*
Y144937D01*
X207668D01*
Y144670D01*
X207401D01*
Y144403D01*
X207134D01*
Y144136D01*
X206867D01*
Y143602D01*
X206600D01*
Y143335D01*
X206333D01*
Y142802D01*
X206067D01*
Y142535D01*
X205800D01*
Y142001D01*
X205533D01*
Y141468D01*
X205266D01*
Y140934D01*
X205533D01*
Y141201D01*
X206600D01*
Y141468D01*
X208201D01*
Y141734D01*
X208468D01*
Y141468D01*
X208735D01*
Y141734D01*
X209536D01*
Y142001D01*
X210603D01*
Y142268D01*
X211403D01*
Y142535D01*
X211670D01*
Y142268D01*
X211937D01*
Y142535D01*
X212471D01*
Y142802D01*
X213004D01*
Y143069D01*
X213538D01*
Y143335D01*
X214072D01*
Y143602D01*
X214339D01*
Y143335D01*
X214606D01*
Y143869D01*
X215406D01*
Y144136D01*
X215940D01*
Y144403D01*
X216207D01*
Y144670D01*
X216740D01*
Y144937D01*
X217007D01*
Y145203D01*
X217541D01*
Y145470D01*
X218075D01*
Y145203D01*
X218341D01*
Y145470D01*
X218075D01*
Y145737D01*
X218608D01*
Y146004D01*
X219142D01*
Y146271D01*
X219942D01*
Y146538D01*
X220209D01*
Y146804D01*
X220743D01*
Y147071D01*
X221810D01*
Y147338D01*
X222077D01*
Y147605D01*
X222344D01*
Y147872D01*
X223145D01*
Y148139D01*
X224212D01*
Y148406D01*
X224479D01*
Y148672D01*
X225012D01*
Y148939D01*
X226347D01*
Y149206D01*
X226880D01*
Y149473D01*
X227414D01*
Y149740D01*
X228215D01*
Y150007D01*
X228482D01*
Y150273D01*
X229549D01*
Y150540D01*
X230083D01*
Y150807D01*
X230616D01*
Y150540D01*
X231417D01*
Y150807D01*
X233552D01*
Y151074D01*
X235686D01*
Y151341D01*
X236220D01*
Y151074D01*
X237554D01*
Y151341D01*
X239689D01*
Y151074D01*
X241824D01*
Y150807D01*
X243158D01*
Y150540D01*
X245293D01*
Y150273D01*
X246093D01*
Y150007D01*
X247161D01*
Y149740D01*
X247961D01*
Y149473D01*
X248495D01*
Y149206D01*
X249829D01*
Y148939D01*
X250896D01*
Y148672D01*
X251697D01*
Y148406D01*
X251964D01*
Y148139D01*
X252498D01*
Y147872D01*
X253031D01*
Y147605D01*
X253565D01*
Y147338D01*
X254099D01*
Y147071D01*
X254632D01*
Y146804D01*
X255166D01*
Y146538D01*
X255433D01*
Y146271D01*
X255700D01*
Y146004D01*
X256233D01*
Y145737D01*
X256767D01*
Y145470D01*
X257301D01*
Y145737D01*
X257568D01*
Y145203D01*
X258368D01*
Y144937D01*
X258902D01*
Y144670D01*
X259436D01*
Y144403D01*
X259969D01*
Y144136D01*
X260236D01*
Y143869D01*
X260503D01*
Y144136D01*
X260236D01*
Y144670D01*
X259969D01*
Y145470D01*
X259702D01*
Y145203D01*
X259436D01*
Y145737D01*
X259169D01*
Y146004D01*
X259436D01*
Y146271D01*
X259169D01*
Y146804D01*
X258902D01*
Y147071D01*
X258368D01*
Y147605D01*
X258101D01*
Y148139D01*
X257301D01*
Y148406D01*
X257568D01*
Y148672D01*
X257301D01*
Y148939D01*
X257034D01*
Y149206D01*
X256767D01*
Y149473D01*
X256500D01*
Y149740D01*
X256233D01*
Y150273D01*
X255966D01*
Y150540D01*
X255700D01*
Y150807D01*
X255433D01*
Y151074D01*
X255166D01*
Y151341D01*
X254899D01*
Y151608D01*
X254632D01*
Y151874D01*
X254366D01*
Y152408D01*
X254099D01*
Y152675D01*
X253832D01*
Y152942D01*
X253565D01*
Y153209D01*
X253298D01*
Y153476D01*
X253031D01*
Y153742D01*
X252764D01*
Y154009D01*
X252498D01*
Y154276D01*
X252231D01*
Y154543D01*
X251964D01*
Y154810D01*
X251697D01*
Y155077D01*
X251430D01*
Y155343D01*
X251163D01*
Y155610D01*
X250896D01*
Y155877D01*
X250096D01*
Y156144D01*
X249829D01*
Y156411D01*
X249562D01*
Y156678D01*
X249295D01*
Y157478D01*
X249029D01*
Y158012D01*
X248762D01*
Y158279D01*
X248495D01*
Y158546D01*
X248228D01*
Y159079D01*
X247961D01*
Y159613D01*
X247694D01*
Y160413D01*
X247428D01*
Y160680D01*
X247161D01*
Y161481D01*
X246894D01*
Y162015D01*
X246627D01*
Y162548D01*
X246360D01*
Y162815D01*
X246627D01*
Y163082D01*
X246093D01*
Y163616D01*
X245826D01*
Y164416D01*
X245293D01*
Y165217D01*
X245026D01*
Y165750D01*
X244759D01*
Y166017D01*
X244492D01*
Y166284D01*
X244225D01*
Y166818D01*
X243958D01*
Y167351D01*
X243692D01*
Y167885D01*
X243425D01*
Y168152D01*
X242891D01*
Y168419D01*
X243158D01*
Y168686D01*
X242891D01*
Y168953D01*
X242624D01*
Y169753D01*
X242357D01*
Y170020D01*
X242091D01*
Y170820D01*
X241824D01*
Y171087D01*
X241290D01*
Y171354D01*
X241557D01*
Y171621D01*
X241290D01*
Y171888D01*
X241023D01*
Y172421D01*
X240756D01*
Y172155D01*
X240490D01*
Y172688D01*
X240223D01*
Y172955D01*
X239956D01*
Y174023D01*
X239689D01*
Y174556D01*
X239422D01*
Y175357D01*
X238888D01*
Y176157D01*
X238622D01*
Y176424D01*
X238355D01*
Y176691D01*
X238088D01*
Y176958D01*
X238355D01*
Y177225D01*
X238088D01*
Y177491D01*
X237821D01*
Y177758D01*
X237554D01*
Y178559D01*
X237020D01*
Y179093D01*
X236754D01*
Y179626D01*
X236487D01*
Y180160D01*
X236220D01*
Y180694D01*
X235686D01*
Y180961D01*
X235953D01*
Y181227D01*
X235686D01*
Y181494D01*
X235420D01*
Y182028D01*
X235153D01*
Y182295D01*
X234886D01*
Y182828D01*
X234619D01*
Y183362D01*
X234352D01*
Y183629D01*
X234085D01*
Y184163D01*
X233818D01*
Y184429D01*
X233552D01*
Y184963D01*
X233285D01*
Y185230D01*
X233018D01*
Y185764D01*
X232751D01*
Y186297D01*
X232484D01*
Y186831D01*
X232217D01*
Y187098D01*
D02*
G37*
G36*
X251697Y148406D02*
X251430D01*
Y148139D01*
X251697D01*
Y148406D01*
D02*
G37*
%LPD*%
G36*
X247428Y372021D02*
X248495D01*
Y371754D01*
X248762D01*
Y371488D01*
X249029D01*
Y371221D01*
X249295D01*
Y370687D01*
X249562D01*
Y370420D01*
X249829D01*
Y369887D01*
X250096D01*
Y369353D01*
X250363D01*
Y368819D01*
X250630D01*
Y368285D01*
X250896D01*
Y367752D01*
X251430D01*
Y367218D01*
X251697D01*
Y366951D01*
X251964D01*
Y366418D01*
X252231D01*
Y366151D01*
X252498D01*
Y365350D01*
X252764D01*
Y364550D01*
X253031D01*
Y364283D01*
Y361081D01*
X252764D01*
Y360013D01*
X252498D01*
Y359213D01*
X252231D01*
Y358679D01*
X251964D01*
Y358412D01*
X251697D01*
Y357879D01*
X250363D01*
Y358145D01*
X250096D01*
Y360547D01*
X250363D01*
Y361614D01*
X249829D01*
Y361348D01*
X249562D01*
Y361081D01*
X249029D01*
Y360814D01*
X247694D01*
Y361081D01*
X247161D01*
Y361348D01*
X246894D01*
Y361614D01*
X246360D01*
Y362148D01*
X246093D01*
Y362682D01*
X245826D01*
Y365083D01*
X246093D01*
Y365617D01*
X246360D01*
Y365884D01*
X246894D01*
Y366151D01*
X247161D01*
Y365884D01*
X248228D01*
Y365617D01*
X249029D01*
Y365350D01*
X249295D01*
Y365884D01*
X248762D01*
Y366418D01*
X248228D01*
Y366951D01*
X247694D01*
Y367218D01*
X247961D01*
Y367485D01*
X247428D01*
Y368019D01*
X247161D01*
Y368819D01*
X245826D01*
Y369086D01*
X245026D01*
Y368819D01*
X244759D01*
Y368552D01*
X244492D01*
Y368285D01*
X244225D01*
Y367752D01*
X243958D01*
Y367485D01*
X243692D01*
Y367218D01*
X243425D01*
Y366951D01*
X243158D01*
Y365884D01*
X242891D01*
Y365083D01*
X243158D01*
Y364817D01*
X242891D01*
Y364550D01*
X243158D01*
Y362949D01*
X243425D01*
Y362415D01*
X243158D01*
Y361881D01*
X242891D01*
Y361614D01*
X242624D01*
Y361348D01*
X242357D01*
Y361081D01*
X241824D01*
Y360814D01*
X241557D01*
Y360547D01*
X241023D01*
Y360280D01*
X240756D01*
Y360547D01*
X240490D01*
Y360280D01*
X240223D01*
Y360547D01*
X239956D01*
Y360814D01*
X239689D01*
Y361881D01*
X239956D01*
Y362415D01*
X239689D01*
Y362949D01*
X239422D01*
Y366951D01*
X239689D01*
Y368019D01*
X239956D01*
Y368552D01*
X240490D01*
Y368819D01*
X240756D01*
Y369086D01*
X241023D01*
Y369620D01*
X241290D01*
Y369887D01*
X241557D01*
Y370153D01*
X241824D01*
Y370420D01*
X242091D01*
Y370687D01*
X242357D01*
Y370954D01*
X242624D01*
Y371221D01*
X242891D01*
Y371488D01*
X243158D01*
Y371754D01*
X244225D01*
Y372021D01*
X245560D01*
Y372288D01*
X247428D01*
Y372021D01*
D02*
G37*
G36*
X230883Y344536D02*
X230616D01*
Y344803D01*
X230883D01*
Y344536D01*
D02*
G37*
G36*
X223945Y349340D02*
X224479D01*
Y349073D01*
X224746D01*
Y348806D01*
X225012D01*
Y348539D01*
X225279D01*
Y348272D01*
X225813D01*
Y348005D01*
X226080D01*
Y347738D01*
X226347D01*
Y347472D01*
X226614D01*
Y347205D01*
X227147D01*
Y346671D01*
X227414D01*
Y346137D01*
X227948D01*
Y345871D01*
X228215D01*
Y346137D01*
X228482D01*
Y345604D01*
X229015D01*
Y345337D01*
X229282D01*
Y345070D01*
X229549D01*
Y345337D01*
X229816D01*
Y344803D01*
X230349D01*
Y344536D01*
X230616D01*
Y344269D01*
X231417D01*
Y344003D01*
X231684D01*
Y343736D01*
X232484D01*
Y343469D01*
X233285D01*
Y343202D01*
X234085D01*
Y342935D01*
X235686D01*
Y342668D01*
X237020D01*
Y342402D01*
X237287D01*
Y342668D01*
X237554D01*
Y342402D01*
X239422D01*
Y342135D01*
X241023D01*
Y341868D01*
X242891D01*
Y341601D01*
X245826D01*
Y341334D01*
X246360D01*
Y341601D01*
X249295D01*
Y341334D01*
X249562D01*
Y341601D01*
X250630D01*
Y341868D01*
X251430D01*
Y342135D01*
X251697D01*
Y341868D01*
X252498D01*
Y342135D01*
X252764D01*
Y341868D01*
X254366D01*
Y342135D01*
X259169D01*
Y342402D01*
X259702D01*
Y342668D01*
X261037D01*
Y342935D01*
X261303D01*
Y343202D01*
X261837D01*
Y343469D01*
X262638D01*
Y343202D01*
X263171D01*
Y342935D01*
X263705D01*
Y342402D01*
X263972D01*
Y341067D01*
X263705D01*
Y340801D01*
X263438D01*
Y340534D01*
X262638D01*
Y340267D01*
X260770D01*
Y340000D01*
X260236D01*
Y339733D01*
X259702D01*
Y339466D01*
X258902D01*
Y339199D01*
X258368D01*
Y338933D01*
X258101D01*
Y339199D01*
X257568D01*
Y338933D01*
X257301D01*
Y339199D01*
X257034D01*
Y338933D01*
X256500D01*
Y339199D01*
X256233D01*
Y338933D01*
X255166D01*
Y338666D01*
X254632D01*
Y338399D01*
X253832D01*
Y338666D01*
X253565D01*
Y338399D01*
X250630D01*
Y338132D01*
X247161D01*
Y337865D01*
X245026D01*
Y338132D01*
X244492D01*
Y337865D01*
X243958D01*
Y338132D01*
X243425D01*
Y337865D01*
X243158D01*
Y338132D01*
X241557D01*
Y338399D01*
X238622D01*
Y338666D01*
X237020D01*
Y338933D01*
X235953D01*
Y339199D01*
X234085D01*
Y339466D01*
X233552D01*
Y339733D01*
X232751D01*
Y340000D01*
X232484D01*
Y339733D01*
X231950D01*
Y340000D01*
X231684D01*
Y340267D01*
X230616D01*
Y340534D01*
X230349D01*
Y340801D01*
X230083D01*
Y340534D01*
X229816D01*
Y340801D01*
X229549D01*
Y341067D01*
X229282D01*
Y341334D01*
X228748D01*
Y341601D01*
X228215D01*
Y341868D01*
X227948D01*
Y342135D01*
X227681D01*
Y342402D01*
X226880D01*
Y342668D01*
X226614D01*
Y342935D01*
X226080D01*
Y343202D01*
X225546D01*
Y343469D01*
X225279D01*
Y343736D01*
X225012D01*
Y344003D01*
X224746D01*
Y344269D01*
X224479D01*
Y344536D01*
X223945D01*
Y344803D01*
X223678D01*
Y345070D01*
X223412D01*
Y345337D01*
X222878D01*
Y345604D01*
X222611D01*
Y345871D01*
X222344D01*
Y346137D01*
X222077D01*
Y346671D01*
X221810D01*
Y347472D01*
X221544D01*
Y348005D01*
X221810D01*
Y348539D01*
X222077D01*
Y348806D01*
X222344D01*
Y349073D01*
X222611D01*
Y349340D01*
X223412D01*
Y349606D01*
X223945D01*
Y349340D01*
D02*
G37*
G36*
X264239Y334129D02*
X264772D01*
Y333596D01*
X265306D01*
Y333329D01*
X265573D01*
Y333062D01*
X265840D01*
Y332795D01*
X266107D01*
Y332528D01*
Y332262D01*
X266374D01*
Y331194D01*
X266107D01*
Y330660D01*
X265840D01*
Y330394D01*
X265573D01*
Y330127D01*
X265306D01*
Y329860D01*
X264772D01*
Y329593D01*
X264506D01*
Y329326D01*
X262371D01*
Y329593D01*
X261837D01*
Y329860D01*
X261570D01*
Y330394D01*
X261303D01*
Y330660D01*
X261037D01*
Y331194D01*
X260770D01*
Y332528D01*
X260503D01*
Y332795D01*
X260770D01*
Y333596D01*
X261037D01*
Y333863D01*
X261303D01*
Y334129D01*
X261570D01*
Y334396D01*
X264239D01*
Y334129D01*
D02*
G37*
G36*
X254366Y331995D02*
X255433D01*
Y331728D01*
X255966D01*
Y331461D01*
X256233D01*
Y331194D01*
X256500D01*
Y330927D01*
X256767D01*
Y329059D01*
X256500D01*
Y328792D01*
X256233D01*
Y328526D01*
X255966D01*
Y328259D01*
X255166D01*
Y327992D01*
X254099D01*
Y328259D01*
X253565D01*
Y328526D01*
X252498D01*
Y328792D01*
X252231D01*
Y329059D01*
X251964D01*
Y329593D01*
X251430D01*
Y329860D01*
X251163D01*
Y330660D01*
X251430D01*
Y331194D01*
X251697D01*
Y331728D01*
X252231D01*
Y331995D01*
X252764D01*
Y332262D01*
X254366D01*
Y331995D01*
D02*
G37*
G36*
X210069Y326391D02*
X209802D01*
Y326658D01*
X210069D01*
Y326391D01*
D02*
G37*
G36*
X261303Y325590D02*
X261837D01*
Y325323D01*
X262371D01*
Y325057D01*
X262638D01*
Y323456D01*
X262371D01*
Y322922D01*
X262104D01*
Y322655D01*
X261837D01*
Y322388D01*
X261570D01*
Y322121D01*
X260503D01*
Y322388D01*
X260236D01*
Y322655D01*
X259969D01*
Y323189D01*
X259702D01*
Y324256D01*
X259436D01*
Y324790D01*
X259702D01*
Y325590D01*
X260236D01*
Y325857D01*
X261303D01*
Y325590D01*
D02*
G37*
G36*
X209536Y321321D02*
X209269D01*
Y321588D01*
X209536D01*
Y321321D01*
D02*
G37*
G36*
X255433Y319987D02*
Y319453D01*
X254899D01*
Y319186D01*
X253832D01*
Y319987D01*
X254099D01*
Y320253D01*
X255433D01*
Y319987D01*
D02*
G37*
G36*
X266640Y321321D02*
X267441D01*
Y321054D01*
X267708D01*
Y320520D01*
X267974D01*
Y320253D01*
X268241D01*
Y320520D01*
X268508D01*
Y320253D01*
X268775D01*
Y319987D01*
X269042D01*
Y318919D01*
X268775D01*
Y317852D01*
X268508D01*
Y317585D01*
X268241D01*
Y317318D01*
X267974D01*
Y317051D01*
X267441D01*
Y316784D01*
X266107D01*
Y317051D01*
X265840D01*
Y317318D01*
X265306D01*
Y317585D01*
X265039D01*
Y318119D01*
X264772D01*
Y318386D01*
Y318652D01*
Y319987D01*
X265039D01*
Y321054D01*
X265573D01*
Y321321D01*
X266107D01*
Y321588D01*
X266640D01*
Y321321D01*
D02*
G37*
G36*
X257301Y315183D02*
X257834D01*
Y314917D01*
X258101D01*
Y314650D01*
X258368D01*
Y313849D01*
X258101D01*
Y313582D01*
X258368D01*
Y313316D01*
X258101D01*
Y312782D01*
X257301D01*
Y313049D01*
X257034D01*
Y313316D01*
X256233D01*
Y313049D01*
X255966D01*
Y312782D01*
X255166D01*
Y313849D01*
X254899D01*
Y314383D01*
X255166D01*
Y314917D01*
X255700D01*
Y315183D01*
X255966D01*
Y315450D01*
X256233D01*
Y315183D01*
X256500D01*
Y315450D01*
X257301D01*
Y315183D01*
D02*
G37*
G36*
X268775Y310914D02*
X269309D01*
Y310647D01*
X270109D01*
Y310380D01*
Y310113D01*
Y309846D01*
X270376D01*
Y309580D01*
X270109D01*
Y308779D01*
X269842D01*
Y308512D01*
X269576D01*
Y308246D01*
X269042D01*
Y307979D01*
X268241D01*
Y308246D01*
X267708D01*
Y308512D01*
X267441D01*
Y308779D01*
X267174D01*
Y309580D01*
X266907D01*
Y310380D01*
X267174D01*
Y310914D01*
X267974D01*
Y311181D01*
X268775D01*
Y310914D01*
D02*
G37*
G36*
X262638Y311448D02*
X264506D01*
Y311181D01*
X264772D01*
Y310914D01*
X265039D01*
Y309580D01*
X264772D01*
Y309313D01*
X265039D01*
Y309046D01*
Y307979D01*
X264772D01*
Y307712D01*
X264506D01*
Y307445D01*
X264239D01*
Y307178D01*
X262371D01*
Y307445D01*
X261837D01*
Y307712D01*
X261570D01*
Y307979D01*
X261303D01*
Y308512D01*
X261037D01*
Y309046D01*
X260770D01*
Y310380D01*
X261037D01*
Y310914D01*
X261303D01*
Y311181D01*
X261570D01*
Y311448D01*
X262371D01*
Y311714D01*
X262638D01*
Y311448D01*
D02*
G37*
G36*
X255700Y304510D02*
X255433D01*
Y303976D01*
X255166D01*
Y303709D01*
X254632D01*
Y303976D01*
X254366D01*
Y305310D01*
X254632D01*
Y305577D01*
X255700D01*
Y304510D01*
D02*
G37*
G36*
X261303Y301574D02*
X261570D01*
Y301308D01*
X261837D01*
Y299440D01*
X261570D01*
Y299173D01*
X261303D01*
Y298906D01*
X261037D01*
Y298639D01*
X259969D01*
Y298906D01*
X259702D01*
Y299173D01*
X259436D01*
Y299706D01*
X259169D01*
Y301041D01*
X259436D01*
Y301308D01*
X259702D01*
Y301574D01*
X260236D01*
Y301841D01*
X260503D01*
Y301574D01*
X260770D01*
Y301841D01*
X261303D01*
Y301574D01*
D02*
G37*
G36*
X268508Y302642D02*
X269042D01*
Y302375D01*
X269309D01*
Y301841D01*
X269576D01*
Y301308D01*
X269842D01*
Y300774D01*
X269576D01*
Y300240D01*
X269309D01*
Y299973D01*
X269042D01*
Y299706D01*
X268508D01*
Y299440D01*
X268241D01*
Y299706D01*
X267974D01*
Y299440D01*
X267708D01*
Y299706D01*
X266907D01*
Y299973D01*
X266640D01*
Y300240D01*
X266374D01*
Y300507D01*
X266107D01*
Y301574D01*
X266374D01*
Y302108D01*
X266640D01*
Y302642D01*
X267174D01*
Y302909D01*
X268508D01*
Y302642D01*
D02*
G37*
G36*
X252764Y297305D02*
X253031D01*
Y294370D01*
X252764D01*
Y294103D01*
X251964D01*
Y295437D01*
X251697D01*
Y295704D01*
Y295971D01*
X251964D01*
Y297305D01*
X252231D01*
Y297572D01*
X252764D01*
Y297305D01*
D02*
G37*
G36*
X263171Y295437D02*
X263705D01*
Y295170D01*
X263972D01*
Y294903D01*
X264239D01*
Y293836D01*
X263972D01*
Y293569D01*
X263705D01*
Y293302D01*
X261570D01*
Y293569D01*
X261303D01*
Y293836D01*
X261037D01*
Y294370D01*
X260770D01*
Y294903D01*
X261037D01*
Y295170D01*
X261303D01*
Y295437D01*
X261837D01*
Y295704D01*
X263171D01*
Y295437D01*
D02*
G37*
G36*
X259969Y290901D02*
X260503D01*
Y290367D01*
X260770D01*
Y289833D01*
X261037D01*
Y288766D01*
X261303D01*
Y288499D01*
X261037D01*
Y287432D01*
X260770D01*
Y287165D01*
X260503D01*
Y286898D01*
X259969D01*
Y286631D01*
X258902D01*
Y286898D01*
X258368D01*
Y287165D01*
X257834D01*
Y287432D01*
X257301D01*
Y287698D01*
X257034D01*
Y288232D01*
X256767D01*
Y289033D01*
X256500D01*
Y289566D01*
X256767D01*
Y290100D01*
X257034D01*
Y290367D01*
X257301D01*
Y290634D01*
X257834D01*
Y290901D01*
X258101D01*
Y290634D01*
X258368D01*
Y290901D01*
X258635D01*
Y290634D01*
X259169D01*
Y290901D01*
X259436D01*
Y291167D01*
X259969D01*
Y290901D01*
D02*
G37*
G36*
X266640Y291968D02*
X267174D01*
Y291701D01*
X267441D01*
Y291434D01*
X267708D01*
Y291167D01*
X267974D01*
Y290901D01*
X268241D01*
Y289833D01*
X267974D01*
Y289566D01*
X267708D01*
Y289300D01*
X267441D01*
Y289033D01*
X266907D01*
Y288766D01*
X266107D01*
Y289033D01*
X265306D01*
Y289566D01*
X265039D01*
Y290100D01*
X264772D01*
Y291434D01*
X265039D01*
Y291701D01*
X265306D01*
Y291968D01*
X265573D01*
Y292235D01*
X266640D01*
Y291968D01*
D02*
G37*
G36*
X254632Y288766D02*
X254899D01*
Y287965D01*
X254632D01*
Y286898D01*
X254366D01*
Y286364D01*
X253832D01*
Y286097D01*
X253298D01*
Y287698D01*
Y287965D01*
X253565D01*
Y288766D01*
X253832D01*
Y289033D01*
X254632D01*
Y288766D01*
D02*
G37*
G36*
X264506Y283162D02*
X265573D01*
Y282895D01*
X265840D01*
Y281294D01*
X265573D01*
Y280760D01*
X265306D01*
Y280494D01*
X265039D01*
Y280227D01*
X263972D01*
Y280494D01*
X263705D01*
Y280760D01*
X263438D01*
Y281294D01*
X263171D01*
Y281561D01*
Y281828D01*
Y282895D01*
X263438D01*
Y283162D01*
X263972D01*
Y283429D01*
X264506D01*
Y283162D01*
D02*
G37*
G36*
X256500Y279159D02*
X256767D01*
Y278892D01*
X257034D01*
Y278359D01*
X257301D01*
Y278092D01*
X257034D01*
Y277825D01*
Y277558D01*
X256767D01*
Y277292D01*
X256500D01*
Y277025D01*
X256233D01*
Y276758D01*
X254632D01*
Y277025D01*
X254366D01*
Y277292D01*
X254099D01*
Y277558D01*
X253832D01*
Y278626D01*
X254099D01*
Y279159D01*
X254632D01*
Y279426D01*
X255700D01*
Y279159D01*
X256233D01*
Y279426D01*
X256500D01*
Y279159D01*
D02*
G37*
G36*
X262638Y277558D02*
X263171D01*
Y277292D01*
X263438D01*
Y277025D01*
X263972D01*
Y276758D01*
X264239D01*
Y275957D01*
X264506D01*
Y274890D01*
X264239D01*
Y274623D01*
X263972D01*
Y274356D01*
X262638D01*
Y274623D01*
X262104D01*
Y274890D01*
X261570D01*
Y275157D01*
X261303D01*
Y275424D01*
X261037D01*
Y276758D01*
X261303D01*
Y277292D01*
X261837D01*
Y277558D01*
X262104D01*
Y277825D01*
X262638D01*
Y277558D01*
D02*
G37*
G36*
X250096Y272488D02*
X250363D01*
Y271955D01*
X250096D01*
Y271421D01*
X249829D01*
Y271154D01*
X249562D01*
Y270887D01*
X249295D01*
Y270620D01*
X249029D01*
Y270887D01*
X248762D01*
Y271955D01*
X249029D01*
Y272488D01*
X249295D01*
Y272755D01*
X249562D01*
Y273022D01*
X250096D01*
Y272488D01*
D02*
G37*
G36*
X259169Y269286D02*
X259702D01*
Y268752D01*
X259969D01*
Y268219D01*
X260236D01*
Y265550D01*
X259969D01*
Y265284D01*
X259702D01*
Y265017D01*
X259169D01*
Y264750D01*
X258635D01*
Y265017D01*
X257568D01*
Y265284D01*
X257301D01*
Y265550D01*
X257034D01*
Y265817D01*
X256767D01*
Y266084D01*
X256500D01*
Y266351D01*
X256233D01*
Y266618D01*
X255966D01*
Y267151D01*
X255700D01*
Y268752D01*
X255966D01*
Y269019D01*
X256233D01*
Y269286D01*
X256500D01*
Y269553D01*
X258101D01*
Y269286D01*
X258368D01*
Y269553D01*
X259169D01*
Y269286D01*
D02*
G37*
G36*
X253298Y267151D02*
X253832D01*
Y266884D01*
X254099D01*
Y266618D01*
X254366D01*
Y265550D01*
Y265284D01*
Y264750D01*
X254099D01*
Y264483D01*
X253832D01*
Y264216D01*
X253298D01*
Y264483D01*
X252764D01*
Y264750D01*
X252231D01*
Y265017D01*
X251964D01*
Y265284D01*
X251697D01*
Y265817D01*
X251430D01*
Y266884D01*
X251697D01*
Y267151D01*
X251964D01*
Y267418D01*
X253298D01*
Y267151D01*
D02*
G37*
G36*
X246360Y264750D02*
X246627D01*
Y264483D01*
X246360D01*
Y263949D01*
X246093D01*
Y263682D01*
X245826D01*
Y263416D01*
X245293D01*
Y263149D01*
X245026D01*
Y262882D01*
X244759D01*
Y263149D01*
X244492D01*
Y263949D01*
X244759D01*
Y264483D01*
X245026D01*
Y264750D01*
X245293D01*
Y265017D01*
X245560D01*
Y265284D01*
X246360D01*
Y264750D01*
D02*
G37*
G36*
X258368Y258346D02*
X258635D01*
Y257812D01*
X258902D01*
Y257011D01*
X258635D01*
Y256478D01*
X258368D01*
Y255944D01*
X258101D01*
Y255677D01*
X256500D01*
Y255944D01*
X255966D01*
Y256211D01*
X255700D01*
Y256744D01*
X255433D01*
Y257812D01*
Y258079D01*
Y258346D01*
X255700D01*
Y258612D01*
X257301D01*
Y258346D01*
X257568D01*
Y258612D01*
X257834D01*
Y258346D01*
X258101D01*
Y258612D01*
X258368D01*
Y258346D01*
D02*
G37*
G36*
X247161Y259413D02*
X247428D01*
Y258879D01*
X246627D01*
Y258612D01*
X246360D01*
Y258346D01*
X246093D01*
Y258079D01*
X245560D01*
Y258879D01*
X245826D01*
Y259413D01*
X246093D01*
Y259680D01*
X246360D01*
Y259947D01*
X247161D01*
Y259413D01*
D02*
G37*
G36*
X252231Y259947D02*
X252498D01*
Y259413D01*
X252764D01*
Y258612D01*
X252498D01*
Y258346D01*
Y258079D01*
Y257812D01*
X252231D01*
Y257545D01*
X251697D01*
Y257278D01*
X251430D01*
Y257545D01*
X250896D01*
Y257812D01*
X250630D01*
Y258346D01*
X250363D01*
Y258879D01*
X250096D01*
Y259146D01*
X249829D01*
Y259413D01*
X250096D01*
Y259680D01*
X250363D01*
Y259947D01*
X250630D01*
Y260213D01*
X252231D01*
Y259947D01*
D02*
G37*
G36*
X242624Y256211D02*
X242891D01*
Y255944D01*
X243158D01*
Y254876D01*
X242891D01*
Y254343D01*
X242091D01*
Y254610D01*
X241824D01*
Y254343D01*
X241023D01*
Y255677D01*
X241290D01*
Y256211D01*
X241824D01*
Y256478D01*
X242624D01*
Y256211D01*
D02*
G37*
G36*
X252764Y253009D02*
X253298D01*
Y252742D01*
X254099D01*
Y252475D01*
X254366D01*
Y252208D01*
X254632D01*
Y250874D01*
X254099D01*
Y250607D01*
X253832D01*
Y250340D01*
X252498D01*
Y250607D01*
X252231D01*
Y250874D01*
X251964D01*
Y251141D01*
X251430D01*
Y251408D01*
X251163D01*
Y251674D01*
X251430D01*
Y252208D01*
X251697D01*
Y252475D01*
X251964D01*
Y252742D01*
X252231D01*
Y253009D01*
X252498D01*
Y253275D01*
X252764D01*
Y253009D01*
D02*
G37*
G36*
X216207Y249806D02*
X215940D01*
Y250073D01*
X216207D01*
Y249806D01*
D02*
G37*
G36*
X247961Y251941D02*
X248228D01*
Y250340D01*
X247961D01*
Y250073D01*
X247694D01*
Y249806D01*
X247161D01*
Y249540D01*
X246894D01*
Y249273D01*
X246627D01*
Y249006D01*
X245293D01*
Y249273D01*
X244759D01*
Y249806D01*
X244492D01*
Y250073D01*
X244225D01*
Y251408D01*
X244492D01*
Y251674D01*
X244759D01*
Y251941D01*
X245293D01*
Y252208D01*
X247961D01*
Y251941D01*
D02*
G37*
G36*
Y244736D02*
X248495D01*
Y244470D01*
X248762D01*
Y244203D01*
Y243936D01*
X249029D01*
Y242602D01*
X249295D01*
Y242335D01*
X249029D01*
Y242068D01*
X248495D01*
Y242335D01*
X248228D01*
Y242602D01*
X247961D01*
Y241534D01*
X247694D01*
Y241267D01*
X246894D01*
Y241534D01*
X246627D01*
Y244203D01*
X246894D01*
Y244736D01*
X247161D01*
Y245003D01*
X247694D01*
Y245270D01*
X247961D01*
Y244736D01*
D02*
G37*
G36*
X239689Y245537D02*
X239956D01*
Y245270D01*
X240223D01*
Y245003D01*
X240756D01*
Y244736D01*
X241290D01*
Y244203D01*
X241557D01*
Y242068D01*
X241290D01*
Y241801D01*
X241023D01*
Y241534D01*
X240756D01*
Y241267D01*
X239689D01*
Y241534D01*
X239155D01*
Y241801D01*
X238888D01*
Y242068D01*
X238622D01*
Y242335D01*
X238355D01*
Y242602D01*
Y242868D01*
X238088D01*
Y245270D01*
X238355D01*
Y245537D01*
X238888D01*
Y245804D01*
X239689D01*
Y245537D01*
D02*
G37*
G36*
X246360Y236998D02*
X246627D01*
Y235130D01*
X246360D01*
Y234863D01*
X246093D01*
Y234596D01*
X245826D01*
Y234329D01*
X245560D01*
Y234063D01*
X245293D01*
Y233796D01*
X243425D01*
Y234063D01*
X243158D01*
Y234329D01*
X242891D01*
Y234596D01*
X242624D01*
Y235130D01*
X242357D01*
Y236464D01*
X242624D01*
Y236731D01*
X242891D01*
Y236998D01*
X244759D01*
Y236731D01*
X245026D01*
Y236998D01*
X245560D01*
Y237265D01*
X246360D01*
Y236998D01*
D02*
G37*
G36*
X232751Y237532D02*
X233018D01*
Y236197D01*
X232484D01*
Y236464D01*
X232217D01*
Y237532D01*
X232484D01*
Y237799D01*
X232751D01*
Y237532D01*
D02*
G37*
G36*
X238088Y237265D02*
X238355D01*
Y236998D01*
X238622D01*
Y236464D01*
X238355D01*
Y235130D01*
X237554D01*
Y236464D01*
X237287D01*
Y237265D01*
X237554D01*
Y237532D01*
X238088D01*
Y237265D01*
D02*
G37*
G36*
X237554Y230861D02*
X237821D01*
Y230327D01*
X238088D01*
Y230060D01*
Y229793D01*
X237821D01*
Y229526D01*
X237554D01*
Y229259D01*
X237287D01*
Y228993D01*
X236754D01*
Y228726D01*
X235420D01*
Y229526D01*
X235686D01*
Y229793D01*
X235420D01*
Y230594D01*
X235686D01*
Y230861D01*
X235953D01*
Y231127D01*
X237020D01*
Y230861D01*
X237287D01*
Y231127D01*
X237554D01*
Y230861D01*
D02*
G37*
G36*
X244492Y230327D02*
X245026D01*
Y230060D01*
X245293D01*
Y228459D01*
X245026D01*
Y228192D01*
X244225D01*
Y227925D01*
X243692D01*
Y227658D01*
X242624D01*
Y227925D01*
X242091D01*
Y228192D01*
X241824D01*
Y228726D01*
X241557D01*
Y230060D01*
X241824D01*
Y230327D01*
X242091D01*
Y230594D01*
X244492D01*
Y230327D01*
D02*
G37*
G36*
X230616Y228726D02*
X230883D01*
Y227658D01*
X230616D01*
Y226057D01*
X230349D01*
Y225791D01*
X229549D01*
Y226858D01*
X229282D01*
Y227391D01*
X229549D01*
Y228192D01*
X229816D01*
Y228726D01*
X230083D01*
Y228993D01*
X230616D01*
Y228726D01*
D02*
G37*
G36*
X221810Y222855D02*
X221544D01*
Y223122D01*
X221810D01*
Y222855D01*
D02*
G37*
G36*
X243958Y222055D02*
X243692D01*
Y222321D01*
X243958D01*
Y222055D01*
D02*
G37*
G36*
X222077D02*
X221810D01*
Y222321D01*
X222077D01*
Y222055D01*
D02*
G37*
G36*
X232484Y223389D02*
X232217D01*
Y222588D01*
X232484D01*
Y221788D01*
X231684D01*
Y222321D01*
X231417D01*
Y222855D01*
X231150D01*
Y223923D01*
X231417D01*
Y224723D01*
X231684D01*
Y224990D01*
X232484D01*
Y223389D01*
D02*
G37*
G36*
X239422Y223122D02*
X239956D01*
Y222855D01*
X240223D01*
Y223122D01*
X240756D01*
Y222855D01*
X241023D01*
Y223122D01*
X241290D01*
Y222855D01*
X242091D01*
Y222588D01*
X242357D01*
Y222321D01*
X242891D01*
Y220987D01*
X242624D01*
Y220720D01*
X241824D01*
Y220454D01*
X241290D01*
Y220187D01*
X238355D01*
Y220454D01*
X238088D01*
Y220720D01*
X237821D01*
Y220987D01*
X237554D01*
Y221521D01*
X237287D01*
Y222588D01*
X237554D01*
Y222855D01*
X237821D01*
Y223122D01*
X238088D01*
Y223389D01*
X239422D01*
Y223122D01*
D02*
G37*
G36*
X235953Y218319D02*
X236487D01*
Y217785D01*
X236754D01*
Y216985D01*
X236487D01*
Y216451D01*
X236220D01*
Y216184D01*
X235953D01*
Y215917D01*
X235686D01*
Y215650D01*
X234352D01*
Y216184D01*
X234085D01*
Y216718D01*
X233818D01*
Y217518D01*
X234085D01*
Y218052D01*
X234619D01*
Y218319D01*
X234886D01*
Y218586D01*
X235953D01*
Y218319D01*
D02*
G37*
G36*
X229816Y216985D02*
X230083D01*
Y216718D01*
X230349D01*
Y215917D01*
X230083D01*
Y215650D01*
X229816D01*
Y215383D01*
X229282D01*
Y215650D01*
X229015D01*
Y216451D01*
X229282D01*
Y216985D01*
X229549D01*
Y217251D01*
X229816D01*
Y216985D01*
D02*
G37*
G36*
X237020Y210847D02*
X237287D01*
Y210580D01*
X237020D01*
Y209513D01*
X236754D01*
Y209246D01*
X236220D01*
Y208979D01*
X235420D01*
Y208712D01*
X234619D01*
Y208979D01*
X234352D01*
Y209780D01*
X234619D01*
Y210580D01*
X234886D01*
Y211381D01*
X237020D01*
Y210847D01*
D02*
G37*
G36*
X231950D02*
X232217D01*
Y209780D01*
X231950D01*
Y209513D01*
X231684D01*
Y209246D01*
X231417D01*
Y208979D01*
X231150D01*
Y208712D01*
X230616D01*
Y208979D01*
X229816D01*
Y209246D01*
Y209780D01*
X230349D01*
Y210047D01*
X230616D01*
Y210313D01*
X230883D01*
Y210580D01*
X231150D01*
Y210847D01*
X231417D01*
Y211114D01*
X231950D01*
Y210847D01*
D02*
G37*
G36*
X232751Y202842D02*
X233018D01*
Y202575D01*
X233285D01*
Y202041D01*
X233552D01*
Y201774D01*
X233818D01*
Y201241D01*
X233018D01*
Y201508D01*
X232751D01*
Y201774D01*
X232484D01*
Y202041D01*
X232217D01*
Y202308D01*
X231950D01*
Y202842D01*
X232217D01*
Y203109D01*
X232751D01*
Y202842D01*
D02*
G37*
%LPC*%
G36*
X248228Y363749D02*
X247694D01*
Y362949D01*
X247961D01*
Y363215D01*
X248228D01*
Y363749D01*
D02*
G37*
G36*
X254899Y330127D02*
X254366D01*
Y329860D01*
X254899D01*
Y330127D01*
D02*
G37*
G36*
X261037Y324790D02*
X260770D01*
Y323989D01*
X261037D01*
Y324790D01*
D02*
G37*
G36*
X263705Y310380D02*
X263438D01*
Y310113D01*
X263705D01*
Y310380D01*
D02*
G37*
G36*
X263171D02*
X262371D01*
Y310113D01*
X262104D01*
Y309580D01*
X262371D01*
Y309046D01*
X262638D01*
Y308779D01*
X263438D01*
Y309046D01*
X262904D01*
Y309313D01*
X262638D01*
Y309580D01*
Y309846D01*
X262904D01*
Y310113D01*
X263171D01*
Y310380D01*
D02*
G37*
G36*
X258635Y289566D02*
X258101D01*
Y289300D01*
X257834D01*
Y289033D01*
X258101D01*
Y288499D01*
X258368D01*
Y288232D01*
X259702D01*
Y288766D01*
X258635D01*
Y289033D01*
X258368D01*
Y289300D01*
X258635D01*
Y289566D01*
D02*
G37*
G36*
X257568Y268219D02*
X257034D01*
Y267685D01*
X257301D01*
Y267151D01*
X257568D01*
Y266884D01*
X258101D01*
Y267952D01*
X257568D01*
Y268219D01*
D02*
G37*
G36*
X246093Y250607D02*
X245826D01*
Y250340D01*
X246093D01*
Y250607D01*
D02*
G37*
G36*
X239422Y244470D02*
X239155D01*
Y243669D01*
X239422D01*
Y243135D01*
X239689D01*
Y242602D01*
X240223D01*
Y243402D01*
Y243669D01*
Y243936D01*
X239956D01*
Y244203D01*
X239422D01*
Y244470D01*
D02*
G37*
G36*
X244759Y235931D02*
X243425D01*
Y235664D01*
X243692D01*
Y235130D01*
X243958D01*
Y234863D01*
X244759D01*
Y235931D01*
D02*
G37*
G36*
X241290Y221788D02*
X240756D01*
Y221521D01*
X241290D01*
Y221788D01*
D02*
G37*
G36*
X239422Y222055D02*
X238622D01*
Y221788D01*
Y221521D01*
X239422D01*
Y221254D01*
X239689D01*
Y221788D01*
X239422D01*
Y222055D01*
D02*
G37*
%LPD*%
G36*
X281050Y309846D02*
X280783D01*
Y310113D01*
X281050D01*
Y309846D01*
D02*
G37*
G36*
X287187Y306911D02*
X286921D01*
Y307178D01*
X287187D01*
Y306911D01*
D02*
G37*
G36*
X214072Y219386D02*
X213805D01*
Y219653D01*
X214072D01*
Y219386D01*
D02*
G37*
G36*
X213004Y206044D02*
X212738D01*
Y206311D01*
X213004D01*
Y206044D01*
D02*
G37*
G36*
X242891Y168419D02*
X242624D01*
Y168686D01*
X242891D01*
Y168419D01*
D02*
G37*
G36*
X232217Y172421D02*
X232484D01*
Y171888D01*
X232751D01*
Y171354D01*
X233018D01*
Y170820D01*
X233285D01*
Y170020D01*
X233552D01*
Y169486D01*
X233818D01*
Y168686D01*
X234085D01*
Y168152D01*
X234352D01*
Y167618D01*
X234619D01*
Y167085D01*
X234886D01*
Y166551D01*
X235153D01*
Y166017D01*
X235420D01*
Y165217D01*
X235686D01*
Y164683D01*
X235953D01*
Y163883D01*
X236220D01*
Y163082D01*
X236487D01*
Y162815D01*
X236754D01*
Y162015D01*
X237020D01*
Y161481D01*
X237287D01*
Y160947D01*
X237554D01*
Y160413D01*
X237821D01*
Y159613D01*
X238088D01*
Y158812D01*
X238355D01*
Y158279D01*
X238622D01*
Y157211D01*
X238888D01*
Y156144D01*
X237821D01*
Y156678D01*
X237554D01*
Y157211D01*
X237287D01*
Y157745D01*
X237020D01*
Y158279D01*
X236754D01*
Y158812D01*
X236487D01*
Y159346D01*
X236220D01*
Y160147D01*
X235953D01*
Y160680D01*
X235686D01*
Y161214D01*
X235420D01*
Y161748D01*
X235153D01*
Y162281D01*
Y162548D01*
X234886D01*
Y163082D01*
X234619D01*
Y163883D01*
X234352D01*
Y164683D01*
X234085D01*
Y165217D01*
X233818D01*
Y165750D01*
X233552D01*
Y166551D01*
X233285D01*
Y167351D01*
X233018D01*
Y167618D01*
X232751D01*
Y168419D01*
X232484D01*
Y169219D01*
X232217D01*
Y170020D01*
X231950D01*
Y170820D01*
X231684D01*
Y171888D01*
X231417D01*
Y172155D01*
X231150D01*
Y172688D01*
X231417D01*
Y172955D01*
X232217D01*
Y172421D01*
D02*
G37*
G36*
X234352Y176424D02*
X234619D01*
Y175891D01*
X234886D01*
Y174823D01*
X235153D01*
Y174289D01*
X235420D01*
Y173756D01*
X235686D01*
Y173489D01*
X235953D01*
Y172955D01*
X236220D01*
Y172421D01*
X236487D01*
Y171888D01*
X236754D01*
Y171354D01*
X237020D01*
Y170820D01*
X237287D01*
Y170554D01*
X237554D01*
Y170020D01*
X237821D01*
Y169486D01*
X238088D01*
Y169219D01*
X238355D01*
Y168686D01*
X238622D01*
Y168152D01*
X238888D01*
Y167885D01*
X239155D01*
Y167085D01*
X239422D01*
Y166818D01*
X239689D01*
Y166284D01*
X239956D01*
Y165750D01*
X240223D01*
Y165483D01*
X240490D01*
Y164950D01*
X240756D01*
Y164416D01*
X241023D01*
Y164149D01*
X241290D01*
Y163616D01*
X241557D01*
Y163349D01*
X241824D01*
Y162815D01*
X242091D01*
Y162548D01*
X242357D01*
Y162015D01*
X242624D01*
Y161748D01*
X242891D01*
Y161481D01*
X243158D01*
Y160947D01*
X243425D01*
Y160413D01*
X243692D01*
Y160147D01*
X243958D01*
Y159880D01*
X244225D01*
Y159613D01*
X244492D01*
Y159079D01*
X244759D01*
Y158812D01*
X245026D01*
Y158546D01*
X245293D01*
Y158279D01*
X245560D01*
Y158012D01*
X245826D01*
Y157745D01*
X246093D01*
Y157478D01*
X246360D01*
Y156945D01*
X246627D01*
Y156678D01*
X246894D01*
Y156411D01*
X247161D01*
Y156144D01*
X247428D01*
Y155610D01*
X247694D01*
Y155077D01*
X247961D01*
Y154810D01*
X248228D01*
Y154276D01*
X247961D01*
Y154009D01*
X247428D01*
Y154276D01*
X246894D01*
Y154543D01*
X246627D01*
Y154810D01*
X246360D01*
Y155077D01*
X246093D01*
Y155343D01*
X245826D01*
Y155610D01*
X245560D01*
Y155877D01*
X245293D01*
Y156144D01*
X245026D01*
Y156411D01*
X244759D01*
Y156678D01*
X244492D01*
Y156945D01*
X244225D01*
Y157211D01*
X243958D01*
Y157478D01*
X243692D01*
Y158012D01*
X243425D01*
Y158279D01*
X243158D01*
Y158546D01*
X242891D01*
Y158812D01*
X242624D01*
Y159346D01*
X242357D01*
Y159613D01*
X242091D01*
Y159880D01*
X241824D01*
Y160413D01*
X241557D01*
Y160680D01*
X241290D01*
Y161214D01*
X241023D01*
Y161481D01*
X240756D01*
Y161748D01*
X240490D01*
Y162281D01*
X240223D01*
Y162815D01*
X239956D01*
Y163082D01*
X239689D01*
Y163616D01*
X239422D01*
Y163883D01*
X239155D01*
Y164416D01*
X238888D01*
Y164683D01*
X238622D01*
Y165483D01*
X238355D01*
Y165750D01*
X238088D01*
Y166284D01*
X237821D01*
Y166818D01*
X237554D01*
Y167085D01*
Y167351D01*
X237287D01*
Y167885D01*
X237020D01*
Y168419D01*
X236754D01*
Y168953D01*
X236487D01*
Y169486D01*
X236220D01*
Y170020D01*
X235953D01*
Y170287D01*
X235686D01*
Y171087D01*
X235420D01*
Y171621D01*
X235153D01*
Y172155D01*
X234886D01*
Y172955D01*
X234619D01*
Y173489D01*
X234352D01*
Y174023D01*
X234085D01*
Y174823D01*
X233818D01*
Y175891D01*
X233552D01*
Y176157D01*
X233818D01*
Y176424D01*
X234085D01*
Y176691D01*
X234352D01*
Y176424D01*
D02*
G37*
G36*
X230083Y150807D02*
X229816D01*
Y151074D01*
X230083D01*
Y150807D01*
D02*
G37*
G36*
X229282Y168419D02*
X229816D01*
Y168152D01*
X230083D01*
Y167085D01*
X230349D01*
Y165217D01*
X230083D01*
Y163616D01*
X229816D01*
Y162548D01*
X229549D01*
Y161481D01*
X229282D01*
Y160680D01*
X229015D01*
Y159880D01*
X228748D01*
Y159079D01*
X228482D01*
Y158546D01*
X228215D01*
Y157745D01*
X227948D01*
Y157211D01*
X227681D01*
Y156678D01*
X227414D01*
Y156144D01*
X227147D01*
Y155877D01*
X226880D01*
Y155343D01*
X226614D01*
Y154810D01*
X226347D01*
Y154543D01*
X226080D01*
Y154276D01*
X225813D01*
Y154009D01*
X225546D01*
Y153742D01*
X225279D01*
Y153476D01*
X225012D01*
Y153209D01*
X224746D01*
Y152675D01*
X224479D01*
Y152408D01*
X223945D01*
Y152141D01*
X223678D01*
Y151874D01*
X223412D01*
Y151608D01*
X222878D01*
Y151341D01*
X222344D01*
Y151074D01*
X222077D01*
Y150807D01*
X221544D01*
Y150540D01*
X221277D01*
Y150273D01*
X220476D01*
Y151341D01*
X220743D01*
Y151608D01*
X221010D01*
Y151874D01*
X221277D01*
Y152141D01*
X221544D01*
Y152408D01*
X221810D01*
Y152675D01*
X222077D01*
Y152942D01*
X222344D01*
Y153209D01*
X222611D01*
Y153476D01*
X223145D01*
Y154009D01*
X223678D01*
Y154543D01*
X223945D01*
Y154810D01*
X224479D01*
Y155343D01*
X224746D01*
Y155610D01*
X225012D01*
Y155877D01*
X225279D01*
Y156144D01*
X225546D01*
Y156678D01*
X225813D01*
Y156945D01*
Y157211D01*
X226080D01*
Y157745D01*
X226347D01*
Y158012D01*
X226614D01*
Y158546D01*
X226880D01*
Y158812D01*
X227147D01*
Y159613D01*
X227414D01*
Y160147D01*
X227681D01*
Y160680D01*
X227948D01*
Y161481D01*
X228215D01*
Y162548D01*
X228482D01*
Y163082D01*
X228748D01*
Y164149D01*
X229015D01*
Y165750D01*
X229282D01*
Y167351D01*
X229015D01*
Y167885D01*
X228748D01*
Y168419D01*
X229015D01*
Y168686D01*
X229282D01*
Y168419D01*
D02*
G37*
G36*
X259169Y146004D02*
X258902D01*
Y146271D01*
X259169D01*
Y146004D01*
D02*
G37*
%LPC*%
G36*
X336820Y401908D02*
X336554D01*
Y401641D01*
X336820D01*
Y401908D01*
D02*
G37*
G36*
X337087Y401107D02*
X336820D01*
Y400841D01*
Y400574D01*
X337354D01*
Y400841D01*
X337087D01*
Y401107D01*
D02*
G37*
G36*
X337354Y400307D02*
X337087D01*
Y400040D01*
X337354D01*
Y400307D01*
D02*
G37*
G36*
X338155Y397638D02*
X337888D01*
Y397372D01*
Y396838D01*
X338422D01*
Y397105D01*
X338155D01*
Y397638D01*
D02*
G37*
G36*
X340289Y373622D02*
X340023D01*
Y372021D01*
X340289D01*
Y372822D01*
Y373089D01*
Y373622D01*
D02*
G37*
G36*
X340023Y371488D02*
X339756D01*
Y369353D01*
X340023D01*
Y371488D01*
D02*
G37*
G36*
X339756Y369353D02*
X339489D01*
Y369086D01*
X339756Y368819D01*
Y368552D01*
X340023D01*
Y369086D01*
X339756D01*
Y369353D01*
D02*
G37*
G36*
Y368552D02*
X339489D01*
Y367485D01*
X339756D01*
Y368552D01*
D02*
G37*
G36*
X340289Y365884D02*
X340023D01*
Y365617D01*
X339489D01*
Y365884D01*
X339222D01*
Y364817D01*
X339489D01*
Y365083D01*
X340023D01*
Y365350D01*
X340289D01*
Y365884D01*
D02*
G37*
%LPD*%
M02*
