G04*
G04 #@! TF.GenerationSoftware,Altium Limited,Altium Designer,21.6.4 (81)*
G04*
G04 Layer_Color=8388736*
%FSLAX44Y44*%
%MOMM*%
G71*
G04*
G04 #@! TF.SameCoordinates,0A195E51-53B8-4AD9-BF6B-D2F5FD9C9AB7*
G04*
G04*
G04 #@! TF.FilePolarity,Negative*
G04*
G01*
G75*
%ADD91R,1.1532X1.1032*%
%ADD92R,0.8032X0.4432*%
%ADD93R,1.8532X2.6032*%
%ADD94R,0.4532X0.8032*%
%ADD95R,1.1032X1.1532*%
%ADD96C,0.4532*%
%ADD97R,0.5032X0.7432*%
%ADD98R,1.2532X0.8032*%
%ADD99R,0.7432X0.5032*%
%ADD100C,1.2032*%
%ADD101R,1.6782X0.6532*%
%ADD102R,0.7032X1.0032*%
%ADD103R,1.9842X1.0032*%
%ADD104R,1.9842X1.0032*%
%ADD105R,0.9532X1.8032*%
%ADD106R,0.9432X2.9982*%
%ADD107R,0.9832X1.1932*%
%ADD108R,1.1932X0.9832*%
%ADD109R,1.7532X0.9482*%
%ADD110R,1.7532X0.8732*%
%ADD111R,0.6282X0.7182*%
%ADD112R,0.6282X0.4782*%
%ADD113R,1.1032X0.9032*%
%ADD114R,0.9032X0.9032*%
%ADD115R,1.4032X0.8532*%
%ADD116R,0.6532X3.1032*%
%ADD117R,0.6532X2.1032*%
%ADD118R,0.9532X0.9032*%
%ADD119R,1.6032X0.7032*%
%ADD120R,0.6532X2.6032*%
%ADD121R,0.8032X0.8032*%
%ADD122R,1.0032X1.0032*%
%ADD123R,0.5032X0.5032*%
%ADD124R,0.7432X0.7432*%
%ADD125R,0.8032X1.2532*%
%ADD126R,3.2032X3.2332*%
%ADD127R,0.9032X2.2032*%
%ADD128R,2.2032X0.9032*%
%ADD129R,1.7032X0.9032*%
%ADD130R,0.9032X1.7032*%
%ADD131R,0.4572X0.4572*%
%ADD132R,1.2032X1.2532*%
%ADD133R,1.2532X2.4032*%
%ADD134R,1.7532X1.5532*%
%ADD135R,1.4032X1.2032*%
%ADD136R,2.1032X1.5532*%
%ADD137R,1.3732X2.0032*%
%ADD138R,0.9532X1.3032*%
%ADD139R,1.0532X1.3032*%
%ADD140R,1.7532X1.5032*%
%ADD141R,1.0032X0.5032*%
%ADD142R,3.2532X2.4032*%
%ADD143R,1.7282X0.8532*%
%ADD144R,3.4032X3.3032*%
%ADD145R,3.4032X2.9332*%
%ADD146R,7.7032X2.0032*%
%ADD147R,1.4032X2.6032*%
%ADD148R,2.7032X1.8532*%
%ADD149R,1.9032X2.3032*%
%ADD150R,2.7032X3.1032*%
%ADD151R,1.6032X1.4532*%
%ADD152R,2.1532X1.3032*%
%ADD153R,2.2032X1.3032*%
%ADD154R,2.6032X2.2032*%
%ADD155R,1.2032X0.8782*%
%ADD156R,2.0532X3.7032*%
%ADD157R,1.6032X1.1032*%
%ADD158R,0.6532X1.6282*%
%ADD159R,0.6232X0.7632*%
%ADD160R,3.2532X1.3432*%
%ADD161R,0.6732X0.5032*%
%ADD162R,0.5532X1.0532*%
%ADD163R,1.0032X2.6032*%
%ADD164R,2.0032X3.5032*%
%ADD165R,0.8032X1.4032*%
%ADD166R,1.6532X1.1532*%
%ADD167C,1.8532*%
%ADD168R,1.8532X1.8532*%
%ADD169R,1.8532X1.8532*%
%ADD170C,1.3032*%
%ADD171R,2.1532X2.1532*%
%ADD172C,2.1532*%
D91*
X212090Y507193D02*
D03*
Y522193D02*
D03*
X648970Y76302D02*
D03*
Y61302D02*
D03*
X1183705Y441840D02*
D03*
Y426840D02*
D03*
X686063Y104020D02*
D03*
Y89020D02*
D03*
X1201420Y369570D02*
D03*
Y354570D02*
D03*
X654050Y161170D02*
D03*
Y146170D02*
D03*
X1060450Y426600D02*
D03*
Y411600D02*
D03*
X1041400Y411720D02*
D03*
Y426720D02*
D03*
X970813Y426480D02*
D03*
Y411480D02*
D03*
X1068403Y463790D02*
D03*
Y478790D02*
D03*
X1086445Y478910D02*
D03*
Y463910D02*
D03*
X48260Y105170D02*
D03*
Y90170D02*
D03*
X109542Y242690D02*
D03*
Y257690D02*
D03*
X448835Y361545D02*
D03*
Y346545D02*
D03*
X412750Y346830D02*
D03*
Y361830D02*
D03*
X339090Y361098D02*
D03*
Y346098D02*
D03*
X375920Y346348D02*
D03*
Y361348D02*
D03*
X303005Y361098D02*
D03*
Y346098D02*
D03*
X589280Y326510D02*
D03*
Y341510D02*
D03*
X608330D02*
D03*
Y326510D02*
D03*
X631190D02*
D03*
Y341510D02*
D03*
X386080Y424300D02*
D03*
Y439300D02*
D03*
X464820Y446920D02*
D03*
Y431920D02*
D03*
X391160Y474860D02*
D03*
Y459860D02*
D03*
X668020Y80130D02*
D03*
Y95130D02*
D03*
X541020Y251580D02*
D03*
Y266580D02*
D03*
X519430Y261740D02*
D03*
Y276740D02*
D03*
X500380D02*
D03*
Y261740D02*
D03*
X528320Y330320D02*
D03*
Y345320D02*
D03*
X501650D02*
D03*
Y330320D02*
D03*
X96520Y535820D02*
D03*
Y520820D02*
D03*
X60960Y433190D02*
D03*
Y448190D02*
D03*
X16510Y445770D02*
D03*
Y430770D02*
D03*
X1054100Y35440D02*
D03*
Y20440D02*
D03*
X466878Y361545D02*
D03*
Y346545D02*
D03*
X1054100Y58420D02*
D03*
Y73420D02*
D03*
X430793Y346545D02*
D03*
Y361545D02*
D03*
X394182D02*
D03*
Y346545D02*
D03*
X357877Y346347D02*
D03*
Y361347D02*
D03*
X321047Y361097D02*
D03*
Y346097D02*
D03*
D92*
X264142Y503080D02*
D03*
Y508080D02*
D03*
Y513080D02*
D03*
Y518080D02*
D03*
Y523080D02*
D03*
X236141D02*
D03*
Y518080D02*
D03*
Y513080D02*
D03*
Y508080D02*
D03*
Y503080D02*
D03*
D93*
X250142Y513080D02*
D03*
D94*
X247642Y498580D02*
D03*
X252642D02*
D03*
X247642Y527580D02*
D03*
X252642D02*
D03*
D95*
X666870Y238760D02*
D03*
X681870D02*
D03*
X660640Y217375D02*
D03*
X60840Y266700D02*
D03*
X45840D02*
D03*
X1154550Y386080D02*
D03*
X1169550D02*
D03*
X427870Y474980D02*
D03*
X412870D02*
D03*
X175020Y345440D02*
D03*
X160020D02*
D03*
X160140Y363483D02*
D03*
X175140D02*
D03*
Y381525D02*
D03*
X160140D02*
D03*
X669170Y128270D02*
D03*
X654170D02*
D03*
X501770Y235033D02*
D03*
X516770D02*
D03*
X45720Y124460D02*
D03*
X30720D02*
D03*
X600710Y370840D02*
D03*
X585710D02*
D03*
X243633Y474787D02*
D03*
X228633D02*
D03*
X260675D02*
D03*
X275675D02*
D03*
X149860Y475443D02*
D03*
X164860D02*
D03*
X125610Y474992D02*
D03*
X110610D02*
D03*
X176290Y533863D02*
D03*
X161290D02*
D03*
X17900Y463550D02*
D03*
X32900D02*
D03*
X962660Y166370D02*
D03*
X977660D02*
D03*
X371990Y474980D02*
D03*
X356990D02*
D03*
X321512D02*
D03*
X336512D02*
D03*
X1017150Y162297D02*
D03*
X1002150D02*
D03*
X1017030Y180340D02*
D03*
X1002030D02*
D03*
X1018420Y102870D02*
D03*
X1003420D02*
D03*
X671950Y161290D02*
D03*
X686950D02*
D03*
X675640Y217375D02*
D03*
D96*
X669153Y347820D02*
D03*
Y342820D02*
D03*
Y337820D02*
D03*
Y332820D02*
D03*
X664802Y345320D02*
D03*
Y335320D02*
D03*
X660452Y347820D02*
D03*
Y342820D02*
D03*
Y337820D02*
D03*
Y332820D02*
D03*
D97*
X1051869Y382160D02*
D03*
X976869D02*
D03*
X981869D02*
D03*
X986869D02*
D03*
X991869D02*
D03*
X996869D02*
D03*
X1001869D02*
D03*
X1006869D02*
D03*
X1011869D02*
D03*
X1016869D02*
D03*
X1021869D02*
D03*
X1026869D02*
D03*
X1031869D02*
D03*
X1036869D02*
D03*
X1041869D02*
D03*
X1046869D02*
D03*
X1056869D02*
D03*
X1061869D02*
D03*
X1066869D02*
D03*
X1071869D02*
D03*
X1076869D02*
D03*
X1081869D02*
D03*
X1086869D02*
D03*
X1091869D02*
D03*
X1096869D02*
D03*
X1101869D02*
D03*
X1106869D02*
D03*
X1111869D02*
D03*
X1116869D02*
D03*
X1121869D02*
D03*
Y279760D02*
D03*
X1116869D02*
D03*
X1111869D02*
D03*
X1106869D02*
D03*
X1101869D02*
D03*
X1096869D02*
D03*
X1091869D02*
D03*
X1086869D02*
D03*
X1081869D02*
D03*
X1076869D02*
D03*
X1071869D02*
D03*
X1066869D02*
D03*
X1061869D02*
D03*
X1056869D02*
D03*
X1051869D02*
D03*
X1046869D02*
D03*
X1041869D02*
D03*
X1036869D02*
D03*
X1031869D02*
D03*
X1026869D02*
D03*
X1021869D02*
D03*
X1016869D02*
D03*
X1011869D02*
D03*
X1006869D02*
D03*
X1001869D02*
D03*
X996869D02*
D03*
X991869D02*
D03*
X986869D02*
D03*
X981869D02*
D03*
X976869D02*
D03*
D98*
X659560Y198833D02*
D03*
Y179832D02*
D03*
X681560Y189333D02*
D03*
D99*
X970668Y375960D02*
D03*
X1128068D02*
D03*
Y370960D02*
D03*
Y365960D02*
D03*
Y360960D02*
D03*
Y355960D02*
D03*
Y350960D02*
D03*
Y345960D02*
D03*
Y340960D02*
D03*
Y335960D02*
D03*
Y330960D02*
D03*
Y325960D02*
D03*
Y320960D02*
D03*
Y315960D02*
D03*
Y310960D02*
D03*
Y305960D02*
D03*
Y300960D02*
D03*
Y295960D02*
D03*
Y290960D02*
D03*
Y285960D02*
D03*
X970668D02*
D03*
Y290960D02*
D03*
Y295960D02*
D03*
Y300960D02*
D03*
Y305960D02*
D03*
Y310960D02*
D03*
Y315960D02*
D03*
Y320960D02*
D03*
Y325960D02*
D03*
Y330960D02*
D03*
Y335960D02*
D03*
Y340960D02*
D03*
Y345960D02*
D03*
Y350960D02*
D03*
Y355960D02*
D03*
Y360960D02*
D03*
Y365960D02*
D03*
Y370960D02*
D03*
D100*
X904240Y351790D02*
D03*
X953770Y203200D02*
D03*
X1097280Y247650D02*
D03*
X1077059Y247735D02*
D03*
X1118351D02*
D03*
X1043940Y451027D02*
D03*
X1021080Y204470D02*
D03*
X1042670D02*
D03*
X54610Y384810D02*
D03*
Y364490D02*
D03*
X161290Y43180D02*
D03*
X54610Y343937D02*
D03*
X935990Y388620D02*
D03*
X953770Y232410D02*
D03*
X927100Y320040D02*
D03*
X138430Y43180D02*
D03*
X115570D02*
D03*
X688340Y269240D02*
D03*
X779780Y290830D02*
D03*
X619760Y292100D02*
D03*
X543560D02*
D03*
X1050290Y234950D02*
D03*
X1139073Y247801D02*
D03*
X196850Y435610D02*
D03*
X739140Y307340D02*
D03*
D101*
X768520Y228710D02*
D03*
Y267710D02*
D03*
X709760Y274210D02*
D03*
X500108Y414025D02*
D03*
Y407525D02*
D03*
Y401025D02*
D03*
Y394525D02*
D03*
Y388025D02*
D03*
Y381525D02*
D03*
Y375025D02*
D03*
Y368525D02*
D03*
X558868D02*
D03*
Y375025D02*
D03*
Y381525D02*
D03*
Y388025D02*
D03*
Y394525D02*
D03*
Y401025D02*
D03*
Y407525D02*
D03*
Y414025D02*
D03*
X709760Y228710D02*
D03*
Y235210D02*
D03*
Y241710D02*
D03*
Y248210D02*
D03*
Y254710D02*
D03*
Y261210D02*
D03*
Y267710D02*
D03*
X768520Y274210D02*
D03*
Y261210D02*
D03*
Y254710D02*
D03*
Y248210D02*
D03*
Y241710D02*
D03*
Y235210D02*
D03*
X628820Y188737D02*
D03*
Y195238D02*
D03*
Y201737D02*
D03*
Y208237D02*
D03*
Y214738D02*
D03*
Y221238D02*
D03*
Y227737D02*
D03*
Y234237D02*
D03*
X570060D02*
D03*
Y227737D02*
D03*
Y221238D02*
D03*
Y214738D02*
D03*
Y208237D02*
D03*
Y201737D02*
D03*
Y195238D02*
D03*
Y188737D02*
D03*
X886630Y407780D02*
D03*
Y414280D02*
D03*
Y420780D02*
D03*
Y427280D02*
D03*
Y433780D02*
D03*
Y440280D02*
D03*
Y446780D02*
D03*
Y453280D02*
D03*
X827870D02*
D03*
Y446780D02*
D03*
Y440280D02*
D03*
Y433780D02*
D03*
Y427280D02*
D03*
Y420780D02*
D03*
Y414280D02*
D03*
Y407780D02*
D03*
X1111080Y145940D02*
D03*
Y139440D02*
D03*
Y132940D02*
D03*
Y126440D02*
D03*
Y119940D02*
D03*
Y113440D02*
D03*
Y106940D02*
D03*
Y100440D02*
D03*
X1169840D02*
D03*
Y106940D02*
D03*
Y113440D02*
D03*
Y119940D02*
D03*
Y126440D02*
D03*
Y132940D02*
D03*
Y139440D02*
D03*
Y145940D02*
D03*
X126830Y514538D02*
D03*
Y508038D02*
D03*
Y501538D02*
D03*
Y495038D02*
D03*
X185590D02*
D03*
Y501538D02*
D03*
Y508038D02*
D03*
Y514538D02*
D03*
D102*
X414490Y431165D02*
D03*
X423490D02*
D03*
X432490D02*
D03*
X441490D02*
D03*
Y443165D02*
D03*
X432490D02*
D03*
X423490D02*
D03*
X414490D02*
D03*
D103*
X501162Y158945D02*
D03*
Y147945D02*
D03*
Y136945D02*
D03*
Y125945D02*
D03*
Y114945D02*
D03*
Y84945D02*
D03*
Y73945D02*
D03*
Y62945D02*
D03*
Y51945D02*
D03*
Y40945D02*
D03*
Y29945D02*
D03*
Y18945D02*
D03*
X621192D02*
D03*
Y29945D02*
D03*
Y40945D02*
D03*
Y147945D02*
D03*
Y136945D02*
D03*
Y125945D02*
D03*
Y114945D02*
D03*
Y84945D02*
D03*
Y73945D02*
D03*
Y62945D02*
D03*
Y51945D02*
D03*
D104*
Y158945D02*
D03*
D105*
X807720Y290850D02*
D03*
X820420D02*
D03*
X833120D02*
D03*
X845820D02*
D03*
X858520D02*
D03*
X871220D02*
D03*
X883920D02*
D03*
X896620D02*
D03*
Y229850D02*
D03*
X883920D02*
D03*
X871220D02*
D03*
X858520D02*
D03*
X845820D02*
D03*
X833120D02*
D03*
X820420D02*
D03*
X807720D02*
D03*
D106*
X956310Y486410D02*
D03*
Y527070D02*
D03*
X969010Y486410D02*
D03*
Y527070D02*
D03*
X981710Y486410D02*
D03*
Y527070D02*
D03*
X994410Y486410D02*
D03*
Y527070D02*
D03*
X1007110Y486410D02*
D03*
Y527070D02*
D03*
X852170Y527060D02*
D03*
Y486400D02*
D03*
X839470Y527060D02*
D03*
Y486400D02*
D03*
X826770Y527060D02*
D03*
Y486400D02*
D03*
X814070Y527060D02*
D03*
Y486400D02*
D03*
X801370Y527060D02*
D03*
Y486400D02*
D03*
D107*
X1167780Y403860D02*
D03*
X1153780D02*
D03*
X640730Y389890D02*
D03*
X626730D02*
D03*
X130160Y533863D02*
D03*
X144160D02*
D03*
X181580Y475443D02*
D03*
X195580D02*
D03*
X212740Y541020D02*
D03*
X198740D02*
D03*
X305450Y495300D02*
D03*
X291450D02*
D03*
X292070Y474980D02*
D03*
X306070D02*
D03*
X1200180Y386080D02*
D03*
X1186180D02*
D03*
X640080Y372110D02*
D03*
X626080D02*
D03*
X457850Y476250D02*
D03*
X443850D02*
D03*
D108*
X1150620Y441340D02*
D03*
Y427340D02*
D03*
X1166663D02*
D03*
Y441340D02*
D03*
X1181100Y471283D02*
D03*
Y457282D02*
D03*
X949960Y342250D02*
D03*
Y356250D02*
D03*
X924560D02*
D03*
Y342250D02*
D03*
X949960Y301610D02*
D03*
Y315610D02*
D03*
X990600Y233030D02*
D03*
Y247030D02*
D03*
X974090D02*
D03*
Y233030D02*
D03*
X1012190Y247030D02*
D03*
Y233030D02*
D03*
X1019940Y412100D02*
D03*
Y426100D02*
D03*
X1003898D02*
D03*
Y412100D02*
D03*
X987855Y426100D02*
D03*
Y412100D02*
D03*
X953770Y426750D02*
D03*
Y412750D02*
D03*
X1012190Y137810D02*
D03*
Y123810D02*
D03*
X1082040Y177180D02*
D03*
Y163180D02*
D03*
X1098550D02*
D03*
Y177180D02*
D03*
X1082040Y100300D02*
D03*
Y114300D02*
D03*
Y142890D02*
D03*
Y128890D02*
D03*
X1193800Y108570D02*
D03*
Y122570D02*
D03*
X34290Y445150D02*
D03*
Y431150D02*
D03*
X62230Y403210D02*
D03*
Y417210D02*
D03*
X212090Y472873D02*
D03*
Y486873D02*
D03*
X15240Y184150D02*
D03*
Y198150D02*
D03*
X109220Y134042D02*
D03*
Y148041D02*
D03*
X127000Y147970D02*
D03*
Y133970D02*
D03*
X544830Y208900D02*
D03*
Y222900D02*
D03*
X560070Y252700D02*
D03*
Y266700D02*
D03*
X1197143Y471283D02*
D03*
Y457282D02*
D03*
X685800Y120000D02*
D03*
Y134000D02*
D03*
X80010Y378460D02*
D03*
Y364460D02*
D03*
X1183975Y370137D02*
D03*
Y356137D02*
D03*
X1167933Y356137D02*
D03*
Y370137D02*
D03*
X127000Y257190D02*
D03*
Y243190D02*
D03*
X30480Y90790D02*
D03*
Y104790D02*
D03*
X306070Y454040D02*
D03*
Y440040D02*
D03*
X15240Y241920D02*
D03*
Y255920D02*
D03*
Y213980D02*
D03*
Y227980D02*
D03*
D109*
X1136280Y479860D02*
D03*
Y462310D02*
D03*
D110*
Y471090D02*
D03*
D111*
X1124400Y459660D02*
D03*
Y482520D02*
D03*
X1148160D02*
D03*
Y459660D02*
D03*
D112*
X1124400Y466090D02*
D03*
Y471090D02*
D03*
Y476090D02*
D03*
X1148160D02*
D03*
Y466090D02*
D03*
Y471090D02*
D03*
D113*
X669930Y522580D02*
D03*
X694330D02*
D03*
X718730D02*
D03*
X668930Y490880D02*
D03*
X694330D02*
D03*
X719730D02*
D03*
D114*
X737030Y457580D02*
D03*
D115*
X699830Y420830D02*
D03*
D116*
X740280Y529580D02*
D03*
X628780D02*
D03*
D117*
X740280Y481080D02*
D03*
X628780D02*
D03*
D118*
X735280Y439580D02*
D03*
D119*
X716330Y410080D02*
D03*
X672330D02*
D03*
D120*
X628780Y429580D02*
D03*
D121*
X682130Y541080D02*
D03*
X706530D02*
D03*
D122*
X1109369Y298960D02*
D03*
X1089369D02*
D03*
X1069369D02*
D03*
X1049369D02*
D03*
X1029369D02*
D03*
X1009369D02*
D03*
X1109369Y314960D02*
D03*
X1089369D02*
D03*
X1069369D02*
D03*
X1049369D02*
D03*
X1029369D02*
D03*
X1009369D02*
D03*
X1109369Y330960D02*
D03*
X1089369D02*
D03*
X1069369D02*
D03*
X1049369D02*
D03*
X1029369D02*
D03*
X1009369D02*
D03*
X1109369Y346960D02*
D03*
X1089369D02*
D03*
X1069369D02*
D03*
X1049369D02*
D03*
X1029369D02*
D03*
X1009369D02*
D03*
X1109369Y362960D02*
D03*
X1089369D02*
D03*
X1069369D02*
D03*
X989369Y298960D02*
D03*
Y362960D02*
D03*
Y346960D02*
D03*
Y330960D02*
D03*
X1009369Y362960D02*
D03*
X1029369D02*
D03*
X1049369D02*
D03*
X989369Y314960D02*
D03*
D123*
X1096869Y287460D02*
D03*
X1091869D02*
D03*
X1086869D02*
D03*
X1081869D02*
D03*
X1046869D02*
D03*
X1041869D02*
D03*
X1036869D02*
D03*
X1031869D02*
D03*
X991869D02*
D03*
X996869D02*
D03*
X1001869D02*
D03*
X1006869D02*
D03*
X1096869Y374460D02*
D03*
X1091869D02*
D03*
X1086869D02*
D03*
X1081869D02*
D03*
X1046869D02*
D03*
X1041869D02*
D03*
X1036869D02*
D03*
X1031869D02*
D03*
X991869D02*
D03*
X996869D02*
D03*
X1001869D02*
D03*
X1006869D02*
D03*
D124*
X1128068Y382160D02*
D03*
Y279760D02*
D03*
X970668D02*
D03*
Y382160D02*
D03*
D125*
X598780Y411133D02*
D03*
X579780D02*
D03*
X589280Y389133D02*
D03*
X518770Y216740D02*
D03*
X499770D02*
D03*
X509270Y194740D02*
D03*
D126*
X804678Y84980D02*
D03*
D127*
X842678Y21680D02*
D03*
X832678D02*
D03*
X762678D02*
D03*
X752678D02*
D03*
Y191680D02*
D03*
X832678D02*
D03*
D128*
X730177Y47480D02*
D03*
Y57480D02*
D03*
Y167480D02*
D03*
X865177Y157480D02*
D03*
Y57480D02*
D03*
Y47480D02*
D03*
D129*
X730177Y67480D02*
D03*
Y77480D02*
D03*
Y87480D02*
D03*
Y97480D02*
D03*
Y107480D02*
D03*
Y117480D02*
D03*
Y127480D02*
D03*
Y137480D02*
D03*
Y147480D02*
D03*
Y157480D02*
D03*
X865177Y167480D02*
D03*
Y147480D02*
D03*
Y137480D02*
D03*
Y127480D02*
D03*
Y117480D02*
D03*
Y107480D02*
D03*
Y97480D02*
D03*
Y87480D02*
D03*
Y77480D02*
D03*
Y67480D02*
D03*
D130*
X762678Y191680D02*
D03*
X772678D02*
D03*
X782678D02*
D03*
X792678D02*
D03*
X802678D02*
D03*
X812678D02*
D03*
X822678D02*
D03*
X842678D02*
D03*
D131*
X955040Y326390D02*
D03*
X949960D02*
D03*
X972820Y267970D02*
D03*
X977900D02*
D03*
D132*
X1179830Y520690D02*
D03*
X668020Y41920D02*
D03*
D133*
X1165080Y535940D02*
D03*
X1194580D02*
D03*
X653270Y26670D02*
D03*
X682770D02*
D03*
D134*
X488720Y540070D02*
D03*
D135*
X486970Y479820D02*
D03*
Y442820D02*
D03*
D136*
X521970Y433070D02*
D03*
X581670D02*
D03*
D137*
X601920Y537820D02*
D03*
D138*
X589820Y541320D02*
D03*
D139*
X579320D02*
D03*
X568320D02*
D03*
X557320D02*
D03*
X546320D02*
D03*
X535320D02*
D03*
X524320D02*
D03*
X513320D02*
D03*
D140*
X165480Y71480D02*
D03*
X85980D02*
D03*
X165480Y116480D02*
D03*
X85980D02*
D03*
X96862Y451760D02*
D03*
X176362D02*
D03*
X96862Y406760D02*
D03*
X176362D02*
D03*
X85980Y322220D02*
D03*
X165480D02*
D03*
X85980Y277220D02*
D03*
X165480D02*
D03*
D141*
X34689Y173280D02*
D03*
Y178280D02*
D03*
Y183280D02*
D03*
Y188280D02*
D03*
Y193280D02*
D03*
Y198280D02*
D03*
Y203280D02*
D03*
Y208280D02*
D03*
Y213280D02*
D03*
Y218280D02*
D03*
D142*
X53939Y148780D02*
D03*
Y242780D02*
D03*
D143*
X927920Y140970D02*
D03*
Y128270D02*
D03*
Y115570D02*
D03*
Y102870D02*
D03*
X982160D02*
D03*
Y115570D02*
D03*
Y128270D02*
D03*
Y140970D02*
D03*
D144*
X1237370Y390030D02*
D03*
D145*
Y351880D02*
D03*
D146*
X1259870Y75530D02*
D03*
D147*
X1227470Y146030D02*
D03*
D148*
X1283970Y525780D02*
D03*
D149*
X1258970Y536030D02*
D03*
D150*
X1233970Y532030D02*
D03*
D151*
X1278470Y540280D02*
D03*
D152*
X1243120Y61030D02*
D03*
D153*
X1274370D02*
D03*
D154*
X443440Y520810D02*
D03*
X342440D02*
D03*
D155*
X1104488Y463550D02*
D03*
Y476790D02*
D03*
D156*
X247650Y437210D02*
D03*
Y383210D02*
D03*
D157*
X461010Y399588D02*
D03*
Y380588D02*
D03*
X425450Y399873D02*
D03*
Y380873D02*
D03*
X354330Y399390D02*
D03*
Y380390D02*
D03*
X389890Y399873D02*
D03*
Y380873D02*
D03*
D158*
X1040540Y150390D02*
D03*
X1047040D02*
D03*
X1053540D02*
D03*
X1060040D02*
D03*
Y106150D02*
D03*
X1053540D02*
D03*
X1047040D02*
D03*
X1040540D02*
D03*
D159*
X93980Y488570D02*
D03*
Y504570D02*
D03*
D160*
X299720Y511308D02*
D03*
Y532909D02*
D03*
D161*
X587280Y255350D02*
D03*
Y260350D02*
D03*
Y265350D02*
D03*
X603980D02*
D03*
Y260350D02*
D03*
Y255350D02*
D03*
D162*
X124050Y379990D02*
D03*
X117550D02*
D03*
X111050D02*
D03*
X104550D02*
D03*
Y348990D02*
D03*
X111050D02*
D03*
X117550D02*
D03*
X124050D02*
D03*
D163*
X1002820Y72640D02*
D03*
X987820D02*
D03*
X972820D02*
D03*
X957820D02*
D03*
X942820D02*
D03*
X1165428D02*
D03*
X1150428D02*
D03*
X1135428D02*
D03*
X1120427D02*
D03*
X1105428D02*
D03*
D164*
X1028820Y22140D02*
D03*
X916820D02*
D03*
X1191428D02*
D03*
X1079428D02*
D03*
D165*
X330860Y426920D02*
D03*
X340360D02*
D03*
X349860D02*
D03*
Y451920D02*
D03*
X340360D02*
D03*
X330860D02*
D03*
D166*
X317500Y380390D02*
D03*
Y399390D02*
D03*
D167*
X1076103Y510540D02*
D03*
X26577Y398780D02*
D03*
Y373380D02*
D03*
X1126902Y510540D02*
D03*
X1101503Y535940D02*
D03*
Y510540D02*
D03*
X1076103Y535940D02*
D03*
X52070Y509270D02*
D03*
X702310Y332740D02*
D03*
Y307340D02*
D03*
X434340Y40640D02*
D03*
X408940D02*
D03*
X383540D02*
D03*
X358140D02*
D03*
X332740D02*
D03*
X255270Y39370D02*
D03*
X229870D02*
D03*
X204470D02*
D03*
D168*
X1126902Y535940D02*
D03*
X26670Y509270D02*
D03*
X459740Y40640D02*
D03*
X280670Y39370D02*
D03*
D169*
X26577Y347980D02*
D03*
X702310Y358140D02*
D03*
D170*
X408940Y511810D02*
D03*
X400940Y529810D02*
D03*
X392940Y511810D02*
D03*
X384940Y529810D02*
D03*
X376940Y511810D02*
D03*
D171*
X1141730Y185420D02*
D03*
X1177290Y210820D02*
D03*
D172*
X1141730D02*
D03*
X1177290Y185420D02*
D03*
M02*
